<svg width="178" height="49" viewBox="0 0 178 49" fill="none" xmlns="http://www.w3.org/2000/svg">
<path d="M12.48 35.352C18.592 35.352 22.496 31.8 23.52 26.456H17.76C16.96 28.504 15.136 29.784 12.704 29.784C9.408 29.784 7.2 27.384 7.2 23.8C7.2 20.184 9.408 17.816 12.704 17.816C14.944 17.816 16.672 18.904 17.568 20.728H23.392C22.208 15.64 18.4 12.248 12.48 12.248C5.888 12.248 1.216 17.016 1.216 23.8C1.216 30.584 5.888 35.352 12.48 35.352ZM41.2383 26.84C43.5103 25.528 44.8863 23.224 44.8863 20.504C44.8863 15.768 41.3663 12.6 36.3423 12.6H26.8063V35H32.6623V28.088H35.7983L39.5743 35H46.1343V34.84L41.2383 26.84ZM32.6623 17.656H36.0543C37.8783 17.656 38.9663 18.68 38.9663 20.376C38.9663 22.104 37.8783 23.128 36.0543 23.128H32.6623V17.656ZM70.0743 12.536L60.8903 22.232L51.6743 12.536H49.3063V35H55.1623V28.792L55.0663 23.832L60.6663 29.56H61.0823L66.7143 23.832L66.5863 28.792V35H72.4423V12.536H70.0743Z" fill="#261F26"/>
<line x1="81.25" y1="-1.09278e-08" x2="81.25" y2="49" stroke="#261F26" stroke-width="0.5"/>
<path d="M91.746 13.112C93.622 13.112 95.05 12.104 95.568 10.102H94.882C94.364 11.726 93.216 12.468 91.774 12.468C89.59 12.468 88.344 10.718 88.344 8.1C88.344 5.524 89.576 3.732 91.774 3.732C93.174 3.732 94.336 4.446 94.756 5.902H95.414C94.98 4.026 93.538 3.088 91.746 3.088C89.17 3.088 87.644 5.16 87.644 8.1C87.644 11.096 89.17 13.112 91.746 13.112ZM100.334 13.112C102.21 13.112 103.442 11.908 103.442 9.626V3.2H102.77V9.64C102.77 11.558 101.804 12.468 100.334 12.468C98.8078 12.468 97.8558 11.53 97.8558 9.64V3.2H97.1838V9.626C97.1838 11.88 98.4438 13.112 100.334 13.112ZM108.419 13.112C110.365 13.112 111.639 12.034 111.639 10.368C111.639 8.576 110.253 7.96 108.433 7.68C107.187 7.484 105.955 7.022 105.955 5.608C105.955 4.432 106.879 3.718 108.349 3.718C109.791 3.718 110.701 4.446 110.701 5.608H111.345C111.345 4.082 110.155 3.088 108.349 3.088C106.501 3.088 105.283 4.082 105.283 5.622C105.283 7.302 106.585 8.044 108.307 8.31C109.749 8.534 110.967 8.87 110.967 10.368C110.967 11.67 109.987 12.468 108.419 12.468C106.795 12.468 105.759 11.698 105.759 10.424H105.101C105.101 12.062 106.417 13.112 108.419 13.112ZM118.417 3.2H112.299V3.844H115.015V13H115.687V3.844H118.417V3.2ZM123.126 13.112C125.702 13.112 127.354 11.152 127.354 8.1C127.354 5.048 125.702 3.088 123.126 3.088C120.536 3.088 118.884 5.048 118.884 8.1C118.884 11.152 120.536 13.112 123.126 13.112ZM123.126 12.468C120.956 12.468 119.584 10.788 119.584 8.1C119.584 5.412 120.942 3.732 123.126 3.732C125.296 3.732 126.654 5.412 126.654 8.1C126.654 10.788 125.296 12.468 123.126 12.468ZM137.368 3.186L133.406 9.01L129.43 3.186H129.164V13H129.836V4.894L133.35 10.074H133.434L136.962 4.866L136.948 8.982V13H137.62V3.186H137.368ZM140.637 12.356V8.226H144.627V7.596H140.637V3.844H144.795V3.2H139.965V13H144.851V12.356H140.637ZM150.637 9.094C151.995 8.828 152.835 7.736 152.835 6.154C152.835 4.292 151.729 3.2 149.839 3.2H146.773V13H147.445V9.164H149.923L152.457 13H153.199V12.958L150.637 9.094ZM147.445 3.83H149.825C151.337 3.83 152.149 4.642 152.149 6.168C152.149 7.638 151.323 8.534 149.895 8.534H147.445V3.83ZM92.026 26.094C93.384 25.828 94.224 24.736 94.224 23.154C94.224 21.292 93.118 20.2 91.228 20.2H88.162V30H88.834V26.164H91.312L93.846 30H94.588V29.958L92.026 26.094ZM88.834 20.83H91.214C92.726 20.83 93.538 21.642 93.538 23.168C93.538 24.638 92.712 25.534 91.284 25.534H88.834V20.83ZM96.832 29.356V25.226H100.822V24.596H96.832V20.844H100.99V20.2H96.16V30H101.046V29.356H96.832ZM103.641 29.356V20.2H102.969V30H107.771V29.356H103.641ZM112.493 20.172H112.213L108.279 29.972V30H108.979L110.057 27.284H114.621L115.685 30H116.399V29.972L112.493 20.172ZM112.353 21.376L114.383 26.654H110.295L112.353 21.376ZM122.094 20.2H115.976V20.844H118.692V30H119.364V20.844H122.094V20.2ZM123.49 30H124.162V20.2H123.49V30ZM130.222 30.112C132.798 30.112 134.45 28.152 134.45 25.1C134.45 22.048 132.798 20.088 130.222 20.088C127.632 20.088 125.98 22.048 125.98 25.1C125.98 28.152 127.632 30.112 130.222 30.112ZM130.222 29.468C128.052 29.468 126.68 27.788 126.68 25.1C126.68 22.412 128.038 20.732 130.222 20.732C132.392 20.732 133.75 22.412 133.75 25.1C133.75 27.788 132.392 29.468 130.222 29.468ZM142.112 20.2V25.716L142.126 28.376L136.526 20.186H136.26V30H136.932V24.4L136.904 21.782L142.518 30.014H142.784V20.2H142.112ZM147.835 30.112C149.781 30.112 151.055 29.034 151.055 27.368C151.055 25.576 149.669 24.96 147.849 24.68C146.603 24.484 145.371 24.022 145.371 22.608C145.371 21.432 146.295 20.718 147.765 20.718C149.207 20.718 150.117 21.446 150.117 22.608H150.761C150.761 21.082 149.571 20.088 147.765 20.088C145.917 20.088 144.699 21.082 144.699 22.622C144.699 24.302 146.001 25.044 147.723 25.31C149.165 25.534 150.383 25.87 150.383 27.368C150.383 28.67 149.403 29.468 147.835 29.468C146.211 29.468 145.175 28.698 145.175 27.424H144.517C144.517 29.062 145.833 30.112 147.835 30.112ZM158.627 20.2V24.568H153.475V20.2H152.803V30H153.475V25.226H158.627V30H159.299V20.2H158.627ZM161.621 30H162.293V20.2H161.621V30ZM167.569 20.2H164.629V30H165.301V26.458H167.569C169.557 26.458 170.775 25.254 170.775 23.322C170.775 21.404 169.557 20.2 167.569 20.2ZM167.569 25.828H165.301V20.83H167.569C169.165 20.83 170.089 21.754 170.089 23.336C170.089 24.904 169.165 25.828 167.569 25.828ZM96.366 37.186L92.404 43.01L88.428 37.186H88.162V47H88.834V38.894L92.348 44.074H92.432L95.96 38.866L95.946 42.982V47H96.618V37.186H96.366ZM102.239 37.172H101.959L98.0248 46.972V47H98.7248L99.8028 44.284H104.367L105.431 47H106.145V46.972L102.239 37.172ZM102.099 38.376L104.129 43.654H100.041L102.099 38.376ZM113.332 37.2V42.716L113.346 45.376L107.746 37.186H107.48V47H108.152V41.4L108.124 38.782L113.738 47.014H114.004V37.2H113.332ZM119.602 37.172H119.322L115.388 46.972V47H116.088L117.166 44.284H121.73L122.794 47H123.508V46.972L119.602 37.172ZM119.462 38.376L121.492 43.654H117.404L119.462 38.376ZM132.257 41.974H128.225V42.604H131.613C131.501 45.124 130.227 46.468 128.225 46.468C126.125 46.468 124.711 44.858 124.711 42.1C124.711 39.342 126.125 37.732 128.225 37.732C129.541 37.732 130.787 38.292 131.291 39.818H131.963C131.375 37.802 129.835 37.088 128.225 37.088C125.719 37.088 124.011 38.964 124.011 42.1C124.011 45.236 125.719 47.112 128.225 47.112C130.997 47.112 132.271 44.886 132.271 42.24C132.271 42.156 132.271 42.1 132.257 41.974ZM134.594 46.356V42.226H138.584V41.596H134.594V37.844H138.752V37.2H133.922V47H138.808V46.356H134.594ZM148.934 37.186L144.972 43.01L140.996 37.186H140.73V47H141.402V38.894L144.916 44.074H145L148.528 38.866L148.514 42.982V47H149.186V37.186H148.934ZM152.203 46.356V42.226H156.193V41.596H152.203V37.844H156.361V37.2H151.531V47H156.417V46.356H152.203ZM164.192 37.2V42.716L164.206 45.376L158.606 37.186H158.34V47H159.012V41.4L158.984 38.782L164.598 47.014H164.864V37.2H164.192ZM172.379 37.2H166.261V37.844H168.977V47H169.649V37.844H172.379V37.2Z" fill="#261F26"/>
</svg>
