<svg width="256" height="255" viewBox="0 0 256 255" fill="none" xmlns="http://www.w3.org/2000/svg">
<path d="M252.074 107.769C245.773 66.5297 219.941 15.8639 168.907 10.5614C168.907 10.5614 130.161 5.84847 91.9639 12.9915C69.2945 17.2314 49.417 29.8503 36.8392 47.9881C24.2614 66.1259 20.0592 88.2399 25.1585 109.328C28.4707 123.023 30.708 137.197 30.0939 151.27C29.0296 175.761 29.6428 198.623 53.4089 213.229C74.6321 226.271 101.341 237.773 126.819 239.788C144.136 241.157 163.555 238.942 180.245 234.433C265.305 211.457 258.374 149.009 252.074 107.769Z" fill="#F4F7FA"/>
<path d="M135.792 195.859C128.565 197.858 122.939 189.532 127.492 183.575C128.952 181.667 130.285 179.666 131.483 177.583C140.662 161.626 135.919 151.15 144.185 122.263C149.413 103.998 153.243 91.3049 164.281 86.8259C172.93 83.3166 184.969 85.2718 190.824 92.0924C195.694 97.7637 196.862 107.462 196.292 114.024C195.827 119.372 194.184 122.919 196.446 126.381C198.757 129.919 202.42 129.194 204.72 131.966C209.383 137.586 202.53 150.47 201.426 152.552C189.113 175.715 162.075 186.52 150.223 191.091C146.231 192.631 141.402 194.304 135.792 195.859Z" fill="url(#paint0_linear_61_2817)"/>
<g style="mix-blend-mode:soft-light" opacity="0.5">
<g style="mix-blend-mode:soft-light">
<path d="M98.4202 203.925L98.351 203.301C109.934 202.004 120.242 199.558 128.989 196.03C141.88 190.829 150.983 183.404 156.042 173.955C160.006 166.555 161.425 158.193 163.389 146.619C164.956 137.38 165.234 130.69 165.479 124.786C165.799 117.065 166.052 110.967 169.07 102.798C172.131 94.5086 177.114 86.7673 183.881 79.7881L184.331 80.2261C177.626 87.1466 172.69 94.8099 169.659 103.016C166.681 111.094 166.426 117.149 166.108 124.815C165.862 130.737 165.582 137.448 164.005 146.727C162.106 157.921 160.606 166.764 156.594 174.254C151.463 183.833 142.254 191.355 129.222 196.612C120.425 200.162 110.061 202.621 98.4202 203.925Z" fill="white"/>
</g>
<g style="mix-blend-mode:soft-light">
<path d="M164.788 140.244L164.508 140.026C164.455 139.985 159.11 135.762 154.679 128.012C150.591 120.86 146.455 109.148 149.978 93.9707L150.591 94.1126C147.115 109.092 151.194 120.646 155.227 127.701C159.024 134.343 163.485 138.345 164.622 139.305C173.776 124.225 185.196 116.227 193.19 112.165C201.919 107.731 208.577 106.903 208.643 106.895L208.717 107.519C208.651 107.527 202.083 108.348 193.447 112.739C185.481 116.791 174.073 124.799 164.977 139.94L164.788 140.244Z" fill="white"/>
</g>
<g style="mix-blend-mode:soft-light">
<path d="M159.796 165.074L159.718 164.859C159.681 164.757 155.959 154.559 150.227 145.066C144.533 135.635 127.35 128.445 127.177 128.374L127.417 127.793C127.592 127.866 144.964 135.133 150.765 144.741C156.066 153.521 159.656 162.897 160.226 164.429C180.424 163.465 211.662 124.801 211.977 124.408L212.467 124.802C212.387 124.901 204.423 134.794 194.046 144.645C180.078 157.904 168.631 164.775 160.021 165.066L159.796 165.074Z" fill="white"/>
</g>
<g style="mix-blend-mode:soft-light">
<path d="M144.751 195.806C137.753 195.806 133.275 195.222 133.216 195.213L132.595 195.131L133.033 194.683C139.954 187.604 141.496 178.699 137.625 168.214C134.727 160.366 129.717 154.548 129.667 154.487L130.141 154.074C130.192 154.133 135.277 160.042 138.215 167.997C142.039 178.354 140.552 187.559 133.922 194.663C136.195 194.909 144.492 195.647 155.341 194.734C167.079 193.747 184.286 190.569 199.613 181.038L229.397 162.517L229.724 163.051L199.939 181.572C184.501 191.172 167.182 194.37 155.372 195.362C151.445 195.692 147.849 195.806 144.751 195.806Z" fill="white"/>
</g>
</g>
<path d="M121.119 196.594C131.153 202.471 144.772 208.527 160.282 210.057C164.239 210.447 188.688 212.861 191.491 202.708C192.478 199.132 189.946 197.014 191.183 192.212C192.648 186.518 197.14 185.845 202.802 180.963C206.18 178.049 216.066 169.522 213.079 159.921C211.293 154.184 204.992 148.323 198.718 146.425C189.515 143.64 182.173 149.929 169.934 160.78C159.085 170.4 158.42 173.914 150.487 180.706C144.599 185.746 135.361 192.032 121.119 196.594Z" fill="url(#paint1_linear_61_2817)"/>
<g style="mix-blend-mode:soft-light" opacity="0.5">
<g style="mix-blend-mode:soft-light">
<path d="M126.276 196.729C120.04 196.736 113.835 195.843 107.853 194.079C96.2171 190.652 85.5507 184.168 76.1503 174.807L76.5935 174.362C85.9187 183.648 96.4956 190.081 108.031 193.478C123.395 198.003 139.756 196.67 156.657 189.516C174.265 182.064 188.051 170.162 196.516 161.49C202.369 155.493 206.513 147.504 208.835 137.75L209.448 137.895C207.1 147.765 202.901 155.853 196.968 161.932C188.464 170.645 174.611 182.606 156.906 190.098C146.457 194.514 136.212 196.729 126.276 196.729Z" fill="white"/>
</g>
<g style="mix-blend-mode:soft-light">
<path d="M177.977 177.958L177.932 177.679C177.9 177.473 174.827 156.995 187.831 143.871L188.278 144.309C176.318 156.374 178.194 174.808 178.511 177.296C207.79 175.703 216.705 159.747 218.748 154.881C218.805 154.745 218.843 154.661 218.86 154.631L219.401 154.951L219.131 154.791L219.404 154.945C219.39 154.972 219.366 155.032 219.327 155.12C217.245 160.087 208.128 176.407 178.255 177.935L177.977 177.958Z" fill="white"/>
</g>
<g style="mix-blend-mode:soft-light">
<path d="M186.057 201.549H185.953C179.37 201.529 168.982 199.497 156.879 189.925L156.748 189.821L156.761 189.654C156.773 189.497 158.147 173.798 169.112 157.709L180.156 141.503L180.676 141.853L169.629 158.059C159.367 173.12 157.579 187.819 157.402 189.535C164.01 194.735 174.286 200.882 185.954 200.917H186.054C192.995 200.917 197.173 198.718 197.215 198.696L197.512 199.249C197.338 199.347 193.152 201.549 186.057 201.549Z" fill="white"/>
</g>
</g>
<path d="M197.476 65.6229C198.54 66.1633 199.878 65.6675 200.463 64.5147C201.048 63.3619 200.659 61.9892 199.595 61.4487C199.54 61.4212 199.484 61.3967 199.427 61.3751C199.623 60.7444 199.772 60.1003 199.875 59.4478C199.935 59.4478 199.996 59.4478 200.059 59.4408C201.274 59.3322 202.237 58.2144 202.212 56.9477C202.186 55.681 201.181 54.7393 199.967 54.8453C199.903 54.8514 199.84 54.8611 199.779 54.8724C199.653 54.2468 199.479 53.6317 199.259 53.0328C199.315 52.9995 199.37 52.9662 199.424 52.9277C200.463 52.1997 200.796 50.7631 200.166 49.7189C199.536 48.6747 198.185 48.418 197.146 49.146C197.092 49.1836 197.042 49.2239 196.992 49.2642C196.58 48.8105 196.13 48.3923 195.647 48.0142C195.681 47.9581 195.714 47.9011 195.745 47.8389C196.33 46.6861 197.095 45.4273 196.022 44.9034C193.54 43.6919 192.476 44.7282 191.89 45.8819C191.86 45.9415 191.834 46.002 191.808 46.0633C191.215 45.8971 190.61 45.7814 189.998 45.7173C190.002 45.6533 190.005 45.5894 190.004 45.5237C189.978 44.2552 190.354 43.5693 189.136 43.5456C186.477 43.4939 185.58 44.6476 185.605 45.9161C185.605 45.9827 185.612 46.0475 185.618 46.1115C185.006 46.2866 184.407 46.5086 183.829 46.7755C183.801 46.7194 183.773 46.6633 183.741 46.6082C183.112 45.5639 181.76 45.3073 180.721 46.0352C179.682 46.7632 179.349 48.2007 179.979 49.2449C180.011 49.2984 180.046 49.3483 180.082 49.3974C179.616 49.864 179.185 50.3641 178.792 50.8936C178.741 50.8612 178.689 50.8296 178.634 50.8016C177.569 50.2611 176.232 50.7578 175.647 51.9098C175.062 53.0617 175.45 54.4353 176.514 54.9758C176.569 55.0038 176.626 55.0275 176.682 55.0503C176.486 55.6794 176.337 56.3221 176.235 56.9731C176.174 56.9731 176.113 56.9731 176.051 56.9801C174.836 57.0887 173.873 58.2065 173.898 59.4732C173.924 60.74 174.928 61.6817 176.143 61.5757C176.206 61.5695 176.269 61.5599 176.331 61.5485C176.456 62.1742 176.63 62.7892 176.85 63.3881C176.795 63.4214 176.739 63.4547 176.685 63.4933C175.646 64.2212 175.314 65.6579 175.943 66.7021C176.572 67.7463 178.658 68.2316 179.695 67.5036C179.748 67.4669 179.068 67.1979 179.117 67.1532C179.53 67.6095 179.98 68.0303 180.464 68.4112C180.43 68.4673 180.396 68.5242 180.366 68.5864C179.781 69.7392 180.17 71.1119 181.234 71.6524C182.298 72.1929 183.636 71.6971 184.221 70.5443C184.252 70.4847 184.277 70.4243 184.303 70.3629C184.895 70.529 185.501 70.6447 186.113 70.709C186.113 70.7729 186.106 70.8369 186.108 70.9026C186.133 72.171 187.138 73.111 188.353 73.005C189.568 72.899 190.532 71.7786 190.506 70.5119C190.506 70.4453 190.499 70.3805 190.492 70.3165C191.105 70.1417 191.704 69.9197 192.282 69.6525C192.31 69.7086 192.339 69.7655 192.37 69.8198C193 70.864 194.352 71.1207 195.391 70.3927C196.43 69.6648 196.762 68.2281 196.133 67.183C196.101 67.1296 196.066 67.0797 196.03 67.0306C196.495 66.5641 196.926 66.064 197.318 65.5344C197.368 65.5633 197.421 65.5948 197.476 65.6229ZM184.205 65.791C180.34 63.8288 178.93 58.8451 181.052 54.6604C183.173 50.4757 188.033 48.6738 191.898 50.636C195.763 52.5983 197.174 57.5819 195.051 61.7666C192.929 65.9514 188.07 67.7533 184.205 65.791Z" fill="url(#paint2_linear_61_2817)"/>
<path d="M200.058 59.4441C201.273 59.3355 202.237 58.2177 202.212 56.951C202.186 55.6843 201.181 54.7426 199.966 54.8486C199.903 54.8547 199.84 54.8643 199.779 54.8757C199.653 54.25 199.479 53.635 199.259 53.0361C199.315 53.0028 199.37 52.9695 199.424 52.931C200.463 52.203 201.749 50.444 201.016 49.4698C199.625 47.6206 198.185 48.4186 197.146 49.1492C197.092 49.1869 197.042 49.2272 196.992 49.2675C196.58 48.8126 196.13 48.3932 195.647 48.0139C195.681 47.9578 195.714 47.9009 195.745 47.8387C195.896 47.5468 195.986 47.2272 196.01 46.8993C196.033 46.5714 195.99 46.2421 195.882 45.9316C194.878 47.6988 193.889 49.4736 192.915 51.256C195.999 53.5153 196.98 57.968 195.053 61.7638C193.42 64.9805 190.174 66.7868 187.003 66.5608C186.861 66.927 186.723 67.2958 186.571 67.6593C186.161 68.6448 185.695 69.6102 185.226 70.5747C185.52 70.6299 185.815 70.6737 186.111 70.7043C186.111 70.7683 186.104 70.8322 186.106 70.8979C186.132 72.1664 186.902 73.2439 189.103 73.1274C190.321 73.0626 190.53 71.774 190.505 70.5055C190.505 70.4389 190.499 70.3741 190.492 70.3101C191.104 70.1353 191.703 69.9133 192.281 69.6461C192.309 69.7022 192.338 69.7583 192.369 69.8134C192.999 70.8576 195.182 71.3027 196.223 70.5738C197.265 69.845 196.764 68.2217 196.136 67.1767C196.103 67.1232 196.068 67.0733 196.032 67.0242C196.498 66.5578 196.929 66.0577 197.321 65.528C197.373 65.5604 197.425 65.5919 197.48 65.6156C198.545 66.1561 199.882 65.6594 200.468 64.5074C201.053 63.3555 200.664 61.9819 199.599 61.4414C199.545 61.414 199.489 61.3894 199.431 61.3678C199.627 60.7372 199.777 60.093 199.879 59.4406C199.939 59.4502 199.996 59.4494 200.058 59.4441Z" fill="url(#paint3_linear_61_2817)"/>
<path d="M198.625 65.7529C199.69 66.2934 201.027 65.7967 201.613 64.6438C202.198 63.491 201.809 62.1192 200.745 61.5778C200.689 61.5498 200.633 61.5261 200.576 61.5033C200.772 60.8727 200.922 60.2286 201.024 59.5761C201.084 59.5761 201.146 59.5761 201.208 59.57C202.423 59.4613 203.387 58.3436 203.361 57.0769C203.336 55.8101 202.33 54.8676 201.116 54.9744C201.053 54.9797 200.99 54.9902 200.929 55.0007C200.802 54.3751 200.628 53.7601 200.408 53.1611C200.464 53.1287 200.519 53.0954 200.574 53.0568C201.613 52.3289 201.946 50.8922 201.316 49.848C200.686 48.8038 199.326 48.5568 198.291 49.2839C198.237 49.3207 198.187 49.361 198.138 49.4021C197.725 48.9456 197.274 48.5248 196.79 48.1442C196.824 48.0881 196.858 48.0312 196.888 47.969C197.474 46.8161 197.085 45.4434 196.02 44.9029C194.955 44.3624 193.619 44.8591 193.033 46.012C193.003 46.0715 192.977 46.132 192.952 46.1924C192.359 46.0266 191.753 45.9111 191.141 45.8473C191.145 45.7833 191.148 45.7185 191.147 45.6537C191.122 44.3852 190.116 43.4444 188.902 43.5512C187.688 43.6581 186.723 44.7777 186.749 46.0444C186.749 46.1101 186.756 46.1749 186.762 46.2397C186.149 46.4145 185.55 46.6365 184.972 46.9037C184.944 46.8468 184.916 46.7907 184.884 46.7364C184.255 45.6922 182.903 45.4355 181.864 46.1635C180.825 46.8915 180.492 48.3281 181.122 49.3723C181.154 49.4258 181.189 49.4766 181.225 49.5256C180.76 49.9923 180.329 50.4924 179.936 51.0219C179.884 50.9895 179.832 50.9579 179.777 50.9299C178.712 50.3894 177.375 50.8852 176.79 52.038C176.205 53.1909 176.593 54.5636 177.657 55.1041C177.712 55.1321 177.769 55.1549 177.825 55.1777C177.629 55.8082 177.48 56.4524 177.379 57.1049C177.317 57.1049 177.256 57.1049 177.194 57.1119C175.98 57.2196 175.016 58.3383 175.042 59.6041C175.067 60.87 176.072 61.8134 177.287 61.7066C177.35 61.7013 177.412 61.6917 177.474 61.6803C177.6 62.3059 177.773 62.921 177.994 63.5199C177.938 63.5523 177.882 63.5865 177.828 63.6242C176.789 64.3521 176.457 65.7897 177.086 66.8339C177.715 67.8781 179.069 68.1347 180.107 67.4068C180.16 67.3691 180.211 67.3288 180.26 67.2876C180.673 67.7439 181.124 68.1647 181.607 68.5456C181.573 68.6017 181.54 68.6586 181.509 68.7208C180.924 69.8727 181.313 71.2455 182.377 71.7868C183.442 72.3282 184.779 71.8315 185.364 70.6787C185.395 70.6191 185.42 70.5578 185.446 70.4973C186.039 70.6629 186.644 70.7786 187.257 70.8434C187.257 70.9073 187.25 70.9713 187.251 71.0361C187.277 72.3045 188.282 73.2454 189.497 73.1385C190.712 73.0316 191.675 71.9121 191.649 70.6463C191.649 70.5797 191.643 70.5149 191.636 70.4509C192.249 70.2758 192.847 70.0535 193.425 69.786C193.453 69.843 193.482 69.899 193.513 69.9533C194.143 70.9984 195.495 71.2542 196.534 70.5262C197.573 69.7983 197.905 68.3616 197.276 67.3174C197.244 67.264 197.209 67.2141 197.173 67.1641C197.639 66.6978 198.07 66.198 198.463 65.6688C198.513 65.6933 198.566 65.7266 198.625 65.7529ZM185.355 65.9211C181.49 63.9588 180.079 58.9752 182.201 54.7905C184.323 50.6058 189.182 48.8029 193.047 50.7661C196.912 52.7292 198.323 57.7111 196.201 61.8967C194.078 66.0822 189.215 67.8833 185.35 65.9211H185.355Z" fill="url(#paint4_linear_61_2817)"/>
<path d="M168.999 43.8728C171.084 44.931 173.704 43.9604 174.85 41.7011C175.997 39.4419 175.236 36.7552 173.15 35.6961C173.042 35.6409 172.932 35.5954 172.821 35.5507C173.205 34.3182 173.498 33.0592 173.697 31.7838C173.817 31.7838 173.937 31.7838 174.059 31.7707C176.439 31.5587 178.326 29.3722 178.276 26.8878C178.226 24.4034 176.262 22.5603 173.879 22.7706C173.754 22.7819 173.632 22.8012 173.511 22.8231C173.264 21.5992 172.924 20.3961 172.492 19.2245C172.602 19.1605 172.71 19.0939 172.817 19.0195C174.852 17.5933 175.503 14.7787 174.27 12.7332C173.038 10.6877 170.388 10.1849 168.353 11.611C168.249 11.6838 168.151 11.7626 168.053 11.8432C167.244 10.9491 166.361 10.1248 165.414 9.37897C165.48 9.26947 165.546 9.15734 165.606 9.04083C166.752 6.78248 168.25 4.31651 166.149 3.2907C161.287 0.916709 159.201 2.94906 158.055 5.20654C157.995 5.32392 157.944 5.44218 157.895 5.56132C156.734 5.23644 155.547 5.00992 154.348 4.88416C154.355 4.75889 154.361 4.63275 154.359 4.50573C154.309 2.02048 155.046 0.676682 152.657 0.630254C147.45 0.528637 145.693 2.78874 145.743 5.27311C145.743 5.40276 145.756 5.52978 145.769 5.65593C144.57 5.99882 143.398 6.43373 142.265 6.9568C142.211 6.84643 142.154 6.73605 142.09 6.62918C140.858 4.58282 138.208 4.08086 136.173 5.50701C134.138 6.93315 133.486 9.7469 134.719 11.7933C134.782 11.8975 134.852 11.9956 134.922 12.0929C134.009 13.0065 133.165 13.9858 132.396 15.0231C132.295 14.96 132.193 14.8978 132.085 14.8427C129.999 13.7844 127.379 14.7551 126.233 17.0143C125.088 19.2735 125.848 21.9611 127.933 23.0193C128.042 23.0745 128.152 23.121 128.262 23.1648C127.879 24.3973 127.586 25.6563 127.386 26.9316C127.266 26.9316 127.146 26.9316 127.024 26.9447C124.645 27.1567 122.757 29.3424 122.807 31.8276C122.857 34.3129 124.822 36.1542 127.205 35.9449C127.329 35.9344 127.452 35.9142 127.573 35.8932C127.819 37.1172 128.16 38.3203 128.592 39.4918C128.482 39.5558 128.374 39.6215 128.267 39.696C126.232 41.1221 125.581 43.9367 126.813 45.9822C128.046 48.0277 132.127 48.979 134.162 47.5529C134.266 47.4802 132.936 46.9528 133.03 46.8731C133.84 47.7667 134.723 48.5907 135.67 49.3365C135.603 49.4468 135.538 49.5581 135.478 49.6755C134.331 51.933 135.093 54.6214 137.177 55.6805C139.262 56.7396 141.883 55.7681 143.029 53.5089C143.089 53.3924 143.14 53.2733 143.189 53.1585C144.35 53.4834 145.536 53.7099 146.736 53.8356C146.729 53.9618 146.722 54.0871 146.725 54.215C146.775 56.6993 148.744 58.5416 151.124 58.3322C153.503 58.1228 155.391 55.9337 155.341 53.4493C155.341 53.3197 155.328 53.1927 155.314 53.0665C156.514 52.7233 157.686 52.2881 158.818 51.7648C158.873 51.876 158.93 51.9864 158.994 52.0933C160.226 54.1387 162.876 54.6416 164.911 53.2154C166.946 51.7893 167.598 48.9747 166.364 46.9283C166.301 46.8241 166.232 46.7259 166.162 46.6296C167.074 45.7158 167.918 44.7364 168.688 43.6993C168.788 43.7563 168.891 43.8176 168.999 43.8728ZM143.004 44.2022C135.432 40.3582 132.667 30.5968 136.831 22.3982C140.996 14.1997 150.506 10.6711 158.077 14.5142C165.649 18.3572 168.414 28.1203 164.25 36.3181C160.085 44.5158 150.575 48.047 143.004 44.2022Z" fill="url(#paint5_linear_61_2817)"/>
<path d="M174.058 31.7697C176.438 31.5578 178.326 29.3712 178.276 26.886C178.226 24.4007 176.261 22.5594 173.878 22.7687C173.754 22.7801 173.631 22.7994 173.51 22.8213C173.263 21.5974 172.923 20.3943 172.491 19.2226C172.601 19.1587 172.709 19.0921 172.816 19.0177C174.851 17.5915 177.372 14.1462 175.934 12.2373C173.208 8.61503 170.387 10.1831 168.352 11.6092C168.248 11.6819 168.15 11.7608 168.053 11.8414C167.243 10.9473 166.361 10.123 165.413 9.37716C165.48 9.26678 165.545 9.15553 165.605 9.03902C165.901 8.46721 166.077 7.84109 166.123 7.19888C166.169 6.55666 166.084 5.91182 165.872 5.30371C163.906 8.76395 161.97 12.2388 160.062 15.7282C166.102 20.1547 168.025 28.8772 164.25 36.3145C161.05 42.6156 154.691 46.1538 148.482 45.7106C148.205 46.4289 147.932 47.1516 147.636 47.8629C146.831 49.7902 145.917 51.685 145.001 53.5728C145.577 53.6814 146.155 53.7664 146.735 53.8277C146.728 53.9538 146.722 54.0791 146.724 54.2061C146.774 56.6914 148.283 58.8026 152.594 58.5739C154.979 58.4469 155.389 55.9231 155.339 53.4388C155.339 53.3091 155.326 53.1821 155.313 53.0559C156.512 52.7128 157.684 52.2776 158.817 51.7542C158.871 51.8654 158.928 51.9758 158.992 52.0827C160.225 54.1282 164.501 54.9972 166.536 53.5719C168.571 52.1466 167.596 48.965 166.361 46.9195C166.298 46.8144 166.229 46.7162 166.159 46.6199C167.071 45.7061 167.915 44.7267 168.684 43.6896C168.785 43.7527 168.887 43.814 168.995 43.8648C171.081 44.9239 173.7 43.9524 174.847 41.6932C175.994 39.434 175.232 36.7464 173.147 35.6881C173.039 35.633 172.928 35.5874 172.818 35.5427C173.202 34.3102 173.495 33.0512 173.694 31.7759C173.817 31.782 173.937 31.7803 174.058 31.7697Z" fill="url(#paint6_linear_61_2817)"/>
<path d="M171.242 44.1277C173.327 45.1868 175.947 44.2153 177.093 41.9561C178.239 39.6968 177.478 37.0101 175.393 35.951C175.285 35.8958 175.175 35.8503 175.064 35.8065C175.448 34.5739 175.74 33.3149 175.94 32.0396C176.059 32.0396 176.179 32.0396 176.301 32.0265C178.68 31.8145 180.568 29.628 180.519 27.1436C180.47 24.6592 178.504 22.8161 176.12 23.0263C175.996 23.0377 175.874 23.057 175.753 23.0789C175.506 21.8549 175.166 20.6517 174.734 19.4803C174.843 19.4163 174.953 19.3497 175.059 19.2753C177.095 17.85 177.745 15.0354 176.512 12.989C175.28 10.9426 172.63 10.4407 170.595 11.8668C170.49 11.9396 170.392 12.0193 170.295 12.099C169.486 11.2047 168.603 10.3804 167.656 9.63477C167.723 9.52527 167.789 9.41314 167.847 9.29663C168.994 7.03827 168.233 4.34979 166.148 3.29157C164.063 2.23335 161.443 3.20397 160.296 5.46233C160.237 5.57971 160.186 5.69797 160.137 5.81711C158.975 5.49265 157.789 5.26614 156.59 5.13996C156.597 5.01469 156.603 4.88854 156.6 4.76152C156.55 2.27715 154.581 0.434027 152.203 0.644269C149.824 0.854512 147.935 3.04191 147.985 5.52715C147.985 5.6568 147.999 5.78383 148.011 5.90997C146.811 6.25286 145.64 6.68777 144.507 7.21084C144.453 7.10047 144.397 6.99009 144.332 6.88322C143.099 4.83686 140.45 4.3349 138.414 5.76105C136.379 7.18719 135.729 10.0018 136.961 12.0473C137.024 12.1524 137.093 12.2505 137.163 12.3469C136.251 13.2605 135.407 14.2399 134.638 15.2772C134.537 15.2141 134.435 15.1519 134.327 15.1019C132.241 14.0429 129.622 15.0143 128.475 17.2727C127.328 19.5311 128.09 22.2195 130.175 23.2786C130.283 23.3329 130.394 23.3794 130.504 23.4232C130.12 24.6557 129.827 25.9147 129.628 27.19C129.508 27.19 129.388 27.19 129.266 27.2032C126.888 27.4152 124.999 29.6008 125.049 32.086C125.099 34.5713 127.068 36.4135 129.447 36.2033C129.571 36.1919 129.694 36.1726 129.815 36.1507C130.061 37.3747 130.402 38.5778 130.833 39.7494C130.724 39.8133 130.615 39.879 130.508 39.9535C128.473 41.3796 127.823 44.1943 129.055 46.2406C130.288 48.287 132.938 48.7881 134.973 47.3628C135.077 47.2892 135.175 47.2104 135.272 47.1307C136.082 48.0243 136.965 48.8485 137.912 49.5949C137.845 49.7044 137.779 49.8156 137.72 49.933C136.573 52.1905 137.334 54.879 139.42 55.9381C141.506 56.9972 144.125 56.0257 145.271 53.7664C145.33 53.6499 145.381 53.5308 145.431 53.4117C146.592 53.7367 147.779 53.9632 148.978 54.0888C148.97 54.215 148.965 54.3402 148.967 54.4681C149.017 56.9525 150.986 58.7947 153.365 58.5854C155.744 58.376 157.632 56.1869 157.582 53.7025C157.582 53.5728 157.569 53.4458 157.556 53.3197C158.756 52.9764 159.927 52.5415 161.06 52.0188C161.114 52.1292 161.17 52.2396 161.235 52.3464C162.469 54.3919 165.118 54.8947 167.153 53.4686C169.188 52.0424 169.84 49.2278 168.607 47.1823C168.544 47.0772 168.475 46.9791 168.404 46.8827C169.316 45.969 170.16 44.9896 170.929 43.9525C171.031 44.0112 171.133 44.0725 171.242 44.1277ZM145.247 44.4579C137.676 40.6131 134.91 30.8517 139.075 22.6532C143.239 14.4546 152.749 10.926 160.32 14.7691C167.891 18.6121 170.657 28.3753 166.492 36.573C162.328 44.7707 152.818 48.3019 145.247 44.4579Z" fill="url(#paint7_linear_61_2817)"/>
<path d="M253.589 224.451L6.50391 222.315V228.635C6.50391 230.35 7.58228 231.808 9.04434 232.068L78.9097 244.512C79.7365 244.66 80.579 244.699 81.416 244.629L250.904 230.438C252.417 230.312 253.589 228.849 253.589 227.086V224.451Z" fill="#BFC8D6"/>
<path d="M166.866 103.523V209.239C166.867 210.519 166.42 211.759 165.602 212.743C164.848 213.647 163.81 214.242 162.664 214.328L49.1332 222.702L6.80171 225.834H6.79558L6.50825 225.84L5.58843 225.896C2.77819 226.103 0.457642 223.896 0.457642 220.977V104.029C0.457642 101.11 2.81324 98.669 5.62611 98.669H162.66C164.977 98.6646 166.866 100.883 166.866 103.523Z" fill="#BFC8D6"/>
<path d="M169.377 103.523V209.239C169.377 211.277 168.246 213.093 166.671 213.896C166.647 213.908 166.619 213.919 166.596 213.931C166.445 214.005 166.291 214.069 166.132 214.124L166.025 214.163C165.997 214.169 165.968 214.179 165.938 214.185C165.823 214.219 165.706 214.247 165.587 214.268C165.446 214.297 165.302 214.316 165.158 214.325L164.362 214.377L51.3679 222.692L8.1245 225.881C7.72011 225.918 7.3125 225.903 6.9121 225.835C6.87508 225.832 6.83787 225.832 6.80084 225.835H6.79471C6.68514 225.819 6.57799 225.79 6.47584 225.747C4.46102 225.196 2.9718 223.309 2.9718 220.976V104.028C2.9718 101.109 5.32039 98.668 8.13063 98.668H165.162C167.482 98.6645 169.377 100.883 169.377 103.523Z" fill="white"/>
<path d="M160.274 206.87L14.0043 216.913C11.7179 217.07 9.85901 215.265 9.85901 212.883V110.497C9.85901 108.114 11.7179 106.174 14.0043 106.164L160.274 105.533C162.183 105.525 163.728 107.278 163.728 109.449V202.704C163.728 204.874 162.183 206.74 160.274 206.87Z" fill="#D8DEE8"/>
<path d="M92.19 101.943C92.19 103.029 91.3815 103.913 90.3837 103.916C89.3859 103.92 88.573 103.04 88.573 101.95C88.573 100.859 89.3868 99.9785 90.3846 99.9785C91.3824 99.9785 92.19 100.855 92.19 101.943Z" fill="white"/>
<g style="mix-blend-mode:soft-light" opacity="0.48">
<path d="M8.12271 225.884L164.373 214.386L165.168 214.327C166.23 214.249 167.196 213.724 167.934 212.925C156.69 212.312 149.706 208.32 145.202 204.198C136.154 195.918 137.724 187.752 127.968 182.309C115.799 175.519 106.231 184.123 96.9966 175.634C91.3989 170.487 94.147 166.649 87.2589 158.959C79.6297 150.44 74.6627 153.303 66.995 145.637C57.2976 135.942 62.1428 128.399 53.7953 121.441C43.6642 112.998 32.7386 120.813 23.0946 112.715C18.9344 109.223 16.6524 104.146 15.4602 98.7461H8.12359C5.31334 98.7461 3.02783 101.111 3.02783 104.031V220.978C3.02783 223.893 5.31247 226.091 8.12271 225.884Z" fill="white"/>
</g>
<path d="M172.565 213.685L6.50391 225.851L78.9097 238.746C79.7365 238.894 80.579 238.934 81.416 238.864L253.589 224.451L175.206 213.763C174.331 213.645 173.446 213.619 172.565 213.685Z" fill="url(#paint8_linear_61_2817)"/>
<path d="M30.7352 225.956L168.985 215.674L211.772 221.46L74.7127 232.45L30.7352 225.956Z" fill="#D8DEE8"/>
<g style="mix-blend-mode:multiply" opacity="0.3">
<path d="M156.818 98.665V204.224C156.803 205.185 156.642 206.138 156.339 207.05C155.932 208.322 155.272 209.499 154.399 210.511C152.744 212.452 150.347 213.773 147.673 213.977L33.9668 222.562L27.2609 223.068C25.7282 223.194 24.1862 222.989 22.7398 222.466C19.9839 221.464 17.9323 219.335 17.115 216.616C16.8662 215.805 16.783 214.942 16.783 214.038V98.665H156.818Z" fill="#BFC8D6"/>
</g>
<path d="M150.221 34.3987L29.7742 30.6862C23.9373 30.5057 19.1744 34.7605 19.1744 40.1883V211.812C19.1744 217.243 23.9338 221.282 29.7742 220.841L150.221 211.758C155.266 211.377 159.332 207.012 159.332 202.007V43.7431C159.334 38.7376 155.263 34.5547 150.221 34.3987Z" fill="url(#paint9_linear_61_2817)"/>
<g style="mix-blend-mode:soft-light" opacity="0.74">
<path d="M22.5751 212.595V39.2557C22.5751 36.131 25.3117 33.6782 28.6765 33.7763L151.174 37.3373C154.084 37.4249 156.436 39.8339 156.436 42.7247V203.15C156.436 206.041 154.084 208.559 151.174 208.773L28.6791 217.803C25.3117 218.05 22.5751 215.72 22.5751 212.595Z" fill="white"/>
</g>
<path d="M150.221 34.3987L29.7742 30.6862C23.9373 30.5057 19.1744 34.7605 19.1744 40.1883V47.2428L159.331 50.2466V43.7431C159.334 38.7376 155.263 34.5547 150.221 34.3987Z" fill="url(#paint10_linear_61_2817)"/>
<path d="M37.9929 39.7248C37.9929 41.4829 36.4625 42.8714 34.5703 42.8259C32.6781 42.7803 31.132 41.3121 31.132 39.5478C31.132 37.7835 32.672 36.3942 34.5677 36.4468C36.4634 36.4993 37.9929 37.9666 37.9929 39.7248Z" fill="white"/>
<path d="M49.9101 40.033C49.9101 41.7798 48.3999 43.1586 46.534 43.114C44.6681 43.0693 43.1438 41.6107 43.1438 39.8578C43.1438 38.1049 44.6628 36.7261 46.534 36.7778C48.4051 36.8295 49.9101 38.2871 49.9101 40.033Z" fill="white"/>
<path d="M61.6698 40.3382C61.6698 42.0727 60.1806 43.4428 58.3409 43.399C56.5013 43.3552 54.9963 41.9098 54.9963 40.1648C54.9963 38.4198 56.4952 37.0541 58.3409 37.1049C60.1867 37.1557 61.6698 38.6029 61.6698 40.3382Z" fill="white"/>
<path d="M79.8382 79.3923C79.8382 89.9185 71.2183 98.414 60.4013 98.3667C49.3758 98.3176 40.282 89.4445 40.282 78.5478C40.282 67.6511 49.3758 59.1661 60.4013 59.5883C71.2165 59.9992 79.8382 68.8627 79.8382 79.3923Z" fill="url(#paint11_linear_61_2817)"/>
<path opacity="0.9" d="M77.5606 79.3405C77.5606 88.6367 69.9393 96.1231 60.397 96.0618C50.6916 95.9996 42.7015 88.1777 42.7015 78.5968C42.7015 69.0159 50.6908 61.5356 60.397 61.8869C69.9393 62.2329 77.5606 70.0452 77.5606 79.3405Z" fill="white"/>
<path d="M58.9813 80.458C59.4105 80.8006 59.8923 81.0047 60.4022 81.0143C60.9225 81.0147 61.4269 80.8352 61.8301 80.5062C62.9014 79.6828 63.639 77.9746 63.639 76.2409C63.639 73.8135 62.1919 72.2446 60.4022 72.1955C58.6125 72.1464 57.1495 73.6453 57.1495 76.0867C57.1495 77.8361 57.8959 79.589 58.9813 80.458Z" fill="url(#paint12_linear_61_2817)"/>
<path d="M67.9604 86.7754C67.6412 86.1299 67.25 85.5224 66.7945 84.9647C66.7507 84.9103 66.6622 84.8595 66.6114 84.807C66.6114 84.807 66.5921 84.7973 66.5877 84.793C66.5834 84.7886 66.5553 84.7623 66.5422 84.7465C66.529 84.7308 66.4984 84.6975 66.4765 84.6747C66.4668 84.6607 66.4553 84.648 66.4423 84.637C66.3976 84.5827 66.3477 84.5302 66.2995 84.4793L66.2741 84.454C66.2566 84.4347 66.2382 84.4163 66.2198 84.3979L66.2137 84.3909L66.1734 84.3488C66.155 84.3322 66.1383 84.3147 66.1217 84.298C66.1116 84.2863 66.1007 84.2752 66.0893 84.2647L65.9885 84.1675L65.9675 84.1473L65.8361 84.0265C65.8177 84.0107 65.8002 83.9923 65.7818 83.9765C65.7476 83.9459 65.7126 83.9143 65.6767 83.8889L65.6513 83.8679C64.6427 83.002 63.441 82.3906 62.1472 82.0852C62.1034 82.0738 62.0596 82.0642 62.0158 82.0546V82.0589C61.6211 81.974 61.2205 81.9192 60.8175 81.8951C60.6799 81.8872 60.5441 81.8758 60.4049 81.8732C59.8188 81.8627 59.2459 82.3428 58.694 82.0291H58.6756C58.6697 82.0283 58.664 82.0262 58.659 82.023V82.0291C56.0887 82.6572 53.9592 84.256 52.9369 86.5678C52.5014 87.5501 52.2767 88.6127 52.2772 89.6872V89.943L68.6043 90.1287V89.8773C68.6043 88.7797 68.2898 87.7337 67.9762 86.7798L67.9604 86.7754Z" fill="url(#paint13_linear_61_2817)"/>
<path d="M51.8462 77.4095C53.663 77.4507 55.1312 75.0574 55.1312 72.6116C55.1312 70.1658 53.663 68.5819 51.8462 68.525C50.0294 68.4681 48.541 69.9748 48.541 72.4346C48.541 74.8945 50.0232 77.3683 51.8462 77.4095Z" fill="url(#paint14_linear_61_2817)"/>
<path d="M57.2564 80.6427C57.2564 80.6427 57.2634 80.457 57.2678 80.457C57.3773 80.457 57.4903 80.6436 57.6025 80.5192C57.6103 80.5262 57.6025 80.6243 57.6086 80.6313C57.6147 80.6383 57.5972 80.7242 57.5972 80.7259L57.6314 80.4631H57.6252C57.3107 80.4631 56.97 79.9927 56.6073 79.7273C56.6073 79.7369 56.6178 79.8017 56.6222 79.8149C56.6266 79.828 56.6222 79.8394 56.6161 79.8376C55.2588 78.8419 53.6265 78.2911 51.9434 78.2608C47.3995 78.1618 43.786 81.6922 43.786 86.1283V86.1712L51.4196 86.286C51.4017 86.2971 51.383 86.3068 51.3635 86.3149C52.342 83.6115 54.49 81.4837 57.2564 80.6427Z" fill="url(#paint15_linear_61_2817)"/>
<path d="M57.6313 80.7448C57.6805 80.7754 57.7251 80.8128 57.7636 80.8561C57.7257 80.8115 57.6811 80.7731 57.6313 80.7422V80.7448Z" fill="url(#paint16_linear_61_2817)"/>
<path d="M68.7225 77.7894C70.4868 77.8297 71.9129 75.4706 71.9129 73.059C71.9129 70.6473 70.4868 69.088 68.7225 69.0346C66.9582 68.9812 65.5145 70.4634 65.5145 72.889C65.5145 75.3147 66.9529 77.75 68.7225 77.7894Z" fill="url(#paint17_linear_61_2817)"/>
<path d="M68.4685 78.6289C66.8137 78.593 65.4024 79.0599 64.1156 79.8886C63.7227 80.1551 63.3568 80.4593 63.0232 80.797H63.0591C63.208 80.8417 63.371 80.7611 63.5173 80.8145C66.2714 81.7948 68.281 84.2371 69.2411 86.541L76.1239 86.6453V86.6041C76.1239 82.2941 72.8476 78.7244 68.4685 78.6289Z" fill="url(#paint18_linear_61_2817)"/>
<path d="M137.351 68.7992L91.5093 67.317V61.8682L137.351 63.5738V68.7992Z" fill="white"/>
<path d="M147.084 80.695L91.5093 79.4966V74.0479L147.084 75.5196V80.695Z" fill="white"/>
<path d="M147.084 92.2649L91.5093 91.6753V86.2266L147.084 87.0894V92.2649Z" fill="white"/>
<path d="M147.084 175.998L31.5376 183.914V178.174L147.084 170.821V175.998Z" fill="white"/>
<path d="M147.084 187.264L31.5376 196.409V191.005L147.084 182.392V187.264Z" fill="white"/>
<path opacity="0.42" d="M88.0552 161.086L31.5376 163.991V108.947L88.0552 108.68V161.086Z" fill="white"/>
<path d="M82.7176 121.305L36.876 122.033V116.318L82.7176 115.814V121.305Z" fill="white"/>
<path d="M82.7176 132.288L36.876 133.464V128.085L82.7176 127.119V132.288Z" fill="white"/>
<path d="M82.7176 143.591L36.876 145.23V139.515L82.7176 138.101V143.591Z" fill="white"/>
<path d="M82.7176 154.575L36.876 156.662V150.947L82.7176 149.084V154.575Z" fill="white"/>
<path opacity="0.42" d="M147.084 158.034L97.1604 160.611V108.635L147.084 108.403V158.034Z" fill="white"/>
<path d="M109.406 154.94L102.498 155.25V138.119L109.406 137.911V154.94Z" fill="white"/>
<path d="M120.396 154.422L113.487 154.749V128.042L120.396 127.886V154.422Z" fill="white"/>
<path d="M131.699 153.896L124.477 154.22V119.392L131.699 119.29V153.896Z" fill="white"/>
<path d="M141.747 153.41L135.467 153.718V113.693L141.747 113.631V153.41Z" fill="white"/>
<path d="M178.064 124.438C175.031 121.197 183.425 109.038 187.918 103.71C191.842 99.0537 195.876 94.2689 200.83 94.8743C205.18 95.406 209.415 99.9928 209.665 104.389C210.347 116.215 182.374 129.04 178.064 124.438Z" fill="url(#paint19_linear_61_2817)"/>
<path d="M214.468 249.411C215.039 249.875 215.144 251.034 215.213 251.791C215.243 252.129 215.259 252.298 215.22 252.418C214.945 253.294 213.255 253.382 210.604 253.652C206.415 254.08 205.173 254.409 204.841 253.786C204.533 253.202 205.279 252.246 205.361 252.14C205.81 251.574 206.363 251.367 207.431 251.016C209.407 250.365 210.743 250.009 211.147 249.901C213.672 249.227 214.093 249.107 214.468 249.411Z" fill="url(#paint20_linear_61_2817)"/>
<path d="M211.977 245.585L211.558 250.358C211.677 250.589 213.096 251.28 214.223 250.688L215.3 245.995L211.977 245.585Z" fill="url(#paint21_linear_61_2817)"/>
<path d="M181.248 248.798C181.932 249.553 182.087 250.944 181.492 251.63C180.898 252.316 180.029 251.799 177.535 251.873C174.864 251.953 174.167 252.583 172.352 252.083C171.619 251.88 170.323 251.389 170.348 250.865C170.365 250.497 171.025 250.307 173.227 249.569C176.353 248.518 176.339 248.464 177.003 248.354C178.67 248.078 180.344 247.801 181.248 248.798Z" fill="url(#paint22_linear_61_2817)"/>
<path d="M179.536 244.441L178.197 248.9C178.298 249.139 179.66 249.937 180.825 249.432L182.814 245.106L179.536 244.441Z" fill="url(#paint23_linear_61_2817)"/>
<path d="M191.442 146.845C191.227 163.606 190.003 180.339 187.776 196.953C185.572 213.389 182.392 229.679 178.251 245.738L183.379 247.117C187.715 243.074 193.185 236.709 195.825 227.714C197.463 222.132 196.917 219.263 197.956 212.396C199.611 201.463 202.962 195.735 206.426 186.918C209.539 178.996 213.219 167.369 215.191 151.827L191.442 146.845Z" fill="url(#paint24_linear_61_2817)"/>
<path d="M206.868 145.414C207.914 164.462 208.767 183.861 209.426 203.61C209.916 218.427 210.278 233.054 210.514 247.492L215.752 248.139C218.15 243.684 219.985 238.949 221.214 234.041C223.079 226.565 222.647 222.127 223.465 214.378C224.382 205.689 225.714 203.796 228.075 192.834C232.866 170.584 235.258 159.465 229.915 152.545C228.183 150.298 222.744 144.663 206.868 145.414Z" fill="url(#paint25_linear_61_2817)"/>
<path d="M232.313 97.5446C226.63 95.945 220.789 94.9695 214.894 94.6354C204.426 94.0432 199.193 93.748 195.484 96.2402C186.918 101.997 193.55 115.285 190.044 148.223C189.543 152.927 189.431 157.664 189.068 162.381C188.467 170.19 188.331 170.615 188.875 171.404C192.281 176.366 204.993 168.882 223.627 171.842C234.051 173.497 238.782 177.311 241.637 174.557C244.966 171.349 242.11 162.722 239.651 155.294C236.827 146.768 235.083 146.658 233.481 140.237C231.806 133.526 232.82 130.07 233.08 119.487C233.254 112.164 232.998 104.837 232.313 97.5446Z" fill="url(#paint26_linear_61_2817)"/>
<g style="mix-blend-mode:multiply" opacity="0.3">
<path style="mix-blend-mode:multiply" d="M206.976 159.381C211.846 159 215.005 161.753 219.209 159.608C224.973 156.665 226.83 147.511 226.458 141.031C225.9 131.187 220.279 128.592 221.248 122.228C221.774 118.787 224.227 114.218 233.05 109.551C233.168 113.48 233.145 116.828 233.08 119.488C232.817 130.071 231.806 133.527 233.481 140.238C235.083 146.659 236.827 146.769 239.651 155.295C242.11 162.723 244.967 171.351 241.637 174.559C238.78 177.309 234.052 173.496 223.627 171.843C207.572 169.294 195.918 174.491 190.82 172.807C196.981 162.622 202.567 159.723 206.976 159.381Z" fill="url(#paint27_linear_61_2817)"/>
</g>
<path d="M225.67 98.22C229.149 95.3625 236.142 98.5976 238.012 99.4622C248.436 104.285 257.797 117.279 255.478 131.012C255.127 133.071 253.517 142.705 245.361 147.372C238.002 151.584 228.061 150.5 220.098 144.536L216.833 141.639L213.622 138.167C216.148 136.064 219.053 134.463 222.18 133.451C227.475 131.743 231.33 134.809 233.786 132.478C235.482 130.87 235.485 128.029 235.067 126.307C234.223 122.837 231.164 121.861 228.61 119.398C222.611 113.611 221.506 101.643 225.67 98.22Z" fill="url(#paint28_linear_61_2817)"/>
<path d="M175.687 143.051L222.307 142.354L209.91 148.338L175.568 146.09L175.687 143.051Z" fill="url(#paint29_linear_61_2817)"/>
<path d="M223.952 143.594C223.952 144.02 223.821 144.436 223.576 144.785C223.332 145.133 222.986 145.399 222.586 145.544L207.69 151.384L207.622 147.335L222.307 142.355C222.499 142.3 222.701 142.29 222.897 142.326C223.094 142.363 223.279 142.444 223.438 142.564C223.598 142.684 223.727 142.84 223.816 143.019C223.905 143.198 223.952 143.395 223.952 143.594Z" fill="url(#paint30_linear_61_2817)"/>
<path d="M216.774 140.836C217.059 140.772 215.38 137.419 214.058 137.81C212.736 138.201 206.289 141.935 205.703 143.474L205.117 145.013C205.117 145.013 207.93 145.233 209.672 144.647C211.413 144.061 214.447 141.354 216.774 140.836Z" fill="url(#paint31_linear_61_2817)"/>
<path d="M206.385 118.929L209.671 148.849C209.785 149.881 208.339 151.419 207.306 151.37L159.098 148.411C158.714 148.392 158.347 148.244 158.059 147.989C157.771 147.734 157.578 147.388 157.512 147.009L151.458 118.112C151.278 117.061 153.168 115.975 154.234 116.005L204.757 117.423C205.165 117.436 205.554 117.595 205.853 117.872C206.152 118.148 206.341 118.524 206.385 118.929Z" fill="url(#paint32_linear_61_2817)"/>
<path d="M205.283 119.801L208.57 149.722C208.596 149.965 208.57 150.21 208.493 150.442C208.415 150.674 208.289 150.886 208.121 151.064C207.954 151.242 207.75 151.381 207.524 151.473C207.297 151.565 207.054 151.606 206.81 151.595L157.992 149.284C157.608 149.265 157.242 149.117 156.953 148.862C156.665 148.607 156.472 148.261 156.407 147.882L151.42 118.852C151.378 118.605 151.391 118.353 151.458 118.112C151.525 117.871 151.645 117.648 151.809 117.459C151.973 117.27 152.177 117.12 152.406 117.019C152.635 116.918 152.883 116.87 153.133 116.877L203.651 118.297C204.059 118.308 204.449 118.467 204.749 118.743C205.049 119.02 205.238 119.395 205.283 119.801Z" fill="url(#paint33_linear_61_2817)"/>
<path style="mix-blend-mode:multiply" opacity="0.3" d="M176.618 142.272C180.881 140.465 179.376 137.016 184.409 132.723C191.05 127.06 197.819 129.515 200.188 125.126C200.926 123.759 201.278 121.631 199.993 118.188L203.651 118.291C204.059 118.303 204.449 118.461 204.749 118.738C205.049 119.014 205.239 119.39 205.283 119.796L208.57 149.717C208.596 149.96 208.57 150.205 208.493 150.437C208.415 150.669 208.289 150.881 208.121 151.059C207.954 151.237 207.75 151.376 207.524 151.468C207.297 151.56 207.054 151.601 206.81 151.59L157.992 149.279C157.608 149.261 157.242 149.112 156.953 148.857C156.665 148.602 156.472 148.257 156.407 147.877L155.719 143.871C157.378 142.937 159.171 142.265 161.035 141.878C168.197 140.43 171.711 144.351 176.618 142.272Z" fill="url(#paint34_linear_61_2817)"/>
<path d="M154.918 145.098C154.899 145.042 154.893 144.983 154.901 144.924C154.909 144.866 154.93 144.81 154.964 144.761C154.997 144.713 155.041 144.672 155.092 144.644C155.144 144.615 155.201 144.599 155.26 144.596C156.291 144.543 158.684 144.522 160.005 145.331C161.722 146.382 163.941 148.3 162.072 149.268L160.327 150.174C160.249 150.216 160.158 150.229 160.071 150.209C159.452 150.074 156.842 149.494 156.557 149.351C156.296 149.217 155.302 146.265 154.918 145.098Z" fill="url(#paint35_linear_61_2817)"/>
<path d="M214.112 83.1982C214.084 85.6305 214.301 88.0593 214.76 90.4481C215.135 92.3753 215.405 92.8782 215.751 93.2829C216.269 93.8961 217.057 94.4033 221.503 95.5062C223.923 96.1054 224.234 96.0896 224.288 96.3296C224.551 97.5009 217.95 101.498 211.133 100.534C206.962 99.9458 203.161 97.5657 203.398 96.3156C203.634 95.0656 207.8 95.7322 209.042 93.4572C209.907 91.8734 208.938 89.6264 207.793 87.7631C208.902 85.6835 213.003 85.2761 214.112 83.1982Z" fill="url(#paint36_linear_61_2817)"/>
<path d="M206.368 84.4259C205.384 83.118 205.323 80.8343 206.456 79.3906C207.432 78.1493 208.968 77.9715 209.888 77.8655C212.554 77.558 215.917 78.6705 217.086 81.1234C217.779 82.5775 216.28 85.598 216.046 86.1411C215.783 86.7544 215.298 86.9655 214.852 87.4298C214.233 88.0736 213.266 89.0942 211.687 90.8094C211.538 90.1903 211.335 89.5854 211.081 89.0013C210.967 88.7385 210.509 87.7215 209.816 86.8761C208.428 85.1819 207.302 85.6655 206.368 84.4259Z" fill="url(#paint37_linear_61_2817)"/>
<path d="M213.942 89.37C213.942 89.37 212.189 92.2442 208.7 92.0173C205.577 91.8141 205.119 84.8095 207.115 83.3229C207.781 82.8271 209.113 82.6221 210.197 82.9252C210.837 83.1048 211.054 83.3702 212.105 83.6427C213.076 83.895 213.35 83.7872 213.643 84.0334C214.009 84.3417 214.277 85.0977 213.666 87.1458C214.261 86.5423 214.98 86.3101 215.484 86.5501C215.658 86.6438 215.801 86.784 215.899 86.9549C216.337 87.7547 215.606 88.777 213.942 89.37Z" fill="url(#paint38_linear_61_2817)"/>
<path d="M213.78 83.6143C213.63 83.7264 214.09 84.2888 214.125 85.0843C214.191 86.6278 212.628 88.4814 211.034 88.6391C210.091 88.732 209.833 88.1634 208.275 87.9988C207.513 87.9203 206.744 87.9647 205.997 88.1302C205.507 89.8235 205.968 91.5116 207.1 92.2947C208.318 93.1383 209.875 92.6267 210.526 92.413C210.964 92.2693 212.357 91.8138 213.086 90.5348C213.845 89.2015 213.1 88.3982 213.971 87.4959C214.409 87.0413 214.988 86.8442 215.548 85.9638C215.669 85.7745 215.774 85.5762 215.864 85.3707C215.069 84.5166 214.002 83.4514 213.78 83.6143Z" fill="url(#paint39_linear_61_2817)"/>
<path d="M207.138 88.7574C207.138 88.7574 207.813 89.1078 208.978 89.0447C209.035 89.0447 209.097 89.0579 209.105 89.0877C209.131 89.198 208.383 89.6938 207.695 89.5002C207.205 89.3627 206.825 88.8993 206.89 88.781C206.919 88.732 207.03 88.7381 207.138 88.7574Z" fill="url(#paint40_linear_61_2817)"/>
<defs>
<linearGradient id="paint0_linear_61_2817" x1="132.827" y1="119.96" x2="189.411" y2="168.63" gradientUnits="userSpaceOnUse">
<stop stop-color="#FF9085"/>
<stop offset="1" stop-color="#FB6FBB"/>
</linearGradient>
<linearGradient id="paint1_linear_61_2817" x1="183.019" y1="139.289" x2="160.891" y2="198.687" gradientUnits="userSpaceOnUse">
<stop stop-color="#AA80F9"/>
<stop offset="1" stop-color="#6165D7"/>
</linearGradient>
<linearGradient id="paint2_linear_61_2817" x1="223.169" y1="68.0179" x2="189.929" y2="58.6121" gradientUnits="userSpaceOnUse">
<stop stop-color="#311944"/>
<stop offset="1" stop-color="#A03976"/>
</linearGradient>
<linearGradient id="paint3_linear_61_2817" x1="223.082" y1="68.326" x2="189.842" y2="58.9194" gradientUnits="userSpaceOnUse">
<stop stop-color="#311944"/>
<stop offset="1" stop-color="#A03976"/>
</linearGradient>
<linearGradient id="paint4_linear_61_2817" x1="189.058" y1="47.0115" x2="189.577" y2="88.9864" gradientUnits="userSpaceOnUse">
<stop stop-color="#FF9085"/>
<stop offset="1" stop-color="#FB6FBB"/>
</linearGradient>
<linearGradient id="paint5_linear_61_2817" x1="219.328" y1="48.5647" x2="154.215" y2="30.1387" gradientUnits="userSpaceOnUse">
<stop stop-color="#311944"/>
<stop offset="1" stop-color="#A03976"/>
</linearGradient>
<linearGradient id="paint6_linear_61_2817" x1="219.157" y1="49.1673" x2="154.044" y2="30.7422" gradientUnits="userSpaceOnUse">
<stop stop-color="#311944"/>
<stop offset="1" stop-color="#A03976"/>
</linearGradient>
<linearGradient id="paint7_linear_61_2817" x1="152.509" y1="7.41671" x2="153.526" y2="89.6399" gradientUnits="userSpaceOnUse">
<stop stop-color="#FF9085"/>
<stop offset="1" stop-color="#FB6FBB"/>
</linearGradient>
<linearGradient id="paint8_linear_61_2817" x1="64.2207" y1="226.273" x2="311.305" y2="226.273" gradientUnits="userSpaceOnUse">
<stop offset="0.49" stop-color="#EBEFF2"/>
<stop offset="1" stop-color="white"/>
</linearGradient>
<linearGradient id="paint9_linear_61_2817" x1="19.1779" y1="125.778" x2="159.334" y2="125.778" gradientUnits="userSpaceOnUse">
<stop stop-color="#E38DDD"/>
<stop offset="1" stop-color="#9571F6"/>
</linearGradient>
<linearGradient id="paint10_linear_61_2817" x1="90.0008" y1="38.233" x2="78.0301" y2="146.431" gradientUnits="userSpaceOnUse">
<stop stop-color="#40447E"/>
<stop offset="1" stop-color="#3C3B6B"/>
</linearGradient>
<linearGradient id="paint11_linear_61_2817" x1="74.2659" y1="17.3865" x2="51.7481" y2="114.966" gradientUnits="userSpaceOnUse">
<stop stop-color="#E38DDD"/>
<stop offset="1" stop-color="#9571F6"/>
</linearGradient>
<linearGradient id="paint12_linear_61_2817" x1="64.7121" y1="57.9901" x2="49.4021" y2="122.557" gradientUnits="userSpaceOnUse">
<stop stop-color="#E38DDD"/>
<stop offset="1" stop-color="#9571F6"/>
</linearGradient>
<linearGradient id="paint13_linear_61_2817" x1="67.7476" y1="58.5696" x2="52.3298" y2="123.592" gradientUnits="userSpaceOnUse">
<stop stop-color="#E38DDD"/>
<stop offset="1" stop-color="#9571F6"/>
</linearGradient>
<linearGradient id="paint14_linear_61_2817" x1="55.8627" y1="55.5846" x2="40.4414" y2="120.623" gradientUnits="userSpaceOnUse">
<stop stop-color="#E38DDD"/>
<stop offset="1" stop-color="#9571F6"/>
</linearGradient>
<linearGradient id="paint15_linear_61_2817" x1="56.9183" y1="56.689" x2="42.0559" y2="119.371" gradientUnits="userSpaceOnUse">
<stop stop-color="#E38DDD"/>
<stop offset="1" stop-color="#9571F6"/>
</linearGradient>
<linearGradient id="paint16_linear_61_2817" x1="63.357" y1="56.9353" x2="47.609" y2="123.353" gradientUnits="userSpaceOnUse">
<stop stop-color="#E38DDD"/>
<stop offset="1" stop-color="#9571F6"/>
</linearGradient>
<linearGradient id="paint17_linear_61_2817" x1="71.8078" y1="59.967" x2="56.6178" y2="124.031" gradientUnits="userSpaceOnUse">
<stop stop-color="#E38DDD"/>
<stop offset="1" stop-color="#9571F6"/>
</linearGradient>
<linearGradient id="paint18_linear_61_2817" x1="74.8423" y1="61.502" x2="60.2234" y2="123.154" gradientUnits="userSpaceOnUse">
<stop stop-color="#E38DDD"/>
<stop offset="1" stop-color="#9571F6"/>
</linearGradient>
<linearGradient id="paint19_linear_61_2817" x1="192.263" y1="119.892" x2="162.132" y2="264.395" gradientUnits="userSpaceOnUse">
<stop stop-color="#FFC444"/>
<stop offset="1" stop-color="#F36F56"/>
</linearGradient>
<linearGradient id="paint20_linear_61_2817" x1="204.625" y1="251.96" x2="215.061" y2="252.273" gradientUnits="userSpaceOnUse">
<stop stop-color="#444B8C"/>
<stop offset="1" stop-color="#26264F"/>
</linearGradient>
<linearGradient id="paint21_linear_61_2817" x1="211.558" y1="248.253" x2="215.3" y2="248.253" gradientUnits="userSpaceOnUse">
<stop stop-color="#FFC444"/>
<stop offset="1" stop-color="#F36F56"/>
</linearGradient>
<linearGradient id="paint22_linear_61_2817" x1="168.504" y1="249.175" x2="179.15" y2="252.169" gradientUnits="userSpaceOnUse">
<stop stop-color="#444B8C"/>
<stop offset="1" stop-color="#26264F"/>
</linearGradient>
<linearGradient id="paint23_linear_61_2817" x1="178.197" y1="247.018" x2="182.818" y2="247.018" gradientUnits="userSpaceOnUse">
<stop stop-color="#FFC444"/>
<stop offset="1" stop-color="#F36F56"/>
</linearGradient>
<linearGradient id="paint24_linear_61_2817" x1="174.585" y1="230.624" x2="204.161" y2="163.952" gradientUnits="userSpaceOnUse">
<stop stop-color="#40447E"/>
<stop offset="1" stop-color="#3C3B6B"/>
</linearGradient>
<linearGradient id="paint25_linear_61_2817" x1="189.49" y1="232.925" x2="226.771" y2="170.47" gradientUnits="userSpaceOnUse">
<stop stop-color="#40447E"/>
<stop offset="1" stop-color="#3C3B6B"/>
</linearGradient>
<linearGradient id="paint26_linear_61_2817" x1="219.622" y1="125.597" x2="189.49" y2="270.099" gradientUnits="userSpaceOnUse">
<stop stop-color="#FFC444"/>
<stop offset="1" stop-color="#F36F56"/>
</linearGradient>
<linearGradient id="paint27_linear_61_2817" x1="227.881" y1="216.921" x2="214.655" y2="154.094" gradientUnits="userSpaceOnUse">
<stop stop-color="#FFC444"/>
<stop offset="1" stop-color="#F36F56"/>
</linearGradient>
<linearGradient id="paint28_linear_61_2817" x1="239.157" y1="112.568" x2="215.322" y2="226.873" gradientUnits="userSpaceOnUse">
<stop stop-color="#FFC444"/>
<stop offset="1" stop-color="#F36F56"/>
</linearGradient>
<linearGradient id="paint29_linear_61_2817" x1="192.071" y1="162.324" x2="197.711" y2="146.346" gradientUnits="userSpaceOnUse">
<stop stop-color="#311944"/>
<stop offset="1" stop-color="#893976"/>
</linearGradient>
<linearGradient id="paint30_linear_61_2817" x1="216.708" y1="139.174" x2="214.64" y2="153.461" gradientUnits="userSpaceOnUse">
<stop stop-color="#311944"/>
<stop offset="1" stop-color="#893976"/>
</linearGradient>
<linearGradient id="paint31_linear_61_2817" x1="205.119" y1="141.417" x2="216.806" y2="141.417" gradientUnits="userSpaceOnUse">
<stop stop-color="#FFC444"/>
<stop offset="1" stop-color="#F36F56"/>
</linearGradient>
<linearGradient id="paint32_linear_61_2817" x1="175.735" y1="140.426" x2="186.73" y2="124.813" gradientUnits="userSpaceOnUse">
<stop stop-color="#444B8C"/>
<stop offset="1" stop-color="#26264F"/>
</linearGradient>
<linearGradient id="paint33_linear_61_2817" x1="196.825" y1="166.265" x2="172.763" y2="117.389" gradientUnits="userSpaceOnUse">
<stop stop-color="#311944"/>
<stop offset="1" stop-color="#893976"/>
</linearGradient>
<linearGradient id="paint34_linear_61_2817" x1="208.579" y1="134.894" x2="155.718" y2="134.894" gradientUnits="userSpaceOnUse">
<stop stop-color="#311944"/>
<stop offset="1" stop-color="#893976"/>
</linearGradient>
<linearGradient id="paint35_linear_61_2817" x1="154.897" y1="147.395" x2="162.782" y2="147.395" gradientUnits="userSpaceOnUse">
<stop stop-color="#FFC444"/>
<stop offset="1" stop-color="#F36F56"/>
</linearGradient>
<linearGradient id="paint36_linear_61_2817" x1="214.617" y1="83.228" x2="212.601" y2="117.498" gradientUnits="userSpaceOnUse">
<stop stop-color="#FFC444"/>
<stop offset="1" stop-color="#F36F56"/>
</linearGradient>
<linearGradient id="paint37_linear_61_2817" x1="217.975" y1="98.9631" x2="210.156" y2="78.8877" gradientUnits="userSpaceOnUse">
<stop stop-color="#311944"/>
<stop offset="1" stop-color="#6B3976"/>
</linearGradient>
<linearGradient id="paint38_linear_61_2817" x1="205.911" y1="87.4069" x2="216.024" y2="87.4069" gradientUnits="userSpaceOnUse">
<stop stop-color="#FFC444"/>
<stop offset="1" stop-color="#F36F56"/>
</linearGradient>
<linearGradient id="paint39_linear_61_2817" x1="215.56" y1="99.914" x2="207.733" y2="79.8184" gradientUnits="userSpaceOnUse">
<stop stop-color="#311944"/>
<stop offset="1" stop-color="#6B3976"/>
</linearGradient>
<linearGradient id="paint40_linear_61_2817" x1="206.883" y1="89.1437" x2="209.106" y2="89.1437" gradientUnits="userSpaceOnUse">
<stop stop-color="#FFC444"/>
<stop offset="1" stop-color="#F36F56"/>
</linearGradient>
</defs>
</svg>
