<svg width="413" height="116" viewBox="0 0 413 116" fill="none" xmlns="http://www.w3.org/2000/svg">
<line x1="0.5" y1="-2.18557e-08" x2="0.500005" y2="116" stroke="#589BFF"/>
<path d="M11.584 5.472L11.792 6.944V16H13.392L13.232 14.8V12.064H14.016C16.32 12.064 18.016 10.464 18.016 8.64C18.016 6.48 16.32 5.472 14.56 5.472H11.584ZM13.232 10.88V6.656H14.272C15.456 6.656 16.496 7.328 16.496 8.64C16.496 10.016 15.456 10.88 14.272 10.88H13.232ZM18.0617 16H19.3418L20.2858 13.792H23.7738L24.6858 16H26.2858L25.5178 14.496L22.5898 7.328L21.7738 7.504L18.0617 16ZM21.9178 9.936L22.0938 9.456L22.2378 9.936L23.3578 12.704H20.7178L21.9178 9.936ZM28.6318 10.976V12.016H29.6878C30.9518 12.016 31.6718 12.416 31.6718 13.584C31.6718 14.192 31.2398 15.12 29.8798 15.12C28.4078 15.12 27.3038 14.144 27.3038 14.144L26.9838 15.152C26.9838 15.152 28.1998 16.176 29.8798 16.176C32.1518 16.176 33.1118 14.896 33.1118 13.584C33.1118 12.72 32.6798 11.872 31.6718 11.392C32.3438 10.912 32.8558 10.272 32.8558 9.6C32.8558 7.984 31.5598 7.312 29.8478 7.312C28.8398 7.312 27.9278 7.6 27.0638 8.304L27.7358 9.28C28.4238 8.64 29.0958 8.368 29.8318 8.368C30.8718 8.368 31.4958 8.8 31.4958 9.632C31.4958 10.304 31.2718 10.72 30.8718 11.088C30.5358 11.024 30.1678 10.976 29.7358 10.976H28.6318ZM35.4903 7.504L35.6983 8.752V16H37.2183L37.0583 14.96V12.896H37.7303C39.8103 12.896 41.3623 11.584 41.3623 10.096C41.3623 8.32 39.8103 7.504 38.2103 7.504H35.4903ZM37.0583 11.824V8.576H37.9543C39.0103 8.576 39.9223 9.088 39.9223 10.096C39.9223 11.168 39.0103 11.824 37.9543 11.824H37.0583ZM42.0461 16H43.3261L44.2701 13.792H47.7581L48.6701 16H50.2701L49.5021 14.496L46.5741 7.328L45.7581 7.504L42.0461 16ZM45.9021 9.936L46.0781 9.456L46.2221 9.936L47.3421 12.704H44.7021L45.9021 9.936ZM53.4641 11.712H54.2961C55.7521 11.712 56.5201 12.032 56.5201 13.328C56.5201 14.224 56.0561 14.944 54.5201 14.944H53.4641V11.712ZM53.4641 8.576H57.1921V7.504H51.9121L52.1041 8.704V16H54.3441C57.0321 16 57.9601 14.736 57.9601 13.328C57.9601 11.92 57.0321 10.656 54.3441 10.656H53.4641V8.576ZM63.6818 7.344C61.2018 7.344 59.3298 9.344 59.3298 11.856C59.3298 14.256 60.8498 16.208 63.5058 16.208C65.9858 16.208 67.8738 14.208 67.8738 11.696C67.8738 9.2 66.4818 7.344 63.6818 7.344ZM60.8178 11.776C60.8178 9.904 61.9378 8.384 63.6178 8.384C65.2978 8.384 66.4018 9.904 66.4018 11.776C66.4018 13.648 65.2978 15.168 63.6178 15.168C61.9378 15.168 60.8178 13.648 60.8178 11.776ZM68.3613 8.592H71.3853V16H72.9053L72.7453 14.96V8.592H75.8653V7.504H68.3613V8.592ZM79.8575 13.04C81.4255 13.04 82.6415 12.576 82.6415 12.576V16H84.1455L84.0015 15.024V7.504H82.4495L82.6415 8.704V11.472C82.6415 11.472 81.6175 11.952 80.3695 11.952C79.1215 11.952 78.4335 11.44 78.4335 10.24V7.504H76.8975L77.0735 8.704V10.32C77.0735 12.208 78.2415 13.04 79.8575 13.04ZM93.7381 9.296V16H95.2421L95.0981 15.024V7.504H93.8341L89.0981 13.536L88.7141 14.208V7.504H87.1621L87.3541 8.704V16H88.6181L93.3541 9.968L93.7381 9.296ZM99.9641 11.088V7.504H98.4121L98.6041 8.704V16H100.108L99.9641 15.024V12.208H101.02L103.692 16H105.356L102.124 11.6L103.548 9.392C103.996 8.704 104.38 8.464 104.716 8.464C104.892 8.464 105.084 8.48 105.196 8.496L105.068 7.424C104.956 7.392 104.732 7.344 104.492 7.344C103.82 7.344 103.084 7.68 102.364 8.864L101.02 11.088H99.9641ZM113.754 9.296V16H115.258L115.114 15.024V7.504H113.85L109.114 13.536L108.73 14.208V7.504H107.178L107.37 8.704V16H108.634L113.37 9.968L113.754 9.296ZM130.676 7.504H122.74L122.948 8.752V16H124.468L124.308 14.96V8.656H129.316V16H130.836L130.676 14.96V7.504ZM137.541 7.344C135.061 7.344 133.189 9.344 133.189 11.856C133.189 14.256 134.709 16.208 137.365 16.208C139.845 16.208 141.733 14.208 141.733 11.696C141.733 9.2 140.341 7.344 137.541 7.344ZM134.677 11.776C134.677 9.904 135.797 8.384 137.477 8.384C139.157 8.384 140.261 9.904 140.261 11.776C140.261 13.648 139.157 15.168 137.477 15.168C135.797 15.168 134.677 13.648 134.677 11.776ZM150.885 8.448C149.989 7.712 148.981 7.344 147.797 7.344C145.237 7.344 143.173 9.296 143.173 11.952C143.173 14.736 145.349 16.208 147.605 16.208C149.557 16.208 150.997 15.072 150.997 15.072L150.645 14.032C150.645 14.032 149.157 15.072 147.829 15.072C146.245 15.072 144.629 13.856 144.629 11.824C144.629 10.08 145.893 8.416 147.733 8.416C148.677 8.416 149.477 8.768 150.149 9.392L150.885 8.448ZM151.643 8.592H154.667V16H156.187L156.027 14.96V8.592H159.147V7.504H151.643V8.592ZM163.994 7.344C161.514 7.344 159.642 9.344 159.642 11.856C159.642 14.256 161.162 16.208 163.818 16.208C166.298 16.208 168.186 14.208 168.186 11.696C168.186 9.2 166.794 7.344 163.994 7.344ZM161.13 11.776C161.13 9.904 162.25 8.384 163.93 8.384C165.61 8.384 166.714 9.904 166.714 11.776C166.714 13.648 165.61 15.168 163.93 15.168C162.25 15.168 161.13 13.648 161.13 11.776ZM174.81 11.648H173.978C172.57 11.648 171.722 11.312 171.722 10.064C171.722 9.216 172.266 8.512 173.738 8.512H174.81V11.648ZM170.282 10.064C170.282 11.056 170.842 11.984 172.154 12.416L169.546 16H171.178L173.562 12.656H174.81V16H176.362L176.17 14.8V7.504H173.914C171.21 7.504 170.282 8.736 170.282 10.064ZM187.473 7.504H185.905L186.113 8.752V11.04H181.105V7.504H179.537L179.745 8.752V16H181.265L181.105 14.96V12.192H186.113V16H187.633L187.473 14.96V7.504ZM198.77 7.504H197.202L197.41 8.752V11.04H192.402V7.504H190.834L191.042 8.752V16H192.562L192.402 14.96V12.192H197.41V16H198.93L198.77 14.96V7.504ZM205.635 7.344C203.155 7.344 201.283 9.344 201.283 11.856C201.283 14.256 202.803 16.208 205.459 16.208C207.939 16.208 209.827 14.208 209.827 11.696C209.827 9.2 208.435 7.344 205.635 7.344ZM202.771 11.776C202.771 9.904 203.891 8.384 205.571 8.384C207.251 8.384 208.355 9.904 208.355 11.776C208.355 13.648 207.251 15.168 205.571 15.168C203.891 15.168 202.771 13.648 202.771 11.776ZM216.443 7.504L216.651 8.752V16H218.171L218.011 14.96V12.896H218.683C220.763 12.896 222.315 11.584 222.315 10.096C222.315 8.32 220.763 7.504 219.163 7.504H216.443ZM218.011 11.824V8.576H218.907C219.963 8.576 220.875 9.088 220.875 10.096C220.875 11.168 219.963 11.824 218.907 11.824H218.011ZM222.999 16H224.279L225.223 13.792H228.711L229.623 16H231.223L230.455 14.496L227.527 7.328L226.711 7.504L222.999 16ZM226.855 9.936L227.031 9.456L227.175 9.936L228.295 12.704H225.655L226.855 9.936ZM239.713 8.448C238.817 7.712 237.809 7.344 236.625 7.344C234.065 7.344 232.001 9.296 232.001 11.952C232.001 14.736 234.177 16.208 236.433 16.208C238.385 16.208 239.825 15.072 239.825 15.072L239.473 14.032C239.473 14.032 237.985 15.072 236.657 15.072C235.073 15.072 233.457 13.856 233.457 11.824C233.457 10.08 234.721 8.416 236.561 8.416C237.505 8.416 238.305 8.768 238.977 9.392L239.713 8.448ZM247.127 14.912H243.479V7.504H241.975L242.119 8.48V16H253.511V7.504H252.007L252.151 8.48V14.912H248.487V7.504H246.983L247.127 8.48V14.912ZM263.254 9.296V16H264.758L264.614 15.024V7.504H263.35L258.614 13.536L258.23 14.208V7.504H256.678L256.87 8.704V16H258.134L262.87 9.968L263.254 9.296ZM267.928 7.504L268.136 8.752V16H269.656L269.496 14.96V12.896H270.168C272.248 12.896 273.8 11.584 273.8 10.096C273.8 8.32 272.248 7.504 270.648 7.504H267.928ZM269.496 11.824V8.576H270.392C271.448 8.576 272.36 9.088 272.36 10.096C272.36 11.168 271.448 11.824 270.392 11.824H269.496ZM280.42 11.648H279.588C278.18 11.648 277.332 11.312 277.332 10.064C277.332 9.216 277.876 8.512 279.348 8.512H280.42V11.648ZM275.892 10.064C275.892 11.056 276.452 11.984 277.764 12.416L275.156 16H276.788L279.172 12.656H280.42V16H281.972L281.78 14.8V7.504H279.524C276.82 7.504 275.892 8.736 275.892 10.064ZM292.091 7.36C290.043 7.36 288.331 8.944 288.011 11.072H286.699V7.504H285.147L285.339 8.704V16H286.843L286.699 15.024V12.112H287.947C288.059 14.384 289.563 16.176 291.915 16.176C294.187 16.176 296.091 14.176 296.091 11.664C296.091 9.168 294.683 7.36 292.091 7.36ZM289.387 11.76C289.387 9.984 290.523 8.432 292.027 8.432C293.531 8.432 294.651 9.984 294.651 11.76C294.651 13.52 293.531 15.088 292.027 15.088C290.523 15.088 289.387 13.52 289.387 11.76ZM296.611 8.592H299.635V16H301.155L300.995 14.96V8.592H304.115V7.504H296.611V8.592ZM308.98 11.872C308.98 13.856 310.724 15.152 312.964 15.168V16.144H314.452L314.308 15.168C316.548 15.152 318.292 13.856 318.292 11.872C318.292 9.872 316.548 8.592 314.308 8.576V7.376H312.788L312.964 8.576C310.724 8.592 308.98 9.872 308.98 11.872ZM310.42 11.872C310.42 10.432 311.396 9.456 312.964 9.456V14.288C311.396 14.288 310.42 13.296 310.42 11.872ZM316.852 11.872C316.852 13.296 315.892 14.288 314.308 14.288V9.456C315.892 9.456 316.852 10.432 316.852 11.872ZM327.145 7.504H325.737L323.513 12.128L323.177 13.008L322.825 12.128L320.265 7.504H318.441L319.497 8.928L322.457 14.224C322.105 14.832 321.561 15.104 320.793 15.104C320.553 15.104 320.297 15.04 320.057 14.96L320.265 16.064C320.521 16.16 320.777 16.208 321.017 16.208C322.393 16.208 323.289 15.488 323.929 14.16L327.145 7.504ZM336.833 7.504H335.265L335.473 8.752V11.04H330.465V7.504H328.897L329.105 8.752V16H330.625L330.465 14.96V12.192H335.473V16H336.993L336.833 14.96V7.504ZM341.745 11.088V7.504H340.193L340.385 8.704V16H341.889L341.745 15.024V12.208H342.801L345.473 16H347.137L343.905 11.6L345.329 9.392C345.777 8.704 346.161 8.464 346.497 8.464C346.673 8.464 346.865 8.48 346.977 8.496L346.849 7.424C346.737 7.392 346.513 7.344 346.273 7.344C345.601 7.344 344.865 7.68 344.145 8.864L342.801 11.088H341.745ZM349.103 16H356.239L356.255 18.08H357.583L357.551 14.912H356.463V7.504H355.007L355.151 8.48V14.912H350.463V7.504H348.959L349.103 8.48V16ZM366.379 9.296V16H367.883L367.739 15.024V7.504H366.475L361.739 13.536L361.355 14.208V7.504H359.803L359.995 8.704V16H361.259L365.995 9.968L366.379 9.296ZM374.557 7.344C372.077 7.344 370.205 9.344 370.205 11.856C370.205 14.256 371.725 16.208 374.381 16.208C376.861 16.208 378.749 14.208 378.749 11.696C378.749 9.2 377.357 7.344 374.557 7.344ZM371.693 11.776C371.693 9.904 372.813 8.384 374.493 8.384C376.173 8.384 377.277 9.904 377.277 11.776C377.277 13.648 376.173 15.168 374.493 15.168C372.813 15.168 371.693 13.648 371.693 11.776ZM388.989 7.504H387.421L387.629 8.752V11.04H382.621V7.504H381.053L381.261 8.752V16H382.781L382.621 14.96V12.192H387.629V16H389.149L388.989 14.96V7.504ZM390.734 16H392.014L392.958 13.792H396.446L397.358 16H398.958L398.19 14.496L395.262 7.328L394.446 7.504L390.734 16ZM394.59 9.936L394.766 9.456L394.91 9.936L396.03 12.704H393.39L394.59 9.936ZM402.696 8.624H405.816V16H407.32L407.176 15.024V7.504H401.144L401.336 8.704L401.256 10.032C401.064 13.52 400.936 15.072 399.832 15.072C399.624 15.072 399.432 15.056 399.256 15.008L399.384 16.08C399.592 16.128 399.864 16.176 400.088 16.176C402.296 16.176 402.456 13.536 402.616 10.032L402.696 8.624ZM19.52 26.504H11.584L11.792 27.752V35H13.312L13.152 33.96V27.656H18.16V35H19.68L19.52 33.96V26.504ZM22.8809 26.504L23.0889 27.752V35H24.6089L24.4489 33.96V31.896H25.1209C27.2009 31.896 28.7529 30.584 28.7529 29.096C28.7529 27.32 27.2009 26.504 25.6009 26.504H22.8809ZM24.4489 30.824V27.576H25.3449C26.4009 27.576 27.3129 28.088 27.3129 29.096C27.3129 30.168 26.4009 30.824 25.3449 30.824H24.4489ZM34.5568 26.344C32.0768 26.344 30.2048 28.344 30.2048 30.856C30.2048 33.256 31.7248 35.208 34.3808 35.208C36.8608 35.208 38.7488 33.208 38.7488 30.696C38.7488 28.2 37.3568 26.344 34.5568 26.344ZM31.6928 30.776C31.6928 28.904 32.8128 27.384 34.4928 27.384C36.1728 27.384 37.2768 28.904 37.2768 30.776C37.2768 32.648 36.1728 34.168 34.4928 34.168C32.8128 34.168 31.6928 32.648 31.6928 30.776ZM41.2448 27.704V35H42.7488L42.6048 34.024V27.544H46.0768V26.504H41.0528L41.2448 27.704ZM47.8028 26.504L48.0108 27.752V35H49.5308L49.3708 33.96V31.896H50.0428C52.1228 31.896 53.6748 30.584 53.6748 29.096C53.6748 27.32 52.1228 26.504 50.5228 26.504H47.8028ZM49.3708 30.824V27.576H50.2668C51.3228 27.576 52.2348 28.088 52.2348 29.096C52.2348 30.168 51.3228 30.824 50.2668 30.824H49.3708ZM54.3586 35H55.6386L56.5826 32.792H60.0706L60.9826 35H62.5826L61.8146 33.496L58.8866 26.328L58.0706 26.504L54.3586 35ZM58.2146 28.936L58.3906 28.456L58.5346 28.936L59.6546 31.704H57.0146L58.2146 28.936ZM69.3286 34.12L72.3046 29.992L72.7526 29.224V35H74.2726L74.1126 33.96V26.504H73.2486L69.3926 32.008L65.0566 26.504H64.1286L64.3206 27.736V35H65.6966L65.5366 33.96V29.24L65.9846 30.056L69.3286 34.12ZM82.5786 34.12L85.5546 29.992L86.0026 29.224V35H87.5226L87.3626 33.96V26.504H86.4986L82.6426 32.008L78.3066 26.504H77.3786L77.5706 27.736V35H78.9466L78.7866 33.96V29.24L79.2346 30.056L82.5786 34.12ZM92.2286 29.784C92.2286 29.256 91.7966 28.808 91.2686 28.808C90.7406 28.808 90.3086 29.256 90.3086 29.784C90.3086 30.344 90.7406 30.792 91.2686 30.792C91.7966 30.792 92.2286 30.344 92.2286 29.784ZM92.2286 34.2C92.2286 33.672 91.7966 33.224 91.2686 33.224C90.7406 33.224 90.3086 33.672 90.3086 34.2C90.3086 34.76 90.7406 35.208 91.2686 35.208C91.7966 35.208 92.2286 34.76 92.2286 34.2ZM97.7701 37.08H99.0821V35H105.37V37.08H106.682V33.896H105.594V26.504H99.6101L99.8021 27.704L99.7861 28.52C99.7381 30.728 99.6261 32.344 98.6821 33.896H97.7701V37.08ZM101.146 28.52V27.624H104.234V33.896H100.186C100.986 32.344 101.146 30.728 101.146 28.52ZM112.447 26.344C109.967 26.344 108.095 28.344 108.095 30.856C108.095 33.256 109.615 35.208 112.271 35.208C114.751 35.208 116.639 33.208 116.639 30.696C116.639 28.2 115.247 26.344 112.447 26.344ZM109.583 30.776C109.583 28.904 110.703 27.384 112.383 27.384C114.063 27.384 115.167 28.904 115.167 30.776C115.167 32.648 114.063 34.168 112.383 34.168C110.703 34.168 109.583 32.648 109.583 30.776ZM120.495 30.712H121.327C122.783 30.712 123.551 31.032 123.551 32.328C123.551 33.224 123.087 33.944 121.551 33.944H120.495V30.712ZM120.495 27.576H124.223V26.504H118.943L119.135 27.704V35H121.375C124.063 35 124.991 33.736 124.991 32.328C124.991 30.92 124.063 29.656 121.375 29.656H120.495V27.576ZM125.593 35H126.873L127.817 32.792H131.305L132.217 35H133.817L133.049 33.496L130.121 26.328L129.305 26.504L125.593 35ZM129.449 28.936L129.625 28.456L129.769 28.936L130.889 31.704H128.249L129.449 28.936ZM137.027 27.528C137.235 27.512 137.427 27.496 137.603 27.496C138.995 27.496 139.587 27.88 139.587 28.728C139.587 29.256 139.315 29.688 139.075 29.96C139.075 29.96 138.467 29.88 138.035 29.88H137.027V27.528ZM135.459 26.504L135.667 27.752V35H137.875C140.499 35 141.443 33.704 141.443 32.312C141.443 31.096 140.803 30.584 139.891 30.2C140.291 29.832 140.899 29.16 140.899 28.472C140.899 27.16 139.699 26.44 137.987 26.44C137.987 26.44 137.843 26.44 135.459 26.504ZM137.027 30.952H137.811C139.267 30.952 140.019 31.304 140.019 32.424C140.019 33.176 139.555 33.944 138.035 33.944H137.027V30.952ZM145.93 27.624H149.05V35H150.554L150.41 34.024V26.504H144.378L144.57 27.704L144.49 29.032C144.298 32.52 144.17 34.072 143.066 34.072C142.858 34.072 142.666 34.056 142.49 34.008L142.618 35.08C142.826 35.128 143.098 35.176 143.322 35.176C145.53 35.176 145.69 32.536 145.85 29.032L145.93 27.624ZM158.045 30.648H157.213C155.805 30.648 154.957 30.312 154.957 29.064C154.957 28.216 155.501 27.512 156.973 27.512H158.045V30.648ZM153.517 29.064C153.517 30.056 154.077 30.984 155.389 31.416L152.781 35H154.413L156.797 31.656H158.045V35H159.597L159.405 33.8V26.504H157.149C154.445 26.504 153.517 27.736 153.517 29.064ZM169.716 26.36C167.668 26.36 165.956 27.944 165.636 30.072H164.324V26.504H162.772L162.964 27.704V35H164.468L164.324 34.024V31.112H165.572C165.684 33.384 167.188 35.176 169.54 35.176C171.812 35.176 173.716 33.176 173.716 30.664C173.716 28.168 172.308 26.36 169.716 26.36ZM167.012 30.76C167.012 28.984 168.148 27.432 169.652 27.432C171.156 27.432 172.276 28.984 172.276 30.76C172.276 32.52 171.156 34.088 169.652 34.088C168.148 34.088 167.012 32.52 167.012 30.76ZM174.236 27.592H177.26V35H178.78L178.62 33.96V27.592H181.74V26.504H174.236V27.592ZM195.645 26.504H194.077L194.285 27.752V30.04H189.277V26.504H187.709L187.917 27.752V35H189.437L189.277 33.96V31.192H194.285V35H195.805L195.645 33.96V26.504ZM202.51 26.344C200.03 26.344 198.158 28.344 198.158 30.856C198.158 33.256 199.678 35.208 202.334 35.208C204.814 35.208 206.702 33.208 206.702 30.696C206.702 28.2 205.31 26.344 202.51 26.344ZM199.646 30.776C199.646 28.904 200.766 27.384 202.446 27.384C204.126 27.384 205.23 28.904 205.23 30.776C205.23 32.648 204.126 34.168 202.446 34.168C200.766 34.168 199.646 32.648 199.646 30.776ZM210.574 27.528C210.782 27.512 210.974 27.496 211.15 27.496C212.542 27.496 213.134 27.88 213.134 28.728C213.134 29.256 212.862 29.688 212.622 29.96C212.622 29.96 212.014 29.88 211.582 29.88H210.574V27.528ZM209.006 26.504L209.214 27.752V35H211.422C214.046 35 214.99 33.704 214.99 32.312C214.99 31.096 214.35 30.584 213.438 30.2C213.838 29.832 214.446 29.16 214.446 28.472C214.446 27.16 213.246 26.44 211.534 26.44C211.534 26.44 211.39 26.44 209.006 26.504ZM210.574 30.952H211.358C212.814 30.952 213.566 31.304 213.566 32.424C213.566 33.176 213.102 33.944 211.582 33.944H210.574V30.952ZM226.261 26.504H224.709L224.901 27.704V35H226.405L226.261 34.024V26.504ZM218.933 30.728H219.765C221.253 30.728 222.021 31.096 222.021 32.344C222.021 33.192 221.557 33.96 219.989 33.96H218.933V30.728ZM218.933 26.504H217.381L217.573 27.704V35H219.813C222.533 35 223.461 33.752 223.461 32.344C223.461 30.936 222.533 29.688 219.813 29.688H218.933V26.504ZM229.776 35H234.432L234.768 33.928H231.136V31.176H233.84L234.176 30.104H231.136V27.576H234.576V26.504H229.568L229.776 27.752V35ZM248.004 28.296V35H249.508L249.364 34.024V26.504H248.1L243.364 32.536L242.98 33.208V26.504H241.428L241.62 27.704V35H242.884L247.62 28.968L248.004 28.296ZM260.614 26.504H259.046L259.254 27.752V30.04H254.246V26.504H252.678L252.886 27.752V35H254.406L254.246 33.96V31.192H259.254V35H260.774L260.614 33.96V26.504ZM262.471 27.592H265.495V35H267.015L266.855 33.96V27.592H269.975V26.504H262.471V27.592ZM271.839 35H276.495L276.831 33.928H273.199V31.176H275.903L276.239 30.104H273.199V27.576H276.639V26.504H271.631L271.839 27.752V35ZM279.37 27.704V35H280.874L280.73 34.024V27.544H284.202V26.504H279.178L279.37 27.704ZM285.928 26.504L286.136 27.752V35H287.656L287.496 33.96V31.896H288.168C290.248 31.896 291.8 30.584 291.8 29.096C291.8 27.32 290.248 26.504 288.648 26.504H285.928ZM287.496 30.824V27.576H288.392C289.448 27.576 290.36 28.088 290.36 29.096C290.36 30.168 289.448 30.824 288.392 30.824H287.496ZM292.484 35H293.764L294.708 32.792H298.196L299.108 35H300.708L299.94 33.496L297.012 26.328L296.196 26.504L292.484 35ZM296.34 28.936L296.516 28.456L296.66 28.936L297.78 31.704H295.14L296.34 28.936ZM302.494 35H309.63L309.646 37.08H310.974L310.942 33.912H309.854V26.504H308.398L308.542 27.48V33.912H303.854V26.504H302.35L302.494 27.48V35ZM319.769 28.296V35H321.273L321.129 34.024V26.504H319.865L315.129 32.536L314.745 33.208V26.504H313.193L313.385 27.704V35H314.649L319.385 28.968L319.769 28.296ZM331.019 28.296V35H332.523L332.379 34.024V26.504H331.115L326.379 32.536L325.995 33.208V26.504H324.443L324.635 27.704V35H325.899L330.635 28.968L331.019 28.296ZM335.645 37.256C336.813 36.488 337.309 35.144 337.309 34.344C337.309 33.56 336.845 33.192 336.349 33.192C335.773 33.192 335.389 33.64 335.389 34.2C335.389 34.248 335.389 34.296 335.389 34.344C335.821 34.52 335.965 34.68 335.965 35.096C335.965 35.624 335.437 36.344 335.069 36.696L335.645 37.256ZM12.928 50.16H16.96C16.848 52.128 15.456 53.072 13.696 53.072C12.384 53.072 10.88 51.984 10.88 51.984L10.56 53.04C10.56 53.04 11.952 54.176 13.936 54.176C16.416 54.176 18.4 52.816 18.4 49.92C18.4 47.072 16.592 45.344 13.744 45.344C12.544 45.344 11.552 45.712 10.688 46.416L11.36 47.392C12.048 46.752 12.848 46.4 13.808 46.4C15.696 46.4 16.736 47.44 16.928 49.056H12.928V50.16ZM22.805 46.624H25.925V54H27.429L27.285 53.024V45.504H21.253L21.445 46.704L21.365 48.032C21.173 51.52 21.045 53.072 19.941 53.072C19.733 53.072 19.541 53.056 19.365 53.008L19.493 54.08C19.701 54.128 19.973 54.176 20.197 54.176C22.405 54.176 22.565 51.536 22.725 48.032L22.805 46.624ZM30.8076 54H35.4636L35.7996 52.928H32.1676V50.176H34.8716L35.2076 49.104H32.1676V46.576H35.6076V45.504H30.5996L30.8076 46.752V54ZM43.2505 53.12L46.2265 48.992L46.6745 48.224V54H48.1945L48.0345 52.96V45.504H47.1705L43.3145 51.008L38.9785 45.504H38.0505L38.2425 46.736V54H39.6185L39.4585 52.96V48.24L39.9065 49.056L43.2505 53.12ZM51.6045 54H56.2605L56.5965 52.928H52.9645V50.176H55.6685L56.0045 49.104H52.9645V46.576H56.4045V45.504H51.3965L51.6045 46.752V54ZM66.8794 45.504H65.3114L65.5194 46.752V49.04H60.5114V45.504H58.9434L59.1514 46.752V54H60.6714L60.5114 52.96V50.192H65.5194V54H67.0394L66.8794 52.96V45.504ZM68.7363 46.592H71.7603V54H73.2803L73.1203 52.96V46.592H76.2403V45.504H68.7363V46.592ZM86.7765 45.504H85.2245L85.4165 46.704V54H86.9205L86.7765 53.024V45.504ZM79.4485 49.728H80.2805C81.7685 49.728 82.5365 50.096 82.5365 51.344C82.5365 52.192 82.0725 52.96 80.5045 52.96H79.4485V49.728ZM79.4485 45.504H77.8965L78.0885 46.704V54H80.3285C83.0485 54 83.9765 52.752 83.9765 51.344C83.9765 49.936 83.0485 48.688 80.3285 48.688H79.4485V45.504ZM94.5885 46.704V54H96.0925L95.9485 53.024V46.544H99.4205V45.504H94.3965L94.5885 46.704ZM101.355 54H106.011L106.347 52.928H102.715V50.176H105.419L105.755 49.104H102.715V46.576H106.155V45.504H101.147L101.355 46.752V54ZM112.757 44.336C111.829 44.336 111.269 43.072 111.269 43.072L110.469 43.328C110.469 43.328 111.045 45.184 112.757 45.184C114.469 45.184 115.045 43.328 115.045 43.328L114.245 43.072C114.245 43.072 113.685 44.336 112.757 44.336ZM115.269 47.296V54H116.773L116.629 53.024V45.504H115.365L110.629 51.536L110.245 52.208V45.504H108.693L108.885 46.704V54H110.149L114.885 47.968L115.269 47.296ZM125.047 53.12L128.023 48.992L128.471 48.224V54H129.991L129.831 52.96V45.504H128.967L125.111 51.008L120.775 45.504H119.847L120.039 46.736V54H121.415L121.255 52.96V48.24L121.703 49.056L125.047 53.12ZM139.769 47.296V54H141.273L141.129 53.024V45.504H139.865L135.129 51.536L134.745 52.208V45.504H133.193L133.385 46.704V54H134.649L139.385 47.968L139.769 47.296ZM143.339 49.872C143.339 51.856 145.083 53.152 147.323 53.168V54.144H148.811L148.667 53.168C150.907 53.152 152.651 51.856 152.651 49.872C152.651 47.872 150.907 46.592 148.667 46.576V45.376H147.147L147.323 46.576C145.083 46.592 143.339 47.872 143.339 49.872ZM144.779 49.872C144.779 48.432 145.755 47.456 147.323 47.456V52.288C145.755 52.288 144.779 51.296 144.779 49.872ZM151.211 49.872C151.211 51.296 150.251 52.288 148.667 52.288V47.456C150.251 47.456 151.211 48.432 151.211 49.872ZM161.285 47.296V54H162.789L162.645 53.024V45.504H161.381L156.645 51.536L156.261 52.208V45.504H154.709L154.901 46.704V54H156.165L160.901 47.968L161.285 47.296ZM167.511 49.088V45.504H165.959L166.151 46.704V54H167.655L167.511 53.024V50.208H168.567L171.239 54H172.903L169.671 49.6L171.095 47.392C171.543 46.704 171.927 46.464 172.263 46.464C172.439 46.464 172.631 46.48 172.743 46.496L172.615 45.424C172.503 45.392 172.279 45.344 172.039 45.344C171.367 45.344 170.631 45.68 169.911 46.864L168.567 49.088H167.511ZM173.109 54H174.389L175.333 51.792H178.821L179.733 54H181.333L180.565 52.496L177.637 45.328L176.821 45.504L173.109 54ZM176.965 47.936L177.141 47.456L177.285 47.936L178.405 50.704H175.765L176.965 47.936ZM183.119 54H190.255L190.271 56.08H191.599L191.567 52.912H190.479V45.504H189.023L189.167 46.48V52.912H184.479V45.504H182.975L183.119 46.48V54ZM200.394 47.296V54H201.898L201.754 53.024V45.504H200.49L195.754 51.536L195.37 52.208V45.504H193.818L194.01 46.704V54H195.274L200.01 47.968L200.394 47.296ZM211.644 47.296V54H213.148L213.004 53.024V45.504H211.74L207.004 51.536L206.62 52.208V45.504H205.068L205.26 46.704V54H206.524L211.26 47.968L211.644 47.296ZM216.27 56.256C217.438 55.488 217.934 54.144 217.934 53.344C217.934 52.56 217.47 52.192 216.974 52.192C216.398 52.192 216.014 52.64 216.014 53.2C216.014 53.248 216.014 53.296 216.014 53.344C216.446 53.52 216.59 53.68 216.59 54.096C216.59 54.624 216.062 55.344 215.694 55.696L216.27 56.256ZM231.791 46.448C230.895 45.712 229.887 45.344 228.703 45.344C226.143 45.344 224.079 47.296 224.079 49.952C224.079 52.736 226.255 54.208 228.511 54.208C230.463 54.208 231.903 53.072 231.903 53.072L231.551 52.032C231.551 52.032 230.063 53.072 228.735 53.072C227.151 53.072 225.535 51.856 225.535 49.824C225.535 48.08 226.799 46.416 228.639 46.416C229.583 46.416 230.383 46.768 231.055 47.392L231.791 46.448ZM235.605 49.088V45.504H234.053L234.245 46.704V54H235.749L235.605 53.024V50.208H236.661L239.333 54H240.997L237.765 49.6L239.189 47.392C239.637 46.704 240.021 46.464 240.357 46.464C240.533 46.464 240.725 46.48 240.837 46.496L240.709 45.424C240.597 45.392 240.373 45.344 240.133 45.344C239.461 45.344 238.725 45.68 238.005 46.864L236.661 49.088H235.605ZM241.202 54H242.482L243.426 51.792H246.914L247.826 54H249.426L248.658 52.496L245.73 45.328L244.914 45.504L241.202 54ZM245.058 47.936L245.234 47.456L245.378 47.936L246.498 50.704H243.858L245.058 47.936ZM259.004 45.504H257.436L257.644 46.752V49.04H252.636V45.504H251.068L251.276 46.752V54H252.796L252.636 52.96V50.192H257.644V54H259.164L259.004 52.96V45.504ZM268.941 47.296V54H270.445L270.301 53.024V45.504H269.037L264.301 51.536L263.917 52.208V45.504H262.365L262.557 46.704V54H263.821L268.557 47.968L268.941 47.296ZM273.615 45.504L273.823 46.752V54H275.343L275.183 52.96V50.896H275.855C277.935 50.896 279.487 49.584 279.487 48.096C279.487 46.32 277.935 45.504 276.335 45.504H273.615ZM275.183 49.824V46.576H276.079C277.135 46.576 278.047 47.088 278.047 48.096C278.047 49.168 277.135 49.824 276.079 49.824H275.183ZM285.291 45.344C282.811 45.344 280.939 47.344 280.939 49.856C280.939 52.256 282.459 54.208 285.115 54.208C287.595 54.208 289.483 52.208 289.483 49.696C289.483 47.2 288.091 45.344 285.291 45.344ZM282.427 49.776C282.427 47.904 283.547 46.384 285.227 46.384C286.907 46.384 288.011 47.904 288.011 49.776C288.011 51.648 286.907 53.168 285.227 53.168C283.547 53.168 282.427 51.648 282.427 49.776ZM293.355 46.528C293.563 46.512 293.755 46.496 293.931 46.496C295.323 46.496 295.915 46.88 295.915 47.728C295.915 48.256 295.643 48.688 295.403 48.96C295.403 48.96 294.795 48.88 294.363 48.88H293.355V46.528ZM291.787 45.504L291.995 46.752V54H294.203C296.827 54 297.771 52.704 297.771 51.312C297.771 50.096 297.131 49.584 296.219 49.2C296.619 48.832 297.227 48.16 297.227 47.472C297.227 46.16 296.027 45.44 294.315 45.44C294.315 45.44 294.171 45.44 291.787 45.504ZM293.355 49.952H294.139C295.595 49.952 296.347 50.304 296.347 51.424C296.347 52.176 295.883 52.944 294.363 52.944H293.355V49.952ZM298.546 54H299.826L300.77 51.792H304.258L305.17 54H306.77L306.002 52.496L303.074 45.328L302.258 45.504L298.546 54ZM302.402 47.936L302.578 47.456L302.722 47.936L303.842 50.704H301.202L302.402 47.936ZM316.348 45.504H314.78L314.988 46.752V49.04H309.98V45.504H308.412L308.62 46.752V54H310.14L309.98 52.96V50.192H314.988V54H316.508L316.348 52.96V45.504ZM326.285 47.296V54H327.789L327.645 53.024V45.504H326.381L321.645 51.536L321.261 52.208V45.504H319.709L319.901 46.704V54H321.165L325.901 47.968L326.285 47.296ZM331.167 54H335.823L336.159 52.928H332.527V50.176H335.231L335.567 49.104H332.527V46.576H335.967V45.504H330.959L331.167 46.752V54ZM344.386 46.528C344.594 46.512 344.786 46.496 344.962 46.496C346.354 46.496 346.946 46.88 346.946 47.728C346.946 48.256 346.674 48.688 346.434 48.96C346.434 48.96 345.826 48.88 345.394 48.88H344.386V46.528ZM342.818 45.504L343.026 46.752V54H345.234C347.858 54 348.802 52.704 348.802 51.312C348.802 50.096 348.162 49.584 347.25 49.2C347.65 48.832 348.258 48.16 348.258 47.472C348.258 46.16 347.058 45.44 345.346 45.44C345.346 45.44 345.202 45.44 342.818 45.504ZM344.386 49.952H345.17C346.626 49.952 347.378 50.304 347.378 51.424C347.378 52.176 346.914 52.944 345.394 52.944H344.386V49.952ZM357.769 47.296V54H359.273L359.129 53.024V45.504H357.865L353.129 51.536L352.745 52.208V45.504H351.193L351.385 46.704V54H352.649L357.385 47.968L357.769 47.296ZM363.147 48.976V50.016H364.203C365.467 50.016 366.187 50.416 366.187 51.584C366.187 52.192 365.755 53.12 364.395 53.12C362.923 53.12 361.819 52.144 361.819 52.144L361.499 53.152C361.499 53.152 362.715 54.176 364.395 54.176C366.667 54.176 367.627 52.896 367.627 51.584C367.627 50.72 367.195 49.872 366.187 49.392C366.859 48.912 367.371 48.272 367.371 47.6C367.371 45.984 366.075 45.312 364.363 45.312C363.355 45.312 362.443 45.6 361.579 46.304L362.251 47.28C362.939 46.64 363.611 46.368 364.347 46.368C365.387 46.368 366.011 46.8 366.011 47.632C366.011 48.304 365.787 48.72 365.387 49.088C365.051 49.024 364.683 48.976 364.251 48.976H363.147ZM376.582 47.296V54H378.086L377.942 53.024V45.504H376.678L371.942 51.536L371.558 52.208V45.504H370.006L370.198 46.704V54H371.462L376.198 47.968L376.582 47.296ZM379.752 46.592H382.776V54H384.296L384.136 52.96V46.592H387.256V45.504H379.752V46.592ZM392.104 45.344C389.624 45.344 387.752 47.344 387.752 49.856C387.752 52.256 389.272 54.208 391.928 54.208C394.408 54.208 396.296 52.208 396.296 49.696C396.296 47.2 394.904 45.344 392.104 45.344ZM389.24 49.776C389.24 47.904 390.36 46.384 392.04 46.384C393.72 46.384 394.824 47.904 394.824 49.776C394.824 51.648 393.72 53.168 392.04 53.168C390.36 53.168 389.24 51.648 389.24 49.776ZM400.152 49.088V45.504H398.6L398.792 46.704V54H400.296L400.152 53.024V50.208H401.208L403.88 54H405.544L402.312 49.6L403.736 47.392C404.184 46.704 404.568 46.464 404.904 46.464C405.08 46.464 405.272 46.48 405.384 46.496L405.256 45.424C405.144 45.392 404.92 45.344 404.68 45.344C404.008 45.344 403.272 45.68 402.552 46.864L401.208 49.088H400.152ZM18.16 66.296V73H19.664L19.52 72.024V64.504H18.256L13.52 70.536L13.136 71.208V64.504H11.584L11.776 65.704V73H13.04L17.776 66.968L18.16 66.296ZM35.0825 64.504H27.1465L27.3545 65.752V73H28.8745L28.7145 71.96V65.656H33.7225V73H35.2425L35.0825 71.96V64.504ZM38.4434 64.504L38.6514 65.752V73H40.1714L40.0114 71.96V69.896H40.6834C42.7634 69.896 44.3154 68.584 44.3154 67.096C44.3154 65.32 42.7634 64.504 41.1634 64.504H38.4434ZM40.0114 68.824V65.576H40.9074C41.9634 65.576 42.8754 66.088 42.8754 67.096C42.8754 68.168 41.9634 68.824 40.9074 68.824H40.0114ZM50.1193 64.344C47.6393 64.344 45.7673 66.344 45.7673 68.856C45.7673 71.256 47.2873 73.208 49.9433 73.208C52.4233 73.208 54.3113 71.208 54.3113 68.696C54.3113 66.2 52.9193 64.344 50.1193 64.344ZM47.2553 68.776C47.2553 66.904 48.3753 65.384 50.0553 65.384C51.7353 65.384 52.8393 66.904 52.8393 68.776C52.8393 70.648 51.7353 72.168 50.0553 72.168C48.3753 72.168 47.2553 70.648 47.2553 68.776ZM58.9513 70.04C60.5193 70.04 61.7353 69.576 61.7353 69.576V73H63.2393L63.0953 72.024V64.504H61.5433L61.7353 65.704V68.472C61.7353 68.472 60.7113 68.952 59.4633 68.952C58.2153 68.952 57.5273 68.44 57.5273 67.24V64.504H55.9913L56.1673 65.704V67.32C56.1673 69.208 57.3353 70.04 58.9513 70.04ZM66.4639 73H71.1199L71.4559 71.928H67.8239V69.176H70.5279L70.8639 68.104H67.8239V65.576H71.2639V64.504H66.2559L66.4639 65.752V73ZM74.0108 73H78.6668L79.0028 71.928H75.3708V69.176H78.0748L78.4108 68.104H75.3708V65.576H78.8108V64.504H73.8028L74.0108 65.752V73ZM82.8856 72.2C82.8856 71.672 82.4536 71.224 81.9256 71.224C81.3976 71.224 80.9656 71.672 80.9656 72.2C80.9656 72.76 81.3976 73.208 81.9256 73.208C82.4536 73.208 82.8856 72.76 82.8856 72.2ZM98.6946 62.472H97.0466L97.2546 63.944V66.92H91.6226V62.472H89.9746L90.1826 63.944V73H91.7826L91.6226 71.8V68.2H97.2546V73H98.8546L98.6946 71.8V62.472ZM105.526 64.344C103.046 64.344 101.174 66.344 101.174 68.856C101.174 71.256 102.694 73.208 105.35 73.208C107.83 73.208 109.718 71.208 109.718 68.696C109.718 66.2 108.326 64.344 105.526 64.344ZM102.662 68.776C102.662 66.904 103.782 65.384 105.462 65.384C107.142 65.384 108.246 66.904 108.246 68.776C108.246 70.648 107.142 72.168 105.462 72.168C103.782 72.168 102.662 70.648 102.662 68.776ZM118.67 70.04C120.238 70.04 121.454 69.576 121.454 69.576V73H122.958L122.814 72.024V64.504H121.262L121.454 65.704V68.472C121.454 68.472 120.43 68.952 119.182 68.952C117.934 68.952 117.246 68.44 117.246 67.24V64.504H115.71L115.886 65.704V67.32C115.886 69.208 117.054 70.04 118.67 70.04ZM124.359 73H125.639L126.583 70.792H130.071L130.983 73H132.583L131.815 71.496L128.887 64.328L128.071 64.504L124.359 73ZM128.215 66.936L128.391 66.456L128.535 66.936L129.655 69.704H127.015L128.215 66.936ZM141.073 65.448C140.177 64.712 139.169 64.344 137.985 64.344C135.425 64.344 133.361 66.296 133.361 68.952C133.361 71.736 135.537 73.208 137.793 73.208C139.745 73.208 141.185 72.072 141.185 72.072L140.833 71.032C140.833 71.032 139.345 72.072 138.017 72.072C136.433 72.072 134.817 70.856 134.817 68.824C134.817 67.08 136.081 65.416 137.921 65.416C138.865 65.416 139.665 65.768 140.337 66.392L141.073 65.448ZM141.83 65.592H144.854V73H146.374L146.214 71.96V65.592H149.334V64.504H141.83V65.592ZM154.182 64.344C151.702 64.344 149.83 66.344 149.83 68.856C149.83 71.256 151.35 73.208 154.006 73.208C156.486 73.208 158.374 71.208 158.374 68.696C158.374 66.2 156.982 64.344 154.182 64.344ZM151.318 68.776C151.318 66.904 152.438 65.384 154.118 65.384C155.798 65.384 156.902 66.904 156.902 68.776C156.902 70.648 155.798 72.168 154.118 72.168C152.438 72.168 151.318 70.648 151.318 68.776ZM166.542 68.088V64.504H164.99L165.182 65.704V73H166.686L166.542 72.024V69.208H167.598L170.27 73H171.934L168.702 68.6L170.126 66.392C170.574 65.704 170.958 65.464 171.294 65.464C171.47 65.464 171.662 65.48 171.774 65.496L171.646 64.424C171.534 64.392 171.31 64.344 171.07 64.344C170.398 64.344 169.662 64.68 168.942 65.864L167.598 68.088H166.542ZM176.979 64.344C174.499 64.344 172.627 66.344 172.627 68.856C172.627 71.256 174.147 73.208 176.803 73.208C179.283 73.208 181.171 71.208 181.171 68.696C181.171 66.2 179.779 64.344 176.979 64.344ZM174.115 68.776C174.115 66.904 175.235 65.384 176.915 65.384C178.595 65.384 179.699 66.904 179.699 68.776C179.699 70.648 178.595 72.168 176.915 72.168C175.235 72.168 174.115 70.648 174.115 68.776ZM188.579 72.12L191.555 67.992L192.003 67.224V73H193.523L193.363 71.96V64.504H192.499L188.643 70.008L184.307 64.504H183.379L183.571 65.736V73H184.947L184.787 71.96V67.24L185.235 68.056L188.579 72.12ZM204.661 64.504H196.725L196.933 65.752V73H198.453L198.293 71.96V65.656H203.301V73H204.821L204.661 71.96V64.504ZM206.405 73H207.686L208.63 70.792H212.118L213.03 73H214.63L213.862 71.496L210.934 64.328L210.118 64.504L206.405 73ZM210.262 66.936L210.438 66.456L210.582 66.936L211.702 69.704H209.062L210.262 66.936ZM224.208 64.504H222.64L222.848 65.752V68.04H217.84V64.504H216.272L216.48 65.752V73H218L217.84 71.96V69.192H222.848V73H224.368L224.208 71.96V64.504ZM234.144 66.296V73H235.648L235.504 72.024V64.504H234.24L229.504 70.536L229.12 71.208V64.504H227.568L227.76 65.704V73H229.024L233.76 66.968L234.144 66.296ZM245.394 66.296V73H246.898L246.754 72.024V64.504H245.49L240.754 70.536L240.37 71.208V64.504H238.818L239.01 65.704V73H240.274L245.01 66.968L245.394 66.296ZM262.317 64.504H260.749L260.957 65.752V68.04H255.949V64.504H254.381L254.589 65.752V73H256.109L255.949 71.96V69.192H260.957V73H262.477L262.317 71.96V64.504ZM265.886 73H270.542L270.878 71.928H267.246V69.176H269.95L270.286 68.104H267.246V65.576H270.686V64.504H265.678L265.886 65.752V73ZM284.113 66.296V73H285.617L285.473 72.024V64.504H284.209L279.473 70.536L279.089 71.208V64.504H277.537L277.729 65.704V73H278.993L283.729 66.968L284.113 66.296ZM295.635 65.448C294.739 64.712 293.731 64.344 292.547 64.344C289.987 64.344 287.923 66.296 287.923 68.952C287.923 71.736 290.099 73.208 292.355 73.208C294.307 73.208 295.747 72.072 295.747 72.072L295.395 71.032C295.395 71.032 293.907 72.072 292.579 72.072C290.995 72.072 289.379 70.856 289.379 68.824C289.379 67.08 290.643 65.416 292.483 65.416C293.427 65.416 294.227 65.768 294.899 66.392L295.635 65.448ZM305.833 64.504H297.897L298.105 65.752V73H299.625L299.465 71.96V65.656H304.473V73H305.993L305.833 71.96V64.504ZM312.697 64.344C310.217 64.344 308.345 66.344 308.345 68.856C308.345 71.256 309.865 73.208 312.521 73.208C315.001 73.208 316.889 71.208 316.889 68.696C316.889 66.2 315.497 64.344 312.697 64.344ZM309.833 68.776C309.833 66.904 310.953 65.384 312.633 65.384C314.313 65.384 315.417 66.904 315.417 68.776C315.417 70.648 314.313 72.168 312.633 72.168C310.953 72.168 309.833 70.648 309.833 68.776ZM321.289 65.624H324.409V73H325.913L325.769 72.024V64.504H319.737L319.929 65.704L319.849 67.032C319.657 70.52 319.529 72.072 318.425 72.072C318.217 72.072 318.025 72.056 317.849 72.008L317.977 73.08C318.185 73.128 318.457 73.176 318.681 73.176C320.889 73.176 321.049 70.536 321.209 67.032L321.289 65.624ZM330.636 68.728H331.468C332.956 68.728 333.724 69.096 333.724 70.344C333.724 71.192 333.26 71.96 331.692 71.96H330.636V68.728ZM330.636 64.504H329.084L329.276 65.704V73H331.516C334.236 73 335.164 71.752 335.164 70.344C335.164 68.936 334.236 67.688 331.516 67.688H330.636V64.504ZM338.085 67.976V69.016H339.141C340.405 69.016 341.125 69.416 341.125 70.584C341.125 71.192 340.693 72.12 339.333 72.12C337.861 72.12 336.757 71.144 336.757 71.144L336.437 72.152C336.437 72.152 337.653 73.176 339.333 73.176C341.605 73.176 342.565 71.896 342.565 70.584C342.565 69.72 342.133 68.872 341.125 68.392C341.797 67.912 342.309 67.272 342.309 66.6C342.309 64.984 341.013 64.312 339.301 64.312C338.293 64.312 337.381 64.6 336.517 65.304L337.189 66.28C337.877 65.64 338.549 65.368 339.285 65.368C340.325 65.368 340.949 65.8 340.949 66.632C340.949 67.304 340.725 67.72 340.325 68.088C339.989 68.024 339.621 67.976 339.189 67.976H338.085ZM351.911 64.504H350.503L348.279 69.128L347.943 70.008L347.591 69.128L345.031 64.504H343.207L344.263 65.928L347.223 71.224C346.871 71.832 346.327 72.104 345.559 72.104C345.319 72.104 345.063 72.04 344.823 71.96L345.031 73.064C345.287 73.16 345.543 73.208 345.783 73.208C347.159 73.208 348.055 72.488 348.695 71.16L351.911 64.504ZM360.606 64.36C358.558 64.36 356.846 65.944 356.526 68.072H355.214V64.504H353.662L353.854 65.704V73H355.358L355.214 72.024V69.112H356.462C356.574 71.384 358.078 73.176 360.43 73.176C362.702 73.176 364.606 71.176 364.606 68.664C364.606 66.168 363.198 64.36 360.606 64.36ZM357.902 68.76C357.902 66.984 359.038 65.432 360.542 65.432C362.046 65.432 363.166 66.984 363.166 68.76C363.166 70.52 362.046 72.088 360.542 72.088C359.038 72.088 357.902 70.52 357.902 68.76ZM365.127 65.592H368.151V73H369.671L369.511 71.96V65.592H372.631V64.504H365.127V65.592ZM379.944 69.16H383.976C383.864 71.128 382.472 72.072 380.712 72.072C379.4 72.072 377.896 70.984 377.896 70.984L377.576 72.04C377.576 72.04 378.968 73.176 380.952 73.176C383.432 73.176 385.416 71.816 385.416 68.92C385.416 66.072 383.608 64.344 380.76 64.344C379.56 64.344 378.568 64.712 377.704 65.416L378.376 66.392C379.064 65.752 379.864 65.4 380.824 65.4C382.712 65.4 383.752 66.44 383.944 68.056H379.944V69.16ZM385.908 65.592H388.932V73H390.452L390.292 71.96V65.592H393.412V64.504H385.908V65.592ZM401.644 66.296V73H403.148L403.004 72.024V64.504H401.74L397.004 70.536L396.62 71.208V64.504H395.068L395.26 65.704V73H396.524L401.26 66.968L401.644 66.296ZM15.088 83.344C12.608 83.344 10.736 85.344 10.736 87.856C10.736 90.256 12.256 92.208 14.912 92.208C17.392 92.208 19.28 90.208 19.28 87.696C19.28 85.2 17.888 83.344 15.088 83.344ZM12.224 87.776C12.224 85.904 13.344 84.384 15.024 84.384C16.704 84.384 17.808 85.904 17.808 87.776C17.808 89.648 16.704 91.168 15.024 91.168C13.344 91.168 12.224 89.648 12.224 87.776ZM29.52 83.504H21.584L21.792 84.752V92H23.312L23.152 90.96V84.656H28.16V92H29.68L29.52 90.96V83.504ZM33.0249 92H40.1609L40.1769 94.08H41.5049L41.4729 90.912H40.3849V83.504H38.9289L39.0729 84.48V90.912H34.3849V83.504H32.8809L33.0249 84.48V92ZM50.3006 85.296V92H51.8046L51.6606 91.024V83.504H50.3966L45.6606 89.536L45.2766 90.208V83.504H43.7246L43.9166 84.704V92H45.1806L49.9166 85.968L50.3006 85.296ZM61.5506 85.296V92H63.0546L62.9106 91.024V83.504H61.6466L56.9106 89.536L56.5266 90.208V83.504H54.9746L55.1666 84.704V92H56.4306L61.1666 85.968L61.5506 85.296ZM66.1766 94.256C67.3446 93.488 67.8406 92.144 67.8406 91.344C67.8406 90.56 67.3766 90.192 66.8806 90.192C66.3046 90.192 65.9206 90.64 65.9206 91.2C65.9206 91.248 65.9206 91.296 65.9206 91.344C66.3526 91.52 66.4966 91.68 66.4966 92.096C66.4966 92.624 65.9686 93.344 65.6006 93.696L66.1766 94.256ZM81.4256 85.296V92H82.9296L82.7856 91.024V83.504H81.5216L76.7856 89.536L76.4016 90.208V83.504H74.8496L75.0416 84.704V92H76.3056L81.0416 85.968L81.4256 85.296ZM86.0516 94.256C87.2196 93.488 87.7156 92.144 87.7156 91.344C87.7156 90.56 87.2516 90.192 86.7556 90.192C86.1796 90.192 85.7956 90.64 85.7956 91.2C85.7956 91.248 85.7956 91.296 85.7956 91.344C86.2276 91.52 86.3716 91.68 86.3716 92.096C86.3716 92.624 85.8436 93.344 85.4756 93.696L86.0516 94.256ZM96.2926 84.528C96.5006 84.512 96.6926 84.496 96.8686 84.496C98.2606 84.496 98.8526 84.88 98.8526 85.728C98.8526 86.256 98.5806 86.688 98.3406 86.96C98.3406 86.96 97.7326 86.88 97.3006 86.88H96.2926V84.528ZM94.7246 83.504L94.9326 84.752V92H97.1406C99.7646 92 100.709 90.704 100.709 89.312C100.709 88.096 100.069 87.584 99.1566 87.2C99.5566 86.832 100.165 86.16 100.165 85.472C100.165 84.16 98.9646 83.44 97.2526 83.44C97.2526 83.44 97.1086 83.44 94.7246 83.504ZM96.2926 87.952H97.0766C98.5326 87.952 99.2846 88.304 99.2846 89.424C99.2846 90.176 98.8206 90.944 97.3006 90.944H96.2926V87.952ZM111.036 83.504H109.468L109.676 84.752V87.04H104.668V83.504H103.1L103.308 84.752V92H104.828L104.668 90.96V88.192H109.676V92H111.196L111.036 90.96V83.504ZM114.605 92H119.261L119.597 90.928H115.965V88.176H118.669L119.005 87.104H115.965V84.576H119.405V83.504H114.397L114.605 84.752V92ZM120.551 94.08H121.863V92H128.151V94.08H129.463V90.896H128.375V83.504H122.391L122.583 84.704L122.567 85.52C122.519 87.728 122.407 89.344 121.463 90.896H120.551V94.08ZM123.927 85.52V84.624H127.015V90.896H122.967C123.767 89.344 123.927 87.728 123.927 85.52ZM131.725 83.504L131.933 84.752V92H133.453L133.293 90.96V88.896H133.965C136.045 88.896 137.597 87.584 137.597 86.096C137.597 84.32 136.045 83.504 134.445 83.504H131.725ZM133.293 87.824V84.576H134.189C135.245 84.576 136.157 85.088 136.157 86.096C136.157 87.168 135.245 87.824 134.189 87.824H133.293ZM146.473 85.296V92H147.977L147.833 91.024V83.504H146.569L141.833 89.536L141.449 90.208V83.504H139.897L140.089 84.704V92H141.353L146.089 85.968L146.473 85.296ZM152.715 84.528C152.923 84.512 153.115 84.496 153.291 84.496C154.683 84.496 155.275 84.88 155.275 85.728C155.275 86.256 155.003 86.688 154.763 86.96C154.763 86.96 154.155 86.88 153.723 86.88H152.715V84.528ZM151.147 83.504L151.355 84.752V92H153.562C156.187 92 157.131 90.704 157.131 89.312C157.131 88.096 156.491 87.584 155.579 87.2C155.979 86.832 156.587 86.16 156.587 85.472C156.587 84.16 155.387 83.44 153.674 83.44C153.674 83.44 153.531 83.44 151.147 83.504ZM152.715 87.952H153.499C154.955 87.952 155.707 88.304 155.707 89.424C155.707 90.176 155.243 90.944 153.723 90.944H152.715V87.952ZM162.33 84.592H165.354V92H166.874L166.714 90.96V84.592H169.834V83.504H162.33V84.592ZM169.234 92H170.514L171.458 89.792H174.946L175.858 92H177.458L176.69 90.496L173.762 83.328L172.946 83.504L169.234 92ZM173.09 85.936L173.266 85.456L173.41 85.936L174.53 88.704H171.89L173.09 85.936ZM180.652 87.088V83.504H179.1L179.292 84.704V92H180.796L180.652 91.024V88.208H181.708L184.38 92H186.044L182.812 87.6L184.236 85.392C184.684 84.704 185.068 84.464 185.404 84.464C185.58 84.464 185.772 84.48 185.884 84.496L185.756 83.424C185.644 83.392 185.42 83.344 185.18 83.344C184.508 83.344 183.772 83.68 183.052 84.864L181.708 87.088H180.652ZM195.145 83.504H193.737L191.513 88.128L191.177 89.008L190.825 88.128L188.265 83.504H186.441L187.497 84.928L190.457 90.224C190.105 90.832 189.561 91.104 188.793 91.104C188.553 91.104 188.297 91.04 188.057 90.96L188.265 92.064C188.521 92.16 188.777 92.208 189.017 92.208C190.393 92.208 191.289 91.488 191.929 90.16L195.145 83.504ZM203.841 83.36C201.793 83.36 200.081 84.944 199.761 87.072H198.449V83.504H196.897L197.089 84.704V92H198.593L198.449 91.024V88.112H199.697C199.809 90.384 201.313 92.176 203.665 92.176C205.937 92.176 207.841 90.176 207.841 87.664C207.841 85.168 206.433 83.36 203.841 83.36ZM201.137 87.76C201.137 85.984 202.273 84.432 203.777 84.432C205.281 84.432 206.401 85.984 206.401 87.76C206.401 89.52 205.281 91.088 203.777 91.088C202.273 91.088 201.137 89.52 201.137 87.76ZM222.043 82.592C221.099 81.728 220.011 81.28 218.683 81.28C215.867 81.28 213.595 83.68 213.595 86.96C213.595 90.384 215.995 92.208 218.475 92.208C220.651 92.208 222.187 90.816 222.187 90.816L221.835 89.632C221.835 89.632 220.187 90.976 218.731 90.976C216.939 90.976 215.131 89.376 215.131 86.8C215.131 84.576 216.555 82.464 218.619 82.464C219.675 82.464 220.555 82.896 221.307 83.68L222.043 82.592ZM231.998 92L228.718 87.648C229.982 87.056 230.766 85.888 230.766 84.64C230.766 82.48 229.07 81.472 227.31 81.472H224.334L224.542 82.944V92H226.142L225.982 90.8V88.064C226.926 88.064 227.15 88.064 227.326 88.048L230.142 92H231.998ZM225.982 86.88V82.656H227.022C228.206 82.656 229.246 83.328 229.246 84.64C229.246 85.856 228.206 86.88 227.022 86.88H225.982ZM239.404 90.816L242.684 85.712L243.244 84.592V92H244.844L244.684 90.8V81.472H243.788L239.468 88.272L234.7 81.472H233.644L233.852 82.944V92H235.324L235.164 90.8V84.656L235.692 85.712L239.404 90.816ZM247.989 94.256C249.157 93.488 249.653 92.144 249.653 91.344C249.653 90.56 249.189 90.192 248.693 90.192C248.117 90.192 247.733 90.64 247.733 91.2C247.733 91.248 247.733 91.296 247.733 91.344C248.165 91.52 248.309 91.68 248.309 92.096C248.309 92.624 247.781 93.344 247.413 93.696L247.989 94.256ZM258.23 84.528C258.438 84.512 258.63 84.496 258.806 84.496C260.198 84.496 260.79 84.88 260.79 85.728C260.79 86.256 260.518 86.688 260.278 86.96C260.278 86.96 259.67 86.88 259.238 86.88H258.23V84.528ZM256.662 83.504L256.87 84.752V92H259.078C261.702 92 262.646 90.704 262.646 89.312C262.646 88.096 262.006 87.584 261.094 87.2C261.494 86.832 262.102 86.16 262.102 85.472C262.102 84.16 260.902 83.44 259.19 83.44C259.19 83.44 259.046 83.44 256.662 83.504ZM258.23 87.952H259.014C260.47 87.952 261.222 88.304 261.222 89.424C261.222 90.176 260.758 90.944 259.238 90.944H258.23V87.952ZM273.917 83.504H272.365L272.557 84.704V92H274.061L273.917 91.024V83.504ZM266.589 87.728H267.421C268.909 87.728 269.677 88.096 269.677 89.344C269.677 90.192 269.213 90.96 267.645 90.96H266.589V87.728ZM266.589 83.504H265.037L265.229 84.704V92H267.469C270.189 92 271.117 90.752 271.117 89.344C271.117 87.936 270.189 86.688 267.469 86.688H266.589V83.504ZM289.473 83.504H281.537L281.745 84.752V92H283.265L283.105 90.96V84.656H288.113V92H289.633L289.473 90.96V83.504ZM293.042 92H297.698L298.034 90.928H294.402V88.176H297.106L297.442 87.104H294.402V84.576H297.842V83.504H292.834L293.042 84.752V92ZM300.381 83.504L300.589 84.752V92H302.109L301.949 90.96V88.896H302.621C304.701 88.896 306.253 87.584 306.253 86.096C306.253 84.32 304.701 83.504 303.101 83.504H300.381ZM301.949 87.824V84.576H302.845C303.901 84.576 304.813 85.088 304.813 86.096C304.813 87.168 303.901 87.824 302.845 87.824H301.949ZM308.761 92H313.417L313.753 90.928H310.121V88.176H312.825L313.161 87.104H310.121V84.576H313.561V83.504H308.553L308.761 84.752V92ZM324.036 83.504H316.1L316.308 84.752V92H317.828L317.668 90.96V84.656H322.676V92H324.196L324.036 90.96V83.504ZM329.493 84.624H332.613V92H334.117L333.973 91.024V83.504H327.941L328.133 84.704L328.053 86.032C327.861 89.52 327.733 91.072 326.629 91.072C326.421 91.072 326.229 91.056 326.053 91.008L326.181 92.08C326.389 92.128 326.661 92.176 326.885 92.176C329.093 92.176 329.253 89.536 329.413 86.032L329.493 84.624ZM335.671 92H336.951L337.895 89.792H341.383L342.295 92H343.895L343.127 90.496L340.199 83.328L339.383 83.504L335.671 92ZM339.527 85.936L339.703 85.456L339.847 85.936L340.967 88.704H338.327L339.527 85.936ZM343.393 84.592H346.417V92H347.937L347.777 90.96V84.592H350.897V83.504H343.393V84.592ZM359.129 85.296V92H360.633L360.489 91.024V83.504H359.225L354.489 89.536L354.105 90.208V83.504H352.553L352.745 84.704V92H354.009L358.745 85.968L359.129 85.296ZM362.299 84.592H365.323V92H366.843L366.683 90.96V84.592H369.803V83.504H362.299V84.592ZM371.667 92H376.323L376.659 90.928H373.027V88.176H375.731L376.067 87.104H373.027V84.576H376.467V83.504H371.459L371.667 84.752V92ZM384.022 86.976V88.016H385.078C386.342 88.016 387.062 88.416 387.062 89.584C387.062 90.192 386.63 91.12 385.27 91.12C383.798 91.12 382.694 90.144 382.694 90.144L382.374 91.152C382.374 91.152 383.59 92.176 385.27 92.176C387.542 92.176 388.502 90.896 388.502 89.584C388.502 88.72 388.07 87.872 387.062 87.392C387.734 86.912 388.246 86.272 388.246 85.6C388.246 83.984 386.95 83.312 385.238 83.312C384.23 83.312 383.318 83.6 382.454 84.304L383.126 85.28C383.814 84.64 384.486 84.368 385.222 84.368C386.262 84.368 386.886 84.8 386.886 85.632C386.886 86.304 386.662 86.72 386.262 87.088C385.926 87.024 385.558 86.976 385.126 86.976H384.022ZM389.265 92H390.545L391.489 89.792H394.977L395.889 92H397.489L396.721 90.496L393.793 83.328L392.977 83.504L389.265 92ZM393.121 85.936L393.297 85.456L393.441 85.936L394.561 88.704H391.921L393.121 85.936ZM18.16 104.296V111H19.664L19.52 110.024V102.504H18.256L13.52 108.536L13.136 109.208V102.504H11.584L11.776 103.704V111H13.04L17.776 104.968L18.16 104.296ZM23.538 105.976V107.016H24.594C25.858 107.016 26.578 107.416 26.578 108.584C26.578 109.192 26.146 110.12 24.786 110.12C23.314 110.12 22.21 109.144 22.21 109.144L21.89 110.152C21.89 110.152 23.106 111.176 24.786 111.176C27.058 111.176 28.018 109.896 28.018 108.584C28.018 107.72 27.586 106.872 26.578 106.392C27.25 105.912 27.762 105.272 27.762 104.6C27.762 102.984 26.466 102.312 24.754 102.312C23.746 102.312 22.834 102.6 21.97 103.304L22.642 104.28C23.33 103.64 24.002 103.368 24.738 103.368C25.778 103.368 26.402 103.8 26.402 104.632C26.402 105.304 26.178 105.72 25.778 106.088C25.442 106.024 25.074 105.976 24.642 105.976H23.538ZM31.9485 106.712H32.7805C34.2365 106.712 35.0045 107.032 35.0045 108.328C35.0045 109.224 34.5405 109.944 33.0045 109.944H31.9485V106.712ZM31.9485 103.576H35.6765V102.504H30.3965L30.5885 103.704V111H32.8285C35.5165 111 36.4445 109.736 36.4445 108.328C36.4445 106.92 35.5165 105.656 32.8285 105.656H31.9485V103.576ZM47.5421 102.504H45.9901L46.1821 103.704V111H47.6861L47.5421 110.024V102.504ZM40.2141 106.728H41.0461C42.5341 106.728 43.3021 107.096 43.3021 108.344C43.3021 109.192 42.8381 109.96 41.2701 109.96H40.2141V106.728ZM40.2141 102.504H38.6621L38.8541 103.704V111H41.0941C43.8141 111 44.7421 109.752 44.7421 108.344C44.7421 106.936 43.8141 105.688 41.0941 105.688H40.2141V102.504ZM49.3456 103.592H52.3696V111H53.8896L53.7296 109.96V103.592H56.8496V102.504H49.3456V103.592ZM61.6974 102.344C59.2174 102.344 57.3454 104.344 57.3454 106.856C57.3454 109.256 58.8654 111.208 61.5214 111.208C64.0014 111.208 65.8894 109.208 65.8894 106.696C65.8894 104.2 64.4974 102.344 61.6974 102.344ZM58.8334 106.776C58.8334 104.904 59.9534 103.384 61.6334 103.384C63.3134 103.384 64.4174 104.904 64.4174 106.776C64.4174 108.648 63.3134 110.168 61.6334 110.168C59.9534 110.168 58.8334 108.648 58.8334 106.776ZM70.5294 108.04C72.0974 108.04 73.3134 107.576 73.3134 107.576V111H74.8174L74.6734 110.024V102.504H73.1214L73.3134 103.704V106.472C73.3134 106.472 72.2894 106.952 71.0414 106.952C69.7934 106.952 69.1054 106.44 69.1054 105.24V102.504H67.5694L67.7454 103.704V105.32C67.7454 107.208 68.9134 108.04 70.5294 108.04ZM85.77 102.504H84.202L84.41 103.752V106.04H79.402V102.504H77.834L78.042 103.752V111H79.562L79.402 109.96V107.192H84.41V111H85.93L85.77 109.96V102.504ZM98.0109 102.504H96.4589L96.6509 103.704V111H98.1549L98.0109 110.024V102.504ZM90.6829 106.728H91.5149C93.0029 106.728 93.7709 107.096 93.7709 108.344C93.7709 109.192 93.3069 109.96 91.7389 109.96H90.6829V106.728ZM90.6829 102.504H89.1309L89.3229 103.704V111H91.5629C94.2829 111 95.2109 109.752 95.2109 108.344C95.2109 106.936 94.2829 105.688 91.5629 105.688H90.6829V102.504ZM105.382 101.336C104.454 101.336 103.894 100.072 103.894 100.072L103.094 100.328C103.094 100.328 103.67 102.184 105.382 102.184C107.094 102.184 107.67 100.328 107.67 100.328L106.87 100.072C106.87 100.072 106.31 101.336 105.382 101.336ZM107.894 104.296V111H109.398L109.254 110.024V102.504H107.99L103.254 108.536L102.87 109.208V102.504H101.318L101.51 103.704V111H102.774L107.51 104.968L107.894 104.296ZM115.777 106.872C115.777 108.856 117.521 110.152 119.761 110.168V111.144H121.249L121.105 110.168C123.345 110.152 125.089 108.856 125.089 106.872C125.089 104.872 123.345 103.592 121.105 103.576V102.376H119.585L119.761 103.576C117.521 103.592 115.777 104.872 115.777 106.872ZM117.217 106.872C117.217 105.432 118.193 104.456 119.761 104.456V109.288C118.193 109.288 117.217 108.296 117.217 106.872ZM123.649 106.872C123.649 108.296 122.689 109.288 121.105 109.288V104.456C122.689 104.456 123.649 105.432 123.649 106.872ZM133.942 102.504H132.534L130.31 107.128L129.974 108.008L129.622 107.128L127.062 102.504H125.238L126.294 103.928L129.254 109.224C128.902 109.832 128.358 110.104 127.59 110.104C127.35 110.104 127.094 110.04 126.854 109.96L127.062 111.064C127.318 111.16 127.574 111.208 127.814 111.208C129.19 111.208 130.086 110.488 130.726 109.16L133.942 102.504ZM143.629 102.504H142.061L142.269 103.752V106.04H137.261V102.504H135.693L135.901 103.752V111H137.421L137.261 109.96V107.192H142.269V111H143.789L143.629 109.96V102.504ZM148.542 106.088V102.504H146.99L147.182 103.704V111H148.686L148.542 110.024V107.208H149.598L152.27 111H153.934L150.702 106.6L152.126 104.392C152.574 103.704 152.958 103.464 153.294 103.464C153.47 103.464 153.662 103.48 153.774 103.496L153.646 102.424C153.534 102.392 153.31 102.344 153.07 102.344C152.398 102.344 151.662 102.68 150.942 103.864L149.598 106.088H148.542ZM155.9 111H163.036L163.052 113.08H164.38L164.348 109.912H163.26V102.504H161.804L161.948 103.48V109.912H157.26V102.504H155.756L155.9 103.48V111ZM173.176 104.296V111H174.68L174.536 110.024V102.504H173.272L168.536 108.536L168.152 109.208V102.504H166.6L166.792 103.704V111H168.056L172.792 104.968L173.176 104.296ZM181.354 102.344C178.874 102.344 177.002 104.344 177.002 106.856C177.002 109.256 178.522 111.208 181.178 111.208C183.658 111.208 185.546 109.208 185.546 106.696C185.546 104.2 184.154 102.344 181.354 102.344ZM178.49 106.776C178.49 104.904 179.61 103.384 181.29 103.384C182.97 103.384 184.074 104.904 184.074 106.776C184.074 108.648 182.97 110.168 181.29 110.168C179.61 110.168 178.49 108.648 178.49 106.776ZM195.786 102.504H194.218L194.426 103.752V106.04H189.418V102.504H187.85L188.058 103.752V111H189.578L189.418 109.96V107.192H194.426V111H195.946L195.786 109.96V102.504ZM197.53 111H198.811L199.755 108.792H203.243L204.155 111H205.755L204.987 109.496L202.059 102.328L201.243 102.504L197.53 111ZM201.387 104.936L201.562 104.456L201.707 104.936L202.827 107.704H200.187L201.387 104.936ZM209.493 103.624H212.613V111H214.117L213.973 110.024V102.504H207.941L208.133 103.704L208.053 105.032C207.861 108.52 207.733 110.072 206.629 110.072C206.421 110.072 206.229 110.056 206.053 110.008L206.181 111.08C206.389 111.128 206.661 111.176 206.885 111.176C209.093 111.176 209.253 108.536 209.413 105.032L209.493 103.624Z" fill="#589BFF"/>
</svg>
