<svg width="380" height="65" viewBox="0 0 380 65" fill="none" xmlns="http://www.w3.org/2000/svg">
<path d="M96.1637 55.5L96.1178 55.9979L96.1637 55.5ZM373.664 23.2036L374.054 22.8907L373.664 23.2036ZM63.6121 6.50267C38.0613 9.16204 20.7946 12.9321 10.8998 17.2651C5.96554 19.4258 2.77426 21.7643 1.35246 24.2563C0.633072 25.5172 0.36657 26.8187 0.563145 28.1362C0.758588 29.4461 1.40541 30.731 2.4426 31.9807C4.50804 34.4692 8.1895 36.8996 13.2968 39.2223C18.416 41.5504 25.0162 43.7916 32.9707 45.8776C48.8807 50.0498 70.2509 53.6121 96.1178 55.9979L96.2096 55.0021C70.3776 52.6195 49.0651 49.0644 33.2244 44.9103C25.3035 42.8331 18.7614 40.6089 13.7107 38.312C8.64811 36.0096 5.13214 33.6554 3.21209 31.342C2.25653 30.1907 1.7136 29.0704 1.5522 27.9886C1.39193 26.9145 1.6015 25.8378 2.22104 24.7519C3.47709 22.5503 6.41506 20.3206 11.3009 18.1811C21.0464 13.9135 38.1834 10.1547 63.7156 7.4973L63.6121 6.50267ZM96.1178 55.9979C147.623 60.7484 227.833 66.1461 289.772 63.6178C320.725 62.3543 347.184 59.1099 363.212 52.7803C371.213 49.6207 376.74 45.6448 378.839 40.6431C380.959 35.5909 379.51 29.6901 374.054 22.8907L373.274 23.5166C378.626 30.1864 379.831 35.6937 377.917 40.2561C375.981 44.869 370.786 48.7143 362.845 51.8502C346.989 58.1115 320.683 61.3551 289.731 62.6186C227.861 65.1442 147.705 59.7516 96.2096 55.0021L96.1178 55.9979ZM374.054 22.8907C369.894 17.7068 362.131 13.6404 351.795 10.4746C341.439 7.3031 328.419 5.01173 313.651 3.43348C284.111 0.276752 247.509 -0.0338382 211.095 1.20879C174.677 2.45154 138.432 5.24837 109.599 8.31082C95.1834 9.84204 82.6176 11.44 72.8081 12.9438C63.014 14.4453 55.9293 15.8583 52.5025 17.0268L52.8253 17.9733C56.1555 16.8378 63.1542 15.4355 72.9596 13.9323C82.7497 12.4314 95.2995 10.8353 109.705 9.30523C138.516 6.24504 174.738 3.45006 211.129 2.20821C247.523 0.966256 284.072 1.2783 313.544 4.42782C328.281 6.00269 341.232 8.28535 351.502 11.4308C361.791 14.582 369.309 18.5755 373.274 23.5166L374.054 22.8907Z" fill="#FF8CA7"/>
</svg>
