<svg width="158" height="70" viewBox="0 0 158 70" fill="none" xmlns="http://www.w3.org/2000/svg">
<path d="M1.06725 0.00457654C0.793618 -0.0325386 0.541704 0.1592 0.504588 0.432836C0.467473 0.706474 0.659212 0.958388 0.932848 0.995503L1.06725 0.00457654ZM157.104 68.489C157.374 68.4316 157.547 68.1661 157.489 67.896L156.553 63.4944C156.496 63.2243 156.23 63.0519 155.96 63.1094C155.69 63.1668 155.517 63.4323 155.575 63.7024L156.407 67.6149L152.494 68.447C152.224 68.5045 152.052 68.77 152.109 69.0401C152.167 69.3102 152.432 69.4826 152.703 69.4252L157.104 68.489ZM59.0002 15L58.8291 15.4698L59.0002 15ZM1.00005 0.50004C0.932848 0.995503 0.932905 0.99551 0.933071 0.995533C0.933274 0.995561 0.933551 0.995598 0.933956 0.995654C0.934766 0.995764 0.936016 0.995934 0.937705 0.996164C0.941083 0.996626 0.946216 0.997328 0.95309 0.998273C0.966838 1.00016 0.987549 1.00302 1.01511 1.00686C1.07024 1.01454 1.15278 1.02614 1.26185 1.04173C1.47999 1.07293 1.80423 1.12014 2.22753 1.18401C3.07411 1.31175 4.31684 1.50616 5.89918 1.7725C9.06393 2.30521 13.5867 3.12561 19.0154 4.27591C29.8745 6.57688 44.3502 10.1961 58.8291 15.4698L59.1713 14.5302C44.634 9.23521 30.1096 5.60448 19.2227 3.29763C13.7784 2.14402 9.24165 1.32106 6.06517 0.786376C4.47688 0.519028 3.22854 0.323734 2.37673 0.195201C1.95082 0.130935 1.62403 0.0833567 1.40343 0.0518067C1.29313 0.0360319 1.20937 0.0242637 1.15305 0.0164194C1.12489 0.0124972 1.10359 0.00955641 1.08925 0.00758608C1.08208 0.0066007 1.07665 0.00585816 1.07298 0.00535731C1.07115 0.00510667 1.06975 0.00491645 1.0688 0.00478635C1.06832 0.00472153 1.06793 0.00466873 1.06769 0.00463647C1.06742 0.0045989 1.06725 0.00457654 1.00005 0.50004ZM58.8291 15.4698C77.4235 22.2425 101.89 35.4721 121.729 47.0241C131.643 52.7973 140.394 58.1467 146.666 62.0527C149.802 64.0056 152.318 65.5976 154.049 66.7012C154.915 67.253 155.585 67.6827 156.038 67.9744C156.265 68.1202 156.438 68.2315 156.553 68.3064C156.611 68.3438 156.655 68.3721 156.684 68.391C156.699 68.4004 156.71 68.4075 156.717 68.4123C156.721 68.4146 156.723 68.4164 156.725 68.4176C156.726 68.4182 156.727 68.4186 156.727 68.4189C156.728 68.4192 156.728 68.4193 157 68C157.272 67.5806 157.272 67.5804 157.272 67.5801C157.271 67.5798 157.27 67.5793 157.269 67.5787C157.268 67.5775 157.265 67.5757 157.261 67.5733C157.254 67.5685 157.242 67.5613 157.228 67.5517C157.198 67.5326 157.154 67.5042 157.096 67.4666C156.98 67.3914 156.807 67.2797 156.58 67.1335C156.125 66.841 155.454 66.4105 154.587 65.8579C152.852 64.7526 150.334 63.1588 147.194 61.2038C140.916 57.294 132.157 51.9393 122.232 46.1599C102.391 34.6066 77.8572 21.3362 59.1713 14.5302L58.8291 15.4698Z" fill="#FF8CA7"/>
</svg>
