<svg width="1270" height="763" viewBox="0 0 1270 763" fill="none" xmlns="http://www.w3.org/2000/svg">
<mask id="path-1-inside-1_63_3995" fill="white">
<path fill-rule="evenodd" clip-rule="evenodd" d="M521 0C507.193 0 496 11.1929 496 25V580.576C493.6 613.6 480 693.6 404 668C325.144 600.494 193.228 529.224 99 606C62.3086 635.896 58.3473 696.076 55.1786 744.215C52.609 783.254 50.5606 814.373 32.0001 815C-158.347 821.425 572.727 943.77 965 906C1281.39 875.535 1291 714 1256 721C1223.54 727.492 1170.82 730.143 1167 678C1176 572 1066.17 597.925 1040 613C910.879 687.38 896.304 610.546 895 583.296V574.5V25C895 11.1929 883.807 0 870 0H521Z"/>
</mask>
<path fill-rule="evenodd" clip-rule="evenodd" d="M521 0C507.193 0 496 11.1929 496 25V580.576C493.6 613.6 480 693.6 404 668C325.144 600.494 193.228 529.224 99 606C62.3086 635.896 58.3473 696.076 55.1786 744.215C52.609 783.254 50.5606 814.373 32.0001 815C-158.347 821.425 572.727 943.77 965 906C1281.39 875.535 1291 714 1256 721C1223.54 727.492 1170.82 730.143 1167 678C1176 572 1066.17 597.925 1040 613C910.879 687.38 896.304 610.546 895 583.296V574.5V25C895 11.1929 883.807 0 870 0H521Z" fill="#FBF8FF"/>
<path d="M496 580.576L498.992 580.794L499 580.685V580.576H496ZM404 668L402.049 670.279L402.491 670.657L403.042 670.843L404 668ZM99 606L97.105 603.674L99 606ZM55.1786 744.215L58.1722 744.412L55.1786 744.215ZM32.0001 815L32.1013 817.998H32.1013L32.0001 815ZM965 906L964.712 903.014L965 906ZM1256 721L1255.41 718.058V718.058L1256 721ZM1167 678L1164.01 677.746L1163.99 677.982L1164.01 678.219L1167 678ZM1040 613L1038.5 610.4L1040 613ZM895 583.296H892V583.368L892.003 583.44L895 583.296ZM499 25C499 12.8497 508.85 3 521 3V-3C505.536 -3 493 9.53603 493 25H499ZM499 580.576V25H493V580.576H499ZM403.042 670.843C422.522 677.404 438.345 677.306 451.136 672.599C463.917 667.896 473.288 658.732 480.137 647.872C493.753 626.285 497.786 597.396 498.992 580.794L493.008 580.359C491.814 596.78 487.847 624.403 475.063 644.672C468.712 654.74 460.283 662.84 449.064 666.968C437.855 671.093 423.478 671.395 404.958 665.157L403.042 670.843ZM100.895 608.326C146.973 570.781 202.357 569.282 256.389 585.764C310.47 602.26 362.803 636.682 402.049 670.279L405.951 665.721C366.341 631.812 313.288 596.846 258.14 580.025C202.943 563.188 145.255 564.442 97.105 603.674L100.895 608.326ZM58.1722 744.412C59.7597 720.295 61.5325 693.476 67.4349 668.969C73.3388 644.456 83.2814 622.677 100.895 608.326L97.105 603.674C78.0272 619.219 67.6435 642.478 61.6017 667.564C55.5584 692.656 53.7663 719.997 52.1851 744.018L58.1722 744.412ZM32.1013 817.998C37.7282 817.808 42.1266 815.246 45.4491 811.019C48.6758 806.915 50.8805 801.267 52.498 794.733C55.7303 781.676 56.8944 763.824 58.1722 744.412L52.1851 744.018C50.8932 763.645 49.7483 780.872 46.6738 793.291C45.138 799.495 43.1898 804.185 40.7321 807.311C38.37 810.316 35.5522 811.878 31.8989 812.002L32.1013 817.998ZM964.712 903.014C768.919 921.866 488.353 900.759 280.399 874.098C176.428 860.768 90.7641 846.07 43.0318 834.328C31.099 831.392 21.6104 828.659 14.8261 826.2C11.4289 824.969 8.78329 823.832 6.87439 822.806C4.84559 821.716 4.05571 820.96 3.8615 820.663C3.81472 820.591 3.99805 820.844 3.93485 821.31C3.87241 821.771 3.63518 821.95 3.72626 821.868C4.03549 821.59 5.08527 821.011 7.52145 820.408C12.2012 819.249 20.2301 818.399 32.1013 817.998L31.8989 812.002C19.9766 812.404 11.4107 813.263 6.07897 814.584C3.50939 815.22 1.19922 816.073 -0.282614 817.404C-1.08706 818.126 -1.82759 819.154 -2.01073 820.504C-2.19461 821.86 -1.74937 823.045 -1.16124 823.945C-0.0856303 825.591 1.88629 826.937 4.03434 828.092C6.3023 829.31 9.24859 830.56 12.7815 831.841C19.8573 834.406 29.5814 837.198 41.5985 840.154C89.6659 851.978 175.598 866.711 279.636 880.049C487.7 906.724 768.807 927.904 965.287 908.986L964.712 903.014ZM1256.59 723.942C1259.63 723.333 1262.13 724.434 1264 727.322C1266 730.395 1267.23 735.528 1266.79 742.48C1265.92 756.301 1258.48 776.188 1240.01 797.485C1203.11 840.015 1122.47 887.824 964.712 903.014L965.287 908.986C1123.93 893.711 1206.28 845.521 1244.54 801.417C1263.64 779.397 1271.81 758.308 1272.78 742.858C1273.27 735.175 1271.98 728.598 1269.04 724.057C1265.97 719.332 1261.12 716.917 1255.41 718.058L1256.59 723.942ZM1164.01 678.219C1165 691.778 1169.2 702.031 1175.68 709.582C1182.14 717.117 1190.66 721.733 1199.94 724.374C1218.36 729.62 1240.24 727.21 1256.59 723.942L1255.41 718.058C1239.29 721.282 1218.58 723.444 1201.58 718.603C1193.14 716.2 1185.74 712.107 1180.23 705.677C1174.73 699.262 1170.91 690.293 1169.99 677.781L1164.01 678.219ZM1041.5 615.599C1047.69 612.034 1059.14 607.677 1072.76 604.826C1086.37 601.981 1101.88 600.693 1116.2 603.057C1130.5 605.416 1143.41 611.372 1152.26 622.837C1161.1 634.303 1166.22 651.732 1164.01 677.746L1169.99 678.254C1172.28 651.268 1167.04 632.187 1157.01 619.173C1146.97 606.157 1132.48 599.661 1117.18 597.137C1101.9 594.615 1085.6 596.011 1071.54 598.953C1057.49 601.891 1045.4 606.428 1038.5 610.4L1041.5 615.599ZM892.003 583.44C892.338 590.423 893.522 600.658 897.227 610.913C900.934 621.172 907.233 631.63 917.903 638.754C939.389 653.099 976.769 652.887 1041.5 615.599L1038.5 610.4C974.11 647.494 939.642 646.054 921.234 633.764C911.958 627.571 906.298 618.36 902.87 608.874C899.441 599.382 898.314 589.794 897.997 583.153L892.003 583.44ZM892 574.5V583.296H898V574.5H892ZM892 25V574.5H898V25H892ZM870 3C882.15 3 892 12.8497 892 25H898C898 9.53603 885.464 -3 870 -3V3ZM521 3H870V-3H521V3Z" fill="#CBA9F7" mask="url(#path-1-inside-1_63_3995)"/>
</svg>
