<svg width="289" height="286" viewBox="0 0 289 286" fill="none" xmlns="http://www.w3.org/2000/svg">
<path d="M280.626 139.578C285.349 163.67 294.922 212.499 272.018 245.166C230.456 304.444 89.1081 300.266 29.4061 225.523C24.244 219.06 -1.6492 185.353 1.17634 139.196C6.07617 59.1354 94.5304 -11.8264 165.424 2.11101C206.913 10.2682 234.488 45.9522 245.84 60.6428C250.512 66.6971 271.938 95.2393 280.626 139.578Z" fill="#F4F7FA"/>
<path d="M259.578 106.964C264.736 109.583 271.211 107.178 274.05 101.593C276.89 96.0082 275.004 89.3585 269.846 86.74C269.578 86.6039 269.306 86.4905 269.032 86.3811C269.982 83.3315 270.707 80.2163 271.201 77.0606C271.497 77.0606 271.793 77.0547 272.095 77.028C277.98 76.5036 282.65 71.097 282.527 64.95C282.404 58.803 277.533 54.2473 271.649 54.7718C271.341 54.7994 271.039 54.8477 270.739 54.9009C270.129 51.874 269.287 48.8986 268.22 46.0014C268.49 45.8426 268.759 45.679 269.022 45.4946C274.057 41.9671 275.667 35.0058 272.618 29.9463C269.568 24.8868 263.015 23.6426 257.981 27.1701C257.723 27.3505 257.481 27.5457 257.241 27.7438C255.239 25.5329 253.055 23.4944 250.712 21.6501C250.878 21.378 251.04 21.102 251.187 20.8131C254.022 15.2281 257.728 9.12744 252.529 6.58979C240.502 0.719849 235.345 5.74489 232.509 11.3299C232.362 11.6188 232.236 11.9126 232.115 12.2073C229.242 11.4034 226.307 10.8428 223.341 10.5313C223.358 10.2208 223.373 9.91023 223.367 9.59475C223.243 3.44877 225.067 0.12339 219.16 0.00804158C206.273 -0.241386 201.935 5.34955 202.054 11.4955C202.061 11.8169 202.088 12.1304 202.119 12.443C199.149 13.2902 196.248 14.3661 193.444 15.6609C193.31 15.3868 193.17 15.1147 193.011 14.8495C189.962 9.78897 183.408 8.54676 178.374 12.0742C173.341 15.6017 171.731 22.563 174.779 27.6226C174.936 27.8819 175.106 28.1244 175.281 28.364C173.024 30.6237 170.936 33.0459 169.033 35.6112C168.784 35.4554 168.531 35.3026 168.264 35.1665C163.106 32.548 156.626 34.9526 153.791 40.5366C150.955 46.1207 152.838 52.7724 157.995 55.3909C158.262 55.526 158.536 55.6403 158.809 55.7498C157.859 58.7992 157.134 61.914 156.64 65.0693C156.344 65.0693 156.048 65.0752 155.747 65.1018C149.862 65.6273 145.192 71.0339 145.315 77.1799C145.438 83.3258 150.308 87.8826 156.192 87.3581C156.5 87.3305 156.802 87.2822 157.102 87.229C157.712 90.2562 158.554 93.2319 159.622 96.1295C159.351 96.2882 159.082 96.4519 158.819 96.6362C153.785 100.163 152.175 107.124 155.224 112.185C158.273 117.245 168.367 119.595 173.401 116.069C173.659 115.888 170.36 114.584 170.601 114.386C172.602 116.597 174.786 118.636 177.129 120.481C176.964 120.753 176.801 121.029 176.654 121.318C173.819 126.903 175.702 133.553 180.859 136.171C186.016 138.79 192.492 136.386 195.332 130.801C195.479 130.511 195.606 130.217 195.726 129.924C198.599 130.727 201.534 131.288 204.5 131.6C204.482 131.909 204.468 132.221 204.474 132.536C204.597 138.681 209.467 143.239 215.352 142.714C221.237 142.19 225.907 136.781 225.783 130.636C225.777 130.315 225.75 130 225.717 129.689C228.688 128.842 231.589 127.766 234.393 126.471C234.527 126.745 234.666 127.017 234.826 127.281C237.874 132.342 244.428 133.585 249.462 130.058C254.497 126.53 256.106 119.569 253.057 114.508C252.901 114.249 252.73 114.007 252.556 113.768C254.812 111.508 256.9 109.085 258.803 106.52C259.057 106.675 259.313 106.828 259.578 106.964ZM195.281 107.78C176.555 98.2718 169.72 74.1266 180.015 53.8519C190.31 33.5773 213.837 24.8444 232.562 34.3522C251.288 43.86 258.124 68.0053 247.829 88.2799C237.533 108.555 214.008 117.287 195.281 107.78Z" fill="url(#paint0_linear_47_806)"/>
<path d="M272.091 77.0284C277.976 76.5039 282.646 71.0963 282.523 64.9503C282.4 58.8043 277.53 54.2476 271.645 54.7721C271.337 54.7997 271.036 54.848 270.735 54.9012C270.126 51.8743 269.283 48.899 268.216 46.0017C268.486 45.843 268.755 45.6793 269.018 45.4949C274.053 41.9675 280.281 33.4455 276.73 28.7251C269.989 19.7654 263.011 23.6429 257.978 27.1704C257.719 27.3508 257.477 27.546 257.237 27.7442C255.236 25.5329 253.051 23.4941 250.708 21.6494C250.874 21.3773 251.036 21.1023 251.183 20.8134C252.727 17.7739 252.859 14.4229 251.843 11.5737C246.98 20.1318 242.189 28.73 237.472 37.3683C252.411 48.3116 257.168 69.8886 247.83 88.2812C239.917 103.867 224.186 112.619 208.827 111.521C208.142 113.296 207.47 115.085 206.736 116.845C204.745 121.62 202.483 126.297 200.219 130.968C201.643 131.237 203.073 131.447 204.508 131.598C204.49 131.908 204.476 132.22 204.482 132.534C204.605 138.68 208.336 143.903 219.001 143.337C224.9 143.024 225.915 136.782 225.791 130.636C225.785 130.314 225.758 130 225.726 129.688C228.697 128.841 231.597 127.765 234.402 126.47C234.536 126.744 234.675 127.016 234.835 127.281C237.883 132.341 248.461 134.491 253.496 130.964C258.531 127.436 256.115 119.568 253.066 114.508C252.91 114.248 252.739 114.006 252.565 113.767C254.821 111.507 256.909 109.084 258.812 106.519C259.061 106.676 259.314 106.829 259.582 106.964C264.74 109.583 271.215 107.179 274.054 101.594C276.894 96.0085 275.008 89.3588 269.85 86.7403C269.582 86.6042 269.31 86.4909 269.036 86.3814C269.986 83.3318 270.711 80.2166 271.205 77.0609C271.493 77.0599 271.79 77.055 272.091 77.0284Z" fill="url(#paint1_linear_47_806)"/>
<path d="M265.13 107.596C270.287 110.214 276.763 107.809 279.603 102.224C282.442 96.6394 280.556 89.9896 275.398 87.3711C275.131 87.2351 274.858 87.1207 274.585 87.0123C275.534 83.9626 276.259 80.8474 276.754 77.6918C277.049 77.6918 277.345 77.6858 277.648 77.6592C283.532 77.1347 288.203 71.7272 288.079 65.5812C287.956 59.4352 283.073 54.8785 277.192 55.403C276.885 55.4306 276.583 55.4789 276.282 55.5321C275.673 52.5052 274.83 49.5298 273.762 46.6325C274.034 46.4738 274.303 46.3102 274.566 46.1258C279.601 42.5983 281.21 35.637 278.161 30.5765C275.113 25.516 268.559 24.2737 263.525 27.8012C263.267 27.9816 263.024 28.1769 262.785 28.375C260.784 26.1638 258.6 24.125 256.257 22.2803C256.423 22.0082 256.585 21.7331 256.732 21.4443C259.568 15.8593 257.686 9.2085 252.528 6.59C247.369 3.9715 240.894 6.37606 238.055 11.9611C237.908 12.2499 237.782 12.5437 237.66 12.8385C234.788 12.0346 231.853 11.474 228.886 11.1625C228.904 10.852 228.919 10.5414 228.913 10.2259C228.788 4.07995 223.919 -0.4768 218.035 0.0476887C212.15 0.572178 207.48 5.97973 207.603 12.1257C207.609 12.4471 207.636 12.7606 207.668 13.0722C204.698 13.9203 201.797 14.9964 198.992 16.2911C198.858 16.017 198.719 15.7439 198.56 15.4797C195.511 10.4192 188.958 9.17695 183.924 12.7044C178.89 16.2319 177.28 23.1922 180.328 28.2528C180.485 28.5121 180.656 28.7546 180.829 28.9932C178.573 31.2537 176.486 33.6763 174.583 36.2414C174.333 36.0856 174.081 35.9318 173.813 35.7967C168.656 33.1782 162.179 35.5828 159.34 41.1668C156.501 46.7509 158.388 53.4016 163.545 56.0211C163.812 56.1562 164.085 56.2705 164.358 56.38C163.408 59.4293 162.683 62.5441 162.189 65.6995C161.893 65.6995 161.598 65.7054 161.296 65.732C155.411 66.2565 150.741 71.6641 150.864 77.8101C150.988 83.956 155.858 88.5128 161.742 87.9883C162.049 87.9607 162.352 87.9124 162.652 87.8592C163.261 90.8864 164.104 93.8621 165.172 96.7597C164.9 96.9184 164.631 97.0821 164.368 97.2664C159.334 100.793 157.724 107.754 160.773 112.815C163.821 117.875 170.375 119.118 175.409 115.591C175.667 115.41 175.91 115.214 176.149 115.016C178.151 117.227 180.335 119.266 182.679 121.111C182.513 121.383 182.351 121.658 182.204 121.948C179.368 127.533 181.25 134.183 186.408 136.801C191.567 139.42 198.042 137.015 200.881 131.431C201.028 131.141 201.154 130.848 201.276 130.554C204.148 131.358 207.083 131.918 210.05 132.23C210.031 132.54 210.016 132.852 210.023 133.166C210.146 139.312 215.017 143.869 220.9 143.345C226.784 142.82 231.455 137.413 231.332 131.268C231.326 130.946 231.3 130.632 231.267 130.32C234.237 129.472 237.138 128.396 239.943 127.102C240.077 127.376 240.216 127.648 240.376 127.913C243.424 132.973 249.977 134.216 255.011 130.689C260.045 127.161 261.656 120.2 258.606 115.139C258.451 114.88 258.279 114.638 258.106 114.399C260.362 112.139 262.449 109.716 264.352 107.151C264.605 107.307 264.858 107.459 265.13 107.596ZM200.834 108.411C182.108 98.903 175.273 74.7578 185.567 54.4831C195.862 34.2085 219.389 25.4755 238.115 34.9834C256.841 44.4912 263.676 68.6364 253.381 88.9111C243.087 109.186 219.556 117.919 200.829 108.411H200.834Z" fill="url(#paint2_linear_47_806)"/>
<path d="M285.728 236.962L4.91187 234.519V241.756C4.91187 243.72 6.13732 245.39 7.79557 245.688L87.2024 259.938C88.1422 260.107 89.1001 260.151 90.0516 260.071L282.679 243.821C284.398 243.676 285.73 242.001 285.73 239.983L285.728 236.962Z" fill="url(#paint3_linear_47_806)"/>
<path d="M195.33 225.232L8.00251 238.469C4.65051 238.707 1.92554 236.189 1.92554 232.849V98.9303C1.92945 97.322 2.57175 95.7811 3.71126 94.6462C4.85077 93.5113 6.39426 92.8753 8.00251 92.8779H195.33C198.09 92.8779 200.324 95.3269 200.324 98.3486V219.407C200.324 222.429 198.09 225.036 195.33 225.232Z" fill="url(#paint4_linear_47_806)"/>
<path d="M198.317 225.232L10.9898 238.469C7.63783 238.707 4.91187 236.189 4.91187 232.849V98.9303C4.91604 97.3219 5.55856 95.781 6.69823 94.6462C7.8379 93.5113 9.38149 92.8753 10.9898 92.8779H198.317C201.078 92.8779 203.312 95.3269 203.312 98.3486V219.407C203.316 222.429 201.079 225.036 198.317 225.232Z" fill="url(#paint5_linear_47_806)"/>
<path d="M192.482 216.696L18.0052 228.195C15.2773 228.376 13.061 226.309 13.061 223.58V106.336C13.0628 105.024 13.5838 103.766 14.5101 102.836C15.4365 101.907 16.693 101.382 18.0052 101.375L192.482 100.653C194.759 100.644 196.602 102.651 196.602 105.136V211.924C196.602 214.407 194.759 216.546 192.482 216.696Z" fill="url(#paint6_linear_47_806)"/>
<path d="M111.27 96.5406C111.27 97.7848 110.305 98.7963 109.114 98.8002C107.923 98.8042 106.955 97.7956 106.955 96.5485C106.955 95.3013 107.922 94.2898 109.114 94.2888C110.306 94.2878 111.27 95.2964 111.27 96.5406Z" fill="white"/>
<path d="M193.643 224.631L4.91187 238.566L87.2024 253.332C88.1422 253.501 89.1001 253.547 90.0516 253.466L285.728 236.962L196.645 224.726C195.65 224.589 194.644 224.557 193.643 224.631Z" fill="url(#paint7_linear_47_806)"/>
<path style="mix-blend-mode:multiply" opacity="0.3" d="M32.4514 238.916L189.575 227.142L238.203 233.767L82.4326 246.353L32.4514 238.916Z" fill="url(#paint8_linear_47_806)"/>
<g style="mix-blend-mode:soft-light" opacity="0.48">
<path d="M153.183 188.502C138.742 180.732 127.387 190.578 116.429 180.864C109.785 174.974 113.047 170.582 104.871 161.781C95.817 152.034 89.9224 155.31 80.8228 146.537C69.3175 135.444 75.0721 126.814 65.161 118.849C53.1333 109.187 40.1719 118.129 28.7258 108.864C23.7895 104.867 21.0813 99.0564 19.6666 92.8779H8.46794C7.52592 92.8777 6.62232 93.2513 5.95556 93.9167C5.28881 94.5822 4.91343 95.4851 4.91187 96.4271V235.239C4.91187 237.201 6.50604 238.679 8.46794 238.539L199.386 224.995C200.322 224.928 201.153 224.381 201.686 223.588C187.711 223.078 179.125 218.393 173.637 213.55C162.899 204.075 164.762 194.732 153.183 188.502Z" fill="white"/>
</g>
<path d="M63.404 89.3743C76.0829 89.3743 86.3612 81.1922 86.3612 71.099C86.3612 61.0059 76.0829 52.8237 63.404 52.8237C50.7251 52.8237 40.4468 61.0059 40.4468 71.099C40.4468 81.1922 50.7251 89.3743 63.404 89.3743Z" fill="url(#paint9_linear_47_806)"/>
<path d="M63.4041 59.1431C61.2266 59.1431 59.1383 60.0081 57.5985 61.5478C56.0587 63.0876 55.1937 65.1759 55.1937 67.3535C55.1937 70.2924 58.6443 77.1295 61.0686 81.5778C61.2978 81.997 61.6356 82.3467 62.0465 82.5904C62.4575 82.8341 62.9264 82.9626 63.4041 82.9626C63.8819 82.9626 64.3508 82.8341 64.7618 82.5904C65.1727 82.3467 65.5105 81.997 65.7397 81.5778C68.1679 77.1295 71.6156 70.2924 71.6156 67.3535C71.6153 65.1759 70.75 63.0875 69.2101 61.5478C67.6702 60.0081 65.5818 59.1431 63.4041 59.1431ZM63.4041 71.7623C62.5322 71.7623 61.6797 71.5038 60.9547 71.0193C60.2297 70.5349 59.6646 69.8463 59.3309 69.0407C58.9972 68.2351 58.9099 67.3486 59.08 66.4934C59.2501 65.6381 59.67 64.8525 60.2866 64.236C60.9032 63.6194 61.6888 63.1995 62.544 63.0293C63.3993 62.8592 64.2857 62.9465 65.0913 63.2802C65.897 63.6139 66.5855 64.179 67.07 64.9041C67.5544 65.6291 67.813 66.4815 67.813 67.3535C67.813 68.5228 67.3485 69.6442 66.5217 70.471C65.6949 71.2978 64.5734 71.7623 63.4041 71.7623Z" fill="white"/>
<g style="mix-blend-mode:multiply" opacity="0.3">
<path style="mix-blend-mode:multiply" d="M68.9782 84.7189C66.2088 79.3222 69.0087 74.2774 65.2644 70.7894C61.4598 67.2461 56.5166 70.5399 51.1968 67.6553C49.1403 66.5392 46.853 64.4018 45.1534 60.0117C42.2016 63.0867 40.4478 66.9297 40.4478 71.0989C40.4478 81.1924 50.7256 89.3742 63.404 89.3742C66.196 89.3807 68.9734 88.9717 71.645 88.1606C70.5553 87.184 69.6518 86.0179 68.9782 84.7189Z" fill="url(#paint10_linear_47_806)"/>
</g>
<path d="M125.614 244.625C119.896 244.24 114.504 240.428 112.182 234.558L79.4511 151.787C76.4708 144.25 79.8327 135.717 86.998 132.694C94.2137 129.649 105.462 133.236 108.519 140.853L142.1 224.523C145.266 232.41 141.696 241.037 134.167 243.748C132.31 244.42 127.501 244.752 125.614 244.625Z" fill="url(#paint11_linear_47_806)"/>
<g style="mix-blend-mode:multiply">
<path d="M86.996 132.694C94.2116 129.649 105.46 133.236 108.517 140.853L139.221 217.358C134.083 215.968 128 216.093 122.16 210.703C112.44 201.731 117.222 190.229 109.516 179.987C105.995 175.304 99.4782 170.374 86.2132 168.892L79.449 151.789C76.4687 144.25 79.8306 135.72 86.996 132.694Z" fill="#D8DEE8"/>
</g>
<path d="M44.0059 114.449C44.2864 114.45 44.5664 114.47 44.8439 114.511L65.0781 114.278V169.664L45.5389 169.383C45.039 169.518 44.5236 169.587 44.0059 169.587C37.0712 169.587 31.4497 157.244 31.4497 142.018C31.4497 126.792 37.0712 114.449 44.0059 114.449Z" fill="url(#paint12_linear_47_806)"/>
<path d="M65.0781 114.278C57.4139 132.72 57.4139 151.098 65.0781 169.664L215.593 220.61L217.147 65.155L65.0781 114.278Z" fill="url(#paint13_linear_47_806)"/>
<path style="mix-blend-mode:multiply" opacity="0.3" d="M174.962 174.915C160.651 169.208 156.204 147.35 139.589 146.615C126.552 146.038 122.624 159.364 109.851 157.927C96.7743 156.455 94.5788 141.613 79.9355 136.382C73.2778 134.004 66.3126 134.443 59.5514 136.454C58.6431 147.468 60.4853 158.538 65.0782 169.664L215.593 220.61L206.688 167.828C191.848 176.943 181.899 177.683 174.962 174.915Z" fill="url(#paint14_linear_47_806)"/>
<path d="M222.891 222.656C243.112 222.656 259.504 186.665 259.504 142.269C259.504 97.8725 243.112 61.8821 222.891 61.8821C202.67 61.8821 186.278 97.8725 186.278 142.269C186.278 186.665 202.67 222.656 222.891 222.656Z" fill="url(#paint15_linear_47_806)"/>
<path d="M222.891 219.928C227.183 219.928 231.402 218.032 235.428 214.294C239.526 210.487 243.233 204.983 246.444 197.928C253.195 183.105 256.913 163.337 256.913 142.265C256.913 121.193 253.195 101.425 246.444 86.6022C243.233 79.5512 239.526 74.047 235.428 70.2366C231.402 66.4981 227.183 64.6023 222.891 64.6023C218.598 64.6023 214.38 66.4981 210.353 70.2366C206.255 74.0431 202.549 79.5473 199.337 86.6022C196.515 92.8005 194.222 99.8623 192.51 107.523C190.127 118.184 197.015 129.311 197.015 141.574C197.015 154.612 190.292 167.842 192.972 179.019C194.627 185.906 196.76 192.277 199.333 197.928C202.545 204.979 206.251 210.483 210.35 214.294C214.38 218.032 218.596 219.928 222.891 219.928Z" fill="url(#paint16_linear_47_806)"/>
<path d="M225.904 143.325C225.904 163.691 213.094 179.862 197.516 179.449C182.177 179.043 169.917 162.668 169.917 142.873C169.917 123.079 182.177 106.898 197.516 106.743C213.094 106.578 225.904 122.957 225.904 143.325Z" fill="url(#paint17_linear_47_806)"/>
<path style="mix-blend-mode:multiply" opacity="0.3" d="M223.443 142.992C223.443 158.116 217.202 170.124 209.61 169.817C202.137 169.515 196.163 157.356 196.163 142.653C196.163 127.951 202.137 115.936 209.61 115.823C217.202 115.705 223.443 127.869 223.443 142.992Z" fill="url(#paint18_linear_47_806)"/>
<path d="M134.363 55.2962C136.64 56.4526 139.501 55.3947 140.753 52.9241C142.006 50.4535 141.173 47.5225 138.896 46.366C138.779 46.3059 138.658 46.2556 138.537 46.2073C138.956 44.8608 139.276 43.4854 139.494 42.0923C139.624 42.0923 139.755 42.0923 139.888 42.0775C142.487 41.8458 144.548 39.459 144.494 36.7448C144.44 34.0307 142.289 32.0185 139.691 32.2502C139.555 32.263 139.422 32.2837 139.289 32.3074C139.02 30.9709 138.648 29.6571 138.176 28.3777C138.297 28.3077 138.415 28.2357 138.531 28.1539C140.754 26.5962 141.465 23.5202 140.119 21.2882C138.772 19.0562 135.879 18.505 133.656 20.0627C133.542 20.1426 133.435 20.2284 133.329 20.3161C132.445 19.3394 131.481 18.4391 130.446 17.6247C130.519 17.5044 130.591 17.3821 130.656 17.2549C131.908 14.7902 133.544 12.0948 131.248 10.9749C125.939 8.383 123.656 10.6012 122.408 13.0679C122.343 13.1951 122.287 13.3252 122.234 13.4554C120.965 13.1007 119.669 12.853 118.359 12.715C118.368 12.5779 118.374 12.4409 118.371 12.3019C118.317 9.58775 119.122 8.11978 116.514 8.06851C110.827 7.95809 108.908 10.4267 108.962 13.1409C108.962 13.2828 108.977 13.4209 108.991 13.5589C107.68 13.9336 106.4 14.4085 105.161 14.9795C105.102 14.8593 105.041 14.739 104.971 14.6217C103.624 12.3877 100.732 11.8385 98.5075 13.3962C96.2833 14.9539 95.5745 18.0299 96.9202 20.2619C96.9892 20.3762 97.0651 20.4827 97.142 20.5892C96.1447 21.5868 95.222 22.6564 94.3816 23.7894C94.2711 23.7204 94.1597 23.6523 94.0414 23.5922C91.764 22.4367 88.903 23.4985 87.6509 25.9642C86.3989 28.4299 87.23 31.3659 89.5074 32.5223C89.6257 32.5824 89.7459 32.6327 89.8672 32.681C89.4485 34.0276 89.1289 35.4029 88.9109 36.7961C88.7798 36.7961 88.6496 36.7961 88.5165 36.8109C85.9178 37.0426 83.8553 39.4304 83.9105 42.1435C83.9657 44.8567 86.1149 46.8698 88.7137 46.6381C88.8488 46.6263 88.9829 46.6046 89.115 46.581C89.3867 47.9181 89.7611 49.2322 90.2349 50.5117C90.1156 50.5817 89.9973 50.6536 89.881 50.7355C87.6578 52.2932 86.947 55.3691 88.2937 57.6011C89.6405 59.8332 94.0966 60.8733 96.3198 59.3156C96.4332 59.2357 94.977 58.661 95.0825 58.5732C95.9666 59.5496 96.9312 60.45 97.9662 61.2647C97.8923 61.384 97.8213 61.5062 97.7562 61.6334C96.5042 64.0981 97.3353 67.036 99.6126 68.1925C101.89 69.3489 104.751 68.2911 106.003 65.8214C106.068 65.6933 106.124 65.5631 106.178 65.434C107.446 65.7882 108.742 66.0356 110.051 66.1734C110.043 66.3104 110.037 66.4475 110.039 66.5865C110.095 69.3006 112.245 71.3128 114.843 71.0811C117.44 70.8494 119.504 68.4616 119.449 65.7475C119.449 65.6065 119.434 65.4675 119.42 65.3295C120.731 64.9554 122.011 64.4804 123.249 63.9088C123.308 64.0301 123.37 64.1504 123.44 64.2667C124.787 66.5007 127.68 67.0498 129.903 65.4921C132.126 63.9344 132.837 60.8585 131.49 58.6265C131.422 58.5121 131.346 58.4056 131.269 58.3001C132.267 57.3022 133.189 56.2322 134.03 55.099C134.133 55.169 134.245 55.236 134.363 55.2962ZM105.97 55.656C97.701 51.4581 94.6832 40.7968 99.2291 31.843C103.775 22.8893 114.163 19.0355 122.432 23.2333C130.7 27.4312 133.721 38.0925 129.177 47.0463C124.633 56.0001 114.241 59.8539 105.973 55.656H105.97Z" fill="url(#paint19_linear_47_806)"/>
<path d="M139.888 42.0747C142.487 41.843 144.548 39.4552 144.494 36.742C144.44 34.0289 142.29 32.0187 139.691 32.2504C139.555 32.2632 139.422 32.2839 139.29 32.3076C139.02 30.971 138.648 29.6572 138.176 28.3778C138.297 28.3078 138.415 28.2359 138.531 28.154C140.755 26.5963 143.504 22.8303 141.937 20.7491C138.959 16.7927 135.879 18.5052 133.655 20.059C133.541 20.1388 133.434 20.2246 133.328 20.3123C132.445 19.3371 131.481 18.438 130.446 17.6248C130.519 17.5045 130.591 17.3823 130.656 17.2551C130.98 16.6309 131.173 15.9472 131.224 15.2458C131.275 14.5444 131.182 13.84 130.952 13.1755C128.805 16.9547 126.689 20.7511 124.606 24.5644C131.202 29.3953 133.302 38.9248 129.179 47.0425C125.685 53.924 118.74 57.7886 111.958 57.3046C111.655 58.0933 111.359 58.882 111.034 59.6549C110.155 61.7637 109.161 63.8281 108.156 65.8906C108.785 66.0102 109.417 66.1032 110.05 66.1696C110.042 66.3067 110.036 66.4437 110.038 66.5827C110.094 69.2968 111.741 71.6018 116.447 71.3524C119.051 71.2144 119.503 68.4578 119.445 65.7437C119.445 65.6027 119.43 65.4637 119.416 65.3257C120.727 64.9516 122.007 64.4766 123.245 63.9051C123.304 64.0263 123.367 64.1466 123.437 64.2629C124.783 66.4969 129.45 67.4463 131.677 65.8896C133.903 64.3329 132.833 60.8616 131.486 58.6227C131.418 58.5083 131.342 58.4019 131.265 58.2964C132.263 57.2984 133.185 56.2285 134.026 55.0952C134.136 55.1652 134.248 55.2323 134.366 55.2924C136.643 56.4488 139.504 55.391 140.756 52.9204C142.009 50.4497 141.176 47.5187 138.899 46.3623C138.782 46.3021 138.662 46.2519 138.54 46.2035C138.959 44.857 139.279 43.4817 139.497 42.0885C139.628 42.0914 139.755 42.0895 139.888 42.0747Z" fill="url(#paint20_linear_47_806)"/>
<path d="M136.812 55.5744C139.089 56.7308 141.95 55.673 143.202 53.2083C144.454 50.7436 143.623 47.8056 141.346 46.6492C141.228 46.5901 141.107 46.5398 140.987 46.4915C141.405 45.1446 141.725 43.7689 141.942 42.3754C142.073 42.3754 142.205 42.3754 142.337 42.3616C144.934 42.1299 146.997 39.7421 146.943 37.028C146.888 34.3139 144.737 32.3027 142.139 32.5343C142.003 32.5462 141.87 32.5679 141.737 32.5915C141.468 31.2546 141.097 29.9404 140.625 28.6608C140.744 28.5918 140.864 28.5189 140.98 28.438C143.202 26.8803 143.913 23.8044 142.567 21.5723C141.222 19.3403 138.328 18.7892 136.104 20.3469C135.991 20.4267 135.883 20.5125 135.778 20.6003C134.894 19.6241 133.929 18.7238 132.895 17.9088C132.968 17.7885 133.04 17.6673 133.104 17.5391C134.356 15.0744 133.525 12.1374 131.247 10.981C128.97 9.82457 126.109 10.8824 124.857 13.3521C124.792 13.4802 124.737 13.6094 124.682 13.7395C123.414 13.3848 122.119 13.1374 120.809 13.0001C120.817 12.8631 120.824 12.726 120.821 12.587C120.767 9.87288 118.615 7.8607 116.018 8.09238C113.42 8.32406 111.357 10.7119 111.412 13.425C111.412 13.567 111.426 13.706 111.44 13.843C110.13 14.2158 108.85 14.6891 107.612 15.2587C107.553 15.1375 107.492 15.0172 107.421 14.9009C106.075 12.6659 103.181 12.1177 100.958 13.6744C98.7351 15.2311 98.0243 18.3081 99.371 20.5401C99.44 20.6545 99.5149 20.7619 99.5918 20.8674C98.5953 21.8658 97.6727 22.9353 96.8314 24.0676C96.7219 23.9986 96.6095 23.9315 96.4922 23.8704C94.2148 22.714 91.3538 23.7718 90.1017 26.2365C88.8497 28.7012 89.6807 31.6392 91.9581 32.7956C92.0764 32.8557 92.1967 32.906 92.317 32.9543C91.8982 34.3008 91.5786 35.6762 91.3607 37.0694C91.2306 37.0694 91.0994 37.0694 90.9663 37.0832C88.3685 37.3149 86.3061 39.7027 86.3603 42.4168C86.4145 45.1309 88.5657 47.1421 91.1635 46.9105C91.2996 46.8986 91.4327 46.8769 91.5658 46.8543C91.8346 48.1909 92.2064 49.5047 92.6778 50.784C92.5585 50.854 92.4393 50.926 92.3229 51.0078C90.1007 52.5645 89.3899 55.6414 90.7356 57.8725C92.0814 60.1035 94.9749 60.6556 97.1981 59.0989C97.3125 59.0191 97.4199 58.9323 97.5254 58.8455C98.4094 59.8214 99.3737 60.7214 100.408 61.536C100.335 61.6563 100.263 61.7776 100.198 61.9057C98.9461 64.3704 99.7781 67.3084 102.056 68.4638C104.333 69.6193 107.194 68.5624 108.446 66.0977C108.51 65.9705 108.566 65.8404 108.621 65.7102C109.889 66.0652 111.184 66.3125 112.494 66.4496C112.486 66.5867 112.479 66.7247 112.482 66.8637C112.536 69.5769 114.687 71.589 117.285 71.3574C119.884 71.1257 121.946 68.7379 121.891 66.0247C121.891 65.8828 121.877 65.7438 121.863 65.6067C123.174 65.2321 124.454 64.7568 125.692 64.1851C125.751 64.3063 125.812 64.4266 125.883 64.5439C127.229 66.778 130.123 67.3271 132.346 65.7694C134.569 64.2117 135.279 61.1357 133.933 58.9037C133.864 58.7894 133.788 58.6819 133.712 58.5764C134.709 57.5785 135.632 56.5089 136.473 55.3762C136.582 55.4472 136.693 55.5143 136.812 55.5744ZM108.418 55.9352C100.154 51.7364 97.136 41.075 101.681 32.1222C106.226 23.1695 116.615 19.3137 124.884 23.5125C133.152 27.7114 136.17 38.3717 131.625 47.3245C127.08 56.2773 116.691 60.1331 108.422 55.9352H108.418Z" fill="url(#paint21_linear_47_806)"/>
<path d="M54.398 277.134C53.5866 278.429 53.7079 279.034 53.8518 279.31C54.261 280.118 55.5111 279.526 58.5407 280.209C59.1634 280.372 59.811 280.417 60.4503 280.342C61.2025 280.244 62.1096 279.948 62.0928 279.745C62.0869 279.672 61.9597 279.63 61.9104 279.614C61.0783 279.344 55.9202 277.149 55.9202 277.149L54.398 277.134Z" fill="url(#paint22_linear_47_806)"/>
<path d="M54.3025 274.093L54.4592 277.192C54.4592 277.192 55.6719 278.255 56.1352 277.167C56.4675 276.384 56.6883 274.204 56.6883 274.204L54.3025 274.093Z" fill="url(#paint23_linear_47_806)"/>
<path d="M69.6111 277.219L67.9578 280.596L66.1201 280.103L66.893 276.896L69.6111 277.219Z" fill="url(#paint24_linear_47_806)"/>
<path d="M67.1739 282.469C66.3852 281.302 65.563 281.315 65.4772 280.559C65.4102 279.968 65.8391 279.293 66.403 279.081C67.1917 278.78 68.0445 279.468 68.2367 279.623C69.5411 280.679 69.0106 282.062 70.2657 282.816C70.5181 282.968 70.9252 283.143 71.3255 283.605C71.4951 283.802 71.917 284.286 71.7751 284.576C71.6124 284.911 70.7823 284.811 69.9926 284.718C69.0452 284.605 68.5709 284.549 68.145 284.216C67.5535 283.755 67.7852 283.37 67.1739 282.469Z" fill="url(#paint25_linear_47_806)"/>
<path d="M51.9275 200.105C51.5801 206.228 51.7896 212.369 52.5535 218.453C53.2436 223.893 53.8233 224.871 53.8696 228.597C53.9682 236.705 51.2827 237.642 50.0533 246.695C48.6947 256.691 50.703 264.893 51.5006 268.023C52.0633 270.236 52.7573 272.414 53.5788 274.545C54.4326 275.424 55.8651 275.236 57.3744 275.054C58.6758 265.993 60.0679 257.479 61.3692 248.418L70.0647 207.758L51.9275 200.105Z" fill="url(#paint26_linear_47_806)"/>
<path style="mix-blend-mode:multiply" opacity="0.3" d="M57.3746 275.05C58.676 265.989 60.0681 257.475 61.3694 248.414L70.0649 207.754L51.9247 200.105C51.899 200.578 51.8843 201.034 51.8645 201.498C59.9557 209.792 61.1653 215.932 60.7375 220.016C60.2228 224.969 57.3056 227.204 57.2396 234.443C57.1913 239.619 58.6632 240.654 58.2777 245.295C57.7848 251.273 54.9375 254.421 53.4015 257.771C51.9168 261.009 51.0956 265.702 52.8711 272.621C53.1196 273.341 53.3572 273.986 53.5721 274.541C54.4328 275.42 55.8653 275.229 57.3746 275.05Z" fill="url(#paint27_linear_47_806)"/>
<path d="M62.3622 207.869C66.2919 215.962 68.3268 222.245 69.3935 226.108C70.0442 228.465 70.6081 230.911 70.5263 234.05C70.4372 237.109 69.7764 240.123 68.5782 242.938C67.2509 245.759 66.2063 248.704 65.4598 251.73C62.7792 262.609 64.5972 272.05 66.1775 277.523L69.3886 279.025C73.5647 269.814 76.971 260.273 79.5727 250.5C81.3286 243.912 82.6812 238.744 83.2421 232.083C83.8337 225.058 83.7558 213.862 79.1074 200.107L62.3622 207.869Z" fill="url(#paint28_linear_47_806)"/>
<path d="M69.9562 147.262C76.8801 149.051 82.123 150.749 84.2052 154.626C86.4047 158.72 82.1536 161.313 80.3602 169.747C77.6086 182.662 84.709 188.159 81.4605 201.121C80.6002 204.518 79.2208 207.761 77.3711 210.737C74.9487 212.4 71.1314 214.627 66.0955 215.934C58.7665 217.836 55.3741 216.095 45.7459 215.849C29.9985 215.445 27.2755 219.792 20.4256 216.414C13.5037 212.996 8.95681 204.933 10.7452 201.796C11.8159 199.918 14.5822 201.376 18.8935 199.319C24.4499 196.667 23.9097 192.374 28.5098 189.112C35.1152 184.425 40.6243 190.168 46.2813 186.085C52.0043 181.955 53.564 170.889 51.8417 164.081C50.7158 159.634 51.0786 154.93 50.3451 150.402C50.2525 149.855 50.321 149.293 50.5423 148.784C51.6267 146.308 56.3353 146.205 59.8904 146.16C65.3118 146.092 69.3874 147.115 69.9562 147.262Z" fill="url(#paint29_linear_47_806)"/>
<path style="mix-blend-mode:multiply" opacity="0.3" d="M21.6559 211.533C23.9452 210.267 23.1101 206.07 26.5045 204.16C29.6544 202.386 31.7622 205.222 36.2647 204.238C42.0469 202.977 42.2017 197.524 47.7493 196.24C51.7381 195.316 52.7053 197.893 58.2982 198.465C63.8911 199.037 71.4104 197.335 76.5459 191.788C78.4991 189.665 79.9707 187.144 80.8601 184.399C81.9554 189.356 83.1927 194.159 81.4516 201.121C80.5913 204.517 79.2119 207.761 77.3622 210.737C74.9399 212.4 71.1225 214.627 66.0867 215.934C58.7576 217.835 55.3652 216.095 45.7371 215.849C29.9896 215.445 27.2666 219.792 20.4167 216.414C15.993 214.229 12.5494 210.15 11.0991 206.67C16.9267 211.689 19.9937 212.451 21.6559 211.533Z" fill="url(#paint30_linear_47_806)"/>
<path d="M75.0207 135.443C75.0207 135.443 76.6553 139.237 76.5656 141.796C76.4759 144.356 73.6149 143.932 73.6149 143.932L73.5892 145.55C73.5788 146.225 73.7643 146.89 74.1233 147.462C74.4823 148.035 74.9994 148.491 75.6123 148.776L76.7145 149.288C76.7145 149.288 69.1715 150.26 65.3621 147.066L66.5382 147.048C67.346 147.036 68.1247 146.745 68.7421 146.223C69.3594 145.702 69.7773 144.983 69.9247 144.189L70.0519 143.507C70.0519 143.507 69.4249 135.456 75.0207 135.443Z" fill="url(#paint31_linear_47_806)"/>
<path d="M82.5775 176.856L93.854 157.406C93.9221 157.289 94.0259 157.197 94.1502 157.144C94.2745 157.091 94.4126 157.079 94.5441 157.11L110.318 160.796C110.416 160.819 110.508 160.864 110.584 160.929C110.661 160.994 110.722 161.076 110.76 161.169C110.799 161.262 110.815 161.363 110.806 161.463C110.798 161.564 110.766 161.66 110.713 161.746L97.629 182.666C97.5524 182.788 97.4364 182.881 97.3001 182.928C97.1638 182.975 97.0154 182.974 96.8797 182.925L83.0133 177.917L82.5775 176.856Z" fill="url(#paint32_linear_47_806)"/>
<path d="M85.3516 174.649L94.4818 158.901C94.5368 158.807 94.6208 158.732 94.7215 158.688C94.8221 158.645 94.934 158.635 95.0408 158.66L107.815 161.645C107.894 161.664 107.968 161.701 108.03 161.753C108.092 161.806 108.14 161.873 108.171 161.948C108.202 162.023 108.215 162.105 108.208 162.186C108.201 162.267 108.175 162.345 108.131 162.414L97.5371 179.355C97.475 179.454 97.381 179.529 97.2705 179.567C97.16 179.605 97.0397 179.604 96.9298 179.565L85.6996 175.508L85.3516 174.649Z" fill="url(#paint33_linear_47_806)"/>
<path d="M97.1764 159.08L97.902 157.817C97.951 157.731 98.0262 157.664 98.1165 157.624C98.2068 157.584 98.3075 157.575 98.4038 157.596L104.975 159.075C105.045 159.091 105.111 159.124 105.167 159.17C105.223 159.217 105.267 159.276 105.296 159.342C105.325 159.409 105.337 159.481 105.333 159.554C105.329 159.626 105.307 159.697 105.27 159.759L104.464 161.133C104.414 161.218 104.337 161.286 104.246 161.324C104.154 161.363 104.053 161.371 103.956 161.348L97.4662 159.759C97.3967 159.742 97.3322 159.709 97.2776 159.663C97.2231 159.616 97.1801 159.558 97.152 159.492C97.1239 159.426 97.1114 159.355 97.1157 159.283C97.1199 159.212 97.1407 159.142 97.1764 159.08Z" fill="url(#paint34_linear_47_806)"/>
<path d="M105.783 164.496L105.753 164.49L94.185 161.76C94.1166 161.744 94.0575 161.701 94.0205 161.641C93.9836 161.581 93.9718 161.509 93.9878 161.441C94.0051 161.373 94.0482 161.314 94.1081 161.277C94.1679 161.241 94.2397 161.229 94.3082 161.244L105.877 163.974C105.943 163.989 106.001 164.029 106.039 164.086C106.076 164.143 106.09 164.212 106.079 164.279C106.067 164.346 106.03 164.407 105.975 164.447C105.92 164.488 105.852 164.505 105.784 164.497L105.783 164.496Z" fill="white"/>
<path d="M105.058 165.618L105.025 165.612L93.5285 162.774C93.4945 162.766 93.4625 162.751 93.4343 162.73C93.4061 162.71 93.3822 162.683 93.3641 162.654C93.346 162.624 93.3339 162.59 93.3286 162.556C93.3233 162.521 93.3249 162.486 93.3333 162.452C93.3416 162.418 93.3566 162.386 93.3773 162.358C93.398 162.33 93.4241 162.306 93.454 162.288C93.484 162.269 93.5172 162.257 93.5518 162.252C93.5864 162.247 93.6217 162.248 93.6556 162.257L105.152 165.094C105.221 165.107 105.283 165.147 105.323 165.206C105.362 165.264 105.378 165.336 105.364 165.405C105.351 165.475 105.311 165.536 105.253 165.576C105.195 165.616 105.123 165.631 105.053 165.618H105.058Z" fill="white"/>
<path d="M98.9931 166.865C98.9798 166.864 98.9666 166.861 98.9537 166.858L92.6993 165.132C92.6338 165.111 92.579 165.066 92.5463 165.005C92.5136 164.945 92.5056 164.874 92.5239 164.808C92.5423 164.741 92.5856 164.685 92.6447 164.65C92.7039 164.615 92.7743 164.604 92.8412 164.62L99.0917 166.344C99.1564 166.361 99.2121 166.403 99.2477 166.459C99.2833 166.516 99.2961 166.584 99.2837 166.65C99.2712 166.716 99.2344 166.775 99.1805 166.815C99.1267 166.855 99.0597 166.873 98.9931 166.865Z" fill="white"/>
<path d="M100.829 177.545C100.829 177.545 103.619 176.046 104.054 174.828C104.489 173.611 104.658 171.252 104.658 171.252L102.793 174.407C102.793 174.407 102.081 174.12 101.879 172.995C101.677 171.871 101.038 172.815 101.168 173.662C101.299 174.509 100.829 177.545 100.829 177.545Z" fill="url(#paint35_linear_47_806)"/>
<path d="M83.0881 153.264C84.9933 154.702 86.6187 156.476 87.8834 158.5C92.3948 165.796 89.6087 172.783 93.6587 175.779C94.8171 176.636 96.9219 177.455 100.978 176.479L102.395 177.433C102.395 177.433 103.251 186.939 91.9048 186.109C80.5583 185.279 76.3929 170.63 76.3929 170.63L83.0881 153.264Z" fill="url(#paint36_linear_47_806)"/>
<path d="M73.5637 138.96C73.1831 138.897 72.9071 138.384 72.633 138.507C72.3589 138.631 72.3165 139.346 72.5147 139.863C72.6435 140.186 72.8634 140.465 73.1476 140.665C72.6895 141.189 72.3528 141.807 72.1618 142.475C71.6619 144.289 72.5177 145.851 72.8519 146.751C74.3642 150.811 70.9964 156.753 67.604 159.613C64.8436 161.938 63.7433 160.82 62.0506 162.768C58.7567 166.554 62.4745 171.324 60.4948 176.623C57.483 184.681 44.2515 186.055 43.7043 186.106C43.4884 186.125 43.3435 186.137 43.1187 186.154C37.1975 186.598 28.223 187.271 22.3826 181.957C18.0122 177.982 16.3895 171.558 17.1989 166.084C17.4118 164.645 18.306 159.183 23.1536 155.075C23.9236 154.422 28.4774 150.567 34.1679 150.987C37.1817 151.209 37.7013 152.32 40.0585 151.856C43.2853 151.219 45.4651 148.514 46.8167 146.836C49.3041 143.748 48.4612 142.975 50.1894 141.499C53.574 138.607 57.0344 141.385 60.6013 138.881C64.118 136.416 62.442 132.528 65.8127 130.418C69.2909 128.242 75.4852 129.617 76.5795 132.641C77.5171 135.24 74.73 139.154 73.5637 138.96Z" fill="url(#paint37_linear_47_806)"/>
<defs>
<linearGradient id="paint0_linear_47_806" x1="384.062" y1="118.569" x2="223.011" y2="72.9948" gradientUnits="userSpaceOnUse">
<stop stop-color="#311944"/>
<stop offset="1" stop-color="#A03976"/>
</linearGradient>
<linearGradient id="paint1_linear_47_806" x1="383.64" y1="120.061" x2="222.588" y2="74.4868" gradientUnits="userSpaceOnUse">
<stop stop-color="#311944"/>
<stop offset="1" stop-color="#A03976"/>
</linearGradient>
<linearGradient id="paint2_linear_47_806" x1="218.79" y1="16.7939" x2="221.309" y2="220.165" gradientUnits="userSpaceOnUse">
<stop stop-color="#FF9085"/>
<stop offset="1" stop-color="#FB6FBB"/>
</linearGradient>
<linearGradient id="paint3_linear_47_806" x1="123.528" y1="247.756" x2="103.802" y2="256.042" gradientUnits="userSpaceOnUse">
<stop stop-color="#40447E"/>
<stop offset="1" stop-color="#3C3B6B"/>
</linearGradient>
<linearGradient id="paint4_linear_47_806" x1="97.1863" y1="160.814" x2="75.7779" y2="169.805" gradientUnits="userSpaceOnUse">
<stop stop-color="#40447E"/>
<stop offset="1" stop-color="#3C3B6B"/>
</linearGradient>
<linearGradient id="paint5_linear_47_806" x1="4.91187" y1="165.681" x2="203.312" y2="165.681" gradientUnits="userSpaceOnUse">
<stop stop-color="#40447E"/>
<stop offset="1" stop-color="#3C3B6B"/>
</linearGradient>
<linearGradient id="paint6_linear_47_806" x1="170.844" y1="66.8931" x2="9.6055" y2="292.213" gradientUnits="userSpaceOnUse">
<stop stop-color="#FF9085"/>
<stop offset="1" stop-color="#FB6FBB"/>
</linearGradient>
<linearGradient id="paint7_linear_47_806" x1="4.91187" y1="239.049" x2="285.728" y2="239.049" gradientUnits="userSpaceOnUse">
<stop stop-color="#40447E"/>
<stop offset="1" stop-color="#3C3B6B"/>
</linearGradient>
<linearGradient id="paint8_linear_47_806" x1="32.4514" y1="236.748" x2="238.203" y2="236.748" gradientUnits="userSpaceOnUse">
<stop stop-color="#40447E"/>
<stop offset="1" stop-color="#3C3B6B"/>
</linearGradient>
<linearGradient id="paint9_linear_47_806" x1="55.1837" y1="55.8524" x2="85.5765" y2="112.222" gradientUnits="userSpaceOnUse">
<stop stop-color="#AA80F9"/>
<stop offset="1" stop-color="#6165D7"/>
</linearGradient>
<linearGradient id="paint10_linear_47_806" x1="46.3956" y1="59.2782" x2="76.1988" y2="119.087" gradientUnits="userSpaceOnUse">
<stop stop-color="#AA80F9"/>
<stop offset="1" stop-color="#6165D7"/>
</linearGradient>
<linearGradient id="paint11_linear_47_806" x1="78.3637" y1="188.132" x2="143.252" y2="188.132" gradientUnits="userSpaceOnUse">
<stop stop-color="#311944"/>
<stop offset="1" stop-color="#6B3976"/>
</linearGradient>
<linearGradient id="paint12_linear_47_806" x1="22.4358" y1="131.094" x2="40.9309" y2="137.435" gradientUnits="userSpaceOnUse">
<stop stop-color="#311944"/>
<stop offset="1" stop-color="#6B3976"/>
</linearGradient>
<linearGradient id="paint13_linear_47_806" x1="129.374" y1="57.5253" x2="172.367" y2="295.325" gradientUnits="userSpaceOnUse">
<stop stop-color="#AA80F9"/>
<stop offset="1" stop-color="#6165D7"/>
</linearGradient>
<linearGradient id="paint14_linear_47_806" x1="115.337" y1="60.1478" x2="158.309" y2="297.835" gradientUnits="userSpaceOnUse">
<stop stop-color="#AA80F9"/>
<stop offset="1" stop-color="#6165D7"/>
</linearGradient>
<linearGradient id="paint15_linear_47_806" x1="180.372" y1="92.125" x2="265.409" y2="192.413" gradientUnits="userSpaceOnUse">
<stop stop-color="#E38DDD"/>
<stop offset="1" stop-color="#9571F6"/>
</linearGradient>
<linearGradient id="paint16_linear_47_806" x1="192.009" y1="142.269" x2="256.913" y2="142.269" gradientUnits="userSpaceOnUse">
<stop stop-color="#D8DEE8"/>
<stop offset="1" stop-color="white"/>
</linearGradient>
<linearGradient id="paint17_linear_47_806" x1="183.948" y1="65.8473" x2="211.985" y2="220.928" gradientUnits="userSpaceOnUse">
<stop stop-color="#FFC444"/>
<stop offset="1" stop-color="#F36F56"/>
</linearGradient>
<linearGradient id="paint18_linear_47_806" x1="199.495" y1="85.7905" x2="220.195" y2="200.286" gradientUnits="userSpaceOnUse">
<stop stop-color="#FFC444"/>
<stop offset="1" stop-color="#F36F56"/>
</linearGradient>
<linearGradient id="paint19_linear_47_806" x1="189.329" y1="60.4198" x2="118.216" y2="40.297" gradientUnits="userSpaceOnUse">
<stop stop-color="#311944"/>
<stop offset="1" stop-color="#A03976"/>
</linearGradient>
<linearGradient id="paint20_linear_47_806" x1="189.143" y1="61.0785" x2="118.03" y2="40.9557" gradientUnits="userSpaceOnUse">
<stop stop-color="#311944"/>
<stop offset="1" stop-color="#A03976"/>
</linearGradient>
<linearGradient id="paint21_linear_47_806" x1="116.353" y1="15.4816" x2="117.465" y2="105.281" gradientUnits="userSpaceOnUse">
<stop stop-color="#FF9085"/>
<stop offset="1" stop-color="#FB6FBB"/>
</linearGradient>
<linearGradient id="paint22_linear_47_806" x1="57.777" y1="288.223" x2="53.8726" y2="265.986" gradientUnits="userSpaceOnUse">
<stop stop-color="#444B8C"/>
<stop offset="1" stop-color="#26264F"/>
</linearGradient>
<linearGradient id="paint23_linear_47_806" x1="52.6761" y1="283.367" x2="56.853" y2="248.908" gradientUnits="userSpaceOnUse">
<stop stop-color="#FFC444"/>
<stop offset="1" stop-color="#F36F56"/>
</linearGradient>
<linearGradient id="paint24_linear_47_806" x1="65.3633" y1="284.904" x2="69.5401" y2="250.446" gradientUnits="userSpaceOnUse">
<stop stop-color="#FFC444"/>
<stop offset="1" stop-color="#F36F56"/>
</linearGradient>
<linearGradient id="paint25_linear_47_806" x1="67.6014" y1="286.498" x2="63.6961" y2="264.261" gradientUnits="userSpaceOnUse">
<stop stop-color="#444B8C"/>
<stop offset="1" stop-color="#26264F"/>
</linearGradient>
<linearGradient id="paint26_linear_47_806" x1="58.7089" y1="208.651" x2="46.914" y2="279.47" gradientUnits="userSpaceOnUse">
<stop stop-color="#311944"/>
<stop offset="1" stop-color="#893976"/>
</linearGradient>
<linearGradient id="paint27_linear_47_806" x1="58.7091" y1="208.651" x2="46.9142" y2="279.47" gradientUnits="userSpaceOnUse">
<stop stop-color="#311944"/>
<stop offset="1" stop-color="#893976"/>
</linearGradient>
<linearGradient id="paint28_linear_47_806" x1="103.279" y1="244.79" x2="45.5823" y2="235.12" gradientUnits="userSpaceOnUse">
<stop stop-color="#311944"/>
<stop offset="1" stop-color="#893976"/>
</linearGradient>
<linearGradient id="paint29_linear_47_806" x1="15.569" y1="249.583" x2="67.3634" y2="166.665" gradientUnits="userSpaceOnUse">
<stop offset="0.49" stop-color="#EBEFF2"/>
<stop offset="1" stop-color="white"/>
</linearGradient>
<linearGradient id="paint30_linear_47_806" x1="11.105" y1="201.055" x2="82.3271" y2="201.055" gradientUnits="userSpaceOnUse">
<stop stop-color="#AA80F9"/>
<stop offset="1" stop-color="#6165D7"/>
</linearGradient>
<linearGradient id="paint31_linear_47_806" x1="74.7263" y1="141.038" x2="65.8495" y2="152.144" gradientUnits="userSpaceOnUse">
<stop stop-color="#FFC444"/>
<stop offset="1" stop-color="#F36F56"/>
</linearGradient>
<linearGradient id="paint32_linear_47_806" x1="100.112" y1="162.976" x2="82.2207" y2="185.36" gradientUnits="userSpaceOnUse">
<stop stop-color="#444B8C"/>
<stop offset="1" stop-color="#26264F"/>
</linearGradient>
<linearGradient id="paint33_linear_47_806" x1="99.036" y1="160.754" x2="83.6639" y2="183.709" gradientUnits="userSpaceOnUse">
<stop stop-color="#FFC444"/>
<stop offset="1" stop-color="#F36F56"/>
</linearGradient>
<linearGradient id="paint34_linear_47_806" x1="98.773" y1="161.238" x2="103.228" y2="154.286" gradientUnits="userSpaceOnUse">
<stop stop-color="#AA80F9"/>
<stop offset="1" stop-color="#6165D7"/>
</linearGradient>
<linearGradient id="paint35_linear_47_806" x1="102.118" y1="172.923" x2="97.825" y2="178.293" gradientUnits="userSpaceOnUse">
<stop stop-color="#FFC444"/>
<stop offset="1" stop-color="#F36F56"/>
</linearGradient>
<linearGradient id="paint36_linear_47_806" x1="32.9852" y1="260.46" x2="84.7794" y2="177.544" gradientUnits="userSpaceOnUse">
<stop offset="0.49" stop-color="#EBEFF2"/>
<stop offset="1" stop-color="white"/>
</linearGradient>
<linearGradient id="paint37_linear_47_806" x1="32.2789" y1="189.857" x2="48.6613" y2="149.168" gradientUnits="userSpaceOnUse">
<stop stop-color="#444B8C"/>
<stop offset="1" stop-color="#26264F"/>
</linearGradient>
</defs>
</svg>
