<svg width="1917" height="960" viewBox="0 0 1917 960" fill="none" xmlns="http://www.w3.org/2000/svg">
<path d="M244.13 1124.41L296.089 1103.27C296.089 1103.27 295.024 1072.64 274.638 1059.01C233.043 1031.2 260.302 996.716 269.557 980.563C283.516 956.202 284.114 931.821 254.021 928.409C219.972 924.547 228.072 874.097 256.283 838.006C283.891 802.687 237.035 733.231 170.261 804.184C130.385 846.56 159.201 895.394 167.891 923.517C176.58 951.64 137.099 970.319 164.426 997.873C187.766 1021.41 218.61 1032.95 209.415 1059.4C200.22 1085.85 207.342 1108.42 244.13 1124.41Z" fill="url(#paint0_linear_63_3864)"/>
<g style="mix-blend-mode:soft-light" opacity="0.5">
<g style="mix-blend-mode:soft-light">
<path d="M268.581 1120.09L269.582 1119.45C269.187 1118.83 229.926 1056.78 209.554 983.524C190.78 916.034 184.671 824.955 262.15 774.313L261.502 773.321C227.009 795.864 205.939 828.161 198.849 869.293C193.191 902.157 196.408 940.703 208.414 983.861C228.84 1057.28 268.185 1119.47 268.581 1120.09Z" fill="#BEB8F2"/>
</g>
<g style="mix-blend-mode:soft-light">
<path d="M196.632 886.613L197.664 886.035C178.414 851.642 171.278 794.565 171.208 793.992L170.028 794.134C170.103 794.711 177.271 852.013 196.632 886.613Z" fill="#BEB8F2"/>
</g>
<g style="mix-blend-mode:soft-light">
<path d="M202.099 859.336C229.662 821.308 268.653 818.309 269.043 818.283L268.966 817.102C268.569 817.127 229.048 820.149 201.141 858.641L202.099 859.336Z" fill="#BEB8F2"/>
</g>
<g style="mix-blend-mode:soft-light">
<path d="M225.478 1030.69C216.7 973.982 281.876 932.68 282.544 932.332L282.068 931.25C281.378 931.531 215.454 973.66 224.308 1030.87L225.478 1030.69Z" fill="#BEB8F2"/>
</g>
<g style="mix-blend-mode:soft-light">
<path d="M216.222 1008.91L217.207 1008.25C196.79 977.856 151.475 969.664 151.02 969.586L150.817 970.752C151.268 970.83 196.092 978.939 216.222 1008.91Z" fill="#BEB8F2"/>
</g>
</g>
<path d="M1959.01 1056.75L1863.62 1098.98C1863.62 1098.98 1824.01 1057.99 1832.1 1013.11C1848.61 921.546 1767.27 913.478 1733.7 905.001C1683.08 892.217 1649.68 861.53 1683.98 816.86C1722.79 766.315 1644.82 711.999 1560.1 703.136C1477.19 694.463 1444.77 542.073 1625.94 544.361C1734.14 545.732 1762.26 647.354 1788.67 695.3C1815.08 743.245 1891.06 714.543 1892.63 786.69C1893.98 848.314 1869.58 904.482 1916.85 926.34C1964.12 948.199 1985.11 986.872 1959.01 1056.75Z" fill="url(#paint1_linear_63_3864)"/>
<g style="mix-blend-mode:soft-light" opacity="0.5">
<g style="mix-blend-mode:soft-light">
<path d="M1921.64 1083.88L1919.5 1084.4C1919.18 1083.07 1886.86 950.4 1815.15 828.539C1749.1 716.261 1635.12 590.464 1467.3 628.729L1466.81 626.582C1541.52 609.543 1611.95 623.061 1676.14 666.693C1727.41 701.565 1774.83 755.65 1817.08 827.45C1888.93 949.598 1921.32 1082.55 1921.64 1083.88Z" fill="#BEB8F2"/>
</g>
<g style="mix-blend-mode:soft-light">
<path d="M1702.17 686.096L1700.07 686.731C1678.91 616.558 1611.76 533.298 1611.08 532.465L1612.79 531.068C1613.47 531.914 1680.88 615.508 1702.17 686.096Z" fill="#BEB8F2"/>
</g>
<g style="mix-blend-mode:soft-light">
<path d="M1658.62 658.185C1572.14 645.953 1517.77 694.249 1517.23 694.738L1515.75 693.111C1516.3 692.611 1571.38 643.633 1658.92 656.005L1658.62 658.185Z" fill="#BEB8F2"/>
</g>
<g style="mix-blend-mode:soft-light">
<path d="M1857.69 910.755C1793.16 825.779 1653.72 859.645 1652.4 860.09L1651.56 858.054C1652.83 857.494 1794.34 823.695 1859.45 909.425L1857.69 910.755Z" fill="#BEB8F2"/>
</g>
<g style="mix-blend-mode:soft-light">
<path d="M1840.51 870.249L1838.35 870.714C1824.05 804.143 1871.61 732.931 1872.1 732.222L1873.92 733.455C1873.44 734.161 1826.4 804.608 1840.51 870.249Z" fill="#BEB8F2"/>
</g>
<g style="mix-blend-mode:soft-light">
<path d="M1906.72 1032.11L1904.61 1032.63C1896.76 1001.56 1926.18 950.052 1935.85 933.123C1937.22 930.731 1938.39 928.668 1938.53 928.258L1940.63 928.929C1940.44 929.512 1939.66 930.886 1937.76 934.218C1928.18 950.966 1899.09 1001.9 1906.72 1032.11Z" fill="#BEB8F2"/>
</g>
</g>
<path d="M176.677 1025.58C194.021 1036.74 195.932 1056.64 195.056 1071.27C193.338 1072.25 192.601 1073.26 191.094 1074.63C177.484 1087.05 169.035 1089.44 153.69 1099.56C150.385 1101.73 138.748 1105.18 133.914 1106.28L124.847 1108.19C124.847 1108.19 88.374 1077.82 103.264 1055.28C118.154 1032.74 87.1754 999.505 72.9314 979.882C64.1886 967.823 64.0377 959.511 61.5417 954.564C35.0496 902.211 11.0617 896.1 12.9 873.771C14.9341 849.142 44.7445 849.526 48.3772 822.857C52.4746 792.727 17.2058 771.998 27.4554 744.351C29.2237 739.609 31.1488 734.79 35.7857 729.894C47.2331 717.813 63.1323 719.327 66.37 702.239C72.8727 667.883 100.873 641.021 134.708 653.402C168.097 665.625 172.438 725.161 136.312 795.476C116.316 848.397 121.314 858.019 138.003 878.888C149.691 893.503 191.067 925.391 177.551 955.144C164.036 984.897 156.848 1012.83 176.677 1025.58Z" fill="url(#paint2_linear_63_3864)"/>
<g style="mix-blend-mode:soft-light" opacity="0.5">
<g style="mix-blend-mode:soft-light">
<path d="M162.37 1095.45L161.121 1095.97C158.143 1089.11 155.232 1082.16 152.468 1075.3C132.003 1024.5 117.41 973.507 109.093 923.731C102.046 881.557 99.3962 839.663 101.22 799.218C102.685 766.69 107.037 734.92 114.156 704.785C119.159 683.604 125.469 663.441 132.907 644.86C134.204 641.623 135.717 638.37 137.18 635.224C139.131 631.037 141.15 626.703 142.664 622.364L143.941 622.713C142.404 627.104 140.373 631.468 138.409 635.685C136.952 638.815 135.456 642.049 134.163 645.257C126.746 663.777 120.457 683.894 115.467 705.003C108.365 735.062 104.026 766.758 102.564 799.209C100.745 839.572 103.387 881.382 110.42 923.475C118.724 973.166 133.292 1024.08 153.726 1074.8C156.485 1081.64 159.392 1088.58 162.37 1095.45Z" fill="#FCFDFE"/>
</g>
<g style="mix-blend-mode:soft-light">
<path d="M102.5 848.386L101.159 848.53C97.3176 794.532 31.8197 727.876 31.1556 727.21L32.1579 726.322C32.8226 726.991 98.6435 793.951 102.5 848.386Z" fill="#FCFDFE"/>
</g>
<g style="mix-blend-mode:soft-light">
<path d="M127.327 997.912L126.003 998.204C118.824 962.002 166.172 904.09 166.65 903.506L167.704 904.252C167.222 904.831 120.258 962.277 127.327 997.912Z" fill="#FCFDFE"/>
</g>
<g style="mix-blend-mode:soft-light">
<path d="M133.302 1018.03L132.045 1018.54C122.953 996.267 97.6751 971.061 60.8582 947.564C59.0054 946.383 59.0054 946.383 58.9132 946.163L60.1643 945.645L59.5376 945.906L60.0257 945.449C60.1377 945.541 60.8361 945.987 61.6482 946.504C98.6728 970.134 124.105 995.539 133.302 1018.03Z" fill="#FCFDFE"/>
</g>
<g style="mix-blend-mode:soft-light">
<path d="M111.587 722.788L110.244 722.863C109.898 692.644 102.09 661.316 99.5225 651.022C98.9014 648.531 98.6871 647.654 98.668 647.332L100.012 647.205C100.028 647.449 100.385 648.874 100.832 650.677C103.398 661.007 111.232 692.432 111.587 722.788Z" fill="#FCFDFE"/>
</g>
<g style="mix-blend-mode:soft-light">
<path d="M104.416 772.354L103.129 772.056C111.693 744.474 164.726 715.159 166.978 713.915L167.61 714.996C167.064 715.295 112.815 745.291 104.416 772.354Z" fill="#FCFDFE"/>
</g>
</g>
<path d="M932.941 1031.41C930.495 1028.53 896.686 1043.14 905.304 1017.51C907.459 1011.11 919.576 993.225 899.734 973.804L888.183 962.493C892.908 950.431 899.599 939.937 914.801 947.526C938.403 959.308 966.958 928.022 971.737 912.099C977.655 892.392 992.379 846.839 1029.12 864.494C1059.71 879.186 1076.82 894.81 1104.86 866.622C1132.89 838.434 1166.28 835.347 1192.87 862.8C1220.85 891.687 1278.61 876.077 1291.7 910.861C1314.49 971.458 1218.1 1002.01 1149.84 974.065C1081.57 946.119 1095.35 990.786 1075.18 1016.38C1072.23 1019.72 1068.9 1022.69 1065.25 1025.25C1036.72 1045.16 1006.6 1025.61 969.161 1029.07C918.105 1033.79 937.07 1036.24 932.941 1031.41Z" fill="url(#paint3_linear_63_3864)"/>
<path d="M1859.89 983.782L1828.37 1071.97C1828.37 1071.97 1777.19 1072.4 1752.99 1039.38C1703.62 971.996 1648.05 1019.95 1621.77 1036.55C1582.14 1061.58 1541.52 1064.33 1533.66 1014.38C1524.77 957.867 1441.2 975.008 1383.03 1024.66C1326.1 1073.25 1206.88 1000.1 1320.42 883.61C1388.24 814.046 1471.77 858.598 1519.3 871.068C1566.84 883.539 1595.16 816.341 1643.08 859.939C1684.02 897.177 1705.48 947.795 1748.94 930.555C1792.4 913.315 1830.56 923.571 1859.89 983.782Z" fill="url(#paint4_linear_63_3864)"/>
<g style="mix-blend-mode:soft-light" opacity="0.5">
<g style="mix-blend-mode:soft-light">
<path d="M1854.43 1024.88L1853.45 1026.59C1852.39 1025.98 1746.05 964.956 1622.39 936.245C1508.47 909.787 1356.11 906.149 1277.21 1039.03L1275.51 1038.02C1310.63 978.863 1362.99 941.394 1431.08 926.608C1485.49 914.806 1550.02 917.399 1622.87 934.319C1746.81 963.108 1853.37 1024.26 1854.43 1024.88Z" fill="#BEB8F2"/>
</g>
<g style="mix-blend-mode:soft-light">
<path d="M1459.82 921.665L1458.93 923.428C1400.17 893.793 1304.45 885.997 1303.49 885.922L1303.64 883.943C1304.61 884.026 1400.71 891.86 1459.82 921.665Z" fill="#BEB8F2"/>
</g>
<g style="mix-blend-mode:soft-light">
<path d="M1414.71 932.747C1353.26 981.46 1351.06 1046.71 1351.05 1047.36L1349.07 1047.32C1349.09 1046.66 1351.28 980.518 1413.48 931.199L1414.71 932.747Z" fill="#BEB8F2"/>
</g>
<g style="mix-blend-mode:soft-light">
<path d="M1702.21 959.414C1606.99 948.853 1542.79 1060.54 1542.26 1061.68L1540.42 1060.96C1540.84 1059.79 1606.37 946.797 1702.43 957.45L1702.21 959.414Z" fill="#BEB8F2"/>
</g>
<g style="mix-blend-mode:soft-light">
<path d="M1665.22 945.543L1664.19 947.233C1612.02 915.364 1595.1 840.366 1594.93 839.613L1596.86 839.19C1597.03 839.938 1613.78 914.122 1665.22 945.543Z" fill="#BEB8F2"/>
</g>
<g style="mix-blend-mode:soft-light">
<path d="M1811.51 1002.56L1810.54 1004.27C1785.47 990.155 1770.15 939.148 1765.11 922.385C1764.4 920.016 1763.78 917.974 1763.6 917.63L1765.34 916.681C1765.6 917.163 1766.01 918.52 1767 921.818C1771.98 938.414 1787.13 988.846 1811.51 1002.56Z" fill="#BEB8F2"/>
</g>
</g>
<path d="M618.592 1035.97C607.578 1055.39 586.174 1058.66 570.313 1058.59C569.141 1056.8 568.005 1056.06 566.434 1054.52C552.193 1040.55 549.093 1031.56 537.229 1015.58C534.686 1012.14 530.249 999.771 528.77 994.612L526.158 984.925C526.158 984.925 556.788 943.662 582.051 958.398C607.313 973.134 641.376 937.637 661.728 921.054C674.237 910.874 683.213 910.209 688.41 907.212C743.407 875.411 748.565 849.11 772.815 849.749C799.562 850.461 800.947 882.71 829.998 885.027C862.816 887.637 883.095 848.258 913.602 857.668C918.835 859.294 924.161 861.084 929.734 865.801C943.485 877.447 942.809 894.726 961.477 897.194C999.011 902.149 1029.74 930.796 1018.4 968.121C1007.2 1004.95 943.103 1013.24 864.908 978.434C806.49 960.015 796.39 965.999 774.838 985.301C759.744 998.818 727.77 1045.47 694.79 1032.66C661.809 1019.84 631.18 1013.76 618.592 1035.97Z" fill="url(#paint5_linear_63_3864)"/>
<g style="mix-blend-mode:soft-light" opacity="0.5">
<g style="mix-blend-mode:soft-light">
<path d="M542.2 1024.72L541.555 1023.4C548.791 1019.77 556.134 1016.2 563.384 1012.8C617.064 987.607 671.307 968.752 724.615 956.755C769.782 946.59 814.91 941.196 858.744 940.725C893.996 940.344 928.604 943.13 961.611 949.006C984.811 953.136 1006.99 958.74 1027.53 965.658C1031.1 966.864 1034.71 968.304 1038.2 969.696C1042.84 971.552 1047.65 973.473 1052.43 974.848L1052.13 976.249C1047.29 974.853 1042.45 972.92 1037.78 971.052C1034.3 969.666 1030.72 968.244 1027.17 967.04C1006.7 960.14 984.576 954.556 961.455 950.436C928.53 944.575 894.004 941.797 858.835 942.177C815.09 942.648 770.051 948.029 724.972 958.174C671.754 970.152 617.596 988.975 564.002 1014.13C556.774 1017.52 549.44 1021.09 542.2 1024.72Z" fill="#FCFDFE"/>
</g>
<g style="mix-blend-mode:soft-light">
<path d="M805.668 945.078L805.431 943.637C863.573 936.223 931.675 861.392 932.356 860.634L933.377 861.664C932.693 862.423 864.282 937.622 805.668 945.078Z" fill="#FCFDFE"/>
</g>
<g style="mix-blend-mode:soft-light">
<path d="M645.523 980.946L645.128 979.533C683.83 969.586 749.294 1017.27 749.954 1017.76L749.212 1018.94C748.557 1018.45 683.619 971.153 645.523 980.946Z" fill="#FCFDFE"/>
</g>
<g style="mix-blend-mode:soft-light">
<path d="M624.132 988.621L623.51 987.293C647.038 976.119 672.76 947.27 695.938 906.05C697.103 903.976 697.103 903.976 697.335 903.863L697.971 905.184L697.651 904.523L698.174 905.023C698.081 905.149 697.641 905.931 697.131 906.84C673.822 948.293 647.894 977.32 624.132 988.621Z" fill="#FCFDFE"/>
</g>
<g style="mix-blend-mode:soft-light">
<path d="M540.931 1022.91C556.619 1005.52 567.853 982.521 575.238 952.6L576.572 953.037C569.143 983.186 557.804 1006.38 541.958 1023.94L540.931 1022.91Z" fill="#FCFDFE"/>
</g>
<g style="mix-blend-mode:soft-light">
<path d="M941.993 947.317L941.831 945.87C974.479 943.67 1007.87 933.338 1018.85 929.94C1021.5 929.119 1022.44 928.834 1022.79 928.794L1023 930.239C1022.74 930.271 1021.22 930.743 1019.3 931.335C1008.29 934.733 974.788 945.099 941.993 947.317Z" fill="#FCFDFE"/>
</g>
<g style="mix-blend-mode:soft-light">
<path d="M887.977 942.557L888.221 941.148C918.556 948.74 953.45 1004.3 954.93 1006.66L953.8 1007.41C953.444 1006.84 917.741 950.003 887.977 942.557Z" fill="#FCFDFE"/>
</g>
</g>
<path d="M1941.81 1035.57C1944.63 1033.88 1968.39 1055.35 1968.45 1031.84C1968.46 1025.97 1963.48 1007.86 1985.24 997.401L1997.91 991.311C1997.38 980.059 1994.8 969.548 1980.17 971.554C1957.44 974.668 1942.66 940.931 1943.17 926.484C1943.8 908.603 1944.39 866.978 1909.2 871.259C1879.91 874.82 1861.45 882.908 1846.24 851.868C1831.02 820.828 1804.38 808.965 1774.82 824.149C1743.72 840.129 1700.51 811.147 1680.02 836.139C1644.34 879.68 1715.18 931.751 1779.2 927.794C1843.22 923.837 1819.4 956.774 1828.87 983.483C1830.37 987.054 1832.28 990.436 1834.57 993.558C1852.51 1017.92 1882.77 1010.23 1912.63 1023.53C1953.36 1041.67 1937.06 1038.4 1941.81 1035.57Z" fill="url(#paint6_linear_63_3864)"/>
<path d="M547.071 1093.3C550.168 1091.32 577.457 1114.56 576.757 1088.26C576.579 1081.69 570.413 1061.58 594.422 1049.18L608.402 1041.95C607.45 1029.38 604.221 1017.71 587.908 1020.43C562.582 1024.65 544.946 987.38 545.047 971.199C545.169 951.171 544.478 904.578 505.244 910.512C472.589 915.448 452.2 925.098 434.164 890.862C416.128 856.626 385.942 844.218 353.358 862.168C319.078 881.058 269.785 850.035 247.675 878.665C209.163 928.542 290.125 984.501 361.626 977.993C433.127 971.485 407.55 1009.11 419.013 1038.69C420.803 1042.64 423.054 1046.36 425.719 1049.78C446.579 1076.45 480.185 1066.86 514.036 1080.78C560.197 1099.75 541.849 1096.62 547.071 1093.3Z" fill="url(#paint7_linear_63_3864)"/>
<g style="mix-blend-mode:soft-light" opacity="0.5">
<g style="mix-blend-mode:soft-light">
<path d="M563.745 1059.72L565.233 1058.63C489.036 956.639 360.449 893.847 229.624 894.727L229.543 896.498C359.808 895.611 487.866 958.151 563.745 1059.72Z" fill="#FCFDFE"/>
</g>
<g style="mix-blend-mode:soft-light">
<path d="M517.118 1007.84L518.781 1007.05C497.864 961.571 522.486 906.601 522.735 906.051L521.084 905.403C520.836 905.954 495.879 961.64 517.118 1007.84Z" fill="#FCFDFE"/>
</g>
<g style="mix-blend-mode:soft-light">
<path d="M412.723 937.501L413.96 936.143C383.226 909.884 382.5 847.269 382.491 846.643L380.675 846.746C380.684 847.38 381.421 910.758 412.723 937.501Z" fill="#FCFDFE"/>
</g>
<g style="mix-blend-mode:soft-light">
<path d="M335.087 909.403L335.339 907.639C287.979 903.614 235.723 943.248 235.193 943.642L236.27 945.011C236.785 944.613 288.469 905.445 335.087 909.403Z" fill="#FCFDFE"/>
</g>
</g>
<defs>
<linearGradient id="paint0_linear_63_3864" x1="319.539" y1="892.341" x2="151.681" y2="1007.83" gradientUnits="userSpaceOnUse">
<stop stop-color="#FFC444"/>
<stop offset="1" stop-color="#F36F56"/>
</linearGradient>
<linearGradient id="paint1_linear_63_3864" x1="1551.11" y1="857.944" x2="1922.42" y2="782.501" gradientUnits="userSpaceOnUse">
<stop stop-color="#FFC444"/>
<stop offset="1" stop-color="#F36F56"/>
</linearGradient>
<linearGradient id="paint2_linear_63_3864" x1="82.0726" y1="650.963" x2="134.308" y2="1182.9" gradientUnits="userSpaceOnUse">
<stop stop-color="#E38DDD"/>
<stop offset="1" stop-color="#9571F6"/>
</linearGradient>
<linearGradient id="paint3_linear_63_3864" x1="1241" y1="879.007" x2="887.37" y2="981.988" gradientUnits="userSpaceOnUse">
<stop stop-color="#AA80F9"/>
<stop offset="1" stop-color="#6165D7"/>
</linearGradient>
<linearGradient id="paint4_linear_63_3864" x1="1478.21" y1="1126.26" x2="1658.78" y2="837.963" gradientUnits="userSpaceOnUse">
<stop stop-color="#FFC444"/>
<stop offset="1" stop-color="#F36F56"/>
</linearGradient>
<linearGradient id="paint5_linear_63_3864" x1="1017.86" y1="911.072" x2="445.959" y2="999.665" gradientUnits="userSpaceOnUse">
<stop stop-color="#E38DDD"/>
<stop offset="1" stop-color="#9571F6"/>
</linearGradient>
<linearGradient id="paint6_linear_63_3864" x1="1730.67" y1="824.061" x2="1993.14" y2="1007.59" gradientUnits="userSpaceOnUse">
<stop stop-color="#AA80F9"/>
<stop offset="1" stop-color="#6165D7"/>
</linearGradient>
<linearGradient id="paint7_linear_63_3864" x1="303.951" y1="863.504" x2="603.59" y2="1060.33" gradientUnits="userSpaceOnUse">
<stop stop-color="#AA80F9"/>
<stop offset="1" stop-color="#6165D7"/>
</linearGradient>
</defs>
</svg>
