<svg width="635" height="640" viewBox="0 0 635 640" fill="none" xmlns="http://www.w3.org/2000/svg">
<path d="M305.817 388.412L357.776 367.273C357.776 367.273 356.711 336.639 336.325 323.009C294.731 295.203 321.989 260.714 331.245 244.561C345.203 220.2 345.801 195.819 315.708 192.407C281.659 188.545 289.759 138.095 317.971 102.004C345.579 66.6847 298.723 -2.7705 231.949 68.1823C192.073 110.558 220.888 159.392 229.578 187.515C238.268 215.638 198.787 234.317 226.113 261.871C249.453 285.406 280.297 296.943 271.102 323.395C261.908 349.847 269.03 372.414 305.817 388.412Z" fill="url(#paint0_linear_63_3996)"/>
<g style="mix-blend-mode:soft-light" opacity="0.5">
<g style="mix-blend-mode:soft-light">
<path d="M330.269 384.084L331.269 383.451C330.875 382.832 291.613 320.775 271.241 247.522C252.468 180.032 246.358 88.9532 323.837 38.3109L323.189 37.3191C288.696 59.8622 267.626 92.1592 260.536 133.291C254.878 166.155 258.095 204.701 270.101 247.859C290.527 321.279 329.872 383.464 330.269 384.084Z" fill="#BEB8F2"/>
</g>
<g style="mix-blend-mode:soft-light">
<path d="M258.319 150.611L259.352 150.033C240.101 115.64 232.965 58.5634 232.896 57.9902L231.715 58.1317C231.79 58.7087 238.959 116.011 258.319 150.611Z" fill="#BEB8F2"/>
</g>
<g style="mix-blend-mode:soft-light">
<path d="M263.787 123.334C291.35 85.3057 330.34 82.3069 330.73 82.2815L330.654 81.1004C330.256 81.1255 290.735 84.1467 262.829 122.639L263.787 123.334Z" fill="#BEB8F2"/>
</g>
<g style="mix-blend-mode:soft-light">
<path d="M287.165 294.686C278.388 237.98 343.563 196.678 344.231 196.33L343.755 195.248C343.065 195.529 277.141 237.658 285.996 294.868L287.165 294.686Z" fill="#BEB8F2"/>
</g>
<g style="mix-blend-mode:soft-light">
<path d="M277.91 272.909L278.895 272.249C258.477 241.855 213.162 233.662 212.707 233.584L212.504 234.75C212.956 234.828 257.78 242.937 277.91 272.909Z" fill="#BEB8F2"/>
</g>
<g style="mix-blend-mode:soft-light">
<path d="M325.304 373.547C318.696 352.773 340.949 325.144 341.174 324.866L340.256 324.119C339.319 325.267 317.372 352.52 324.17 373.9L325.304 373.547Z" fill="#BEB8F2"/>
</g>
<g style="mix-blend-mode:soft-light">
<path d="M315.808 358.977L316.801 358.354C307.71 343.712 276.792 335.861 266.631 333.281C265.195 332.916 263.957 332.601 263.747 332.501L263.223 333.563C263.519 333.708 264.342 333.92 266.34 334.429C276.4 336.976 306.969 344.74 315.808 358.977Z" fill="#BEB8F2"/>
</g>
</g>
<path d="M375.487 538.309C389.352 535.896 399.51 545.009 405.828 552.756C405.422 554.046 405.519 554.894 405.395 556.277C404.297 568.8 401.162 573.907 398.132 586.079C397.474 588.695 393.227 595.807 391.307 598.592L387.637 603.741C387.637 603.741 355.287 605.346 352.349 587.148C349.411 568.951 318.495 566.576 302.275 563.306C292.312 561.291 288.395 557.187 284.856 555.856C247.359 541.81 232.49 549.827 223.094 537.765C212.735 524.459 227.881 510.876 217.38 495.805C205.514 478.783 178.225 484.673 170.596 466.054C169.292 462.855 168.032 459.546 168.098 454.945C168.263 443.588 176.946 437.001 170.675 426.925C158.063 406.668 159.71 380.24 182.421 370.822C204.835 361.529 234.528 389.418 248.882 441.42C263.298 477.234 270.253 479.755 288.278 482.522C300.9 484.46 336.413 481.351 343.376 502.537C350.338 523.722 359.637 541.069 375.487 538.309Z" fill="url(#paint1_linear_63_3996)"/>
<g style="mix-blend-mode:soft-light" opacity="0.5">
<g style="mix-blend-mode:soft-light">
<path d="M400.589 580.002L400.205 580.844C395.54 578.775 390.864 576.629 386.306 574.461C352.554 558.41 321.662 539.55 294.483 518.399C271.455 500.479 250.765 480.667 232.99 459.515C218.694 442.506 206.197 424.542 195.846 406.12C188.57 393.172 182.42 380.131 177.568 367.364C176.724 365.14 175.981 362.807 175.261 360.551C174.306 357.547 173.317 354.438 172.072 351.559L172.874 351.145C174.132 354.06 175.129 357.19 176.091 360.215C176.806 362.459 177.549 364.775 178.383 366.984C183.217 379.71 189.355 392.718 196.605 405.624C206.93 423.999 219.398 441.92 233.66 458.89C251.4 479.998 272.048 499.772 295.031 517.657C322.164 538.772 353.007 557.604 386.705 573.628C391.252 575.788 395.922 577.932 400.589 580.002Z" fill="#FCFDFE"/>
</g>
<g style="mix-blend-mode:soft-light">
<path d="M256.354 483.613L255.747 484.305C228.865 458.966 165.173 455.764 164.532 455.736L164.625 454.827C165.268 454.857 229.262 458.062 256.354 483.613Z" fill="#FCFDFE"/>
</g>
<g style="mix-blend-mode:soft-light">
<path d="M337.92 547.222L337.39 547.98C317.056 533.119 314.069 482.159 314.039 481.645L314.912 481.533C314.938 482.046 317.903 532.595 337.92 547.222Z" fill="#FCFDFE"/>
</g>
<g style="mix-blend-mode:soft-light">
<path d="M350.219 554.564L349.821 555.398C334.963 548.417 310.622 547.441 281.277 552.657C279.801 552.92 279.801 552.92 279.653 552.852L280.041 552.014L279.847 552.434L279.881 551.98C279.98 551.974 280.537 551.875 281.184 551.759C310.695 546.515 335.205 547.519 350.219 554.564Z" fill="#FCFDFE"/>
</g>
<g style="mix-blend-mode:soft-light">
<path d="M392.127 576.096L391.523 576.79C378.249 564.38 380.606 535.877 380.632 535.591L381.5 535.617C381.475 535.898 379.156 563.969 392.127 576.096Z" fill="#FCFDFE"/>
</g>
<g style="mix-blend-mode:soft-light">
<path d="M400.218 581.343C385.472 580.666 369.776 584.405 352.253 592.786L351.932 591.962C369.584 583.51 385.416 579.745 400.308 580.431L400.218 581.343Z" fill="#FCFDFE"/>
</g>
<g style="mix-blend-mode:soft-light">
<path d="M202.876 416.347L202.236 417.005C188.097 401.991 169.7 389.869 163.653 385.886C162.19 384.922 161.677 384.581 161.519 384.428L162.135 383.743C162.256 383.859 163.094 384.409 164.151 385.108C170.213 389.109 188.669 401.268 202.876 416.347Z" fill="#FCFDFE"/>
</g>
<g style="mix-blend-mode:soft-light">
<path d="M222.181 444.549L221.397 444.995C212.951 427.187 226.033 387.959 226.589 386.294L227.406 386.544C227.27 386.947 213.892 427.079 222.181 444.549Z" fill="#FCFDFE"/>
</g>
</g>
<path d="M350.473 437.124C348.721 439.719 367.924 463.481 345.529 462.305C339.934 462.009 322.94 456.312 311.843 476.495L305.378 488.246C294.687 487.158 284.81 484.15 287.487 470.311C291.642 448.826 260.279 432.98 246.491 432.709C229.424 432.371 189.743 430.756 195.662 397.46C200.588 369.746 209.258 352.587 180.487 336.466C151.715 320.345 141.808 294.353 157.82 266.988C174.67 238.197 149.324 195.516 174.203 177.309C217.547 145.596 263.441 215.809 256.321 276.584C249.2 337.359 281.823 316.397 306.769 326.815C310.093 328.427 313.214 330.427 316.068 332.772C338.334 351.133 329.427 379.554 340.537 408.702C355.682 448.449 353.419 432.747 350.473 437.124Z" fill="url(#paint2_linear_63_3996)"/>
<g style="mix-blend-mode:soft-light" opacity="0.5">
<g style="mix-blend-mode:soft-light">
<path d="M321.497 450.59L320.537 451.834C235.32 384.667 184.654 273.727 188.287 162.284L189.797 162.254C186.171 273.22 236.634 383.703 321.497 450.59Z" fill="#FCFDFE"/>
</g>
<g style="mix-blend-mode:soft-light">
<path d="M278.325 409.72L277.613 411.12C239.327 392.296 191.95 412.063 191.476 412.263L190.96 410.842C191.435 410.643 239.43 390.607 278.325 409.72Z" fill="#FCFDFE"/>
</g>
<g style="mix-blend-mode:soft-light">
<path d="M306.179 437.782L304.919 438.702C280.61 402.538 313.498 326.064 313.835 325.296L315.211 325.86C314.874 326.618 282.331 402.305 306.179 437.782Z" fill="#FCFDFE"/>
</g>
<g style="mix-blend-mode:soft-light">
<path d="M220.696 319.226L219.511 320.25C197.816 293.487 144.484 291.488 143.951 291.467L144.078 289.922C144.618 289.944 198.6 291.968 220.696 319.226Z" fill="#FCFDFE"/>
</g>
<g style="mix-blend-mode:soft-light">
<path d="M198.467 252.461L196.959 252.637C194.573 212.198 229.493 168.549 229.839 168.106L230.982 169.054C230.632 169.484 196.122 212.656 198.467 252.461Z" fill="#FCFDFE"/>
</g>
</g>
<defs>
<linearGradient id="paint0_linear_63_3996" x1="381.227" y1="156.339" x2="213.368" y2="271.832" gradientUnits="userSpaceOnUse">
<stop stop-color="#FFC444"/>
<stop offset="1" stop-color="#F36F56"/>
</linearGradient>
<linearGradient id="paint1_linear_63_3996" x1="154.864" y1="393.92" x2="426.915" y2="636.886" gradientUnits="userSpaceOnUse">
<stop stop-color="#E38DDD"/>
<stop offset="1" stop-color="#9571F6"/>
</linearGradient>
<linearGradient id="paint2_linear_63_3996" x1="160.047" y1="224.922" x2="321.138" y2="484.551" gradientUnits="userSpaceOnUse">
<stop stop-color="#AA80F9"/>
<stop offset="1" stop-color="#6165D7"/>
</linearGradient>
</defs>
</svg>
