<svg width="1351" height="831" viewBox="0 0 1351 831" fill="none" xmlns="http://www.w3.org/2000/svg">
<g clip-path="url(#clip0_43_457)">
<path d="M1112.24 407C1062.3 323 1034.67 281.589 1051.89 231.716C1091.43 117.207 1032.79 61.7501 970.367 60.2649C926.872 59.2301 909.761 80.3 882.656 84.4908C846.074 90.1299 808.736 89.407 772.421 82.3565C742.365 76.5142 682.4 29.7551 652.312 23.6168C594.536 11.7921 530.728 16.0452 481.56 47.5C432.392 78.9548 402.742 141.475 422.227 195.068C428.906 213.42 471.558 266.318 479.939 284.016C495.177 316.172 498.647 355.089 481.56 386.357C464.652 417.173 431.435 435.681 402.92 457.181C367.353 483.993 302 475 266 541C244.051 581.24 242.668 623 301.5 649C255.884 649 240.116 609.601 234 593C227 574 174 554.5 143 601.5C129.948 621.288 125.242 650 106.5 650C145.881 753.26 533.479 858.467 772.421 818.687C1063.28 770.265 1409.35 650 1272 650C1029.01 650 1162.19 491 1112.24 407Z" fill="white"/>
<path opacity="0.43" d="M549.779 265.243H307.208C297.175 265.243 289.042 273.376 289.042 283.408V309.286C289.042 319.318 297.175 327.451 307.208 327.451H549.779C559.812 327.451 567.945 319.318 567.945 309.286V283.408C567.945 273.376 559.812 265.243 549.779 265.243Z" fill="#FF83D5"/>
<path d="M542.956 256.222H300.385C290.352 256.222 282.219 264.355 282.219 274.388V300.265C282.219 310.298 290.352 318.431 300.385 318.431H542.956C552.988 318.431 561.121 310.298 561.121 300.265V274.388C561.121 264.355 552.988 256.222 542.956 256.222Z" fill="url(#paint0_linear_43_457)"/>
<path d="M322.32 269.917L327.975 281.383L340.642 283.221L331.481 292.148L333.646 304.752L322.32 298.801L311.01 304.752L313.16 292.148L304.014 283.221L316.665 281.383L322.32 269.917Z" fill="white"/>
<path d="M372.003 269.917L377.658 281.383L390.308 283.221L381.148 292.148L383.313 304.752L372.003 298.801L360.676 304.752L362.842 292.148L353.681 283.221L366.332 281.383L372.003 269.917Z" fill="white"/>
<path d="M421.67 269.917L427.325 281.383L439.991 283.221L430.83 292.148L432.98 304.752L421.67 298.801L410.344 304.752L412.509 292.148L403.348 283.221L416.014 281.383L421.67 269.917Z" fill="white"/>
<path d="M471.337 269.917L477.008 281.383L489.658 283.221L480.497 292.148L482.663 304.752L471.337 298.801L460.026 304.752L462.192 292.148L453.031 283.221L465.681 281.383L471.337 269.917Z" fill="white"/>
<path d="M521.019 269.917L526.675 281.383L539.325 283.221L530.164 292.148L532.33 304.752L521.019 298.801L509.693 304.752L511.859 292.148L502.698 283.221L515.348 281.383L521.019 269.917Z" fill="white"/>
<path opacity="0.43" d="M700.458 355.011H559.994C558.527 355.011 557.075 355.3 555.719 355.861C554.364 356.423 553.133 357.246 552.095 358.283C551.058 359.32 550.235 360.552 549.674 361.907C549.113 363.262 548.824 364.715 548.824 366.182V443.58C548.824 446.543 550.001 449.384 552.095 451.479C554.19 453.574 557.032 454.75 559.994 454.75L559.324 481.749L602.822 454.719H700.458C703.42 454.719 706.262 453.542 708.357 451.448C710.451 449.353 711.628 446.511 711.628 443.549V366.197C711.63 364.729 711.343 363.275 710.782 361.918C710.222 360.561 709.4 359.327 708.362 358.288C707.325 357.249 706.092 356.425 704.736 355.863C703.38 355.301 701.926 355.011 700.458 355.011Z" fill="#FF83D5"/>
<path d="M693.619 346.022H553.17C550.208 346.022 547.367 347.199 545.272 349.294C543.177 351.388 542 354.23 542 357.192V434.591C542 436.058 542.289 437.51 542.85 438.865C543.412 440.221 544.234 441.452 545.272 442.489C546.309 443.527 547.54 444.349 548.896 444.911C550.251 445.472 551.703 445.761 553.17 445.761L552.485 472.76L595.983 445.761H693.619C695.085 445.761 696.538 445.472 697.893 444.911C699.249 444.349 700.48 443.527 701.517 442.489C702.555 441.452 703.377 440.221 703.939 438.865C704.5 437.51 704.789 436.058 704.789 434.591V357.192C704.789 355.725 704.5 354.273 703.939 352.918C703.377 351.562 702.555 350.331 701.517 349.294C700.48 348.256 699.249 347.434 697.893 346.872C696.538 346.311 695.085 346.022 693.619 346.022Z" fill="url(#paint1_linear_43_457)"/>
<path d="M657.179 370.388C655.266 368.472 652.994 366.952 650.493 365.915C647.992 364.878 645.311 364.345 642.604 364.345C639.897 364.345 637.216 364.878 634.715 365.915C632.214 366.952 629.943 368.472 628.03 370.388L623.356 375.062L618.682 370.388C614.814 366.537 609.576 364.377 604.117 364.383C598.658 364.389 593.425 366.56 589.565 370.42C585.705 374.28 583.534 379.513 583.528 384.972C583.522 390.431 585.682 395.669 589.533 399.537L594.207 404.211L623.434 433.329L652.583 404.18L657.257 399.506C661.106 395.633 663.26 390.391 663.245 384.931C663.231 379.471 661.049 374.24 657.179 370.388Z" fill="white"/>
<path opacity="0.43" d="M478.402 395.518C474.845 392.729 470.458 391.21 465.938 391.202H381.217C375.813 391.202 370.63 393.349 366.808 397.171C362.987 400.992 360.84 406.175 360.84 411.58V496.254C360.84 501.658 362.987 506.842 366.808 510.663C370.63 514.485 375.813 516.632 381.217 516.632H465.907C471.311 516.632 476.495 514.485 480.316 510.663C484.138 506.842 486.285 501.658 486.285 496.254V421.94L515.029 389.224L497.471 373.784L478.402 395.518Z" fill="#FF83D5"/>
<path d="M459.052 382.166H374.378C363.123 382.166 354 391.29 354 402.544V487.218C354 498.472 363.123 507.596 374.378 507.596H459.052C470.306 507.596 479.43 498.472 479.43 487.218V402.544C479.43 391.29 470.306 382.166 459.052 382.166Z" fill="#21205E"/>
<path d="M416.38 484.585L377.229 433.843L395.737 419.557L417.564 447.864L490.631 364.779L508.189 380.219L416.38 484.585Z" fill="url(#paint2_linear_43_457)"/>
<path d="M761.768 89.1802C768.015 89.1802 773.079 84.1163 773.079 77.8696C773.079 71.6229 768.015 66.5589 761.768 66.5589C755.521 66.5589 750.457 71.6229 750.457 77.8696C750.457 84.1163 755.521 89.1802 761.768 89.1802Z" stroke="#21205E" stroke-width="4" stroke-miterlimit="10"/>
<path d="M615.311 255.621C621.557 255.621 626.621 250.557 626.621 244.311C626.621 238.064 621.557 233 615.311 233C609.064 233 604 238.064 604 244.311C604 250.557 609.064 255.621 615.311 255.621Z" stroke="#21205E" stroke-width="4" stroke-miterlimit="10"/>
<path d="M984.311 455.621C990.557 455.621 995.621 450.557 995.621 444.311C995.621 438.064 990.557 433 984.311 433C978.064 433 973 438.064 973 444.311C973 450.557 978.064 455.621 984.311 455.621Z" stroke="#21205E" stroke-width="4" stroke-miterlimit="10"/>
<path d="M868.978 122.018C887.105 116.841 897.603 97.949 892.426 79.8219C887.249 61.6949 868.357 51.197 850.23 56.3743C832.103 61.5517 821.605 80.4436 826.782 98.5707C831.959 116.698 850.851 127.196 868.978 122.018Z" fill="#FFD3C5"/>
<path d="M215.09 665.681C226.37 662.459 232.903 650.704 229.681 639.424C226.459 628.144 214.704 621.612 203.424 624.833C192.144 628.055 185.612 639.811 188.833 651.09C192.055 662.37 203.811 668.903 215.09 665.681Z" fill="#FFD3C5"/>
<path d="M570.393 34.3923C575.804 32.8469 578.938 27.2079 577.392 21.7971C575.847 16.3863 570.208 13.2528 564.797 14.7982C559.386 16.3436 556.253 21.9826 557.798 27.3934C559.344 32.8042 564.983 35.9377 570.393 34.3923Z" fill="#FFD3C5"/>
<path d="M972.943 249.959C986.718 249.959 997.885 238.792 997.885 225.017C997.885 211.241 986.718 200.074 972.943 200.074C959.167 200.074 948 211.241 948 225.017C948 238.792 959.167 249.959 972.943 249.959Z" fill="url(#paint3_linear_43_457)"/>
<path d="M522.867 168.733C533.286 168.733 541.733 160.286 541.733 149.867C541.733 139.447 533.286 131 522.867 131C512.447 131 504 139.447 504 149.867C504 160.286 512.447 168.733 522.867 168.733Z" fill="url(#paint4_linear_43_457)"/>
<path d="M798.442 189.745C798.442 191.788 797.836 193.785 796.701 195.484C795.566 197.182 793.953 198.506 792.066 199.288C790.178 200.07 788.101 200.274 786.098 199.876C784.094 199.477 782.254 198.493 780.809 197.049C779.364 195.604 778.381 193.764 777.982 191.76C777.584 189.756 777.788 187.68 778.57 185.792C779.352 183.905 780.676 182.292 782.374 181.157C784.073 180.022 786.07 179.416 788.113 179.416C790.852 179.416 793.48 180.504 795.417 182.441C797.354 184.378 798.442 187.006 798.442 189.745Z" fill="#21205E"/>
<path d="M493.802 652.157C499.507 652.157 504.131 647.532 504.131 641.828C504.131 636.123 499.507 631.499 493.802 631.499C488.098 631.499 483.473 636.123 483.473 641.828C483.473 647.532 488.098 652.157 493.802 652.157Z" fill="#21205E"/>
<path d="M1161.33 602.658C1167.03 602.658 1171.66 598.034 1171.66 592.329C1171.66 586.625 1167.03 582 1161.33 582C1155.62 582 1151 586.625 1151 592.329C1151 598.034 1155.62 602.658 1161.33 602.658Z" fill="#29F2B1"/>
<path d="M1104.66 382.329C1104.66 384.372 1104.05 386.369 1102.92 388.068C1101.78 389.766 1100.17 391.09 1098.28 391.872C1096.39 392.654 1094.32 392.858 1092.31 392.46C1090.31 392.061 1088.47 391.077 1087.03 389.633C1085.58 388.188 1084.6 386.348 1084.2 384.344C1083.8 382.341 1084 380.264 1084.79 378.376C1085.57 376.489 1086.89 374.876 1088.59 373.741C1090.29 372.606 1092.29 372 1094.33 372C1097.07 372 1099.7 373.088 1101.63 375.025C1103.57 376.962 1104.66 379.59 1104.66 382.329Z" fill="#21205E"/>
<path d="M684.281 515.323C696.035 515.323 705.563 505.795 705.563 494.042C705.563 482.288 696.035 472.76 684.281 472.76C672.528 472.76 663 482.288 663 494.042C663 505.795 672.528 515.323 684.281 515.323Z" fill="url(#paint5_linear_43_457)"/>
<path d="M637.647 524.328H485V540.141H637.647V524.328Z" fill="#FFD3C5"/>
<path d="M637.647 550.283H485V566.096H637.647V550.283Z" fill="#FFD3C5"/>
<path d="M637.647 576.238H485V592.051H637.647V576.238Z" fill="#FFD3C5"/>
</g>
<path opacity="0.43" d="M443.314 611.07C439.765 611.066 436.28 612.012 433.22 613.81C430.16 615.608 427.637 618.193 425.914 621.295C424.19 624.397 423.329 627.905 423.419 631.453C423.509 635 424.547 638.46 426.425 641.471L398.93 665.723C395.28 662.617 390.771 660.693 386.003 660.208C381.234 659.722 376.43 660.697 372.229 663.004L352.384 636.59C358.631 630.743 362.392 622.72 362.89 614.179C363.388 605.638 360.585 597.232 355.061 590.699C349.536 584.166 341.713 580.006 333.208 579.078C324.702 578.15 316.166 580.526 309.363 585.714C302.56 590.903 298.011 598.507 296.656 606.954C295.301 615.402 297.244 624.047 302.083 631.103C306.922 638.159 314.287 643.085 322.656 644.864C331.025 646.642 339.757 645.137 347.047 640.66L366.909 667.057C363.761 670.225 361.575 674.219 360.603 678.577C359.63 682.936 359.913 687.48 361.416 691.685C362.92 695.89 365.583 699.583 369.098 702.337C372.613 705.091 376.837 706.793 381.279 707.246C385.721 707.7 390.201 706.886 394.201 704.899C398.2 702.912 401.554 699.834 403.876 696.019C406.199 692.205 407.393 687.811 407.322 683.346C407.25 678.881 405.916 674.528 403.473 670.79L430.918 646.571C433.404 648.558 436.331 649.921 439.453 650.543C442.574 651.166 445.8 651.032 448.859 650.151C451.918 649.27 454.721 647.669 457.033 645.481C459.346 643.294 461.1 640.584 462.149 637.578C463.198 634.573 463.511 631.36 463.062 628.209C462.613 625.057 461.416 622.059 459.569 619.466C457.723 616.873 455.282 614.761 452.45 613.306C449.619 611.851 446.481 611.096 443.297 611.104L443.314 611.07Z" fill="#FF83D5"/>
<path d="M375.691 678.93L319.654 604.382L325.058 600.329L376.704 669.033L432.337 619.937L436.795 625.004L375.691 678.93Z" fill="#21205E"/>
<path d="M355.711 602.356C355.711 608.953 353.755 615.402 350.09 620.887C346.425 626.372 341.215 630.648 335.12 633.172C329.025 635.697 322.319 636.357 315.848 635.07C309.378 633.783 303.435 630.607 298.77 625.942C294.105 621.277 290.928 615.333 289.641 608.863C288.354 602.393 289.014 595.686 291.539 589.591C294.064 583.496 298.339 578.287 303.824 574.621C309.31 570.956 315.759 569 322.356 569C331.202 569 339.686 572.514 345.942 578.77C352.197 585.025 355.711 593.509 355.711 602.356ZM376.198 650.287C371.521 650.287 366.95 651.673 363.061 654.271C359.173 656.869 356.143 660.562 354.353 664.883C352.563 669.203 352.095 673.957 353.007 678.544C353.92 683.13 356.172 687.344 359.478 690.65C362.785 693.957 366.998 696.209 371.585 697.121C376.171 698.034 380.926 697.565 385.246 695.776C389.567 693.986 393.259 690.956 395.857 687.067C398.455 683.179 399.842 678.608 399.842 673.931C399.842 667.66 397.351 661.646 392.917 657.212C388.483 652.778 382.469 650.287 376.198 650.287ZM435.816 601.309C431.877 601.309 428.028 602.476 424.753 604.664C421.479 606.852 418.926 609.962 417.419 613.601C415.912 617.239 415.518 621.243 416.286 625.105C417.055 628.968 418.951 632.516 421.736 635.301C424.52 638.085 428.068 639.982 431.931 640.75C435.794 641.518 439.797 641.124 443.436 639.617C447.074 638.11 450.184 635.558 452.372 632.283C454.56 629.009 455.728 625.159 455.728 621.221C455.728 615.94 453.63 610.875 449.896 607.141C446.161 603.406 441.097 601.309 435.816 601.309Z" fill="url(#paint6_linear_43_457)"/>
<path d="M908.757 467.074L900.232 392.735L818.822 429.905L819.618 486.655L824.299 541.015H867.365L908.757 467.074Z" fill="#F9AAA5"/>
<path d="M894.316 430.224C894.316 430.224 857.903 508.048 819.3 463.449L894.316 430.224Z" fill="#ED83BC"/>
<path d="M919.705 404.38C929.677 401.518 935.441 391.115 932.58 381.144C929.719 371.172 919.316 365.408 909.344 368.269C899.372 371.13 893.608 381.533 896.469 391.505C899.33 401.477 909.734 407.241 919.705 404.38Z" fill="#F9AAA5"/>
<path d="M916.944 327.759C916.944 327.759 917.741 432.634 866.07 459.226C814.4 485.818 798.783 439.665 798.783 439.665C798.783 439.665 779.202 396.62 794.799 319.134L916.944 327.759Z" fill="#FFD3C5"/>
<path d="M796.133 343.694C818.081 343.694 835.872 325.902 835.872 303.955C835.872 282.008 818.081 264.216 796.133 264.216C774.186 264.216 756.394 282.008 756.394 303.955C756.394 325.902 774.186 343.694 796.133 343.694Z" fill="#21205E"/>
<path d="M846.649 340.567C868.597 340.567 886.388 322.775 886.388 300.828C886.388 278.881 868.597 261.089 846.649 261.089C824.702 261.089 806.91 278.881 806.91 300.828C806.91 322.775 824.702 340.567 846.649 340.567Z" fill="#21205E"/>
<path d="M892.623 355.427C914.57 355.427 932.362 337.635 932.362 315.688C932.362 293.74 914.57 275.949 892.623 275.949C870.676 275.949 852.884 293.74 852.884 315.688C852.884 337.635 870.676 355.427 892.623 355.427Z" fill="#21205E"/>
<path d="M796.133 327.54C818.081 327.54 835.872 309.748 835.872 287.801C835.872 265.853 818.081 248.062 796.133 248.062C774.186 248.062 756.394 265.853 756.394 287.801C756.394 309.748 774.186 327.54 796.133 327.54Z" fill="#21205E"/>
<path d="M791.373 336.822C813.32 336.822 831.112 319.03 831.112 297.083C831.112 275.136 813.32 257.344 791.373 257.344C769.426 257.344 751.634 275.136 751.634 297.083C751.634 319.03 769.426 336.822 791.373 336.822Z" fill="#21205E"/>
<path d="M858.421 326.643C880.368 326.643 898.16 308.851 898.16 286.904C898.16 264.957 880.368 247.165 858.421 247.165C836.474 247.165 818.682 264.957 818.682 286.904C818.682 308.851 836.474 326.643 858.421 326.643Z" fill="#21205E"/>
<path d="M933.148 359.94C943.844 349.244 943.844 331.903 933.148 321.206C922.452 310.51 905.11 310.51 894.414 321.206C883.718 331.903 883.718 349.244 894.414 359.94C905.11 370.636 922.452 370.636 933.148 359.94Z" fill="#21205E"/>
<path d="M926.465 364.868C926.465 364.868 909.235 381.959 906.347 401.341L900.371 399.867C898.148 399.309 896.175 398.028 894.761 396.224C893.347 394.421 892.574 392.198 892.563 389.907V355.447L926.465 364.868Z" fill="#21205E"/>
<path d="M832.706 387.975V407.277C832.706 407.277 815.435 410.962 816.192 405.962C816.949 400.962 826.331 400.783 826.331 400.783L832.706 387.975Z" fill="#F9AAA5"/>
<path d="M855.553 408.571C855.549 410.389 856.085 412.167 857.092 413.68C858.1 415.194 859.534 416.374 861.213 417.071C862.891 417.769 864.739 417.952 866.522 417.599C868.305 417.245 869.944 416.37 871.229 415.084C872.514 413.799 873.389 412.161 873.743 410.378C874.097 408.595 873.913 406.747 873.216 405.068C872.518 403.389 871.338 401.955 869.825 400.948C868.312 399.94 866.534 399.404 864.716 399.408C863.513 399.408 862.321 399.645 861.209 400.106C860.098 400.566 859.088 401.241 858.237 402.092C857.386 402.943 856.711 403.953 856.25 405.065C855.79 406.177 855.553 407.368 855.553 408.571Z" fill="#F9AAA5"/>
<path d="M791.811 405.364C791.811 407.177 792.348 408.948 793.355 410.455C794.362 411.962 795.793 413.136 797.467 413.83C799.141 414.523 800.984 414.705 802.761 414.351C804.538 413.998 806.171 413.125 807.453 411.843C808.734 410.562 809.607 408.929 809.96 407.152C810.314 405.374 810.132 403.532 809.439 401.858C808.745 400.184 807.571 398.752 806.064 397.746C804.557 396.739 802.786 396.201 800.973 396.201C799.77 396.201 798.579 396.438 797.467 396.899C796.355 397.359 795.345 398.034 794.494 398.885C793.643 399.736 792.969 400.746 792.508 401.858C792.048 402.97 791.811 404.161 791.811 405.364Z" fill="#F9AAA5"/>
<path d="M856.071 370.247C856.08 370.105 856.119 369.968 856.184 369.842C856.25 369.717 856.341 369.607 856.452 369.519C856.562 369.431 856.69 369.367 856.827 369.331C856.964 369.295 857.107 369.288 857.246 369.31L879.456 372.836C879.593 372.86 879.724 372.911 879.841 372.987C879.958 373.062 880.059 373.16 880.137 373.276C880.215 373.391 880.269 373.521 880.296 373.658C880.323 373.794 880.322 373.935 880.293 374.071C880.241 374.312 880.103 374.525 879.905 374.672C879.707 374.818 879.463 374.888 879.217 374.868L856.848 373.374C856.712 373.366 856.58 373.332 856.458 373.272C856.337 373.213 856.228 373.13 856.139 373.028C856.05 372.925 855.982 372.807 855.94 372.678C855.897 372.549 855.881 372.413 855.892 372.278L856.071 370.247Z" fill="#21205E"/>
<path d="M793.106 367.996L815.654 367.697C815.796 367.693 815.936 367.72 816.066 367.775C816.196 367.83 816.313 367.912 816.41 368.015C816.506 368.119 816.579 368.242 816.623 368.376C816.668 368.51 816.684 368.652 816.67 368.792L816.511 370.784C816.501 370.918 816.464 371.048 816.404 371.168C816.343 371.287 816.26 371.393 816.158 371.48C816.056 371.567 815.938 371.633 815.81 371.675C815.683 371.716 815.549 371.732 815.415 371.721L793.046 370.047C792.804 370.029 792.576 369.925 792.404 369.753C792.233 369.581 792.128 369.353 792.11 369.111C792.096 368.971 792.111 368.83 792.155 368.696C792.198 368.563 792.269 368.44 792.363 368.335C792.456 368.23 792.571 368.146 792.699 368.087C792.826 368.029 792.965 367.998 793.106 367.996Z" fill="#260955"/>
<path d="M841.768 418.65C841.768 418.65 829.12 436.319 815.256 419.905L841.768 418.65Z" fill="white"/>
<path d="M879.456 389.967C879.456 389.967 865.512 371.183 844.039 384.31C843.979 384.31 856.269 405.783 879.456 389.967Z" fill="white"/>
<path d="M853.561 386.58C853.386 388.031 853.646 389.501 854.307 390.805C854.967 392.108 856 393.186 857.273 393.903C858.547 394.62 860.004 394.943 861.461 394.831C862.918 394.72 864.31 394.179 865.459 393.277C866.609 392.375 867.466 391.153 867.921 389.764C868.376 388.375 868.409 386.883 868.016 385.475C867.623 384.068 866.821 382.809 865.713 381.857C864.604 380.904 863.238 380.302 861.787 380.127C860.823 380.007 859.844 380.079 858.908 380.339C857.972 380.599 857.096 381.042 856.331 381.642C855.567 382.242 854.928 382.987 854.453 383.834C853.977 384.682 853.674 385.615 853.561 386.58Z" fill="#21205E"/>
<path d="M826.391 386.56C826.391 386.56 812.567 367.777 790.994 380.903C790.994 380.903 803.285 402.376 826.391 386.56Z" fill="white"/>
<path d="M800.515 383.174C800.316 384.631 800.555 386.115 801.202 387.435C801.849 388.756 802.874 389.855 804.147 390.591C805.42 391.327 806.883 391.668 808.35 391.57C809.818 391.473 811.223 390.94 812.387 390.041C813.551 389.142 814.421 387.917 814.886 386.522C815.352 385.127 815.391 383.625 815.001 382.208C814.61 380.79 813.806 379.521 812.691 378.561C811.577 377.602 810.202 376.996 808.742 376.82C806.81 376.582 804.863 377.116 803.322 378.306C801.782 379.496 800.773 381.245 800.515 383.174Z" fill="#21205E"/>
<path d="M980.467 517.61L761.514 533.266L788.784 831L1021.16 823.59L980.467 517.61Z" fill="url(#paint7_linear_43_457)"/>
<path d="M819.698 486.655C819.698 486.655 851.788 529.701 840.832 609.517L847.007 830.98H742.909C742.909 830.98 631.779 640.014 695.959 557.07C749.98 506.993 819.698 486.655 819.698 486.655ZM880.591 715.448L877.564 769.509C877.564 769.509 986.243 850.899 1056.74 813.969C1127.23 777.039 1084.9 620.274 1084.9 620.274C1065.48 493.487 931.645 486.376 931.645 486.376L908.757 467.015C908.757 467.015 839.378 491.097 855.234 561.532L868.719 708.934L878.838 724.113" fill="url(#paint8_linear_43_457)"/>
<path d="M1025.68 710.933L886.373 725.009L886.773 728.973L1026.08 714.897L1025.68 710.933Z" fill="white"/>
<path d="M925.218 491.774L875.127 531.675L877.609 534.791L927.7 494.89L925.218 491.774Z" fill="white"/>
<path d="M790.879 506.827L788.147 509.727L822.954 542.527L825.686 539.628L790.879 506.827Z" fill="white"/>
<path d="M877.862 799.986L854.875 633.779C854.341 629.932 852.302 626.454 849.206 624.108C846.11 621.763 842.21 620.742 838.362 621.27L709.305 639.078C707.337 639.351 705.445 640.02 703.744 641.046C702.042 642.072 700.567 643.433 699.406 645.045C698.246 646.658 697.425 648.49 696.994 650.429C696.562 652.368 696.529 654.375 696.895 656.328L727.511 817.674C728.196 821.287 730.215 824.51 733.168 826.702C736.12 828.895 739.79 829.896 743.447 829.506L864.954 816.519C866.897 816.303 868.776 815.7 870.482 814.747C872.188 813.795 873.687 812.51 874.889 810.97C876.092 809.43 876.974 807.664 877.485 805.778C877.995 803.892 878.124 801.922 877.862 799.986Z" fill="#21205E"/>
<path d="M784.394 722.759C794.397 720.408 800.599 710.393 798.247 700.391C795.896 690.388 785.881 684.186 775.879 686.538C765.876 688.889 759.674 698.904 762.026 708.906C764.377 718.909 774.392 725.111 784.394 722.759Z" fill="#FDFFFF"/>
<path d="M889.296 725.208L877.564 717.44L873.301 684.055C873.179 683.121 872.73 682.26 872.034 681.625C871.337 680.991 870.438 680.624 869.497 680.589H867.305C866.435 680.605 865.593 680.906 864.91 681.446C864.226 681.985 863.738 682.734 863.521 683.577L857.246 707.281L800.337 681.824C799.631 681.486 798.823 681.435 798.08 681.68C797.338 681.925 796.719 682.448 796.353 683.139C795.975 683.84 795.889 684.662 796.112 685.426C796.336 686.19 796.852 686.836 797.548 687.222L836.829 709.134L788.823 688.099C788.017 687.745 787.111 687.687 786.266 687.935C785.421 688.182 784.69 688.72 784.202 689.453C783.923 689.873 783.733 690.346 783.642 690.842C783.551 691.338 783.562 691.847 783.673 692.339C783.785 692.83 783.996 693.294 784.292 693.702C784.588 694.11 784.964 694.454 785.397 694.712L829.777 721.264L785.955 700.449C784.87 699.945 783.634 699.871 782.496 700.24C781.359 700.61 780.403 701.396 779.82 702.441C779.497 703 779.292 703.619 779.217 704.26C779.143 704.901 779.201 705.551 779.388 706.169C779.574 706.787 779.886 707.36 780.303 707.853C780.72 708.345 781.233 708.748 781.812 709.034L827.308 730.726L787.349 716.424C786.582 716.152 785.745 716.147 784.974 716.411C784.204 716.675 783.546 717.192 783.107 717.878C782.847 718.278 782.669 718.726 782.585 719.196C782.5 719.665 782.51 720.147 782.614 720.612C782.718 721.078 782.913 721.518 783.189 721.907C783.466 722.296 783.817 722.626 784.222 722.878L822.228 746.781L845.076 764.27C847.523 766.149 850.464 767.277 853.541 767.517L877.444 769.509L889.296 725.208Z" fill="#FFD3C5"/>
<path d="M696.198 761.8L700.461 728.415C700.57 727.499 701.003 726.651 701.683 726.027C702.362 725.402 703.243 725.041 704.166 725.009H706.357C707.211 725.023 708.038 725.312 708.716 725.832C709.394 726.352 709.887 727.076 710.122 727.898L716.396 751.621L773.326 726.165C774.019 725.852 774.806 725.813 775.527 726.057C776.247 726.301 776.849 726.809 777.21 727.479C777.559 728.168 777.632 728.964 777.413 729.705C777.195 730.445 776.702 731.074 776.035 731.463L736.754 753.494L784.759 732.459C785.561 732.105 786.461 732.044 787.303 732.288C788.145 732.533 788.873 733.066 789.361 733.794C789.64 734.215 789.831 734.689 789.922 735.187C790.013 735.684 790.002 736.195 789.891 736.688C789.779 737.182 789.569 737.647 789.272 738.057C788.976 738.467 788.599 738.812 788.166 739.072L743.785 765.625L787.608 744.809C788.69 744.307 789.923 744.233 791.057 744.603C792.192 744.972 793.144 745.758 793.723 746.801C794.049 747.359 794.256 747.978 794.332 748.62C794.408 749.262 794.351 749.913 794.164 750.532C793.977 751.151 793.665 751.724 793.246 752.217C792.827 752.709 792.312 753.11 791.731 753.394L746.176 775.206L786.134 760.904C786.901 760.631 787.738 760.627 788.509 760.891C789.279 761.155 789.938 761.672 790.377 762.358C790.636 762.758 790.814 763.206 790.899 763.675C790.983 764.145 790.973 764.627 790.869 765.092C790.766 765.558 790.57 765.998 790.294 766.387C790.017 766.776 789.666 767.106 789.261 767.358L751.275 791.261L728.408 808.75C725.955 810.62 723.016 811.747 719.942 811.997C713.253 812.544 706.584 810.724 701.1 806.854C695.617 802.983 691.668 797.309 689.943 790.823L687.951 783.373C686.878 779.367 687.097 775.124 688.578 771.25C690.059 767.376 692.726 764.068 696.198 761.8Z" fill="#FFD3C5"/>
<path opacity="0.3" d="M1011.76 622.704L993.833 711.245C993.776 711.529 993.785 711.822 993.862 712.101C993.938 712.38 994.079 712.637 994.272 712.852C994.466 713.067 994.707 713.234 994.977 713.338C995.246 713.443 995.537 713.484 995.825 713.456L1023.71 710.648C1023.98 710.619 1024.23 710.534 1024.46 710.397C1024.69 710.261 1024.89 710.077 1025.04 709.857C1025.19 709.638 1025.29 709.389 1025.34 709.126C1025.38 708.864 1025.37 708.595 1025.31 708.337C1018.49 680.432 1015.21 651.784 1015.52 623.062C1015.57 622.563 1015.42 622.065 1015.1 621.679C1014.78 621.292 1014.32 621.048 1013.82 621.001C1013.32 620.953 1012.82 621.106 1012.44 621.425C1012.05 621.745 1011.81 622.205 1011.76 622.704Z" fill="#21205E"/>
<defs>
<linearGradient id="paint0_linear_43_457" x1="282.219" y1="287.334" x2="561.121" y2="287.334" gradientUnits="userSpaceOnUse">
<stop stop-color="#2BFCAC"/>
<stop offset="1" stop-color="#282FF5"/>
</linearGradient>
<linearGradient id="paint1_linear_43_457" x1="542" y1="409.383" x2="704.789" y2="409.383" gradientUnits="userSpaceOnUse">
<stop stop-color="#2BFCAC"/>
<stop offset="1" stop-color="#282FF5"/>
</linearGradient>
<linearGradient id="paint2_linear_43_457" x1="377.229" y1="424.682" x2="508.189" y2="424.682" gradientUnits="userSpaceOnUse">
<stop stop-color="#2BFCAC"/>
<stop offset="1" stop-color="#282FF5"/>
</linearGradient>
<linearGradient id="paint3_linear_43_457" x1="948" y1="225.017" x2="997.885" y2="225.017" gradientUnits="userSpaceOnUse">
<stop stop-color="#24D4C6"/>
<stop offset="1" stop-color="#2BFBAC"/>
</linearGradient>
<linearGradient id="paint4_linear_43_457" x1="504.016" y1="149.867" x2="541.733" y2="149.867" gradientUnits="userSpaceOnUse">
<stop stop-color="#24D4C6"/>
<stop offset="1" stop-color="#2BFBAC"/>
</linearGradient>
<linearGradient id="paint5_linear_43_457" x1="663" y1="494.042" x2="705.563" y2="494.042" gradientUnits="userSpaceOnUse">
<stop stop-color="#24D4C6"/>
<stop offset="1" stop-color="#2BFBAC"/>
</linearGradient>
<linearGradient id="paint6_linear_43_457" x1="289" y1="633.33" x2="455.728" y2="633.33" gradientUnits="userSpaceOnUse">
<stop stop-color="#2BFCAC"/>
<stop offset="1" stop-color="#282FF5"/>
</linearGradient>
<linearGradient id="paint7_linear_43_457" x1="1021.16" y1="674.315" x2="761.514" y2="674.315" gradientUnits="userSpaceOnUse">
<stop stop-color="#24D4C6"/>
<stop offset="1" stop-color="#2BFBAC"/>
</linearGradient>
<linearGradient id="paint8_linear_43_457" x1="1097.43" y1="649.037" x2="676" y2="649.037" gradientUnits="userSpaceOnUse">
<stop stop-color="#2BFCAC"/>
<stop offset="1" stop-color="#282FF5"/>
</linearGradient>
<clipPath id="clip0_43_457">
<rect width="1351" height="707" fill="white"/>
</clipPath>
</defs>
</svg>
