<svg width="309" height="330" viewBox="0 0 309 330" fill="none" xmlns="http://www.w3.org/2000/svg">
<path d="M273.317 280.442C267.152 287.451 261.319 291.97 256.713 295.544C202.537 337.524 138.432 325.287 124.808 322.298C104.69 317.885 65.8017 309.356 37.6853 273.647C-4.85382 219.621 1.77367 134.508 34.7656 78.3232C40.8033 68.046 72.6804 11.0057 137.475 1.85805C176.687 -3.67644 222.397 7.48803 255.499 37.4393C324.982 100.306 320.036 227.32 273.317 280.442Z" fill="url(#paint0_linear_55_1704)"/>
<g opacity="0.3">
<path d="M102.74 46.119C102.6 46.1312 102.459 46.1135 102.325 46.0669C102.191 46.0203 102.067 45.9456 101.96 45.8472C101.853 45.7488 101.765 45.6286 101.701 45.4934C101.637 45.3582 101.598 45.2107 101.587 45.0593C101.494 43.8216 101.352 42.571 101.156 41.3414C101.11 41.0422 101.175 40.7355 101.336 40.4872C101.497 40.239 101.742 40.069 102.018 40.0139H102.039C102.178 39.9887 102.319 39.9934 102.457 40.0275C102.594 40.0617 102.723 40.1247 102.838 40.2129C102.952 40.3012 103.049 40.413 103.124 40.5419C103.198 40.6708 103.248 40.8142 103.271 40.9641C103.472 42.2589 103.623 43.5759 103.719 44.8777C103.74 45.1622 103.663 45.445 103.502 45.6718C103.342 45.8986 103.109 46.0533 102.85 46.1062C102.815 46.1097 102.777 46.1155 102.74 46.119ZM99.8556 35.4214C99.5116 34.2314 99.1181 33.046 98.6836 31.8967C98.6276 31.7556 98.5982 31.6037 98.5971 31.4502C98.5961 31.2966 98.6233 31.1443 98.6773 31.0022C98.7314 30.8601 98.8111 30.7311 98.9118 30.6226C99.0125 30.5142 99.1322 30.4285 99.2639 30.3706C99.3956 30.3126 99.5367 30.2836 99.6789 30.2852C99.8211 30.2868 99.9616 30.319 100.092 30.3799C100.223 30.4408 100.341 30.5291 100.439 30.6398C100.538 30.7505 100.615 30.8813 100.666 31.0246C101.123 32.2333 101.538 33.4803 101.9 34.7333C101.984 35.026 101.957 35.343 101.825 35.6144C101.693 35.8858 101.467 36.0895 101.196 36.1806C101.155 36.1946 101.114 36.2059 101.073 36.2144C100.815 36.266 100.549 36.2137 100.325 36.0676C100.1 35.9215 99.9335 35.6916 99.8556 35.4214ZM96.1995 26.4391C95.6216 25.3643 94.992 24.3036 94.33 23.2858C94.1667 23.0349 94.1024 22.7242 94.1512 22.4221C94.2 22.12 94.358 21.8512 94.5903 21.6749C94.8227 21.4985 95.1103 21.4291 95.3901 21.4818C95.6698 21.5346 95.9187 21.7052 96.082 21.9561C96.7796 23.0273 97.4415 24.1452 98.0507 25.2758C98.1215 25.4071 98.1676 25.5521 98.1864 25.7027C98.2053 25.8532 98.1965 26.0062 98.1605 26.1531C98.1246 26.2999 98.0622 26.4377 97.9769 26.5585C97.8917 26.6793 97.7852 26.7808 97.6637 26.8571C97.558 26.924 97.4423 26.9705 97.3219 26.9945C97.1046 27.0382 96.8801 27.0083 96.6792 26.9089C96.4783 26.8095 96.3107 26.6454 96.1995 26.4391ZM90.7763 18.5641C89.9882 17.6547 89.1591 16.7732 88.2965 15.9407C88.0855 15.7355 87.9586 15.4481 87.9437 15.1419C87.9289 14.8356 88.0273 14.5355 88.2173 14.3076C88.4073 14.0797 88.6734 13.9426 88.9569 13.9266C89.2405 13.9105 89.5184 14.0168 89.7294 14.222C90.6308 15.0988 91.5073 16.028 92.3364 16.984C92.4405 17.0929 92.5229 17.2235 92.5789 17.3679C92.6348 17.5122 92.663 17.6673 92.6618 17.8238C92.6606 17.9803 92.63 18.1348 92.5719 18.2782C92.5138 18.4215 92.4293 18.5506 92.3236 18.6576C92.2179 18.7647 92.0932 18.8474 91.9571 18.9009C91.8209 18.9544 91.6761 18.9774 91.5314 18.9687C91.3868 18.9599 91.2453 18.9196 91.1155 18.85C90.9857 18.7805 90.8703 18.6832 90.7763 18.5641ZM83.8631 12.1913C82.9111 11.4926 81.917 10.8335 80.91 10.2257C80.6626 10.0757 80.4805 9.82579 80.4036 9.53087C80.3267 9.23594 80.3614 8.92011 80.4999 8.65275C80.6385 8.38538 80.8697 8.18835 81.1426 8.10491C81.4156 8.02148 81.7081 8.05847 81.9558 8.20777C83.0157 8.8482 84.0604 9.54336 85.0631 10.2758C85.1796 10.3609 85.2794 10.4699 85.3568 10.5967C85.4342 10.7234 85.4878 10.8654 85.5144 11.0145C85.5411 11.1636 85.5403 11.3169 85.512 11.4657C85.4838 11.6144 85.4287 11.7557 85.3499 11.8815C85.2711 12.0073 85.1702 12.1151 85.0528 12.1987C84.9354 12.2823 84.804 12.3402 84.6659 12.3689C84.5279 12.3977 84.3859 12.3968 84.2481 12.3663C84.1104 12.3358 83.9796 12.2763 83.8631 12.1913ZM75.8168 7.62905C74.7386 7.17726 73.6399 6.76971 72.5348 6.41805C72.4 6.37508 72.2742 6.30385 72.1649 6.20841C72.0555 6.11298 71.9646 5.99521 71.8974 5.86183C71.8302 5.72846 71.7879 5.58209 71.7731 5.43109C71.7582 5.28008 71.771 5.12739 71.8108 4.98174C71.8506 4.83609 71.9166 4.70033 72.0049 4.58221C72.0933 4.46409 72.2024 4.36592 72.3258 4.29332C72.5753 4.14668 72.8684 4.11305 73.1408 4.19983C74.3041 4.57012 75.4664 4.99862 76.5909 5.47487C76.8526 5.58851 77.0622 5.80909 77.1741 6.08868C77.2861 6.36826 77.2914 6.68427 77.1888 6.96804C77.0863 7.25181 76.8842 7.48042 76.6265 7.60419C76.3688 7.72796 76.0762 7.73689 75.8124 7.62905H75.8168ZM36.2933 12.2867C36.1303 12.0357 36.0664 11.7249 36.1155 11.4229C36.1647 11.1209 36.3228 10.8524 36.5553 10.6763C37.5483 9.92529 38.5844 9.21149 39.6345 8.55476C39.7562 8.4783 39.8907 8.42848 40.0302 8.40814C40.1697 8.3878 40.3116 8.39734 40.4477 8.43622C40.5838 8.47509 40.7115 8.54253 40.8235 8.6347C40.9355 8.72686 41.0295 8.84195 41.1003 8.97337C41.1711 9.1048 41.2172 9.25 41.2361 9.40069C41.2549 9.55137 41.2461 9.70459 41.2101 9.85159C41.1741 9.99858 41.1116 10.1365 41.0263 10.2574C40.941 10.3784 40.8344 10.4799 40.7127 10.5564C39.7154 11.1794 38.731 11.8582 37.7898 12.5709C37.6747 12.6581 37.5447 12.7199 37.4074 12.7529C37.2702 12.7858 37.1282 12.7892 36.9897 12.7628C36.8512 12.7364 36.7189 12.6808 36.6003 12.5991C36.4817 12.5174 36.3792 12.4113 36.2987 12.2867H36.2933ZM67.0394 5.11274C65.9009 4.92992 64.7418 4.79834 63.5893 4.72149C63.4474 4.71449 63.3082 4.67708 63.1799 4.61142C63.0515 4.54577 62.9365 4.4532 62.8416 4.33909C62.7467 4.22498 62.6738 4.09162 62.6271 3.94677C62.5804 3.80192 62.5608 3.64848 62.5695 3.49539C62.5782 3.3423 62.6151 3.19261 62.6779 3.05504C62.7407 2.91747 62.8282 2.79478 62.9354 2.6941C63.0425 2.59342 63.1672 2.51677 63.302 2.46862C63.4368 2.42046 63.5792 2.40176 63.7208 2.41361C64.9305 2.49395 66.151 2.63252 67.3499 2.82582C67.4912 2.84533 67.6274 2.8951 67.7507 2.9722C67.8739 3.0493 67.9817 3.15219 68.0677 3.27484C68.1536 3.39748 68.2161 3.53742 68.2514 3.68646C68.2866 3.83549 68.294 3.99063 68.273 4.14278C68.2521 4.29493 68.2033 4.44104 68.1294 4.57255C68.0555 4.70406 67.958 4.81833 67.8428 4.90866C67.7275 4.99899 67.5966 5.06356 67.458 5.09861C67.3193 5.13365 67.1755 5.13845 67.0351 5.11274H67.0394ZM44.3731 7.2413C44.2665 6.95717 44.2688 6.63897 44.3794 6.35663C44.4899 6.0743 44.6998 5.85096 44.9629 5.7357C46.0852 5.24432 47.2432 4.79835 48.4022 4.41059C48.5367 4.36571 48.6781 4.34988 48.8183 4.36401C48.9584 4.37814 49.0946 4.42195 49.2191 4.49293C49.3436 4.56392 49.454 4.66069 49.5438 4.77773C49.6337 4.89476 49.7013 5.02977 49.7429 5.17504C49.7845 5.3203 49.7991 5.47299 49.786 5.62437C49.7729 5.77576 49.7324 5.92288 49.6667 6.05733C49.6009 6.19179 49.5113 6.31094 49.403 6.408C49.2946 6.50506 49.1696 6.57811 49.0351 6.62299C47.9332 6.99211 46.8345 7.4148 45.7672 7.88173C45.7005 7.91123 45.6311 7.93309 45.5602 7.94694C45.3173 7.99544 45.0663 7.95166 44.85 7.82303C44.6336 7.69441 44.4651 7.48886 44.3731 7.2413ZM57.958 4.76923C56.8119 4.86588 55.654 5.01725 54.5165 5.21986C54.2368 5.27314 53.949 5.20424 53.7164 5.02835C53.4838 4.85245 53.3254 4.58395 53.2761 4.28192C53.2267 3.97989 53.2905 3.66907 53.4534 3.41784C53.6163 3.1666 53.8649 2.99553 54.1445 2.94226H54.1672C55.365 2.728 56.5833 2.56848 57.7909 2.46601C58.0642 2.44254 58.3355 2.53322 58.5487 2.71936C58.762 2.90551 58.901 3.17292 58.937 3.46647C58.9731 3.76003 58.9036 4.05735 58.7427 4.29713C58.5818 4.53692 58.3418 4.7009 58.0723 4.75526C58.0389 4.75992 58.0011 4.76458 57.9623 4.76923H57.958Z" fill="#BDD0FB"/>
<path d="M31.6249 17.996C31.8394 17.9531 32.0366 17.8401 32.1898 17.6723C32.5769 17.2473 32.979 16.8246 33.3855 16.4147C33.5934 16.2053 33.7158 15.9153 33.7257 15.6085C33.7356 15.3017 33.6322 15.0032 33.4383 14.7787C33.2445 14.5542 32.976 14.422 32.6919 14.4113C32.4078 14.4006 32.1314 14.5123 31.9235 14.7216C31.4923 15.1513 31.0728 15.5961 30.6653 16.0433C30.5053 16.2186 30.4013 16.4446 30.3685 16.6882C30.3356 16.9319 30.3757 17.1805 30.4827 17.3979C30.5898 17.6152 30.7583 17.79 30.9637 17.8967C31.1692 18.0035 31.4008 18.0366 31.6249 17.9913V17.996Z" fill="#BDD0FB"/>
</g>
<g opacity="0.3">
<path d="M19.5936 50.7674C19.8434 50.7166 20.0683 50.5717 20.2283 50.3584C20.3883 50.1451 20.4728 49.8774 20.4669 49.603C20.4529 49.0068 20.4497 48.4001 20.4583 47.8004C20.4627 47.4938 20.3542 47.1978 20.1565 46.9775C19.9589 46.7573 19.6883 46.6309 19.4044 46.6261C19.1204 46.6213 18.8464 46.7386 18.6424 46.952C18.4385 47.1655 18.3215 47.4577 18.3171 47.7643C18.3084 48.3955 18.3106 49.0347 18.3257 49.6623C18.333 49.9688 18.4528 50.2596 18.6586 50.4708C18.8644 50.6819 19.1395 50.7962 19.4233 50.7883C19.4805 50.7867 19.5375 50.7797 19.5936 50.7674Z" fill="#BDD0FB"/>
<path d="M66.8076 94.2889C66.6663 94.3142 66.5218 94.3086 66.3826 94.2725C66.2433 94.2364 66.1122 94.1705 65.997 94.0787C65.8817 93.9869 65.7847 93.8711 65.7117 93.7381C65.6386 93.605 65.591 93.4575 65.5717 93.3043C65.5524 93.1511 65.5617 92.9952 65.5991 92.8459C65.6366 92.6967 65.7013 92.557 65.7896 92.4353C65.8779 92.3135 65.9879 92.2121 66.1132 92.1371C66.2384 92.0621 66.3763 92.0149 66.5186 91.9985C67.6335 91.8343 68.7602 91.6154 69.8782 91.3476C70.0155 91.3147 70.1574 91.3114 70.2959 91.3377C70.4343 91.3641 70.5666 91.4196 70.6852 91.5012C70.8038 91.5828 70.9064 91.6888 70.987 91.8132C71.0677 91.9376 71.1249 92.0779 71.1553 92.2261C71.1857 92.3744 71.1888 92.5277 71.1644 92.6772C71.14 92.8268 71.0886 92.9696 71.0131 93.0977C70.9375 93.2258 70.8394 93.3366 70.7242 93.4237C70.609 93.5108 70.4791 93.5725 70.3418 93.6054C69.8581 93.7218 69.3736 93.829 68.8885 93.9268C68.1973 94.0653 67.4976 94.1876 66.8076 94.2889ZM74.5704 91.145C74.4722 90.8574 74.4837 90.5396 74.6023 90.2612C74.721 89.9828 74.9372 89.7667 75.2033 89.6603C76.2685 89.2353 77.3284 88.7579 78.3526 88.2397C78.48 88.1754 78.618 88.1387 78.7585 88.1319C78.899 88.1251 79.0394 88.1483 79.1717 88.2001C79.304 88.2519 79.4255 88.3313 79.5293 88.4338C79.6331 88.5363 79.7173 88.6599 79.7769 88.7975C79.8365 88.9351 79.8704 89.0841 79.8767 89.2359C79.883 89.3876 79.8616 89.5393 79.8136 89.6821C79.7657 89.825 79.6921 89.9562 79.5972 90.0683C79.5023 90.1805 79.3878 90.2713 79.2604 90.3357C78.1822 90.8818 77.0663 91.3837 75.9451 91.832C75.8877 91.8539 75.829 91.8714 75.7693 91.8844C75.5199 91.9352 75.2618 91.8886 75.0412 91.7529C74.8207 91.6173 74.6519 91.4014 74.565 91.1438L74.5704 91.145ZM60.9866 94.7104C59.7952 94.7104 58.5876 94.6522 57.3973 94.5404C57.1144 94.514 56.8528 94.3673 56.67 94.1326C56.4872 93.8978 56.3982 93.5943 56.4227 93.2887C56.4471 92.9831 56.583 92.7005 56.8003 92.5031C57.0177 92.3057 57.2988 92.2096 57.5817 92.236C58.7116 92.342 59.8588 92.3967 60.9898 92.3979C61.2564 92.3985 61.5132 92.5064 61.71 92.7007C61.9068 92.895 62.0294 93.1616 62.0538 93.4483C62.0782 93.7351 62.0027 94.0213 61.842 94.2511C61.6813 94.4809 61.447 94.6376 61.1849 94.6906C61.1197 94.7049 61.0532 94.7116 60.9866 94.7104ZM82.8734 86.9333C82.7967 86.806 82.744 86.6636 82.7184 86.5143C82.6927 86.3649 82.6946 86.2116 82.724 86.0631C82.7533 85.9145 82.8095 85.7737 82.8894 85.6487C82.9692 85.5237 83.0711 85.4169 83.1893 85.3345C84.1402 84.6685 85.0761 83.9512 85.9709 83.2013C86.0817 83.1049 86.2092 83.0333 86.3458 82.9907C86.4825 82.9482 86.6257 82.9354 86.767 82.9533C86.9083 82.9711 87.0449 83.0192 87.1688 83.0947C87.2927 83.1702 87.4014 83.2716 87.4886 83.393C87.5758 83.5144 87.6397 83.6534 87.6766 83.8018C87.7135 83.9501 87.7227 84.105 87.7035 84.2572C87.6844 84.4095 87.6374 84.5561 87.5652 84.6885C87.493 84.8209 87.3971 84.9364 87.2831 85.0283C86.3407 85.8178 85.3553 86.5735 84.3537 87.2744C84.2359 87.3576 84.1041 87.4147 83.9657 87.4426C83.8274 87.4704 83.6854 87.4685 83.5478 87.4367C83.4101 87.405 83.2797 87.3442 83.164 87.2578C83.0482 87.1714 82.9494 87.0611 82.8734 86.9333ZM51.6313 93.5705C50.4712 93.2852 49.3057 92.9428 48.1661 92.5516C47.9044 92.4513 47.689 92.2451 47.5654 91.9766C47.4418 91.7081 47.4197 91.3982 47.5036 91.1124C47.5875 90.8265 47.771 90.5871 48.0153 90.4446C48.2596 90.3021 48.5456 90.2676 48.813 90.3485C49.8911 90.7188 51.0017 91.0472 52.1035 91.315C52.2407 91.3486 52.3703 91.4111 52.4851 91.4989C52.5999 91.5866 52.6975 91.6979 52.7724 91.8264C52.8474 91.9549 52.8981 92.0981 52.9218 92.2478C52.9455 92.3975 52.9417 92.5508 52.9106 92.6989C52.8794 92.847 52.8216 92.987 52.7403 93.111C52.659 93.2349 52.556 93.3404 52.437 93.4213C52.318 93.5022 52.1854 93.5571 52.0468 93.5826C51.9082 93.6082 51.7663 93.6041 51.6292 93.5705H51.6313ZM42.744 90.2402C41.6658 89.686 40.5973 89.0758 39.5677 88.4307C39.4461 88.3543 39.3397 88.2527 39.2545 88.1318C39.1693 88.0109 39.107 87.8731 39.0711 87.7262C39.0352 87.5793 39.0264 87.4263 39.0453 87.2757C39.0642 87.1252 39.1104 86.9801 39.1812 86.8489C39.252 86.7176 39.346 86.6026 39.4579 86.5106C39.5699 86.4186 39.6975 86.3513 39.8335 86.3125C39.9695 86.2738 40.1112 86.2643 40.2506 86.2847C40.39 86.3051 40.5243 86.3549 40.6459 86.4314C41.6238 87.0462 42.6394 87.6249 43.6647 88.1513C43.9212 88.2828 44.1188 88.519 44.2141 88.8079C44.3093 89.0968 44.2944 89.4148 44.1726 89.6918C44.0507 89.9688 43.832 90.1822 43.5645 90.2851C43.297 90.3879 43.0026 90.3718 42.7461 90.2402H42.744ZM34.7354 84.8979C33.7952 84.1037 32.8744 83.2572 32 82.3839C31.7916 82.1756 31.6683 81.8864 31.6573 81.5799C31.6463 81.2734 31.7484 80.9748 31.9413 80.7496C32.1342 80.5245 32.4019 80.3913 32.6857 80.3794C32.9695 80.3675 33.246 80.4778 33.4545 80.6862C34.2847 81.5164 35.1602 82.3163 36.054 83.0755C36.2777 83.2644 36.4228 83.5415 36.4574 83.8459C36.492 84.1503 36.4132 84.4571 36.2383 84.6987C36.0635 84.9404 35.8069 85.0971 35.525 85.1345C35.2432 85.1718 34.9591 85.0867 34.7354 84.8979ZM27.9979 77.7949C27.2432 76.797 26.5132 75.7537 25.8416 74.6929C25.758 74.568 25.6985 74.4263 25.6664 74.2762C25.6343 74.126 25.6303 73.9705 25.6547 73.8187C25.679 73.6669 25.7312 73.5218 25.8082 73.3921C25.8852 73.2624 25.9854 73.1506 26.103 73.0633C26.2205 72.976 26.353 72.9149 26.4927 72.8837C26.6324 72.8525 26.7765 72.8518 26.9165 72.8816C27.0565 72.9113 27.1895 72.971 27.3078 73.0571C27.4261 73.1432 27.5273 73.254 27.6054 73.3829C28.2469 74.3901 28.937 75.381 29.654 76.3277C29.7448 76.4449 29.8132 76.5803 29.8552 76.7262C29.8973 76.8721 29.9122 77.0255 29.899 77.1776C29.8858 77.3297 29.8449 77.4775 29.7785 77.6125C29.7121 77.7474 29.6217 77.8668 29.5123 77.9637C29.403 78.0606 29.2769 78.1332 29.1415 78.1772C29.006 78.2212 28.8638 78.2358 28.723 78.2201C28.5823 78.2044 28.4459 78.1588 28.3216 78.0858C28.1973 78.0128 28.0877 77.9139 27.999 77.7949H27.9979ZM22.8669 69.2632C22.3332 68.1127 21.8372 66.9227 21.3941 65.7257C21.3419 65.5847 21.3158 65.434 21.3175 65.2821C21.3192 65.1303 21.3486 64.9803 21.4039 64.8407C21.4593 64.7011 21.5396 64.5746 21.6402 64.4686C21.7408 64.3625 21.8598 64.2788 21.9903 64.2224C22.1209 64.166 22.2604 64.1379 22.401 64.1397C22.5416 64.1415 22.6805 64.1732 22.8098 64.233C22.939 64.2928 23.0561 64.3795 23.1543 64.4882C23.2526 64.5969 23.33 64.7254 23.3823 64.8663C23.8027 66.004 24.2739 67.1335 24.7839 68.2269C24.8469 68.3625 24.8846 68.5102 24.8948 68.6615C24.905 68.8129 24.8874 68.965 24.8432 69.109C24.7989 69.253 24.7288 69.3863 24.6369 69.501C24.5449 69.6158 24.4329 69.7099 24.3073 69.7779C24.2179 69.827 24.1224 69.8619 24.0238 69.8815C23.7955 69.9275 23.5596 69.8922 23.3516 69.7809C23.1435 69.6696 22.9746 69.4883 22.8701 69.2644L22.8669 69.2632ZM19.599 59.7324C19.3833 58.8125 19.1957 57.8752 19.0351 56.9448C18.9769 56.6083 18.9273 56.2717 18.8712 55.9352C18.8469 55.7852 18.8506 55.6314 18.882 55.483C18.9134 55.3345 18.972 55.1942 19.0542 55.0705C19.1364 54.9468 19.2407 54.842 19.3609 54.7624C19.4811 54.6827 19.6148 54.6298 19.7542 54.6066C19.893 54.582 20.0349 54.5871 20.1718 54.6217C20.3087 54.6563 20.438 54.7197 20.5522 54.8082C20.6665 54.8968 20.7634 55.0088 20.8376 55.1378C20.9117 55.2669 20.9616 55.4104 20.9844 55.5603C21.0326 55.8809 21.0847 56.2011 21.1407 56.5209C21.2928 57.4047 21.4739 58.2967 21.6798 59.1712C21.7474 59.4679 21.7034 59.7814 21.5575 60.0433C21.4117 60.3051 21.1758 60.4939 20.9014 60.5685C20.8798 60.5743 20.8583 60.5801 20.8367 60.5836C20.5695 60.6377 20.2932 60.58 20.0639 60.4221C19.8346 60.2642 19.6696 60.0181 19.6022 59.7336L19.599 59.7324Z" fill="#BDD0FB"/>
<path d="M91.0945 81.1388C91.3108 81.0957 91.5094 80.981 91.6626 80.8105C92.068 80.3633 92.4713 79.8976 92.8637 79.4271C93.0536 79.1991 93.1518 78.8989 93.1367 78.5926C93.1217 78.2864 92.9946 77.9991 92.7834 77.794C92.5722 77.589 92.2943 77.4829 92.0107 77.4992C91.7271 77.5155 91.4611 77.6527 91.2713 77.8808C90.8993 78.3279 90.5166 78.7692 90.1306 79.1954C89.9718 79.3714 89.8691 79.5974 89.8373 79.8406C89.8055 80.0839 89.8462 80.3317 89.9537 80.5483C90.0611 80.7648 90.2295 80.9388 90.4347 81.045C90.6398 81.1512 90.8709 81.1841 91.0945 81.1388Z" fill="#BDD0FB"/>
</g>
<path d="M90.8982 61.3171C90.9478 61.2182 90.9678 61.1051 90.9552 60.9935C90.9426 60.8819 90.8982 60.7772 90.8281 60.6941L86.731 55.8315C87.5018 52.8298 87.8139 49.7125 87.655 46.6023L92.6146 42.7958C92.6996 42.7307 92.7636 42.6387 92.7979 42.5324C92.8321 42.4262 92.8347 42.3111 92.8054 42.2031L90.7483 34.6344C90.719 34.5264 90.6592 34.4309 90.5772 34.3614C90.4953 34.2919 90.3953 34.2518 90.2912 34.2466L84.2092 33.9345C82.7879 31.225 80.967 28.7838 78.8184 26.707L79.8362 20.2223C79.8536 20.1114 79.8386 19.9974 79.7932 19.8962C79.7478 19.7949 79.6742 19.7115 79.5828 19.6576L73.1677 15.886C73.0763 15.8321 72.9716 15.8102 72.8682 15.8236C72.7649 15.837 72.6679 15.8848 72.5909 15.9606L68.0885 20.3854C65.309 19.554 62.4226 19.2174 59.5429 19.3886L56.0184 14.0323C55.9583 13.9404 55.873 13.8711 55.7746 13.8341C55.6762 13.7971 55.5695 13.7944 55.4696 13.8262L48.4615 16.0479C48.3616 16.0796 48.2734 16.1442 48.2092 16.2328C48.145 16.3213 48.1081 16.4293 48.1036 16.5416L47.8178 23.1054C45.3091 24.6402 43.0491 26.6068 41.1267 28.9275L35.1224 27.8283C35.0197 27.8098 34.9143 27.8262 34.8206 27.8752C34.7269 27.9242 34.6497 28.0035 34.5995 28.102L31.0998 35.0291C31.05 35.1278 31.0298 35.2408 31.0422 35.3525C31.0546 35.4641 31.0988 35.5688 31.1688 35.6521L35.2658 40.5147C34.4954 43.5164 34.1837 46.6338 34.3429 49.7439L29.3833 53.5504C29.2985 53.6156 29.2347 53.7077 29.2007 53.8139C29.1667 53.9202 29.1642 54.0352 29.1936 54.1431L31.2507 61.7118C31.2797 61.8198 31.3393 61.9153 31.4211 61.9848C31.5029 62.0544 31.6028 62.0945 31.7068 62.0996L37.7844 62.407C39.2061 65.1163 41.0269 67.5574 43.1752 69.6345L42.1575 76.1192C42.14 76.2301 42.155 76.3441 42.2004 76.4454C42.2459 76.5466 42.3194 76.63 42.4108 76.6839L48.8216 80.466C48.913 80.5199 49.0177 80.5417 49.1211 80.5284C49.2245 80.515 49.3214 80.4672 49.3984 80.3914L53.9009 75.9666C56.6807 76.798 59.5674 77.1347 62.4475 76.9634L65.9709 82.3197C66.0313 82.4113 66.1166 82.4803 66.215 82.517C66.3134 82.5537 66.4199 82.5564 66.5197 82.5247L73.5278 80.3029C73.6278 80.2713 73.7162 80.2067 73.7805 80.1182C73.8449 80.0297 73.8821 79.9217 73.8868 79.8092L74.1704 73.2431C76.6789 71.708 78.939 69.7415 80.8615 67.421L86.8669 68.5202C86.9694 68.5388 87.0748 68.5224 87.1683 68.4734C87.2618 68.4243 87.3389 68.3451 87.3887 68.2465L90.8982 61.3171Z" fill="#BDD0FB"/>
<path d="M61.2777 56.0979C59.3796 56.1752 57.5277 55.4545 56.1114 54.0875C54.6952 52.7205 53.8249 50.8136 53.6837 48.7679C53.5424 46.7221 54.1411 44.697 55.354 43.1182C56.5668 41.5394 58.2993 40.5301 60.187 40.3024C62.0747 40.0747 63.9706 40.6465 65.476 41.8974C66.9815 43.1484 67.9791 44.981 68.2592 47.01C68.5392 49.039 68.0799 51.1062 66.9777 52.777C65.8756 54.4477 64.2165 55.5918 62.3494 55.9687C61.9955 56.0396 61.6373 56.0828 61.2777 56.0979ZM56.868 44.0403C55.9826 45.0723 55.456 46.4039 55.3779 47.8082C55.2997 49.2126 55.6749 50.6027 56.4394 51.7418C57.2039 52.8808 58.3105 53.6984 59.5706 54.055C60.8307 54.4117 62.1663 54.2854 63.3499 53.6977C64.5334 53.11 65.4916 52.0972 66.0613 50.832C66.6309 49.5668 66.7767 48.1274 66.4738 46.7591C66.1708 45.3908 65.438 44.1783 64.4001 43.3282C63.3622 42.478 62.0834 42.0429 60.7817 42.0969C60.5035 42.1084 60.2263 42.1419 59.9526 42.1971C58.7672 42.4359 57.6851 43.0826 56.868 44.0403Z" fill="url(#paint1_linear_55_1704)"/>
<path d="M64.1467 67.2581C64.7552 67.1356 65.3575 66.9802 65.9515 66.7923C66.1402 66.7329 66.3267 66.6758 66.5133 66.6036C67.4308 66.2782 68.3228 65.874 69.1806 65.395L69.2152 65.3764L69.3143 65.3205L69.5052 65.204C69.584 65.1569 69.6473 65.0843 69.6859 64.9963C69.7246 64.9084 69.7368 64.8096 69.7208 64.7138C69.713 64.6659 69.6977 64.6198 69.6755 64.5776C69.6207 64.4707 69.5291 64.3914 69.4206 64.3568C69.3121 64.3221 69.1953 64.3349 69.0955 64.3924C66.0038 66.2054 62.4723 66.9527 58.9758 66.5339C55.4792 66.115 52.1851 64.5502 49.5364 62.0496C47.0745 59.7321 45.2787 56.7015 44.3612 53.3164C44.1943 52.7034 44.0565 52.0816 43.9483 51.4534C43.1777 46.9335 43.9856 42.2655 46.2158 38.3514C48.4461 34.4373 51.9405 31.5548 56.0238 30.2609C65.1278 27.3767 74.6998 33.0264 77.3715 42.8541C77.5362 43.4579 77.6718 44.0704 77.778 44.6893C78.2408 47.3631 78.1525 50.1143 77.5192 52.747C77.5037 52.8129 77.5014 52.8816 77.5127 52.9485C77.533 53.0497 77.5841 53.1408 77.6577 53.2072C77.7313 53.2737 77.8233 53.3117 77.9192 53.3153C78.0151 53.3189 78.1093 53.2879 78.187 53.2272C78.2648 53.1664 78.3215 53.0794 78.3483 52.9799C79.0129 50.2158 79.1057 47.3276 78.62 44.5204C78.5072 43.8704 78.3632 43.2272 78.1887 42.5933C75.3855 32.2754 65.3294 26.3461 55.7801 29.3736C51.4947 30.7329 47.8277 33.7592 45.4876 37.8678C43.1475 41.9765 42.3002 46.876 43.1095 51.6199C43.2227 52.2778 43.3667 52.9292 43.5408 53.5715C44.7988 58.2017 47.6017 62.1638 51.4075 64.6918C55.2133 67.2198 59.7518 68.1341 64.1456 67.2581H64.1467Z" fill="url(#paint2_linear_55_1704)"/>
<g opacity="0.3">
<path d="M143.944 68.8179C144.085 68.7905 144.214 68.7142 144.311 68.6005C144.409 68.4869 144.469 68.342 144.483 68.188C144.54 67.5848 144.58 66.9711 144.604 66.3656C144.604 66.1809 144.538 66.0031 144.42 65.8696C144.302 65.7361 144.14 65.6572 143.969 65.6495C143.798 65.6419 143.631 65.706 143.503 65.8284C143.375 65.9508 143.296 66.1221 143.282 66.3063C143.26 66.8885 143.222 67.4707 143.168 68.0447C143.159 68.138 143.167 68.2323 143.192 68.3221C143.217 68.4119 143.258 68.4955 143.313 68.5682C143.368 68.6408 143.435 68.7011 143.512 68.7456C143.588 68.79 143.672 68.8178 143.759 68.8272C143.82 68.8338 143.883 68.8306 143.944 68.8179Z" fill="#BDD0FB"/>
<path d="M143.922 63.3348C143.836 63.3426 143.749 63.3319 143.666 63.3032C143.583 63.2746 143.507 63.2286 143.441 63.1679C143.374 63.1072 143.32 63.033 143.28 62.9496C143.241 62.8661 143.217 62.775 143.21 62.6815C143.133 61.6856 143.009 60.6946 142.839 59.7123C142.803 59.5061 142.766 59.2989 142.726 59.0928C142.69 58.9073 142.724 58.7142 142.82 58.5557C142.916 58.3972 143.066 58.2863 143.238 58.2474C143.409 58.2152 143.585 58.2546 143.731 58.3575C143.876 58.4604 143.98 58.6192 144.021 58.8017C144.063 59.0183 144.103 59.2337 144.139 59.4503C144.318 60.4803 144.447 61.5196 144.527 62.5639C144.54 62.7402 144.493 62.9155 144.393 63.056C144.293 63.1964 144.149 63.292 143.988 63.3243C143.968 63.3289 143.946 63.3324 143.922 63.3348ZM141.842 55.5925C141.482 54.4467 141.057 53.326 140.569 52.2367C140.524 52.1518 140.495 52.0576 140.485 51.9602C140.474 51.8627 140.483 51.764 140.509 51.6702C140.536 51.5764 140.58 51.4895 140.639 51.415C140.698 51.3404 140.771 51.2799 140.853 51.237C140.934 51.1942 141.024 51.17 141.114 51.166C141.205 51.1619 141.296 51.1782 141.38 51.2136C141.465 51.2491 141.542 51.303 141.607 51.372C141.671 51.4411 141.722 51.5237 141.755 51.6149C142.266 52.7567 142.712 53.9315 143.089 55.1326C143.145 55.3119 143.133 55.5079 143.056 55.6777C142.979 55.8476 142.842 55.9773 142.676 56.0385C142.646 56.0499 142.615 56.0585 142.583 56.0641C142.428 56.0944 142.268 56.0635 142.131 55.9769C141.995 55.8904 141.893 55.754 141.842 55.5925ZM138.921 49.0718C138.312 48.0575 137.644 47.0853 136.923 46.1607C136.818 46.0148 136.769 45.8305 136.787 45.6466C136.805 45.4627 136.888 45.2935 137.019 45.1744C137.15 45.0554 137.319 44.9958 137.49 45.0082C137.661 45.0205 137.82 45.1039 137.935 45.2408C138.691 46.2127 139.391 47.2339 140.031 48.2986C140.127 48.4577 140.16 48.6512 140.123 48.8365C140.087 49.0219 139.983 49.184 139.836 49.2872C139.764 49.3373 139.683 49.3721 139.598 49.3897C139.469 49.4164 139.335 49.401 139.213 49.3454C139.092 49.2899 138.989 49.1966 138.917 49.0776L138.921 49.0718ZM134.608 43.5291C133.789 42.7081 132.923 41.9424 132.016 41.2364C131.945 41.1816 131.885 41.1122 131.839 41.0323C131.793 40.9524 131.762 40.8635 131.748 40.7707C131.734 40.6779 131.737 40.5829 131.757 40.4913C131.777 40.3997 131.813 40.3132 131.864 40.2367C131.914 40.1603 131.979 40.0954 132.053 40.0457C132.127 39.9961 132.209 39.9626 132.295 39.9473C132.381 39.932 132.469 39.9352 132.554 39.9565C132.638 39.9779 132.719 40.0172 132.789 40.072C133.742 40.8143 134.652 41.6193 135.513 42.4823C135.576 42.5461 135.628 42.6229 135.664 42.7082C135.7 42.7934 135.721 42.8856 135.724 42.9794C135.727 43.0731 135.713 43.1667 135.683 43.2546C135.652 43.3425 135.606 43.4232 135.547 43.4919C135.428 43.6305 135.262 43.7124 135.087 43.7193C134.912 43.7263 134.741 43.6579 134.612 43.5291H134.608ZM129.173 39.293C128.191 38.7101 127.177 38.1929 126.137 37.7443C125.974 37.674 125.844 37.5368 125.775 37.3627C125.706 37.1887 125.703 36.9921 125.768 36.8163C125.833 36.6404 125.96 36.4996 126.122 36.4249C126.283 36.3502 126.465 36.3478 126.628 36.418C127.718 36.8887 128.781 37.4304 129.81 38.0401C129.96 38.1339 130.069 38.287 130.115 38.4668C130.161 38.6465 130.141 38.8387 130.058 39.0022C129.974 39.1657 129.835 39.2876 129.67 39.3419C129.505 39.3963 129.327 39.3787 129.173 39.293ZM122.949 36.6125C121.866 36.3067 120.767 36.0733 119.658 35.9138C119.572 35.9014 119.489 35.8709 119.414 35.8238C119.339 35.7768 119.273 35.7143 119.22 35.6398C119.168 35.5653 119.129 35.4803 119.107 35.3896C119.084 35.299 119.079 35.2045 119.09 35.1115C119.113 34.9238 119.205 34.7536 119.344 34.6386C119.413 34.5816 119.492 34.5398 119.575 34.5157C119.659 34.4916 119.747 34.4855 119.833 34.4979C120.996 34.666 122.148 34.9117 123.283 35.2338C123.371 35.2529 123.455 35.2913 123.529 35.3466C123.603 35.4019 123.666 35.473 123.714 35.5554C123.762 35.6379 123.793 35.73 123.807 35.8262C123.82 35.9223 123.815 36.0204 123.793 36.1145C123.77 36.2086 123.73 36.2966 123.674 36.3732C123.619 36.4499 123.549 36.5134 123.47 36.5601C123.391 36.6067 123.304 36.6354 123.215 36.6444C123.125 36.6534 123.035 36.6426 122.949 36.6125ZM116.31 35.6553C115.19 35.6448 114.07 35.7093 112.958 35.8486C112.783 35.8704 112.608 35.8164 112.47 35.6986C112.333 35.5808 112.244 35.4088 112.224 35.2204C112.204 35.032 112.254 34.8427 112.363 34.6941C112.472 34.5455 112.631 34.4498 112.805 34.428C113.973 34.2837 115.147 34.2164 116.321 34.2266C116.486 34.2275 116.644 34.2948 116.766 34.4152C116.887 34.5357 116.962 34.7006 116.976 34.8778C116.991 35.0549 116.943 35.2315 116.844 35.373C116.744 35.5144 116.599 35.6105 116.437 35.6425C116.395 35.6518 116.352 35.6568 116.31 35.6577V35.6553ZM105.59 37.1376C105.56 37.0499 105.545 36.9566 105.548 36.8628C105.55 36.7691 105.57 36.6768 105.606 36.5914C105.642 36.5059 105.693 36.4289 105.756 36.3648C105.82 36.3007 105.894 36.2507 105.975 36.2177C106.929 35.8301 107.9 35.497 108.886 35.2198C109.037 35.1779 109.186 35.1372 109.337 35.1034C109.423 35.0772 109.513 35.07 109.601 35.0821C109.689 35.0943 109.775 35.1257 109.852 35.1743C109.929 35.2229 109.996 35.2878 110.049 35.3651C110.102 35.4424 110.14 35.5305 110.161 35.6241C110.182 35.7177 110.185 35.8149 110.17 35.9098C110.155 36.0048 110.123 36.0955 110.075 36.1766C110.027 36.2577 109.964 36.3275 109.891 36.3818C109.817 36.4361 109.734 36.4737 109.646 36.4925C109.505 36.5286 109.365 36.5671 109.222 36.609C108.279 36.8724 107.349 37.19 106.438 37.5603C106.403 37.5749 106.367 37.5866 106.33 37.5952C106.177 37.6257 106.019 37.5966 105.883 37.5133C105.748 37.43 105.644 37.2978 105.59 37.14V37.1376Z" fill="#BDD0FB"/>
</g>
<g opacity="0.3">
<path d="M120.911 95.4787C119.773 95.6916 118.625 95.83 117.472 95.8932C117.297 95.9028 117.125 95.8368 116.995 95.7098C116.865 95.5828 116.787 95.4052 116.778 95.2161C116.769 95.0269 116.83 94.8417 116.948 94.7012C117.065 94.5607 117.23 94.4763 117.405 94.4668C118.505 94.4063 119.601 94.2741 120.686 94.0709C120.856 94.043 121.03 94.088 121.17 94.1963C121.31 94.3046 121.406 94.4676 121.436 94.6508C121.467 94.834 121.43 95.0228 121.334 95.1772C121.238 95.3316 121.089 95.4393 120.921 95.4775L120.911 95.4787ZM123.46 94.1407C123.435 94.051 123.426 93.9568 123.435 93.8635C123.444 93.7702 123.47 93.6797 123.511 93.5972C123.552 93.5147 123.608 93.4417 123.675 93.3825C123.742 93.3233 123.82 93.2791 123.903 93.2523C124.959 92.9099 125.995 92.4993 127.005 92.0227C127.165 91.9532 127.343 91.9538 127.503 92.0243C127.662 92.0947 127.79 92.2295 127.859 92.4C127.928 92.5705 127.932 92.7632 127.872 92.9374C127.811 93.1115 127.69 93.2533 127.534 93.3326C126.475 93.8317 125.389 94.2614 124.283 94.6193C124.26 94.6272 124.237 94.6334 124.214 94.6379C124.052 94.6719 123.885 94.6397 123.745 94.5478C123.605 94.4559 123.501 94.3107 123.454 94.1407H123.46ZM114.008 95.8524C112.855 95.7624 111.709 95.5972 110.575 95.3576C110.416 95.3075 110.281 95.1951 110.195 95.0426C110.109 94.8901 110.079 94.7085 110.111 94.5334C110.143 94.3583 110.234 94.2024 110.367 94.0964C110.5 93.9903 110.665 93.9418 110.829 93.9603C111.911 94.1894 113.004 94.3476 114.104 94.4342C114.263 94.4478 114.413 94.5234 114.525 94.6471C114.637 94.7709 114.704 94.9342 114.712 95.107C114.721 95.2797 114.672 95.4501 114.574 95.5865C114.475 95.723 114.334 95.8162 114.177 95.8489C114.119 95.8582 114.06 95.8594 114.002 95.8524H114.008ZM129.712 91.3764C129.668 91.2957 129.639 91.2063 129.627 91.1135C129.614 91.0206 129.619 90.9261 129.641 90.8352C129.663 90.7444 129.701 90.659 129.753 90.5841C129.805 90.5091 129.87 90.446 129.945 90.3983C130.893 89.792 131.806 89.1239 132.679 88.3978C132.818 88.2822 132.994 88.2308 133.168 88.255C133.342 88.2793 133.499 88.3771 133.607 88.5271C133.714 88.677 133.761 88.8667 133.739 89.0545C133.716 89.2423 133.626 89.4128 133.487 89.5285C132.571 90.2897 131.614 90.9896 130.619 91.6244C130.544 91.6727 130.461 91.7046 130.375 91.7181C130.289 91.7317 130.202 91.7267 130.117 91.7034C130.033 91.6801 129.954 91.639 129.884 91.5825C129.815 91.526 129.756 91.4551 129.712 91.3741V91.3764ZM107.218 94.4144C106.121 94.027 105.046 93.5685 103.999 93.0415C103.84 92.9615 103.717 92.8166 103.657 92.6387C103.597 92.4607 103.605 92.2642 103.679 92.0925C103.753 91.9208 103.887 91.7879 104.052 91.7231C104.217 91.6582 104.398 91.6667 104.557 91.7467C105.556 92.2499 106.582 92.687 107.629 93.0555C107.714 93.0828 107.792 93.1282 107.861 93.1889C107.929 93.2496 107.985 93.3244 108.026 93.4089C108.067 93.4934 108.092 93.5859 108.099 93.6809C108.106 93.776 108.096 93.8717 108.069 93.9624C108.041 94.053 107.997 94.1369 107.94 94.2089C107.882 94.281 107.811 94.3398 107.732 94.3819C107.653 94.4241 107.566 94.4486 107.478 94.4542C107.39 94.4598 107.302 94.4462 107.218 94.4144ZM100.954 91.2611C99.9741 90.6002 99.0312 89.877 98.1305 89.0953C98.0629 89.0364 98.0067 88.9638 97.9651 88.8814C97.9235 88.7991 97.8973 88.7087 97.888 88.6155C97.8788 88.5222 97.8866 88.4279 97.9111 88.3379C97.9356 88.2479 97.9763 88.164 98.0308 88.091C98.0853 88.018 98.1526 87.9573 98.2288 87.9123C98.305 87.8674 98.3887 87.8391 98.4751 87.8291C98.5614 87.8191 98.6488 87.8276 98.7321 87.8541C98.8154 87.8805 98.8931 87.9244 98.9607 87.9833C99.8198 88.7295 100.72 89.4189 101.656 90.0478C101.8 90.1504 101.901 90.3098 101.938 90.4919C101.975 90.6739 101.945 90.8644 101.854 91.0226C101.762 91.1808 101.617 91.2943 101.45 91.3389C101.282 91.3834 101.105 91.3555 100.956 91.2611H100.954ZM95.5634 86.5778C94.7565 85.6828 94.0004 84.736 93.2992 83.7425C93.1993 83.5912 93.1578 83.4038 93.1836 83.2201C93.2094 83.0363 93.3005 82.8707 93.4374 82.7582C93.5744 82.6457 93.7465 82.5952 93.9174 82.6174C94.0882 82.6397 94.2443 82.7329 94.3526 82.8773C95.0193 83.8251 95.7395 84.7277 96.5089 85.5799C96.5696 85.6471 96.6175 85.7266 96.6497 85.8138C96.6819 85.9011 96.6979 85.9943 96.6967 86.0882C96.6954 86.1821 96.6771 86.2748 96.6427 86.361C96.6082 86.4472 96.5584 86.5252 96.496 86.5906C96.4034 86.6892 96.2854 86.7554 96.1574 86.7804C96.0523 86.8 95.9443 86.7918 95.8428 86.7565C95.7412 86.7213 95.649 86.6599 95.5742 86.5778H95.5634Z" fill="#BDD0FB"/>
<path d="M135.771 87.2391C135.901 87.2139 136.021 87.1465 136.114 87.0458C136.517 86.6161 136.91 86.1713 137.282 85.7242C137.34 85.6544 137.385 85.573 137.414 85.4846C137.443 85.3962 137.455 85.3025 137.45 85.2089C137.446 85.1152 137.424 85.0235 137.387 84.9389C137.349 84.8543 137.297 84.7785 137.232 84.7158C137.168 84.6531 137.092 84.6047 137.01 84.5735C136.929 84.5423 136.842 84.5287 136.755 84.5337C136.668 84.5387 136.584 84.5621 136.505 84.6025C136.427 84.6429 136.357 84.6996 136.299 84.7693C135.944 85.1955 135.569 85.6194 135.185 86.0292C135.084 86.1366 135.018 86.2762 134.996 86.4273C134.974 86.5785 134.997 86.7332 135.063 86.8688C135.129 87.0043 135.233 87.1135 135.361 87.1801C135.488 87.2468 135.632 87.2675 135.771 87.2391Z" fill="#BDD0FB"/>
</g>
<path d="M136.005 73.6411C136.039 73.575 136.052 73.4994 136.044 73.4248C136.035 73.3501 136.006 73.28 135.959 73.2243L133.215 69.9709C133.73 67.9636 133.938 65.8791 133.832 63.7995L137.153 61.2529C137.21 61.2093 137.252 61.1476 137.275 61.0764C137.298 61.0052 137.3 60.9281 137.28 60.8558L135.904 55.7894C135.884 55.7172 135.844 55.6535 135.789 55.6072C135.734 55.5608 135.667 55.5341 135.598 55.5309L131.53 55.326C130.578 53.5128 129.358 51.8794 127.919 50.4901L128.6 46.1503C128.611 46.0761 128.601 45.9998 128.571 45.932C128.54 45.8642 128.491 45.8083 128.43 45.7719L124.146 43.2416C124.084 43.2055 124.014 43.1908 123.945 43.1998C123.876 43.2088 123.811 43.2409 123.76 43.2917L120.747 46.2551C118.889 45.6991 116.959 45.4738 115.033 45.5879L112.675 42.0015C112.634 41.9403 112.577 41.8942 112.511 41.8696C112.446 41.845 112.374 41.8431 112.307 41.8641L107.616 43.3511C107.549 43.3722 107.49 43.4155 107.447 43.4748C107.404 43.5341 107.38 43.6065 107.377 43.6818L107.187 48.0751C105.508 49.1032 103.996 50.42 102.709 51.9736L98.6911 51.2377C98.6223 51.2251 98.5515 51.2361 98.4887 51.2691C98.4258 51.3021 98.3741 51.3554 98.3407 51.4217L95.9914 56.0584C95.9579 56.1244 95.9444 56.2001 95.9527 56.2749C95.961 56.3496 95.9908 56.4197 96.0378 56.4753L98.7817 59.7287C98.2669 61.7359 98.0582 63.8204 98.1639 65.9001L94.8432 68.4467C94.7865 68.4905 94.7438 68.5522 94.721 68.6233C94.6982 68.6945 94.6964 68.7715 94.7159 68.8437L96.0928 73.909C96.1121 73.9815 96.1521 74.0455 96.2071 74.0921C96.262 74.1387 96.3292 74.1655 96.399 74.1686L100.467 74.3736C101.419 76.1867 102.638 77.82 104.077 79.2094L103.395 83.5492C103.384 83.6236 103.394 83.7 103.424 83.7679C103.455 83.8357 103.504 83.8916 103.566 83.9276L107.856 86.4579C107.917 86.4941 107.987 86.5087 108.056 86.4997C108.125 86.4908 108.19 86.4586 108.242 86.4079L111.254 83.4444C113.113 84 115.043 84.225 116.968 84.1105L119.326 87.6969C119.367 87.7583 119.424 87.8046 119.49 87.8295C119.555 87.8543 119.627 87.8564 119.694 87.8354L124.384 86.3485C124.451 86.3274 124.51 86.2841 124.553 86.2248C124.596 86.1655 124.621 86.0931 124.624 86.0178L124.814 81.6244C126.493 80.5964 128.005 79.2796 129.292 77.7259L133.31 78.4607C133.379 78.4736 133.449 78.4629 133.512 78.4301C133.575 78.3973 133.626 78.3441 133.659 78.2779L136.005 73.6411Z" fill="#BDD0FB"/>
<path d="M116.191 70.2481C114.903 70.2987 113.648 69.8082 112.688 68.8798C111.728 67.9514 111.139 66.6574 111.044 65.2697C110.95 63.882 111.357 62.5086 112.18 61.4383C113.003 60.3679 114.179 59.684 115.459 59.5301C116.74 59.3762 118.026 59.7644 119.047 60.6131C120.068 61.4618 120.744 62.7049 120.934 64.0811C121.125 65.4574 120.813 66.8597 120.066 67.9932C119.319 69.1267 118.194 69.9033 116.927 70.1596C116.684 70.2086 116.438 70.2382 116.191 70.2481ZM112.322 65.0012C112.341 65.5229 112.454 66.0355 112.656 66.5098C112.858 66.9841 113.144 67.4108 113.499 67.7656C113.853 68.1204 114.269 68.3962 114.722 68.5774C115.175 68.7587 115.657 68.8417 116.14 68.8217C116.867 68.7917 117.57 68.5294 118.159 68.0681C118.749 67.6068 119.198 66.9672 119.45 66.2301C119.703 65.493 119.748 64.6916 119.579 63.9271C119.41 63.1626 119.034 62.4695 118.501 61.9353C117.967 61.4011 117.298 61.0499 116.58 60.926C115.861 60.8021 115.124 60.9111 114.463 61.2393C113.802 61.5674 113.246 62.1 112.864 62.7696C112.483 63.4392 112.295 64.2158 112.322 65.0012Z" fill="url(#paint3_linear_55_1704)"/>
<path d="M118.189 78.016C118.604 77.9324 119.015 77.8259 119.42 77.6969C120.235 77.4412 121.023 77.0967 121.774 76.6687L121.874 76.6105C121.95 76.5657 122.018 76.5051 122.072 76.4322C122.127 76.3593 122.168 76.2754 122.192 76.1855C122.217 76.0955 122.225 76.0012 122.216 75.9079C122.207 75.8146 122.181 75.7242 122.139 75.6417C122.098 75.5593 122.041 75.4865 121.974 75.4275C121.906 75.3685 121.829 75.3245 121.746 75.2979C121.662 75.2713 121.575 75.2626 121.488 75.2725C121.402 75.2823 121.318 75.3105 121.242 75.3553C120.546 75.7637 119.811 76.0908 119.05 76.3311L118.925 76.3695C117.149 76.9156 115.275 76.9713 113.474 76.5313C112.497 76.2908 111.554 75.9097 110.671 75.3984L110.649 75.3856L110.582 75.346C109.297 74.5925 108.162 73.5711 107.245 72.3408C106.327 71.1106 105.645 69.696 105.237 68.179C105.129 67.7831 105.04 67.3817 104.969 66.9761C104.453 63.9456 105.033 60.8164 106.59 58.2344C108.147 55.6524 110.563 53.8145 113.339 53.1C116.114 52.3856 119.038 52.8489 121.506 54.3946C123.974 55.9403 125.799 58.4503 126.604 61.4067C127.17 63.493 127.204 65.706 126.7 67.811C126.675 67.9125 126.672 68.0188 126.69 68.1219C126.716 68.2839 126.792 68.4314 126.906 68.5395C127.021 68.6477 127.166 68.7099 127.318 68.7156C127.47 68.7214 127.62 68.6703 127.741 68.5711C127.862 68.4718 127.948 68.3304 127.984 68.1708C128.443 66.264 128.507 64.2713 128.171 62.3347C128.095 61.8863 127.996 61.4424 127.877 61.005C127.008 57.6584 124.973 54.8052 122.198 53.0431C119.424 51.281 116.126 50.7468 112.996 51.5525C109.865 52.3581 107.145 54.4411 105.404 57.3649C103.664 60.2887 103.039 63.8265 103.66 67.2369C104.264 70.7467 106.134 73.8539 108.857 75.8761C111.581 77.8983 114.937 78.6701 118.188 78.0218L118.189 78.016Z" fill="url(#paint4_linear_55_1704)"/>
<path d="M307.438 9.85986H289.683V293.628H307.438V9.85986Z" fill="url(#paint5_linear_55_1704)"/>
<path d="M177.222 10.5562H159.466V294.324H177.222V10.5562Z" fill="url(#paint6_linear_55_1704)"/>
<path d="M171.942 50.9932H164.192C163.72 50.9932 163.337 51.4066 163.337 51.9165V91.6233C163.337 92.1333 163.72 92.5467 164.192 92.5467H171.942C172.414 92.5467 172.797 92.1333 172.797 91.6233V51.9165C172.797 51.4066 172.414 50.9932 171.942 50.9932Z" fill="url(#paint7_linear_55_1704)"/>
<path d="M167.971 91.3575C169.38 90.727 170.05 88.9819 169.466 87.4597C168.882 85.9375 167.266 85.2147 165.857 85.8452C164.447 86.4757 163.778 88.2208 164.362 89.743C164.946 91.2652 166.561 91.988 167.971 91.3575Z" fill="url(#paint8_linear_55_1704)"/>
<path d="M168.702 88.9209C168.861 87.8595 168.194 86.8595 167.211 86.6872C166.229 86.5149 165.303 87.2356 165.143 88.297C164.984 89.3583 165.651 90.3584 166.634 90.5307C167.616 90.703 168.542 89.9822 168.702 88.9209Z" fill="url(#paint9_linear_55_1704)"/>
<path d="M167.128 58.3766C168.653 58.3766 169.89 57.041 169.89 55.3934C169.89 53.7458 168.653 52.4102 167.128 52.4102C165.602 52.4102 164.365 53.7458 164.365 55.3934C164.365 57.041 165.602 58.3766 167.128 58.3766Z" fill="url(#paint10_linear_55_1704)"/>
<path d="M168.403 56.7702C169.107 56.0099 169.107 54.7772 168.403 54.0169C167.699 53.2566 166.558 53.2566 165.854 54.0169C165.15 54.7772 165.15 56.0099 165.854 56.7702C166.558 57.5305 167.699 57.5305 168.403 56.7702Z" fill="url(#paint11_linear_55_1704)"/>
<path d="M171.226 209.057H163.476C163.004 209.057 162.621 209.471 162.621 209.981V249.687C162.621 250.197 163.004 250.611 163.476 250.611H171.226C171.698 250.611 172.081 250.197 172.081 249.687V209.981C172.081 209.471 171.698 209.057 171.226 209.057Z" fill="url(#paint12_linear_55_1704)"/>
<path d="M168.879 247.337C169.23 245.733 168.31 244.126 166.825 243.748C165.341 243.369 163.853 244.363 163.502 245.966C163.152 247.57 164.072 249.176 165.556 249.555C167.041 249.933 168.529 248.94 168.879 247.337Z" fill="url(#paint13_linear_55_1704)"/>
<path d="M167.945 247.099C168.174 246.052 167.574 245.004 166.605 244.757C165.636 244.51 164.665 245.158 164.436 246.204C164.208 247.251 164.808 248.299 165.777 248.546C166.746 248.793 167.717 248.145 167.945 247.099Z" fill="url(#paint14_linear_55_1704)"/>
<path d="M167.468 216.214C168.877 215.583 169.546 213.838 168.963 212.316C168.379 210.794 166.763 210.071 165.354 210.702C163.944 211.332 163.275 213.077 163.859 214.599C164.442 216.122 166.058 216.844 167.468 216.214Z" fill="url(#paint15_linear_55_1704)"/>
<path d="M168.159 213.892C168.388 212.845 167.787 211.797 166.819 211.55C165.85 211.303 164.879 211.951 164.65 212.997C164.421 214.044 165.021 215.092 165.99 215.339C166.959 215.586 167.93 214.938 168.159 213.892Z" fill="url(#paint16_linear_55_1704)"/>
<path d="M161.548 2.40527H306.13C306.476 2.40527 306.808 2.55372 307.053 2.81794C307.298 3.08217 307.435 3.44054 307.435 3.81422V19.464H159.466V4.65377C159.466 4.05743 159.686 3.48552 160.076 3.06384C160.467 2.64217 160.996 2.40527 161.548 2.40527Z" fill="url(#paint17_linear_55_1704)"/>
<path d="M159.466 281.265H307.434V295.994C307.434 296.251 307.34 296.497 307.172 296.678C307.004 296.86 306.776 296.962 306.538 296.962H160.07C159.91 296.962 159.756 296.893 159.643 296.771C159.53 296.648 159.466 296.482 159.466 296.309V281.265Z" fill="url(#paint18_linear_55_1704)"/>
<path d="M295.153 12.4463H171.283C170.829 12.4463 170.461 12.8435 170.461 13.3336V287.395C170.461 287.885 170.829 288.282 171.283 288.282H295.153C295.606 288.282 295.974 287.885 295.974 287.395V13.3336C295.974 12.8435 295.606 12.4463 295.153 12.4463Z" fill="url(#paint19_linear_55_1704)"/>
<path d="M275.901 140.685H191.157C188.821 140.682 186.582 139.678 184.931 137.895C183.279 136.111 182.35 133.693 182.347 131.17V33.6243C182.35 31.1018 183.279 28.6834 184.93 26.8997C186.582 25.1159 188.821 24.1126 191.157 24.1099H275.901C278.236 24.1126 280.476 25.1159 282.127 26.8997C283.779 28.6834 284.708 31.1018 284.711 33.6243V131.17C284.708 133.693 283.779 136.111 282.127 137.895C280.476 139.679 278.236 140.682 275.901 140.685ZM191.157 24.8924C189.013 24.8945 186.957 25.8153 185.441 27.4526C183.925 29.0899 183.073 31.31 183.071 33.6255V131.171C183.072 133.487 183.925 135.707 185.441 137.345C186.957 138.982 189.013 139.903 191.157 139.904H275.901C278.045 139.902 280.1 138.982 281.616 137.344C283.132 135.707 283.985 133.487 283.987 131.171V33.6243C283.985 31.3088 283.132 29.0888 281.616 27.4515C280.1 25.8141 278.045 24.8934 275.901 24.8912L191.157 24.8924Z" fill="white"/>
<path d="M222.558 132.487H198.947C196.611 132.484 194.372 131.481 192.721 129.697C191.069 127.914 190.141 125.495 190.138 122.973V43.3743C190.141 40.852 191.069 38.4337 192.721 36.6501C194.372 34.8664 196.611 33.8629 198.947 33.8599H222.558C224.894 33.8629 227.133 34.8664 228.784 36.6501C230.436 38.4337 231.364 40.852 231.367 43.3743V122.973C231.364 125.495 230.436 127.914 228.784 129.697C227.133 131.481 224.894 132.484 222.558 132.487ZM198.947 34.6435C196.803 34.6457 194.747 35.5665 193.231 37.2038C191.715 38.8411 190.862 41.0612 190.86 43.3767V122.975C190.862 125.291 191.715 127.511 193.231 129.149C194.747 130.786 196.802 131.707 198.947 131.708H222.558C224.703 131.707 226.758 130.786 228.274 129.149C229.79 127.511 230.643 125.291 230.645 122.975V43.3743C230.643 41.0588 229.79 38.8388 228.274 37.2015C226.758 35.5641 224.702 34.6434 222.558 34.6412L198.947 34.6435Z" fill="white"/>
<path d="M269.575 132.444H245.963C243.628 132.442 241.388 131.438 239.737 129.655C238.085 127.871 237.156 125.452 237.154 122.93V43.3358C237.155 40.8125 238.084 38.393 239.736 36.6085C241.388 34.824 243.628 33.8203 245.964 33.8179H269.576C271.912 33.8206 274.151 34.824 275.803 36.6077C277.454 38.3914 278.383 40.8098 278.386 43.3324V122.93C278.383 125.453 277.454 127.871 275.802 129.655C274.151 131.439 271.911 132.442 269.575 132.444ZM245.963 34.6004C243.819 34.6025 241.764 35.5233 240.248 37.1606C238.732 38.7979 237.879 41.018 237.877 43.3335V122.931C237.879 125.246 238.732 127.467 240.248 129.104C241.764 130.741 243.819 131.662 245.963 131.664H269.575C271.719 131.662 273.775 130.741 275.291 129.104C276.807 127.467 277.659 125.246 277.661 122.931V43.3358C277.659 41.0203 276.807 38.8003 275.291 37.163C273.775 35.5256 271.719 34.6048 269.575 34.6027L245.963 34.6004Z" fill="white"/>
<path d="M279.476 281.912H188.951C186.615 281.909 184.376 280.906 182.724 279.122C181.073 277.338 180.144 274.92 180.141 272.397V167.493C180.144 164.971 181.073 162.553 182.724 160.769C184.376 158.985 186.615 157.982 188.951 157.979H279.476C281.812 157.982 284.051 158.986 285.702 160.769C287.353 162.553 288.282 164.971 288.285 167.493V272.408C288.28 274.928 287.35 277.344 285.699 279.125C284.047 280.907 281.81 281.909 279.476 281.912ZM188.951 158.76C186.807 158.762 184.751 159.683 183.235 161.321C181.719 162.958 180.867 165.178 180.865 167.493V272.408C180.867 274.723 181.719 276.943 183.235 278.581C184.751 280.218 186.807 281.139 188.951 281.141H279.476C281.62 281.139 283.676 280.218 285.192 278.581C286.708 276.944 287.561 274.723 287.562 272.408V167.493C287.56 165.178 286.708 162.958 285.192 161.321C283.676 159.683 281.62 158.762 279.476 158.76H188.951Z" fill="white"/>
<path d="M287.577 153.165C290.099 150.442 290.099 146.026 287.577 143.303C285.056 140.579 280.967 140.579 278.446 143.303C275.924 146.026 275.924 150.442 278.446 153.165C280.967 155.888 285.056 155.888 287.577 153.165Z" fill="url(#paint20_linear_55_1704)"/>
<path d="M283.901 150.342V145.665C283.901 145.226 283.571 144.87 283.164 144.87H261.564C261.158 144.87 260.828 145.226 260.828 145.665V150.342C260.828 150.782 261.158 151.138 261.564 151.138H283.164C283.571 151.138 283.901 150.782 283.901 150.342Z" fill="url(#paint21_linear_55_1704)"/>
<path d="M195.376 67.0493H21.7833C20.4769 67.0493 19.4178 68.1931 19.4178 69.604V289.847C19.4178 291.258 20.4769 292.402 21.7833 292.402H195.376C196.682 292.402 197.741 291.258 197.741 289.847V69.604C197.741 68.1931 196.682 67.0493 195.376 67.0493Z" fill="#91B3FA"/>
<path opacity="0.94" d="M192.901 69.4355H22.9661C22.2069 69.4355 21.5914 70.1002 21.5914 70.9202V285.623C21.5914 286.443 22.2069 287.108 22.9661 287.108H192.901C193.661 287.108 194.276 286.443 194.276 285.623V70.9202C194.276 70.1002 193.661 69.4355 192.901 69.4355Z" fill="white"/>
<path d="M99.9374 81.3018H35.2755C34.29 81.3018 33.4911 82.1645 33.4911 83.2289V274.883C33.4911 275.947 34.29 276.81 35.2755 276.81H99.9374C100.923 276.81 101.722 275.947 101.722 274.883V83.2289C101.722 82.1645 100.923 81.3018 99.9374 81.3018Z" fill="#91B3FA"/>
<path opacity="0.09" d="M97.9505 66.1349L90.0811 61.228L0.774847 228.286L8.64424 233.192L97.9505 66.1349Z" fill="white"/>
<path opacity="0.09" d="M43.7629 329.825L38.5575 325.261L127.863 158.203L133.069 162.767L43.7629 329.825Z" fill="white"/>
<path opacity="0.07" d="M114.28 111.455L111.621 109.796L22.3145 276.854L24.9738 278.512L114.28 111.455Z" fill="white"/>
<path d="M179.432 81.1309H115.406C114.42 81.1309 113.622 81.9937 113.622 83.058V274.712C113.622 275.777 114.42 276.639 115.406 276.639H179.432C180.417 276.639 181.216 275.777 181.216 274.712V83.058C181.216 81.9937 180.417 81.1309 179.432 81.1309Z" fill="#91B3FA"/>
<path opacity="0.09" d="M180.87 65.7711L173.001 60.8643L83.6948 227.922L91.5642 232.829L180.87 65.7711Z" fill="white"/>
<path opacity="0.09" d="M197.229 97.3593L191.697 93.9097L102.39 260.967L107.923 264.417L197.229 97.3593Z" fill="white"/>
<path opacity="0.09" d="M208.376 141.952L205.717 140.294L116.411 307.351L119.07 309.01L208.376 141.952Z" fill="white"/>
<path opacity="0.07" d="M197.973 111.685L195.302 110.026L105.995 277.851L108.667 279.509L197.973 111.685Z" fill="white"/>
<path d="M208.235 312.122H9.82641C8.80647 311.872 7.98059 310.515 7.98059 308.839V292.287C7.98059 290.612 8.80647 289.259 9.82641 289.259H208.235C209.254 289.259 210.081 290.618 210.081 292.287V308.839C210.081 310.515 209.254 311.872 208.235 312.122Z" fill="#7D97F4"/>
<path opacity="0.67" d="M207.801 290.854H10.2113C9.48786 290.854 8.90137 291.488 8.90137 292.269V308.868C8.90137 309.649 9.48786 310.283 10.2113 310.283H207.801C208.524 310.283 209.111 309.649 209.111 308.868V292.269C209.111 291.488 208.524 290.854 207.801 290.854Z" fill="white"/>
<path d="M107.673 164.516H107.448C105.866 164.516 104.583 165.901 104.583 167.61V192.148C104.583 193.856 105.866 195.242 107.448 195.242H107.673C109.256 195.242 110.538 193.856 110.538 192.148V167.61C110.538 165.901 109.256 164.516 107.673 164.516Z" fill="#BDD0FB"/>
<path d="M108.861 178.556L108.705 174.13C108.688 173.64 108.306 173.257 107.852 173.276L87.934 174.095C87.48 174.113 87.126 174.526 87.1433 175.016L87.2993 179.443C87.3165 179.933 87.6986 180.315 88.1526 180.297L108.07 179.478C108.524 179.459 108.878 179.047 108.861 178.556Z" fill="white"/>
<path d="M63.0738 310.442C63.0738 310.442 62.386 314.651 62.0485 318.817C62.0181 319.203 62.0604 319.592 62.173 319.96C62.2856 320.328 62.4662 320.668 62.7037 320.958C62.9412 321.249 63.2308 321.484 63.5549 321.651C63.8791 321.817 64.2311 321.911 64.5898 321.926C69.7272 322.159 80.7148 322.606 84.6577 322.416C84.7951 322.408 84.9288 322.365 85.0477 322.291C85.1665 322.216 85.2671 322.111 85.341 321.986C85.4148 321.861 85.4598 321.718 85.4723 321.57C85.4847 321.422 85.4642 321.273 85.4124 321.135C85.2289 320.636 84.8744 320.232 84.4226 320.008L66.2728 310.999L63.0738 310.442Z" fill="url(#paint22_linear_55_1704)"/>
<path d="M62.51 307.969L63.0631 313.003C63.0631 313.003 66.2426 314.602 68.414 312.801L67.0965 307.192L62.51 307.969Z" fill="url(#paint23_linear_55_1704)"/>
<path d="M62.9251 213.333C62.69 214.652 61.6431 278.928 68.0054 307.739C68.0573 307.966 68.0324 308.206 67.9351 308.414C67.8378 308.623 67.6746 308.787 67.4749 308.877C65.8192 309.568 64.0674 309.952 62.2933 310.014C61.9484 310.025 61.6098 309.912 61.3304 309.694C61.051 309.475 60.8467 309.162 60.7493 308.805C58.9305 302.121 50.2156 268.632 49.0792 236.643C47.8081 200.896 49.0792 235.425 49.0792 235.425L49.8243 213.331L62.9251 213.333Z" fill="url(#paint24_linear_55_1704)"/>
<path d="M42.1963 312.637C42.1963 312.637 41.0998 314.762 40.04 320.407C39.9934 320.648 39.9944 320.896 40.0426 321.136C40.0909 321.376 40.1855 321.602 40.3202 321.8C40.4549 321.998 40.6267 322.162 40.8244 322.284C41.0221 322.405 41.2412 322.48 41.4675 322.503C43.1634 322.684 45.7801 322.916 47.8664 322.899C48.0939 322.898 48.3186 322.845 48.5259 322.744C48.7331 322.643 48.9183 322.496 49.0693 322.312C49.2203 322.128 49.3338 321.912 49.4022 321.678C49.4706 321.444 49.4925 321.196 49.4664 320.952C49.2346 318.891 48.5133 315.511 46.2836 312.876L42.1963 312.637Z" fill="url(#paint25_linear_55_1704)"/>
<path d="M41.2345 306.163L42.5283 313.775C42.5283 313.775 43.8059 314.802 46.3342 314.058L45.7175 305.867L41.2345 306.163Z" fill="url(#paint26_linear_55_1704)"/>
<path d="M37.7424 215.305C32.5392 249.223 38.8712 299.133 41.0071 308.903C41.0702 309.195 41.2119 309.461 41.4145 309.667C41.6171 309.873 41.8714 310.009 42.1456 310.059C43.0998 310.23 44.6685 310.369 46.2157 309.884C46.4751 309.802 46.7042 309.635 46.8708 309.405C47.0375 309.175 47.1334 308.895 47.1451 308.603C47.4319 300.706 46.9165 252.221 51.765 233.059C52.0107 232.089 52.5601 231.241 53.3197 230.658L62.73 223.439L63.4524 211.76L37.7424 215.305Z" fill="url(#paint27_linear_55_1704)"/>
<path d="M70.9003 151.04C55.3056 150.762 38.0992 155.465 38.0992 155.465C33.4512 184.757 37.2862 218.545 37.2862 218.545C49.3617 221.964 62.9779 216.449 62.9779 216.449C64.9843 204.205 74.3471 169.748 74.3471 169.748C81.9666 168.727 88.2426 166.352 93.4124 163.213C89.4695 158.277 87.6108 151.998 86.8032 148.284C81.2895 150.144 75.71 151.127 70.9003 151.04Z" fill="url(#paint28_linear_55_1704)"/>
<path d="M116.964 126.232C115.432 124.234 113.493 125.184 113.493 125.184C111.198 135.654 99.1655 144.142 86.8032 148.291C87.6108 152.004 89.4695 158.284 93.4124 163.22C113.928 150.757 116.964 126.232 116.964 126.232Z" fill="url(#paint29_linear_55_1704)"/>
<path d="M116.592 126.739C116.752 127.288 114.896 128.127 113.803 125.876C113.765 124.798 113.156 120.176 113.754 119.297C116.933 114.616 123.097 108.75 123.097 108.75C124.138 109.859 123.28 110.949 123.28 110.949L120.29 114.313C120.915 115.533 121.678 116.564 122.036 118.039C122.297 119.166 122.147 120.359 121.617 121.37C121.093 122.391 120.376 123.718 119.7 124.757C118.418 126.726 116.592 126.739 116.592 126.739Z" fill="url(#paint30_linear_55_1704)"/>
<path d="M118.982 116.498L116.258 118.993L115.402 121.475L117.831 124.387C117.831 124.387 118.648 119.459 119.255 118.392C119.862 117.325 119.547 116.81 118.982 116.498Z" fill="url(#paint31_linear_55_1704)"/>
<path d="M44.0809 171.77L38.0992 155.468C38.0992 155.468 23.5332 166.156 21.1385 179.709C23.89 179.928 28.9014 180.7 33.8005 183.374C34.8733 176.969 44.0809 171.77 44.0809 171.77Z" fill="url(#paint32_linear_55_1704)"/>
<path d="M55.1051 137.366L50.1456 152.865C50.1055 152.989 50.1072 153.124 50.1504 153.247C50.1936 153.37 50.2755 153.472 50.3817 153.537C51.7337 154.345 56.607 156.68 62.4798 152.657C62.7829 152.452 63.0405 152.178 63.2343 151.853C63.4281 151.529 63.5533 151.162 63.6011 150.779L65.2075 137.366H55.1051Z" fill="url(#paint33_linear_55_1704)"/>
<path d="M65.9008 123.012C65.9008 123.012 71.3499 134.089 70.6512 138.563C69.9526 143.037 63.2 142.72 57.2992 139.081L53.1785 127.121L65.9008 123.012Z" fill="url(#paint34_linear_55_1704)"/>
<path d="M57.5645 133.213C57.6207 133.186 57.6708 133.146 57.7115 133.097C57.7521 133.047 57.7822 132.988 57.7998 132.925C57.8173 132.861 57.8218 132.794 57.813 132.728C57.8042 132.663 57.7823 132.6 57.7488 132.544C57.3176 131.825 56.4938 130.355 56.2329 129.069C56.2329 129.069 55.2529 128.391 58.7256 127.493C62.1984 126.595 67.3769 125.203 68.4647 122.01C69.5526 118.817 57.5871 116.785 52.9391 123.935C52.9391 123.935 46.9736 127.261 47.6561 128.028C47.7062 128.084 47.7423 128.153 47.7611 128.229C47.7799 128.304 47.7808 128.384 47.7637 128.46C47.7467 128.536 47.7121 128.606 47.6634 128.663C47.6146 128.721 47.5532 128.765 47.4847 128.79C46.6566 129.063 48.8561 134.555 49.6992 134.424C49.7663 134.413 49.8347 134.421 49.8985 134.445C49.9622 134.47 50.0193 134.511 50.0647 134.566C50.7936 135.438 54.0949 139.158 57.6669 139.604C57.7377 139.61 57.8088 139.597 57.8739 139.567C57.9389 139.536 57.996 139.488 58.0399 139.428C58.0839 139.368 58.1134 139.297 58.1258 139.221C58.1382 139.146 58.1332 139.068 58.1111 138.995L56.5661 134.148C56.5313 134.039 56.5357 133.921 56.5782 133.815C56.6208 133.71 56.6984 133.626 56.7957 133.58L57.5645 133.213Z" fill="url(#paint35_linear_55_1704)"/>
<path d="M58.1844 133.901C58.1844 133.901 54.303 131.026 54.0216 133.447C53.7402 135.867 57.5149 136.953 59.3866 136.05L58.1844 133.901Z" fill="url(#paint36_linear_55_1704)"/>
<path d="M62.9122 216.545C63.1946 214.935 67.9979 192.846 67.9979 192.846L64.606 172.476H46.1941L34.9337 188.545L37.0653 220.306C47.0566 220.76 56.3946 220.433 62.9122 216.545Z" fill="url(#paint37_linear_55_1704)"/>
<path d="M46.1467 172.352L41.1871 154.53C41.1739 154.482 41.1701 154.431 41.1758 154.382C41.1815 154.332 41.1967 154.285 41.2205 154.242C41.2442 154.199 41.2759 154.162 41.3136 154.133C41.3513 154.104 41.3941 154.083 41.4394 154.073L46.8227 152.879C46.8677 152.868 46.9141 152.869 46.9591 152.879C47.004 152.889 47.0465 152.909 47.0839 152.938C47.1212 152.967 47.1527 153.004 47.1762 153.047C47.1997 153.089 47.2148 153.137 47.2205 153.186L49.5364 173.082C49.5435 173.142 49.5366 173.202 49.5166 173.258C49.4966 173.313 49.464 173.363 49.4218 173.401C49.3796 173.44 49.3291 173.467 49.2749 173.479C49.2208 173.491 49.1646 173.488 49.1117 173.471L46.3753 172.599C46.3209 172.582 46.2715 172.551 46.2315 172.508C46.1915 172.464 46.1624 172.411 46.1467 172.352Z" fill="url(#paint38_linear_55_1704)"/>
<path d="M64.6491 172.476L70.9025 151.094C69.3844 150.295 67.5936 150.89 65.5386 151.077L60.3752 172.476H64.6491Z" fill="url(#paint39_linear_55_1704)"/>
<path d="M56.8097 187.115C56.8097 187.115 40.4561 197.098 34.938 188.569C33.7919 186.799 33.5181 185.04 33.8006 183.363C28.8981 180.685 23.8901 179.918 21.1386 179.699C20.4162 183.784 20.7979 188.129 23.02 192.52C32.6868 211.617 58.9747 191.465 58.9747 191.465L56.8097 187.115Z" fill="url(#paint40_linear_55_1704)"/>
<path d="M54.8454 199.748L63.7683 166.08C63.8175 165.893 63.9167 165.727 64.0535 165.601C64.1903 165.475 64.3586 165.396 64.537 165.373C66.1542 165.17 70.84 164.598 76.2502 164.104C82.7666 163.508 90.3354 163.026 94.8572 163.437C95.0056 163.45 95.1489 163.501 95.2746 163.588C95.4002 163.674 95.5043 163.792 95.5779 163.932C95.6514 164.072 95.692 164.229 95.6963 164.39C95.7005 164.55 95.6682 164.71 95.6022 164.854C93.0308 170.472 82.4486 193.33 77.1559 200.817C77.0696 200.939 76.9582 201.039 76.8304 201.106C76.7026 201.174 76.5619 201.209 76.4195 201.208L55.7111 201C55.5713 200.998 55.4338 200.961 55.3092 200.893C55.1846 200.824 55.0763 200.725 54.9926 200.604C54.909 200.483 54.8522 200.343 54.8266 200.195C54.8011 200.046 54.8075 199.894 54.8454 199.748Z" fill="url(#paint41_linear_55_1704)"/>
<path d="M77.1786 161.185L83.6476 160.02C83.7264 160.006 83.8072 160.015 83.8822 160.044C83.9571 160.074 84.0238 160.124 84.0757 160.189C84.1276 160.255 84.163 160.334 84.1785 160.418C84.1939 160.503 84.189 160.59 84.164 160.672L83.5236 162.768C83.4962 162.858 83.4461 162.937 83.379 162.997C83.3119 163.057 83.2305 163.096 83.1441 163.108L76.9176 164.006C76.8431 164.017 76.7672 164.008 76.6966 163.98C76.6259 163.952 76.5626 163.906 76.512 163.846C76.4614 163.786 76.4251 163.714 76.4062 163.635C76.3873 163.556 76.3863 163.474 76.4034 163.395L76.8001 161.564C76.8215 161.468 76.8688 161.38 76.9362 161.313C77.0035 161.245 77.0878 161.201 77.1786 161.185Z" fill="#91B3FA"/>
<path d="M72.3332 167.101L72.8658 164.103C72.8925 163.957 72.9618 163.824 73.0634 163.723C73.165 163.623 73.2937 163.56 73.4307 163.544L86.5014 162.112C86.603 162.102 86.7055 162.118 86.8003 162.159C86.895 162.2 86.9795 162.265 87.0467 162.348C87.1139 162.431 87.1619 162.53 87.1869 162.637C87.2118 162.744 87.213 162.855 87.1903 162.963L86.359 166.7C86.326 166.845 86.2507 166.975 86.1441 167.07C86.0376 167.166 85.9054 167.222 85.7671 167.231L72.9952 167.929C72.8979 167.933 72.801 167.914 72.7116 167.872C72.6223 167.83 72.5428 167.767 72.4792 167.688C72.4156 167.608 72.3694 167.514 72.3441 167.413C72.3188 167.311 72.3151 167.205 72.3332 167.101Z" fill="#7D97F4"/>
<path d="M57.0017 191.611C57.0017 191.611 55.7585 186.089 56.2599 184.129C56.7612 182.17 57.7327 179.652 60.9715 180.212C64.2103 180.772 68.0313 182.245 68.0313 182.245C68.0313 182.245 67.8383 184.797 65.3769 183.973L66.9036 185.254C66.9036 185.254 66.6879 187.297 64.606 186.206L66.0259 187.897C66.0259 187.897 65.1321 189.575 63.6033 188.499C62.0744 187.423 61.3402 192.276 57.0017 191.611Z" fill="url(#paint42_linear_55_1704)"/>
<path d="M66.2815 120.294C56.2955 106.35 39.0265 123.944 50.1769 135.177C56.1489 129.068 62.62 120.439 66.2815 120.294Z" fill="url(#paint43_linear_55_1704)"/>
<path d="M65.5236 118.731C80.6039 115.05 69.0567 123.484 55.723 129.327C58.5381 124.727 61.5139 121.136 65.5236 118.731Z" fill="url(#paint44_linear_55_1704)"/>
<defs>
<linearGradient id="paint0_linear_55_1704" x1="347.156" y1="422.413" x2="53.3217" y2="84.5206" gradientUnits="userSpaceOnUse">
<stop stop-color="#DAE3FE"/>
<stop offset="1" stop-color="#E9EFFD"/>
</linearGradient>
<linearGradient id="paint1_linear_55_1704" x1="53.654" y1="48.1729" x2="68.3397" y2="48.1729" gradientUnits="userSpaceOnUse">
<stop stop-color="#DAE3FE"/>
<stop offset="1" stop-color="#E9EFFD"/>
</linearGradient>
<linearGradient id="paint2_linear_55_1704" x1="42.8033" y1="48.0847" x2="78.9251" y2="48.0847" gradientUnits="userSpaceOnUse">
<stop stop-color="#DAE3FE"/>
<stop offset="1" stop-color="#E9EFFD"/>
</linearGradient>
<linearGradient id="paint3_linear_55_1704" x1="110.997" y1="64.8499" x2="121.002" y2="64.8499" gradientUnits="userSpaceOnUse">
<stop stop-color="#DAE3FE"/>
<stop offset="1" stop-color="#E9EFFD"/>
</linearGradient>
<linearGradient id="paint4_linear_55_1704" x1="103.45" y1="64.7858" x2="128.371" y2="64.7858" gradientUnits="userSpaceOnUse">
<stop stop-color="#DAE3FE"/>
<stop offset="1" stop-color="#E9EFFD"/>
</linearGradient>
<linearGradient id="paint5_linear_55_1704" x1="307.107" y1="-288.246" x2="303.302" y2="-120.29" gradientUnits="userSpaceOnUse">
<stop stop-color="#FF928E"/>
<stop offset="1" stop-color="#FE7062"/>
</linearGradient>
<linearGradient id="paint6_linear_55_1704" x1="176.961" y1="-291.194" x2="173.156" y2="-123.239" gradientUnits="userSpaceOnUse">
<stop stop-color="#FF928E"/>
<stop offset="1" stop-color="#FE7062"/>
</linearGradient>
<linearGradient id="paint7_linear_55_1704" x1="39.5278" y1="15.2722" x2="119.793" y2="45.519" gradientUnits="userSpaceOnUse">
<stop stop-color="#FF928E"/>
<stop offset="1" stop-color="#FE7062"/>
</linearGradient>
<linearGradient id="paint8_linear_55_1704" x1="175.357" y1="73.526" x2="156.598" y2="102.244" gradientUnits="userSpaceOnUse">
<stop stop-color="#CB236D"/>
<stop offset="1" stop-color="#4C246D"/>
</linearGradient>
<linearGradient id="paint9_linear_55_1704" x1="172.438" y1="78.7605" x2="160.197" y2="97.5003" gradientUnits="userSpaceOnUse">
<stop stop-color="#53D8FF"/>
<stop offset="1" stop-color="#3840F7"/>
</linearGradient>
<linearGradient id="paint10_linear_55_1704" x1="175.571" y1="40.3165" x2="156.81" y2="69.0354" gradientUnits="userSpaceOnUse">
<stop stop-color="#E1473D"/>
<stop offset="1" stop-color="#E9605A"/>
</linearGradient>
<linearGradient id="paint11_linear_55_1704" x1="172.638" y1="45.5558" x2="160.397" y2="64.2956" gradientUnits="userSpaceOnUse">
<stop stop-color="#FF928E"/>
<stop offset="1" stop-color="#FE7062"/>
</linearGradient>
<linearGradient id="paint12_linear_55_1704" x1="111.305" y1="294.077" x2="171.921" y2="234.509" gradientUnits="userSpaceOnUse">
<stop stop-color="#FDF53F"/>
<stop offset="0.67" stop-color="#E47759"/>
<stop offset="1" stop-color="#D93C65"/>
</linearGradient>
<linearGradient id="paint13_linear_55_1704" x1="174.622" y1="231.585" x2="155.862" y2="260.303" gradientUnits="userSpaceOnUse">
<stop stop-color="#CB236D"/>
<stop offset="1" stop-color="#4C246D"/>
</linearGradient>
<linearGradient id="paint14_linear_55_1704" x1="171.689" y1="236.824" x2="159.447" y2="255.564" gradientUnits="userSpaceOnUse">
<stop stop-color="#53D8FF"/>
<stop offset="1" stop-color="#3840F7"/>
</linearGradient>
<linearGradient id="paint15_linear_55_1704" x1="174.854" y1="198.38" x2="156.094" y2="227.099" gradientUnits="userSpaceOnUse">
<stop stop-color="#CB236D"/>
<stop offset="1" stop-color="#4C246D"/>
</linearGradient>
<linearGradient id="paint16_linear_55_1704" x1="171.903" y1="203.616" x2="159.661" y2="222.356" gradientUnits="userSpaceOnUse">
<stop stop-color="#53D8FF"/>
<stop offset="1" stop-color="#3840F7"/>
</linearGradient>
<linearGradient id="paint17_linear_55_1704" x1="239.336" y1="-290.839" x2="235.517" y2="-122.312" gradientUnits="userSpaceOnUse">
<stop stop-color="#FF928E"/>
<stop offset="1" stop-color="#FE7062"/>
</linearGradient>
<linearGradient id="paint18_linear_55_1704" x1="244.704" y1="-290.617" x2="240.891" y2="-122.379" gradientUnits="userSpaceOnUse">
<stop stop-color="#FF928E"/>
<stop offset="1" stop-color="#FE7062"/>
</linearGradient>
<linearGradient id="paint19_linear_55_1704" x1="200.538" y1="203.396" x2="437.148" y2="-125.791" gradientUnits="userSpaceOnUse">
<stop stop-color="#FF928E"/>
<stop offset="1" stop-color="#FE7062"/>
</linearGradient>
<linearGradient id="paint20_linear_55_1704" x1="297.304" y1="53.6916" x2="276.492" y2="171.725" gradientUnits="userSpaceOnUse">
<stop stop-color="#FF928E"/>
<stop offset="1" stop-color="#FE7062"/>
</linearGradient>
<linearGradient id="paint21_linear_55_1704" x1="195.737" y1="206.974" x2="280.393" y2="151.119" gradientUnits="userSpaceOnUse">
<stop stop-color="#E1473D"/>
<stop offset="1" stop-color="#E9605A"/>
</linearGradient>
<linearGradient id="paint22_linear_55_1704" x1="88.1434" y1="284.211" x2="73.0933" y2="313.856" gradientUnits="userSpaceOnUse">
<stop stop-color="#09005D"/>
<stop offset="1" stop-color="#1A0F91"/>
</linearGradient>
<linearGradient id="paint23_linear_55_1704" x1="62.51" y1="310.425" x2="68.414" y2="310.425" gradientUnits="userSpaceOnUse">
<stop stop-color="#FEBBBA"/>
<stop offset="1" stop-color="#FF928E"/>
</linearGradient>
<linearGradient id="paint24_linear_55_1704" x1="70.5703" y1="230.088" x2="41.6659" y2="295.34" gradientUnits="userSpaceOnUse">
<stop stop-color="#09005D"/>
<stop offset="1" stop-color="#1A0F91"/>
</linearGradient>
<linearGradient id="paint25_linear_55_1704" x1="65.213" y1="272.569" x2="50.1628" y2="302.214" gradientUnits="userSpaceOnUse">
<stop stop-color="#09005D"/>
<stop offset="1" stop-color="#1A0F91"/>
</linearGradient>
<linearGradient id="paint26_linear_55_1704" x1="41.2334" y1="310.098" x2="46.331" y2="310.098" gradientUnits="userSpaceOnUse">
<stop stop-color="#FEBBBA"/>
<stop offset="1" stop-color="#FF928E"/>
</linearGradient>
<linearGradient id="paint27_linear_55_1704" x1="56.8896" y1="224.028" x2="27.9852" y2="289.279" gradientUnits="userSpaceOnUse">
<stop stop-color="#09005D"/>
<stop offset="1" stop-color="#1A0F91"/>
</linearGradient>
<linearGradient id="paint28_linear_55_1704" x1="-948.539" y1="-1360.56" x2="-882.84" y2="-1274.5" gradientUnits="userSpaceOnUse">
<stop stop-color="#FF928E"/>
<stop offset="1" stop-color="#FE7062"/>
</linearGradient>
<linearGradient id="paint29_linear_55_1704" x1="86.8032" y1="144.086" x2="116.964" y2="144.086" gradientUnits="userSpaceOnUse">
<stop stop-color="#FEBBBA"/>
<stop offset="1" stop-color="#FF928E"/>
</linearGradient>
<linearGradient id="paint30_linear_55_1704" x1="111.388" y1="132.659" x2="120.071" y2="118.087" gradientUnits="userSpaceOnUse">
<stop stop-color="#FEBBBA"/>
<stop offset="1" stop-color="#FF928E"/>
</linearGradient>
<linearGradient id="paint31_linear_55_1704" x1="114.396" y1="113.818" x2="134.973" y2="145.095" gradientUnits="userSpaceOnUse">
<stop stop-color="#FEBBBA"/>
<stop offset="1" stop-color="#FF928E"/>
</linearGradient>
<linearGradient id="paint32_linear_55_1704" x1="-963.251" y1="-1349.33" x2="-897.551" y2="-1263.27" gradientUnits="userSpaceOnUse">
<stop stop-color="#FF928E"/>
<stop offset="1" stop-color="#FE7062"/>
</linearGradient>
<linearGradient id="paint33_linear_55_1704" x1="50.1143" y1="146.156" x2="65.2043" y2="146.156" gradientUnits="userSpaceOnUse">
<stop stop-color="#FEBBBA"/>
<stop offset="1" stop-color="#FF928E"/>
</linearGradient>
<linearGradient id="paint34_linear_55_1704" x1="66.4616" y1="137.578" x2="49.1009" y2="127.782" gradientUnits="userSpaceOnUse">
<stop stop-color="#FEBBBA"/>
<stop offset="1" stop-color="#FF928E"/>
</linearGradient>
<linearGradient id="paint35_linear_55_1704" x1="55.0006" y1="106.464" x2="64.1564" y2="157.58" gradientUnits="userSpaceOnUse">
<stop stop-color="#E1473D"/>
<stop offset="1" stop-color="#E9605A"/>
</linearGradient>
<linearGradient id="paint36_linear_55_1704" x1="62.0809" y1="141.679" x2="46.4602" y2="132.865" gradientUnits="userSpaceOnUse">
<stop stop-color="#FEBBBA"/>
<stop offset="1" stop-color="#FF928E"/>
</linearGradient>
<linearGradient id="paint37_linear_55_1704" x1="100.276" y1="133.513" x2="82.2928" y2="154.082" gradientUnits="userSpaceOnUse">
<stop stop-color="#09005D"/>
<stop offset="1" stop-color="#1A0F91"/>
</linearGradient>
<linearGradient id="paint38_linear_55_1704" x1="34.5467" y1="139.398" x2="60.1499" y2="181.628" gradientUnits="userSpaceOnUse">
<stop stop-color="#09005D"/>
<stop offset="1" stop-color="#1A0F91"/>
</linearGradient>
<linearGradient id="paint39_linear_55_1704" x1="54.9596" y1="141.243" x2="77.0425" y2="177.668" gradientUnits="userSpaceOnUse">
<stop stop-color="#09005D"/>
<stop offset="1" stop-color="#1A0F91"/>
</linearGradient>
<linearGradient id="paint40_linear_55_1704" x1="20.8065" y1="190.225" x2="58.9747" y2="190.225" gradientUnits="userSpaceOnUse">
<stop stop-color="#FEBBBA"/>
<stop offset="1" stop-color="#FF928E"/>
</linearGradient>
<linearGradient id="paint41_linear_55_1704" x1="61.9774" y1="122.469" x2="86.2375" y2="216.063" gradientUnits="userSpaceOnUse">
<stop stop-color="#4F52FF"/>
<stop offset="1" stop-color="#4042E2"/>
</linearGradient>
<linearGradient id="paint42_linear_55_1704" x1="56.1413" y1="185.903" x2="68.0313" y2="185.903" gradientUnits="userSpaceOnUse">
<stop stop-color="#FEBBBA"/>
<stop offset="1" stop-color="#FF928E"/>
</linearGradient>
<linearGradient id="paint43_linear_55_1704" x1="45.475" y1="76.9378" x2="51.337" y2="98.6489" gradientUnits="userSpaceOnUse">
<stop stop-color="#09005D"/>
<stop offset="1" stop-color="#1A0F91"/>
</linearGradient>
<linearGradient id="paint44_linear_55_1704" x1="75.0802" y1="124.444" x2="56.616" y2="130.628" gradientUnits="userSpaceOnUse">
<stop stop-color="#09005D"/>
<stop offset="1" stop-color="#1A0F91"/>
</linearGradient>
</defs>
</svg>
