<svg width="301" height="330" viewBox="0 0 301 330" fill="none" xmlns="http://www.w3.org/2000/svg">
<path d="M264.997 243.477C258.959 249.436 253.245 253.282 248.735 256.314C195.689 291.995 132.911 281.598 119.571 279.057C99.8706 275.306 61.7897 268.054 34.2576 237.701C-7.39412 191.781 -0.911109 119.432 31.3983 71.6736C37.3078 62.9374 68.525 14.4523 131.975 6.68036C170.374 1.97012 215.14 11.4614 247.549 36.9209C315.59 90.363 310.747 198.326 264.997 243.477Z" fill="url(#paint0_linear_55_2177)"/>
<g opacity="0.3">
<path d="M95.9805 63.8344C96.2807 63.7495 96.6038 63.7718 96.8875 63.897C97.1712 64.0223 97.3954 64.2416 97.5168 64.5126C98.0732 65.7528 98.5788 67.0335 99.0263 68.3192C99.0777 68.4679 99.0973 68.6247 99.0841 68.7806C99.0708 68.9364 99.025 69.0883 98.9491 69.2275C98.8732 69.3667 98.7687 69.4906 98.6418 69.5919C98.5148 69.6933 98.3677 69.7702 98.209 69.8182L98.1853 69.8253C97.867 69.9153 97.5238 69.8847 97.2293 69.7402C96.9348 69.5956 96.7125 69.3485 96.6101 69.052C96.1885 67.83 95.7077 66.613 95.1805 65.4354C95.1157 65.2914 95.0819 65.1367 95.081 64.9804C95.0801 64.8241 95.112 64.6691 95.175 64.5244C95.238 64.3796 95.3308 64.2479 95.4481 64.1368C95.5654 64.0257 95.7049 63.9374 95.8586 63.8768C95.8982 63.8602 95.9389 63.846 95.9805 63.8344ZM99.1007 73.7845C99.1488 73.7708 99.1978 73.7596 99.2473 73.7511C99.579 73.6962 99.9204 73.7668 100.196 73.9476C100.473 74.1284 100.661 74.4046 100.72 74.7154C100.971 76.0456 101.165 77.3981 101.295 78.7373C101.319 79.0487 101.212 79.3567 100.997 79.5948C100.781 79.8329 100.475 79.9821 100.143 80.0104C99.8112 80.0386 99.481 79.9435 99.2233 79.7457C98.9656 79.5479 98.8012 79.2631 98.7654 78.9526C98.6424 77.6801 98.4581 76.3954 98.2198 75.1309C98.1655 74.8443 98.2252 74.549 98.3875 74.3009C98.5499 74.0528 98.8036 73.8691 99.1007 73.7845ZM99.8069 84.1309C100.002 84.0762 100.208 84.0661 100.407 84.1015C100.607 84.1368 100.795 84.2165 100.955 84.3339C101.115 84.4513 101.243 84.603 101.328 84.7762C101.413 84.9495 101.452 85.1393 101.442 85.3297C101.372 86.675 101.239 88.0355 101.046 89.3728C101.027 89.5303 100.974 89.6827 100.891 89.821C100.809 89.9593 100.697 90.0808 100.564 90.1782C100.43 90.2756 100.277 90.347 100.114 90.3882C99.9508 90.4295 99.7804 90.4398 99.6128 90.4184C99.4452 90.3971 99.2838 90.3446 99.1381 90.264C98.9925 90.1834 98.8654 90.0763 98.7645 89.9491C98.6636 89.8218 98.5908 89.6769 98.5504 89.523C98.51 89.369 98.5028 89.209 98.5292 89.0524C98.7125 87.7838 98.8398 86.4931 98.9055 85.2114C98.9189 84.9662 99.0126 84.7309 99.1739 84.5375C99.3352 84.3441 99.5563 84.2021 99.8069 84.1309ZM98.0268 94.3681C98.2447 94.307 98.476 94.3019 98.6967 94.3532C98.9174 94.4045 99.1193 94.5104 99.2815 94.6598C99.4437 94.8091 99.5602 94.9966 99.6188 95.2025C99.6775 95.4084 99.6762 95.6254 99.615 95.8307C99.2257 97.1295 98.7707 98.4274 98.2651 99.6888C98.2141 99.8443 98.1298 99.9884 98.0171 100.112C97.9045 100.236 97.7661 100.337 97.6103 100.408C97.4545 100.48 97.2848 100.521 97.1115 100.529C96.9381 100.536 96.765 100.511 96.6027 100.453C96.4403 100.396 96.2923 100.308 96.1676 100.195C96.0429 100.082 95.9443 99.9457 95.8778 99.7955C95.8114 99.6453 95.7784 99.4838 95.781 99.3212C95.7837 99.1586 95.8218 98.9982 95.8931 98.8499C96.374 97.6521 96.8052 96.4189 97.1761 95.1858C97.2335 94.9936 97.3414 94.8179 97.4901 94.6751C97.6387 94.5322 97.8233 94.4266 98.0268 94.3681ZM93.8565 103.977C94.0975 103.909 94.3546 103.909 94.5952 103.978C94.8358 104.048 95.0491 104.182 95.2079 104.365C95.3668 104.548 95.464 104.771 95.4874 105.006C95.5107 105.241 95.459 105.477 95.3389 105.685C94.6532 106.866 93.9039 108.038 93.1114 109.165C93.0194 109.295 92.9009 109.408 92.7625 109.495C92.6242 109.583 92.4689 109.644 92.3053 109.675C92.1418 109.707 91.9733 109.707 91.8094 109.678C91.6455 109.648 91.4895 109.588 91.3503 109.502C91.211 109.416 91.0912 109.305 90.9978 109.175C90.9044 109.045 90.8391 108.9 90.8057 108.746C90.7723 108.593 90.7715 108.435 90.8032 108.281C90.835 108.128 90.8987 107.981 90.9907 107.851C91.7454 106.779 92.457 105.667 93.1082 104.543C93.2684 104.269 93.5373 104.066 93.8565 103.977ZM87.5233 112.48C87.7866 112.407 88.0681 112.416 88.3256 112.505C88.5832 112.595 88.8029 112.76 88.9518 112.976C89.1007 113.193 89.1707 113.448 89.1515 113.705C89.1323 113.962 89.0248 114.206 88.8451 114.401C87.8964 115.412 86.8893 116.399 85.8521 117.332C85.7322 117.442 85.5901 117.529 85.4342 117.587C85.2783 117.645 85.1116 117.674 84.9437 117.672C84.7759 117.669 84.6102 117.636 84.4563 117.573C84.3024 117.51 84.1633 117.419 84.0471 117.306C83.9309 117.192 83.8398 117.058 83.7792 116.911C83.7186 116.764 83.6896 116.608 83.6939 116.451C83.6982 116.293 83.7358 116.138 83.8044 115.995C83.873 115.851 83.9713 115.721 84.0937 115.614C85.0791 114.727 86.0344 113.794 86.9379 112.829C87.0943 112.664 87.2972 112.543 87.5233 112.48ZM43.8575 127.808C44.0321 127.758 44.216 127.745 44.3966 127.768C45.7486 127.938 47.1276 128.054 48.4937 128.115C48.6602 128.122 48.8235 128.16 48.9743 128.227C49.1251 128.294 49.2605 128.387 49.3727 128.503C49.4849 128.618 49.5717 128.754 49.6281 128.901C49.6846 129.048 49.7096 129.204 49.7017 129.36C49.6939 129.516 49.6533 129.669 49.5823 129.81C49.5114 129.952 49.4114 130.079 49.2881 130.184C49.1648 130.289 49.0206 130.37 48.8637 130.423C48.7069 130.476 48.5405 130.5 48.374 130.492C46.9357 130.43 45.4834 130.306 44.0613 130.129C43.7713 130.095 43.5026 129.968 43.3005 129.77C43.0984 129.572 42.9754 129.315 42.952 129.042C42.9287 128.769 43.0066 128.496 43.1726 128.271C43.3385 128.045 43.5823 127.88 43.8629 127.804L43.8575 127.808ZM79.3433 119.455C79.6309 119.373 79.9401 119.39 80.2159 119.502C80.4916 119.614 80.7161 119.814 80.8493 120.067C80.9825 120.319 81.0158 120.608 80.9434 120.881C80.871 121.155 80.6975 121.395 80.4538 121.56C79.2883 122.349 78.0721 123.1 76.8387 123.792C76.6955 123.876 76.5359 123.932 76.3692 123.958C76.2025 123.983 76.032 123.977 75.8678 123.94C75.7035 123.903 75.5488 123.836 75.4127 123.742C75.2766 123.648 75.1618 123.53 75.075 123.394C74.9882 123.258 74.9313 123.108 74.9074 122.951C74.8835 122.794 74.8932 122.635 74.936 122.481C74.9787 122.328 75.0536 122.184 75.1564 122.059C75.2591 121.933 75.3875 121.828 75.5341 121.749C76.705 121.092 77.8597 120.378 78.967 119.626C79.0813 119.55 79.2085 119.492 79.3433 119.455ZM54.9131 128.016C54.9947 127.993 55.0784 127.978 55.1632 127.969C56.5228 127.851 57.8953 127.676 59.2408 127.45C59.405 127.422 59.5734 127.425 59.7363 127.459C59.8992 127.492 60.0536 127.555 60.1905 127.645C60.3274 127.734 60.4442 127.848 60.5342 127.979C60.6243 128.111 60.6858 128.258 60.7152 128.412C60.7447 128.566 60.7415 128.723 60.7059 128.876C60.6703 129.029 60.6029 129.174 60.5076 129.302C60.4124 129.43 60.2911 129.54 60.1507 129.624C60.0103 129.709 59.8535 129.766 59.6893 129.794C58.2726 130.031 56.829 130.216 55.3993 130.341C55.0861 130.368 54.7734 130.285 54.5217 130.108C54.2699 129.932 54.097 129.674 54.0365 129.384C53.976 129.095 54.0321 128.795 54.1941 128.542C54.356 128.289 54.6122 128.102 54.9131 128.016ZM69.7066 124.534C70.0183 124.444 70.3549 124.47 70.6466 124.607C70.9383 124.743 71.1628 124.98 71.2737 125.267C71.3845 125.555 71.3732 125.871 71.242 126.151C71.1109 126.431 70.87 126.653 70.5691 126.771C69.2473 127.294 67.8823 127.772 66.5131 128.186L66.4872 128.194C66.1698 128.275 65.8313 128.237 65.5429 128.089C65.2545 127.941 65.0387 127.693 64.941 127.399C64.8432 127.105 64.871 126.786 65.0186 126.511C65.1663 126.235 65.4222 126.024 65.7325 125.922C67.0327 125.525 68.3287 125.072 69.5858 124.574C69.6203 124.561 69.6635 124.546 69.7066 124.534Z" fill="#7D97F4"/>
<path d="M35.1589 125.952C35.4053 125.882 35.6687 125.885 35.9136 125.959C36.5368 126.149 37.174 126.33 37.8079 126.497C37.9706 126.537 38.1231 126.608 38.2565 126.704C38.3899 126.8 38.5016 126.92 38.5851 127.057C38.6685 127.194 38.7221 127.346 38.7426 127.502C38.7632 127.659 38.7504 127.818 38.7048 127.97C38.6593 128.122 38.5821 128.263 38.4775 128.387C38.373 128.511 38.2433 128.614 38.0959 128.69C37.9485 128.766 37.7865 128.814 37.6191 128.831C37.4518 128.848 37.2825 128.834 37.1211 128.789C36.4538 128.613 35.7842 128.423 35.1287 128.224C34.8715 128.146 34.6478 127.992 34.4901 127.786C34.3324 127.58 34.249 127.332 34.252 127.079C34.255 126.825 34.3443 126.579 34.5068 126.377C34.6694 126.174 34.8967 126.025 35.1556 125.952H35.1589Z" fill="#7D97F4"/>
</g>
<g opacity="0.3">
<path d="M5.93745 102.143C6.22655 102.061 6.53727 102.079 6.81389 102.192C7.09051 102.306 7.31493 102.508 7.44689 102.763C7.7326 103.315 8.03556 103.875 8.34715 104.414C8.49635 104.691 8.52423 105.012 8.42486 105.308C8.32549 105.604 8.10672 105.852 7.81516 105.999C7.5236 106.146 7.18231 106.181 6.86399 106.096C6.54567 106.01 6.2755 105.812 6.11103 105.542C5.78758 104.969 5.46413 104.384 5.16225 103.803C5.08924 103.662 5.04651 103.51 5.03648 103.354C5.02645 103.197 5.04932 103.041 5.10379 102.893C5.15826 102.746 5.24327 102.609 5.35394 102.492C5.4646 102.375 5.59877 102.28 5.74877 102.212C5.8097 102.184 5.87278 102.161 5.93745 102.143Z" fill="#7D97F4"/>
<path d="M36.0559 37.4803C36.6159 37.3226 37.1801 37.1727 37.7487 37.0305C37.9118 36.9847 38.0831 36.9702 38.2524 36.9878C38.4217 37.0054 38.5855 37.0547 38.734 37.1329C38.8825 37.211 39.0128 37.3163 39.117 37.4426C39.2212 37.5689 39.2973 37.7135 39.3407 37.8679C39.3841 38.0223 39.3939 38.1833 39.3696 38.3413C39.3453 38.4993 39.2873 38.6511 39.1991 38.7877C39.111 38.9243 38.9944 39.0429 38.8563 39.1364C38.7183 39.2299 38.5616 39.2965 38.3956 39.332C37.0824 39.6595 35.7864 40.0396 34.5282 40.456C34.2135 40.5504 33.872 40.526 33.5761 40.3882C33.2803 40.2504 33.0533 40.0099 32.9435 39.7178C32.8337 39.4257 32.8495 39.1049 32.9878 38.8236C33.126 38.5423 33.3758 38.3226 33.684 38.2111C34.4613 37.9503 35.2603 37.7047 36.0559 37.4803ZM44.3309 35.8357C44.4014 35.8162 44.4735 35.802 44.5465 35.7933C45.9481 35.6285 47.3821 35.5184 48.7945 35.4658C48.9611 35.4596 49.1273 35.4841 49.2838 35.5381C49.4402 35.5921 49.5838 35.6745 49.7063 35.7805C49.8288 35.8865 49.9278 36.0141 49.9977 36.156C50.0676 36.2979 50.107 36.4513 50.1136 36.6075C50.1203 36.7636 50.0941 36.9195 50.0365 37.0662C49.9789 37.2128 49.891 37.3474 49.7779 37.4623C49.6648 37.5771 49.5288 37.6699 49.3774 37.7355C49.2261 37.801 49.0624 37.8379 48.8958 37.8442C47.5546 37.8947 46.2004 37.9998 44.8603 38.1555C44.5442 38.1934 44.2246 38.1184 43.9648 37.9455C43.705 37.7727 43.5241 37.5145 43.458 37.2224C43.3918 36.9302 43.4453 36.6254 43.6079 36.3685C43.7704 36.1116 44.03 35.9214 44.3352 35.8357H44.3309ZM27.5589 40.7148C27.8635 40.6249 28.193 40.646 28.4819 40.7737C28.7707 40.9014 28.9976 41.1264 29.1174 41.4039C29.2371 41.6814 29.241 41.9911 29.1283 42.2711C29.0155 42.5512 28.7943 42.7812 28.5088 42.9153C27.3228 43.4944 26.1368 44.1282 25.0015 44.8054C24.8605 44.889 24.7034 44.9458 24.5391 44.9725C24.3747 44.9992 24.2063 44.9953 24.0436 44.961C23.8809 44.9267 23.7269 44.8627 23.5906 44.7726C23.4542 44.6825 23.3381 44.5681 23.2489 44.436C23.1597 44.3038 23.0992 44.1565 23.0707 44.0024C23.0422 43.8483 23.0464 43.6905 23.083 43.5379C23.1196 43.3854 23.1879 43.2411 23.284 43.1132C23.3801 42.9854 23.5021 42.8766 23.643 42.7929C24.8408 42.0854 26.084 41.4132 27.3368 40.8017C27.4077 40.7662 27.4821 40.7371 27.5589 40.7148ZM55.2214 35.6892C55.38 35.6447 55.5462 35.6296 55.7109 35.6447C57.1201 35.7741 58.54 35.9611 59.932 36.2006C60.2632 36.2579 60.5567 36.4361 60.7477 36.6962C60.9388 36.9563 61.0119 37.2769 60.9508 37.5874C60.8898 37.898 60.6996 38.1731 60.4222 38.3522C60.1448 38.5314 59.8028 38.5998 59.4716 38.5426C58.1508 38.3142 56.802 38.1383 55.464 38.014C55.1715 37.9869 54.898 37.8656 54.6902 37.6706C54.4825 37.4757 54.3532 37.2192 54.3246 36.9449C54.296 36.6707 54.3697 36.3956 54.5333 36.1666C54.6968 35.9376 54.94 35.7689 55.2214 35.6892ZM18.5206 46.3964C18.8003 46.3173 19.1006 46.331 19.3708 46.4353C19.6409 46.5395 19.8645 46.7279 20.0038 46.9687C20.1431 47.2094 20.1896 47.4878 20.1355 47.757C20.0813 48.0261 19.9299 48.2696 19.7066 48.4462C18.6824 49.2549 17.6807 50.1211 16.7287 51.0126C16.4907 51.2358 16.1678 51.3612 15.8311 51.3612C15.4945 51.3612 15.1716 51.2358 14.9336 51.0126C14.6955 50.7895 14.5618 50.4868 14.5618 50.1711C14.5618 49.8555 14.6955 49.5528 14.9336 49.3297C15.9352 48.3896 16.9896 47.481 18.0689 46.6268C18.2009 46.5217 18.3547 46.4432 18.5206 46.3964ZM11.0306 53.7963C11.2873 53.7235 11.562 53.7288 11.8153 53.8113C12.0687 53.8938 12.2876 54.0494 12.4408 54.2558C12.594 54.4622 12.6736 54.7087 12.6682 54.9601C12.6628 55.2114 12.5726 55.4548 12.4107 55.6551C11.5977 56.6599 10.8204 57.7091 10.1001 58.7714C9.91943 59.038 9.63314 59.2264 9.30427 59.2951C8.9754 59.3638 8.63088 59.3072 8.34651 59.1378C8.06213 58.9684 7.8612 58.7 7.7879 58.3917C7.71461 58.0833 7.77495 57.7604 7.95567 57.4938C8.71039 56.3758 9.53195 55.27 10.3869 54.2158C10.5488 54.0157 10.7741 53.8688 11.0306 53.7963ZM5.436 62.5477C5.66992 62.4816 5.9192 62.4802 6.15396 62.5436C6.38872 62.607 6.59898 62.7326 6.75956 62.9052C6.92013 63.0778 7.02418 63.2902 7.05926 63.5168C7.09433 63.7435 7.05893 63.9748 6.95729 64.1831C6.39664 65.3304 5.87912 66.5079 5.42521 67.6966C5.3721 67.8478 5.28717 67.9875 5.17545 68.1075C5.06373 68.2274 4.92749 68.3251 4.77478 68.3948C4.62208 68.4645 4.45602 68.5047 4.28642 68.5132C4.11683 68.5217 3.94714 68.4982 3.7874 68.4441C3.62767 68.39 3.48112 68.3064 3.35644 68.1983C3.23176 68.0902 3.13147 67.9598 3.06152 67.8147C2.99156 67.6696 2.95335 67.5128 2.94915 67.3536C2.94495 67.1945 2.97485 67.0361 3.03708 66.888C3.51578 65.6427 4.0581 64.3984 4.65433 63.1915C4.72839 63.0383 4.83641 62.9017 4.97119 62.7907C5.10597 62.6797 5.26442 62.5968 5.436 62.5477ZM2.01821 72.2411C2.22245 72.1828 2.4392 72.1744 2.64786 72.2168C2.81142 72.2491 2.96656 72.3114 3.10436 72.4001C3.24215 72.4888 3.35987 72.6022 3.45076 72.7337C3.54164 72.8652 3.60389 73.0122 3.63392 73.1664C3.66395 73.3206 3.66118 73.4788 3.62575 73.6319C3.34651 74.8661 3.12009 76.1245 2.95298 77.3718C2.90371 77.6791 2.72826 77.9562 2.46407 78.1438C2.19988 78.3315 1.8679 78.4149 1.539 78.3763C1.21011 78.3376 0.910369 78.18 0.703779 77.9369C0.497189 77.6939 0.400121 77.3848 0.433303 77.0756C0.609044 75.7616 0.84732 74.4345 1.14166 73.1336C1.18892 72.9248 1.29524 72.7317 1.44946 72.5747C1.60368 72.4177 1.80013 72.3024 2.01821 72.2411ZM0.948666 82.4014C1.06281 82.3696 1.18107 82.3526 1.30015 82.3509C1.63674 82.3471 1.96118 82.4687 2.20231 82.6888C2.44344 82.909 2.58157 83.2099 2.5864 83.5254C2.60365 84.7839 2.67805 86.0524 2.80958 87.3128C2.8258 87.4685 2.80915 87.6256 2.7606 87.7752C2.71205 87.9248 2.63254 88.064 2.52661 88.1848C2.42069 88.3055 2.29042 88.4056 2.14325 88.4792C1.99608 88.5528 1.83489 88.5985 1.66888 88.6137C1.50287 88.6289 1.33529 88.6133 1.17571 88.5678C1.01614 88.5223 0.867684 88.4477 0.738834 88.3484C0.609983 88.2491 0.503258 88.127 0.424751 87.989C0.346244 87.8511 0.297492 87.6999 0.281281 87.5443C0.144353 86.2232 0.065648 84.8819 0.046241 83.5568C0.0428144 83.2985 0.128962 83.0462 0.291717 82.8379C0.454473 82.6295 0.685027 82.4763 0.948666 82.4014ZM2.28559 92.5274L2.36107 92.5083C2.52333 92.4722 2.69158 92.4665 2.8562 92.4914C3.02082 92.5164 3.17859 92.5715 3.32047 92.6536C3.46236 92.7358 3.58558 92.8433 3.68311 92.9701C3.78063 93.0969 3.85053 93.2405 3.88883 93.3927C4.1174 94.2963 4.37724 95.203 4.66295 96.0894C4.76645 96.4109 4.87427 96.7299 4.9864 97.0467C5.03822 97.1953 5.05827 97.3521 5.0454 97.508C5.03253 97.664 4.98698 97.816 4.91138 97.9554C4.83577 98.0948 4.73158 98.2189 4.60478 98.3205C4.47798 98.4221 4.33104 98.4993 4.17239 98.5477C4.01404 98.5981 3.84655 98.6183 3.67974 98.6071C3.51294 98.596 3.35021 98.5536 3.20112 98.4826C3.05204 98.4116 2.91961 98.3133 2.81163 98.1936C2.70366 98.0739 2.62231 97.9352 2.57239 97.7855C2.45594 97.451 2.34274 97.1164 2.23492 96.7748C1.93411 95.8428 1.66026 94.8876 1.41982 93.9375C1.34642 93.6433 1.39501 93.334 1.55577 93.0722C1.71652 92.8104 1.97741 92.6157 2.28559 92.5274Z" fill="#7D97F4"/>
<path d="M65.9028 37.814C66.153 37.7436 66.4203 37.7471 66.6683 37.8241C67.3152 38.0263 67.9815 38.2456 68.6306 38.4751C68.7964 38.5228 68.9501 38.6019 69.0821 38.7075C69.2141 38.8131 69.3216 38.9429 69.398 39.0889C69.4744 39.2349 69.5181 39.3941 69.5263 39.5566C69.5346 39.7191 69.5072 39.8814 69.446 40.0336C69.3848 40.1858 69.2909 40.3246 69.1702 40.4414C69.0496 40.5583 68.9046 40.6507 68.7444 40.7131C68.5841 40.7754 68.4119 40.8063 68.2385 40.8038C68.065 40.8014 67.8939 40.7656 67.7357 40.6988C67.1179 40.4804 66.4904 40.2722 65.8705 40.0802C65.6143 40.0006 65.3918 39.8466 65.2352 39.6405C65.0787 39.4344 64.9963 39.1869 64.9999 38.934C65.0035 38.681 65.0929 38.4356 65.2553 38.2335C65.4177 38.0314 65.6445 37.8831 65.9028 37.81V37.814Z" fill="#7D97F4"/>
</g>
<path d="M68.5217 51.498C68.4193 51.433 68.2979 51.3997 68.1744 51.4026C68.0509 51.4055 67.9314 51.4445 67.8327 51.5141L62.0634 55.5896C58.866 54.4496 55.4916 53.8064 52.0731 53.6853L48.4591 47.8228C48.397 47.7227 48.3033 47.6432 48.1909 47.5952C48.0785 47.5472 47.9529 47.5331 47.8316 47.5549L39.3271 49.1085C39.2057 49.1305 39.0947 49.1876 39.0097 49.2717C38.9246 49.3558 38.8697 49.4627 38.8527 49.5775L37.8478 56.279C34.7279 57.5943 31.8578 59.3782 29.3508 61.5603L22.3718 59.8187C22.2522 59.7886 22.1256 59.7942 22.0097 59.8348C21.8937 59.8753 21.7941 59.9489 21.7249 60.0451L16.8818 66.782C16.813 66.8781 16.7778 66.9919 16.7811 67.1077C16.7843 67.2234 16.8259 67.3353 16.9001 67.4279L21.2473 72.8356C20.0314 75.8332 19.3453 78.9967 19.216 82.2015L12.9626 85.5906C12.8557 85.6486 12.7706 85.7365 12.7194 85.8419C12.6682 85.9474 12.6533 86.0652 12.6769 86.1789L14.3341 94.1519C14.3578 94.2654 14.4186 94.3692 14.5081 94.4489C14.5975 94.5285 14.7111 94.5802 14.8332 94.5967L21.9826 95.5387C23.3856 98.4637 25.2884 101.154 27.616 103.505L25.7518 110.047C25.7192 110.16 25.7249 110.278 25.7683 110.387C25.8116 110.496 25.8903 110.589 25.9934 110.654L33.1793 115.193C33.2814 115.258 33.4027 115.292 33.526 115.289C33.6494 115.286 33.7687 115.247 33.8672 115.177L39.6365 111.102C42.8339 112.242 46.2084 112.885 49.6268 113.006L53.2419 118.869C53.3038 118.969 53.3975 119.049 53.5099 119.097C53.6224 119.145 53.748 119.159 53.8694 119.136L62.3739 117.583C62.4952 117.561 62.606 117.503 62.691 117.419C62.776 117.335 62.831 117.229 62.8483 117.114L63.8532 110.412C66.9728 109.097 69.8428 107.313 72.3502 105.131L79.3292 106.879C79.4488 106.909 79.5753 106.903 79.6913 106.862C79.8072 106.822 79.9068 106.748 79.9761 106.652L84.8182 99.9154C84.8873 99.8194 84.9226 99.7055 84.9194 99.5897C84.9161 99.4739 84.8743 99.362 84.7998 99.2695L80.4537 93.8618C81.6691 90.8641 82.3552 87.7006 82.485 84.4959L88.7384 81.1068C88.8452 81.0486 88.9299 80.9607 88.981 80.8553C89.032 80.7499 89.0467 80.6321 89.023 80.5185L87.3669 72.5455C87.3431 72.4318 87.2821 72.328 87.1925 72.2483C87.1029 72.1686 86.989 72.117 86.8667 72.1007L79.7184 71.1587C78.315 68.2339 76.4122 65.5433 74.085 63.1927L75.9492 56.6499C75.9812 56.5377 75.9751 56.419 75.9316 56.3102C75.8881 56.2015 75.8094 56.1082 75.7066 56.0434L68.5217 51.498Z" fill="#91B3FA"/>
<path d="M48.3405 75.5252C50.4993 74.9152 52.8264 75.1137 54.8323 76.0791C56.8382 77.0444 58.3666 78.7013 59.0962 80.7015C59.8258 82.7016 59.6997 84.889 58.7444 86.8037C57.7891 88.7184 56.079 90.2113 53.9738 90.9683C51.8686 91.7253 49.5323 91.6876 47.4562 90.8629C45.3801 90.0383 43.726 88.4911 42.8417 86.5466C41.9574 84.6021 41.9118 82.4119 42.7145 80.4366C43.5172 78.4613 45.1057 76.8547 47.1459 75.9548C47.5324 75.7844 47.9316 75.6408 48.3405 75.5252ZM52.7675 89.3416C53.084 89.2518 53.3932 89.1407 53.6926 89.009C55.2516 88.3199 56.465 87.0909 57.0777 85.5805C57.6904 84.0701 57.6547 82.3959 56.9781 80.9096C56.3015 79.4234 55.0367 78.2409 53.4496 77.6107C51.8624 76.9804 50.0764 76.9516 48.467 77.5301C46.8576 78.1087 45.5501 79.2496 44.8192 80.7131C44.0884 82.1766 43.9912 83.8487 44.548 85.378C45.1048 86.9073 46.2723 88.1747 47.8051 88.9139C49.3379 89.653 51.1166 89.8063 52.7675 89.3416Z" fill="#BDD0FB"/>
<path d="M44.5326 64.2844C45.235 64.085 45.9479 63.9194 46.6684 63.7881C46.897 63.7463 47.1263 63.7079 47.3563 63.6728C48.4864 63.5016 49.6293 63.415 50.7741 63.4141H50.953C51.0393 63.4141 51.1255 63.4141 51.2107 63.4141C51.2774 63.4153 51.3432 63.4289 51.4043 63.454C51.4654 63.4791 51.5206 63.5152 51.5668 63.5603C51.613 63.6054 51.6493 63.6586 51.6736 63.7168C51.6978 63.7751 51.7096 63.8372 51.7083 63.8997C51.7069 63.9623 51.6925 64.0239 51.6657 64.0812C51.639 64.1385 51.6004 64.1903 51.5523 64.2336C51.5042 64.2769 51.4475 64.3109 51.3853 64.3337C51.3232 64.3564 51.2569 64.3675 51.1902 64.3662C48.3286 64.3102 45.4865 64.8194 42.8485 65.8606C40.2106 66.9017 37.8358 68.4517 35.8786 70.4096C33.9214 72.3675 32.4256 74.6896 31.4883 77.225C30.5511 79.7604 30.1933 82.4523 30.4384 85.1257C30.6835 87.7992 31.5259 90.3944 32.9108 92.7427C34.2958 95.091 36.1923 97.1398 38.4771 98.7559C40.762 100.372 43.384 101.519 46.1728 102.123C48.9615 102.727 51.8547 102.774 54.6641 102.261C65.7088 100.24 72.9369 90.1836 70.787 79.8332C70.0809 76.4392 68.4081 73.2877 65.946 70.7129C65.8596 70.6186 65.8159 70.4963 65.8244 70.3722C65.8329 70.248 65.8928 70.132 65.9914 70.0487C66.0901 69.9655 66.2195 69.9218 66.3521 69.9269C66.4846 69.9321 66.6098 69.9856 66.7007 70.0761C69.287 72.7783 71.0432 76.0875 71.7821 79.6513C74.0463 90.5182 66.4441 101.08 54.8549 103.196C49.6544 104.145 44.2635 103.253 39.7235 100.692C35.1835 98.1324 31.8165 94.0859 30.2727 89.3346C30.0606 88.6748 29.8839 88.0055 29.7433 87.3292C28.7316 82.4532 29.6833 77.3987 32.4148 73.1423C35.1463 68.8859 39.4636 65.7296 44.5326 64.2833V64.2844Z" fill="#BDD0FB"/>
<g opacity="0.3">
<path d="M127.788 22.0536C127.95 22.0078 128.124 22.0126 128.283 22.0673C128.442 22.122 128.578 22.2236 128.671 22.3568C129.035 22.8794 129.388 23.4192 129.717 23.962C129.769 24.0458 129.802 24.1382 129.815 24.234C129.828 24.3298 129.82 24.427 129.793 24.5202C129.766 24.6133 129.72 24.7006 129.657 24.7769C129.594 24.8533 129.515 24.9173 129.426 24.9652C129.336 25.0131 129.238 25.044 129.136 25.0562C129.033 25.0684 128.93 25.0616 128.83 25.0362C128.731 25.0108 128.638 24.9674 128.556 24.9082C128.475 24.8491 128.407 24.7756 128.356 24.6918C128.041 24.1742 127.709 23.6597 127.357 23.1614C127.244 22.9981 127.204 22.7992 127.246 22.6084C127.289 22.4175 127.411 22.2504 127.585 22.1436C127.648 22.1049 127.716 22.0746 127.788 22.0536Z" fill="#7D97F4"/>
<path d="M130.611 27.0529C130.797 27.0002 130.997 27.0141 131.173 27.092C131.348 27.1699 131.487 27.3062 131.561 27.4744C132.004 28.4702 132.393 29.4863 132.726 30.5189C132.796 30.7352 132.862 30.9535 132.928 31.1729C132.978 31.3603 132.951 31.5587 132.85 31.7276C132.75 31.8965 132.585 32.0235 132.389 32.0826C132.29 32.109 132.186 32.1168 132.083 32.1055C131.98 32.0941 131.881 32.0638 131.791 32.0164C131.701 31.969 131.621 31.9053 131.558 31.8291C131.494 31.7528 131.447 31.6655 131.419 31.5721C131.356 31.3629 131.292 31.1537 131.225 30.9475C130.907 29.9622 130.537 28.9926 130.115 28.0425C130.075 27.9534 130.055 27.8579 130.054 27.7614C130.054 27.6648 130.074 27.5691 130.113 27.4798C130.152 27.3905 130.21 27.3094 130.283 27.241C130.355 27.1726 130.442 27.1183 130.537 27.0812C130.559 27.0691 130.585 27.06 130.611 27.0529ZM132.801 34.4064C132.836 34.3961 132.872 34.3883 132.909 34.3831C133.011 34.3686 133.114 34.3731 133.214 34.3962C133.314 34.4194 133.409 34.4608 133.491 34.518C133.574 34.5753 133.644 34.6473 133.698 34.7299C133.751 34.8126 133.786 34.9043 133.802 34.9997C134.011 36.2908 134.135 37.5928 134.174 38.8983C134.176 38.9948 134.159 39.0909 134.122 39.181C134.085 39.2712 134.03 39.3537 133.959 39.4238C133.888 39.4939 133.804 39.5503 133.71 39.5897C133.616 39.6291 133.514 39.6507 133.411 39.6533C133.308 39.656 133.206 39.6396 133.11 39.6051C133.013 39.5707 132.925 39.5188 132.851 39.4524C132.776 39.3861 132.716 39.3065 132.674 39.2184C132.632 39.1303 132.609 39.0352 132.606 38.9387C132.568 37.6936 132.45 36.4517 132.251 35.2201C132.223 35.0452 132.263 34.8667 132.364 34.7172C132.464 34.5678 132.619 34.4574 132.8 34.4064H132.801ZM133.023 42.0378C133.121 42.0108 133.223 42.0015 133.325 42.0105C133.532 42.0294 133.722 42.1246 133.855 42.275C133.987 42.4255 134.05 42.619 134.03 42.813C133.894 44.1137 133.673 45.4053 133.367 46.6803C133.321 46.8705 133.197 47.0359 133.021 47.1402C132.846 47.2444 132.633 47.279 132.43 47.2362C132.227 47.1935 132.051 47.0769 131.94 46.9122C131.828 46.7475 131.792 46.5481 131.837 46.3579C132.128 45.1422 132.339 43.9107 132.468 42.6705C132.483 42.5255 132.544 42.3881 132.643 42.2755C132.741 42.1629 132.873 42.0802 133.022 42.0378H133.023ZM131.237 49.4872C131.376 49.4482 131.524 49.4461 131.664 49.4812C131.804 49.5163 131.931 49.5872 132.031 49.6859C132.131 49.7847 132.2 49.9075 132.23 50.0407C132.26 50.1739 132.249 50.3123 132.2 50.4404C131.729 51.6696 131.178 52.8707 130.55 54.0368C130.456 54.211 130.292 54.3431 130.094 54.4039C129.896 54.4648 129.68 54.4494 129.494 54.3612C129.308 54.273 129.168 54.1192 129.103 53.9336C129.038 53.7481 129.054 53.5459 129.148 53.3717C129.746 52.26 130.271 51.115 130.719 49.9431C130.761 49.8344 130.829 49.7365 130.919 49.6573C131.009 49.5781 131.117 49.5198 131.236 49.4872H131.237ZM127.563 56.3019C127.718 56.258 127.883 56.26 128.037 56.3076C128.19 56.3552 128.324 56.446 128.42 56.5678C128.516 56.6895 128.57 56.8361 128.574 56.9876C128.578 57.139 128.532 57.2879 128.442 57.4138C127.666 58.4981 126.821 59.5371 125.91 60.525C125.772 60.6633 125.581 60.746 125.379 60.7557C125.177 60.7654 124.978 60.7015 124.825 60.5772C124.672 60.453 124.576 60.278 124.557 60.0889C124.538 59.8999 124.598 59.7113 124.724 59.5627C125.593 58.6207 126.4 57.6296 127.14 56.5951C127.24 56.4549 127.39 56.3514 127.562 56.3019H127.563ZM122.238 62.0735C122.409 62.0251 122.592 62.0326 122.757 62.0947C122.923 62.1568 123.061 62.2698 123.149 62.4152C123.236 62.5605 123.269 62.7296 123.241 62.8946C123.212 63.0595 123.125 63.2106 122.993 63.3228C121.959 64.1975 120.869 65.0114 119.728 65.7598C119.644 65.8152 119.549 65.8544 119.448 65.8753C119.348 65.8961 119.244 65.8982 119.142 65.8814C119.041 65.8646 118.944 65.8292 118.857 65.7773C118.77 65.7254 118.695 65.658 118.636 65.5789C118.577 65.4998 118.535 65.4105 118.513 65.3163C118.491 65.222 118.488 65.1245 118.506 65.0295C118.524 64.9344 118.562 64.8435 118.617 64.7621C118.673 64.6807 118.745 64.6103 118.829 64.555C119.917 63.8411 120.956 63.0647 121.941 62.2302C122.026 62.1585 122.127 62.1051 122.237 62.0735H122.238ZM115.572 66.4482C115.759 66.3926 115.962 66.4052 116.14 66.4835C116.319 66.5617 116.459 66.6998 116.533 66.8705C116.608 67.0411 116.611 67.2318 116.543 67.4046C116.474 67.5775 116.339 67.7199 116.164 67.8036C114.932 68.4155 113.661 68.9556 112.359 69.4209C112.165 69.4874 111.951 69.4795 111.763 69.3991C111.575 69.3186 111.429 69.1721 111.356 68.9911C111.282 68.8101 111.288 68.6094 111.371 68.4323C111.455 68.2553 111.609 68.1162 111.802 68.0452C113.044 67.6033 114.255 67.0899 115.43 66.5078C115.475 66.4838 115.522 66.4638 115.571 66.4482H115.572ZM103.944 69.8383C103.988 69.8258 104.034 69.817 104.08 69.812C105.227 69.684 106.366 69.4991 107.492 69.2581C107.664 69.2217 107.831 69.1854 107.998 69.1459C108.2 69.0996 108.413 69.1303 108.591 69.2313C108.769 69.3323 108.897 69.4954 108.947 69.6847C108.972 69.7784 108.978 69.876 108.963 69.9718C108.948 70.0675 108.912 70.1595 108.859 70.2424C108.806 70.3252 108.735 70.3972 108.652 70.4542C108.568 70.5112 108.473 70.5519 108.373 70.5742C108.195 70.6156 108.017 70.655 107.834 70.6924C106.654 70.9452 105.461 71.1385 104.26 71.2716C104.064 71.2953 103.866 71.2492 103.706 71.1423C103.545 71.0354 103.433 70.8757 103.392 70.695C103.351 70.5142 103.385 70.3256 103.486 70.1669C103.586 70.0081 103.747 69.8908 103.936 69.8383H103.944Z" fill="#7D97F4"/>
</g>
<g opacity="0.3">
<path d="M90.0722 9.45717C90.2709 9.39967 90.4858 9.41853 90.6697 9.50962C90.8536 9.6007 90.9914 9.75654 91.0527 9.94285C91.1141 10.1292 91.094 10.3307 90.9968 10.5031C90.8997 10.6755 90.7334 10.8047 90.5347 10.8622C89.2894 11.2311 88.0689 11.6699 86.8797 12.1762C86.7856 12.2187 86.6833 12.2431 86.579 12.248C86.4747 12.2529 86.3704 12.2382 86.2722 12.2048C86.174 12.1714 86.0839 12.1199 86.0072 12.0534C85.9306 11.9868 85.8689 11.9066 85.8257 11.8174C85.7826 11.7282 85.759 11.6318 85.7561 11.5339C85.7533 11.436 85.7714 11.3386 85.8093 11.2473C85.8473 11.1561 85.9043 11.0728 85.977 11.0025C86.0497 10.9322 86.1367 10.8762 86.2328 10.8379C87.4795 10.3065 88.759 9.84576 90.0646 9.45818L90.0722 9.45717ZM93.9633 8.54039C93.9905 8.53256 94.0183 8.52615 94.0463 8.52119C95.3929 8.2833 96.7534 8.12129 98.1207 8.03601C98.3249 8.02816 98.5243 8.0953 98.6766 8.22316C98.8288 8.35102 98.9219 8.52951 98.9359 8.72068C98.95 8.91185 98.8839 9.10062 98.7518 9.24684C98.6197 9.39306 98.4319 9.4852 98.2285 9.50366C96.9238 9.58514 95.6256 9.73973 94.3406 9.9666C94.1445 9.99896 93.9425 9.9602 93.7757 9.85818C93.6089 9.75615 93.4897 9.59849 93.4423 9.41714C93.3948 9.23579 93.4227 9.04432 93.5203 8.88152C93.6178 8.71872 93.7777 8.59677 93.9676 8.54039H93.9633ZM82.7848 12.5704C82.9672 12.5192 83.1633 12.5319 83.3364 12.6062C83.5096 12.6805 83.648 12.8112 83.726 12.9741C83.804 13.1369 83.8161 13.3208 83.7602 13.4914C83.7043 13.6621 83.5841 13.8078 83.422 13.9016C82.308 14.5423 81.2365 15.2457 80.2134 16.008C80.05 16.1228 79.8452 16.1734 79.6426 16.149C79.4401 16.1245 79.2557 16.0271 79.1285 15.8772C79.0014 15.7274 78.9415 15.537 78.9617 15.3464C78.9819 15.1559 79.0805 14.9802 79.2366 14.8568C80.31 14.058 81.4337 13.3205 82.6015 12.6482C82.6583 12.6155 82.7191 12.5893 82.7827 12.5704H82.7848ZM101.959 8.04814C102.047 8.02312 102.139 8.01285 102.231 8.01782C103.599 8.09032 104.961 8.24155 106.309 8.47065C106.413 8.48554 106.512 8.51973 106.601 8.57122C106.691 8.6227 106.768 8.69043 106.829 8.7704C106.89 8.85037 106.933 8.94095 106.955 9.0368C106.978 9.13265 106.98 9.23182 106.962 9.32844C106.943 9.42507 106.904 9.51719 106.846 9.59937C106.789 9.68155 106.715 9.75211 106.628 9.80689C106.541 9.86167 106.443 9.89956 106.34 9.91831C106.237 9.93706 106.132 9.9363 106.029 9.91606C104.742 9.69927 103.443 9.55548 102.138 9.48547C101.954 9.47582 101.779 9.40568 101.645 9.28735C101.511 9.16903 101.425 9.01011 101.403 8.83851C101.382 8.6669 101.425 8.4936 101.526 8.34905C101.627 8.2045 101.779 8.09796 101.956 8.04814H101.959ZM76.5142 17.2463C76.6811 17.199 76.86 17.2051 77.0227 17.2637C77.1854 17.3223 77.3227 17.43 77.4129 17.5698C77.5031 17.7097 77.5411 17.8737 77.5209 18.036C77.5007 18.1983 77.4234 18.3497 77.3013 18.4663C76.3843 19.339 75.5249 20.2632 74.7277 21.2338C74.5983 21.3817 74.4126 21.4765 74.2099 21.4983C74.0072 21.52 73.8035 21.4669 73.6418 21.3502C73.4802 21.2335 73.3734 21.0623 73.344 20.8731C73.3147 20.6838 73.3651 20.4912 73.4846 20.3362C74.3204 19.3193 75.2204 18.3502 76.18 17.4343C76.2728 17.3451 76.3881 17.2794 76.5153 17.2432L76.5142 17.2463ZM71.6247 23.1917C71.7761 23.1488 71.9377 23.1497 72.0885 23.1944C72.2393 23.2391 72.3722 23.3254 72.4697 23.4421C72.5672 23.5588 72.6249 23.7004 72.6352 23.8483C72.6454 23.9963 72.6078 24.1437 72.5271 24.2712C71.8598 25.3251 71.2607 26.4157 70.7331 27.537C70.6461 27.7111 70.4899 27.8463 70.2979 27.9137C70.1059 27.9812 69.8934 27.9756 69.7058 27.8981C69.5182 27.8206 69.3704 27.6773 69.294 27.499C69.2176 27.3206 69.2187 27.1213 69.297 26.9437C69.8505 25.7685 70.4784 24.6253 71.1773 23.5202C71.2772 23.3609 71.4373 23.2426 71.6258 23.1886L71.6247 23.1917ZM68.3902 30.065C68.5381 30.0225 68.6962 30.0225 68.8441 30.065C68.9427 30.093 69.0344 30.1389 69.1141 30.2001C69.1937 30.2613 69.2597 30.3367 69.3082 30.4218C69.3568 30.5069 69.387 30.6002 69.3971 30.6963C69.4072 30.7924 69.397 30.8894 69.367 30.9818C68.9878 32.1544 68.6854 33.3477 68.4614 34.5549C68.4258 34.747 68.3102 34.9179 68.1402 35.0301C67.9702 35.1423 67.7595 35.1866 67.5546 35.1533C67.3498 35.1199 67.1674 35.0116 67.0477 34.8522C66.928 34.6927 66.8808 34.4953 66.9164 34.3032C67.1514 33.037 67.4682 31.7854 67.8652 30.5552C67.9035 30.4376 67.9726 30.3309 68.0662 30.2447C68.1598 30.1586 68.2749 30.0957 68.401 30.062L68.3902 30.065Z" fill="#7D97F4"/>
<path d="M109.877 9.39146C110.027 9.34803 110.187 9.34803 110.336 9.39146C110.983 9.57846 111.615 9.78365 112.233 9.99793C112.422 10.0705 112.573 10.2094 112.655 10.3849C112.736 10.5605 112.742 10.759 112.67 10.9383C112.598 11.1175 112.454 11.2633 112.269 11.3448C112.084 11.4263 111.873 11.437 111.68 11.3746C111.091 11.1654 110.482 10.9703 109.871 10.7914C109.71 10.7449 109.57 10.6512 109.47 10.5242C109.371 10.3973 109.317 10.2437 109.318 10.0862C109.319 9.92862 109.374 9.77547 109.474 9.6493C109.575 9.52313 109.716 9.43061 109.877 9.3854V9.39146Z" fill="#7D97F4"/>
</g>
<path d="M112.183 18.6614C112.115 18.6179 112.033 18.5956 111.95 18.5976C111.868 18.5996 111.788 18.6258 111.722 18.6726L107.862 21.4017C105.722 20.6392 103.464 20.2087 101.177 20.1271L98.7589 16.2073C98.7175 16.1402 98.6549 16.087 98.5797 16.0549C98.5045 16.0228 98.4205 16.0135 98.3395 16.0284L92.6467 17.0624C92.5657 17.0772 92.4916 17.1153 92.4348 17.1715C92.3779 17.2277 92.3412 17.2991 92.3297 17.3757L91.657 21.8606C89.5691 22.7418 87.6488 23.9368 85.9718 25.3983L81.3012 24.2288C81.2214 24.2089 81.137 24.2128 81.0597 24.24C80.9824 24.2671 80.916 24.3163 80.8699 24.3804L77.6289 28.8885C77.5829 28.9528 77.5595 29.0289 77.5618 29.1063C77.5641 29.1836 77.5921 29.2584 77.6419 29.3201L80.5529 32.9397C79.7389 34.9454 79.2796 37.0622 79.1934 39.2066L75.0112 41.4748C74.9396 41.5135 74.8828 41.5723 74.8486 41.6427C74.8144 41.7132 74.8045 41.792 74.8203 41.868L75.9287 47.2029C75.9436 47.28 75.984 47.3508 76.0442 47.4052C76.1044 47.4596 76.1813 47.4949 76.264 47.5061L81.0467 48.1358C81.9872 50.0933 83.2618 51.8938 84.8203 53.4667L83.5729 57.8444C83.5519 57.9192 83.5562 57.9982 83.5852 58.0706C83.6142 58.1431 83.6664 58.2053 83.7346 58.2487L88.5422 61.2861C88.6108 61.3293 88.6921 61.3515 88.7748 61.3495C88.8574 61.3475 88.9374 61.3215 89.0036 61.275L92.8634 58.5459C95.003 59.3084 97.2608 59.7389 99.5481 59.8205L101.966 63.7403C102.008 63.8074 102.071 63.8607 102.146 63.8928C102.222 63.9249 102.306 63.9341 102.387 63.9192L108.077 62.8801C108.158 62.8652 108.232 62.827 108.289 62.7708C108.346 62.7147 108.383 62.6434 108.394 62.5668L109.067 58.0819C111.155 57.2001 113.076 56.0052 114.753 54.5442L119.423 55.7127C119.503 55.7331 119.587 55.7294 119.665 55.7022C119.742 55.675 119.808 55.6256 119.854 55.561L123.095 51.054C123.141 50.9895 123.165 50.9132 123.162 50.8357C123.16 50.7582 123.132 50.6833 123.082 50.6214L120.171 47.0028C120.984 44.9968 121.443 42.8802 121.531 40.7359L125.712 38.4677C125.783 38.429 125.84 38.3702 125.874 38.2997C125.909 38.2293 125.919 38.1505 125.903 38.0745L124.789 32.7406C124.774 32.6634 124.734 32.5926 124.674 32.5382C124.613 32.4837 124.537 32.4485 124.454 32.4374L119.671 31.8067C118.73 29.8497 117.456 28.0495 115.897 26.4768L117.144 22.0981C117.165 22.0233 117.161 21.9442 117.132 21.8717C117.103 21.7992 117.051 21.737 116.982 21.6938L112.183 18.6614Z" fill="#91B3FA"/>
<path d="M98.6564 34.6431C100.128 34.2286 101.714 34.3652 103.081 35.0242C104.448 35.6833 105.489 36.8134 105.985 38.177C106.481 39.5406 106.395 41.0315 105.743 42.3364C105.091 43.6412 103.925 44.6583 102.49 45.1739C101.055 45.6894 99.4622 45.6633 98.0472 45.101C96.6322 44.5387 95.5048 43.484 94.902 42.1586C94.2993 40.8332 94.2681 39.3403 94.815 37.9938C95.362 36.6473 96.4444 35.552 97.8349 34.9382C98.1007 34.8213 98.3753 34.7226 98.6564 34.6431ZM101.619 43.8887C101.824 43.8313 102.024 43.7593 102.218 43.6734C102.736 43.4447 103.202 43.1224 103.588 42.725C103.974 42.3277 104.272 41.8629 104.467 41.3573C104.661 40.8517 104.747 40.3152 104.72 39.7785C104.693 39.2417 104.554 38.7151 104.31 38.2288C104.066 37.7425 103.722 37.3061 103.298 36.9443C102.874 36.5826 102.379 36.3026 101.839 36.1205C101.3 35.9384 100.728 35.8576 100.155 35.8828C99.5826 35.908 99.021 36.0387 98.5023 36.2674C97.5065 36.708 96.7253 37.4852 96.315 38.4431C95.9048 39.401 95.8959 40.4689 96.2902 41.4327C96.6845 42.3965 97.4528 43.185 98.4411 43.6401C99.4294 44.0952 100.565 44.1833 101.619 43.8867V43.8887Z" fill="#BDD0FB"/>
<path d="M96.0159 26.8154C96.4958 26.6797 96.9827 26.5667 97.4747 26.4767C98.4622 26.2956 99.4668 26.2093 100.473 26.219H100.608C100.713 26.2179 100.817 26.2366 100.915 26.274C101.012 26.3114 101.1 26.3667 101.174 26.4367C101.248 26.5067 101.306 26.5899 101.345 26.6815C101.384 26.773 101.404 26.8709 101.401 26.9695C101.399 27.068 101.376 27.1652 101.333 27.2551C101.29 27.3451 101.229 27.4261 101.152 27.4933C101.075 27.5605 100.984 27.6125 100.885 27.6462C100.787 27.6799 100.682 27.6947 100.577 27.6897C99.6361 27.6721 98.6964 27.7487 97.7733 27.9181L97.6213 27.9464C95.4753 28.3554 93.4734 29.2633 91.7992 30.5866C90.8891 31.3062 90.0866 32.1375 89.4132 33.0579L89.397 33.0812L89.3463 33.1509C88.1325 34.8395 87.3817 36.7827 87.1603 38.8083C86.9389 40.8339 87.2539 42.8795 88.0772 44.7637C88.9006 46.6479 90.207 48.3127 91.8806 49.6105C93.5543 50.9084 95.5435 51.7992 97.6721 52.204C99.8007 52.6089 102.003 52.5154 104.084 51.9316C106.165 51.3479 108.06 50.2921 109.601 48.8577C111.143 47.4233 112.283 45.6545 112.921 43.7082C113.56 41.7619 113.676 39.698 113.26 37.6995C113.174 37.2864 113.066 36.8794 112.937 36.4784C112.377 34.7447 111.418 33.1476 110.126 31.8005C109.995 31.6544 109.93 31.4663 109.944 31.276C109.958 31.0856 110.051 30.9079 110.202 30.7804C110.354 30.6528 110.552 30.5853 110.755 30.5921C110.959 30.599 111.151 30.6796 111.292 30.817C112.765 32.3605 113.85 34.194 114.467 36.1826C115.084 38.1712 115.218 40.2642 114.858 42.3075C114.498 44.3508 113.653 46.2924 112.387 47.9892C111.12 49.6861 109.464 51.095 107.54 52.1123C105.616 53.1296 103.472 53.7293 101.268 53.8673C99.0641 54.0052 96.855 53.678 94.8036 52.9095C92.7523 52.1411 90.9109 50.9511 89.415 49.4271C87.9192 47.9032 86.807 46.0841 86.1604 44.1038C86.0136 43.649 85.8916 43.1874 85.7949 42.721C84.3372 35.69 88.8536 28.843 96.0159 26.8154Z" fill="#BDD0FB"/>
<path d="M273.996 408.178C199.83 322.419 108.293 300.09 108.293 300.09L110.615 321.317L264.745 422.37C269.899 419.779 272.831 415.036 274.464 411.702C274.743 411.132 274.847 410.5 274.764 409.878C274.682 409.255 274.415 408.667 273.996 408.178Z" fill="url(#paint1_linear_55_2177)"/>
<path d="M272.39 417.449C249.264 393.679 192.33 341.932 129.795 320.45C124.595 318.651 120.349 315.02 117.962 310.33L108.607 292.048C108.607 292.048 63.0101 282.03 34.9131 309.61C34.9131 309.61 36.6252 335.843 71.9125 345.433C104.852 354.385 202.46 390.735 260.031 431.465C261.352 432.399 263.184 432.444 264.492 431.493C269.068 428.164 271.936 424.013 273.156 421.082C273.402 420.469 273.46 419.805 273.325 419.163C273.19 418.521 272.866 417.927 272.39 417.449Z" fill="url(#paint2_linear_55_2177)"/>
<path d="M29.9569 309.259C29.9569 309.259 39.2593 313.075 55.2065 306.165C71.1537 299.255 114.515 298.565 114.515 298.565C114.515 298.565 100.468 249.276 131.69 214.014C131.69 214.014 156.832 258.134 174.502 264.718L182.416 265.058V233.584C182.416 233.584 175.705 194.728 133.252 165.713L120.033 154.544C120.033 154.544 73.5526 145.758 41.945 197.738C10.3375 249.719 29.9569 309.259 29.9569 309.259Z" fill="url(#paint3_linear_55_2177)"/>
<path d="M185.083 173.348C185.525 171.164 185.691 166.054 180.07 159.827C172.552 151.496 162.9 155.741 162.9 155.741C154.353 160.229 150.741 174.883 150.741 174.883L159.779 170.361C161.148 174.089 174.497 178.108 174.497 178.108L174.571 178.082C174.7 186.187 174.491 209.827 168.359 226.27C165.957 232.711 161.071 244.679 177.2 265.185L186.09 264.844C186.09 264.844 206.01 233.152 185.083 173.348Z" fill="url(#paint4_linear_55_2177)"/>
<path d="M139.899 125.299L115.148 158.066C114.369 159.099 113.994 160.352 114.088 161.613C114.181 162.875 114.737 164.068 115.661 164.989C118.996 168.325 124.62 173.029 130.682 174.102C131.601 174.27 132.552 174.178 133.414 173.837C134.276 173.497 135.011 172.924 135.525 172.191L148.689 153.247C148.689 153.247 151.209 123.487 139.899 125.299Z" fill="url(#paint5_linear_55_2177)"/>
<path d="M156.335 104.002C156.748 104.517 170.136 145.222 170.136 145.222L145.181 151.894L126.376 115.081C126.376 115.081 149.43 95.3747 156.335 104.002Z" fill="url(#paint6_linear_55_2177)"/>
<path d="M136.283 121.127L144.225 140.41C144.398 140.829 144.638 141.22 144.937 141.571C146.269 143.139 150.148 146.834 154.441 142.885C157.694 139.889 160.761 137.136 163.682 135.759C166.255 134.546 169.373 135.868 170.194 138.458C171.424 142.338 173.362 149.001 174.373 155.352C174.55 156.459 174.268 157.587 173.587 158.505C172.905 159.423 171.875 160.063 170.707 160.292C165.627 161.289 156.763 162.742 148.996 162.572C148.151 162.549 147.329 162.31 146.619 161.88C145.908 161.451 145.337 160.847 144.966 160.135C142.091 154.688 134.873 141.168 132.156 137.567C129.659 134.255 124.02 134.274 121.146 134.528C120.488 134.587 119.824 134.515 119.198 134.314C118.572 134.114 117.999 133.791 117.517 133.367C115.224 131.345 112.152 127.282 116.526 122.23C117.259 121.388 117.636 120.323 117.585 119.237C117.533 118.151 117.056 117.121 116.246 116.344C113.825 113.988 111.825 110.227 115.643 105.502C119.695 100.497 125.171 100.768 128.861 101.763C130.661 102.247 132.497 101.508 133.68 100.145C134.06 99.7044 134.605 99.4154 135.204 99.3367C137.46 98.9961 139.193 97.3697 139.258 95.2289C139.353 92.0652 140.811 88.3879 146.374 86.5948C157.257 83.0904 164.415 92.8495 165.324 100.254C166.233 107.657 154.202 110.827 147.062 110.521C142.113 110.309 138.463 114.564 136.689 117.192C136.298 117.773 136.057 118.431 135.987 119.114C135.917 119.798 136.018 120.487 136.283 121.127Z" fill="url(#paint7_linear_55_2177)"/>
<path d="M135.254 144.853C135.254 144.853 133.079 132.016 127.342 131.541C121.605 131.066 116.177 135.627 122.086 142.702C129.436 151.503 135.254 144.853 135.254 144.853Z" fill="url(#paint8_linear_55_2177)"/>
<path d="M73.1535 159.303C73.1535 159.303 23.2603 189.135 12.3363 223.767C1.41231 258.4 25.8587 265.217 49.1352 268.285L50.8862 241.838C50.8862 241.838 34.581 241.838 44.9821 227.384C55.3832 212.93 83.3347 203.29 83.3347 203.29C83.3347 203.29 154.157 140.646 73.1535 159.303Z" fill="url(#paint9_linear_55_2177)"/>
<path d="M50.8884 242.442C50.6027 242.442 43.8641 242.396 41.5924 238.39C40.042 235.656 41.0038 231.839 44.4517 227.047C54.8507 212.593 81.9666 203.121 83.1159 202.725C83.2697 202.691 83.4314 202.711 83.5705 202.781C83.7096 202.851 83.8165 202.967 83.871 203.106C83.9255 203.245 83.9239 203.398 83.8664 203.536C83.8089 203.674 83.6996 203.787 83.559 203.855C83.2808 203.951 55.6819 213.594 45.518 227.72C42.3569 232.113 41.421 235.511 42.7256 237.822C44.6318 241.19 50.8269 241.237 50.8895 241.237C51.0471 241.255 51.1924 241.325 51.298 241.436C51.4035 241.548 51.4618 241.691 51.4618 241.84C51.4618 241.989 51.4035 242.132 51.298 242.243C51.1924 242.354 51.0471 242.425 50.8895 242.442H50.8884Z" fill="url(#paint10_linear_55_2177)"/>
<path d="M49.1375 268.287C49.1375 268.287 41.848 256.993 51.448 243.499L115.881 253.5C115.881 253.5 146.725 248.608 148.199 248.707C149.674 248.806 169.805 260.432 169.805 260.432C169.805 260.432 169.129 261.781 164.339 261.532C159.548 261.283 162.692 262.075 162.692 262.075L162.519 264.343C162.519 264.343 159.184 265.06 156.509 262.392C153.834 259.725 146.4 258.433 146.4 258.433C146.4 258.433 130.596 269.381 115.072 264.084L49.1375 268.287Z" fill="url(#paint11_linear_55_2177)"/>
<path d="M142.887 458.84C142.367 458.839 141.853 458.735 141.378 458.537C139.437 457.735 138.539 455.573 139.374 453.709L219.638 274.531C220.473 272.667 222.722 271.802 224.666 272.611C226.61 273.42 227.504 275.574 226.669 277.438L146.405 456.617C146.118 457.271 145.631 457.832 145.005 458.228C144.379 458.623 143.642 458.836 142.887 458.84Z" fill="url(#paint12_linear_55_2177)"/>
<path d="M233.307 458.84C232.552 458.837 231.815 458.623 231.189 458.228C230.563 457.832 230.076 457.271 229.79 456.617L149.527 277.439C148.691 275.576 149.588 273.414 151.53 272.612C153.472 271.81 155.722 272.671 156.557 274.532L236.82 453.71C237.656 455.575 236.759 457.736 234.817 458.538C234.341 458.736 233.827 458.839 233.307 458.84Z" fill="url(#paint13_linear_55_2177)"/>
<path d="M292.677 269.184C292.793 268.073 292.635 266.924 292.246 266.051C291.856 265.178 291.275 264.673 290.659 264.673H82.6801C81.8726 264.673 81.1211 265.431 80.6855 266.685C80.2499 267.938 80.1928 269.515 80.5314 270.864L82.7847 279.853C83.3012 281.911 84.4192 283.229 85.6494 283.229H289.23C290.375 283.229 291.359 281.733 291.576 279.662L292.677 269.184Z" fill="url(#paint14_linear_55_2177)"/>
<path d="M202.72 52.7662C175.493 64.9521 157.604 90.3137 178.748 89.13C218.442 86.9063 191.65 107.633 212.527 107.021C233.404 106.408 265.717 102.237 286.861 81.6968C308.005 61.1567 287.453 56.2463 278.883 57.0418C250.666 59.6627 288.006 14.595 202.72 52.7662Z" fill="#BDD0FB"/>
<path d="M193.496 117.117C193.552 120.007 195.822 124.751 200.916 124.663C206.01 124.575 212.002 119.688 211.945 116.797C211.888 113.906 207.712 111.635 202.618 111.723C197.523 111.811 193.439 114.226 193.496 117.117Z" fill="#BDD0FB"/>
<path d="M185.848 128.766C185.876 130.165 187.189 131.278 188.782 131.25C190.374 131.221 193.525 129.733 193.495 128.335C193.465 126.938 191.493 125.537 189.901 125.564C188.308 125.591 185.821 127.366 185.848 128.766Z" fill="#BDD0FB"/>
<path d="M244.619 75.7261C244.577 75.2409 244.048 74.8164 243.154 74.4848C244.124 73.9794 244.663 73.4437 244.619 72.9151C244.481 71.317 239.08 70.4205 232.556 70.9137C226.032 71.407 220.855 73.1021 220.993 74.7011C221.034 75.1863 221.562 75.6108 222.457 75.9424C221.487 76.4478 220.948 76.9835 220.993 77.5121C221.034 77.9963 221.562 78.4158 222.457 78.7523C221.487 79.2577 220.948 79.7945 220.993 80.3221C221.034 80.8073 221.562 81.2318 222.457 81.5633C221.487 82.0687 220.948 82.6044 220.993 83.1331C221.053 83.8406 222.144 84.4097 223.904 84.7827C223.882 85.3585 223.897 85.935 223.949 86.5091C224.204 89.4555 227.739 91.7652 232.413 91.7652C237.087 91.7652 241.134 88.6156 241.181 85.6611C241.194 85.017 241.163 84.3728 241.089 83.7325C243.325 83.032 244.688 82.1769 244.617 81.347C244.575 80.8619 244.046 80.4373 243.151 80.1058C244.122 79.6004 244.661 79.0647 244.617 78.5361C244.575 78.0519 244.046 77.6324 243.151 77.2958C244.126 76.7925 244.664 76.2537 244.619 75.7261Z" fill="url(#paint15_linear_55_2177)"/>
<path d="M229.537 85.4184C227.597 85.4184 225.827 85.2849 224.362 85.0221C224.324 85.0125 224.291 84.9895 224.27 84.9579C224.248 84.9263 224.241 84.8884 224.248 84.8517C224.256 84.8151 224.278 84.7825 224.31 84.7605C224.342 84.7385 224.382 84.7287 224.422 84.733C226.714 85.1444 229.775 85.2384 233.041 84.9878C235.715 84.7856 238.217 84.3813 240.272 83.8193C240.312 83.8084 240.354 83.8129 240.391 83.8317C240.427 83.8504 240.454 83.882 240.466 83.9194C240.477 83.9568 240.473 83.9969 240.453 84.0311C240.433 84.0652 240.399 84.0905 240.359 84.1013C238.282 84.6694 235.761 85.0777 233.067 85.2809C231.851 85.3729 230.665 85.4184 229.537 85.4184Z" fill="url(#paint16_linear_55_2177)"/>
<path d="M229.57 82.6055C227.052 82.6055 224.803 82.3831 223.216 81.9596C223.195 81.9555 223.175 81.9473 223.157 81.9356C223.139 81.9239 223.125 81.9089 223.113 81.8915C223.102 81.8741 223.095 81.8548 223.092 81.8347C223.089 81.8145 223.091 81.7941 223.097 81.7746C223.103 81.755 223.113 81.7369 223.127 81.7212C223.14 81.7056 223.157 81.6927 223.177 81.6835C223.196 81.6743 223.217 81.669 223.239 81.6678C223.26 81.6666 223.282 81.6696 223.302 81.6766C225.566 82.2831 229.204 82.468 233.041 82.182C236.838 81.8949 240.378 81.1712 242.512 80.2504C242.531 80.2423 242.551 80.2377 242.571 80.2369C242.592 80.2362 242.613 80.2392 242.632 80.2459C242.651 80.2525 242.669 80.2627 242.684 80.2758C242.699 80.2889 242.711 80.3046 242.72 80.3221C242.729 80.3397 242.734 80.3586 242.734 80.3779C242.735 80.3972 242.732 80.4164 242.725 80.4345C242.718 80.4527 242.707 80.4693 242.693 80.4835C242.679 80.4976 242.662 80.5091 242.644 80.5172C240.477 81.4532 236.898 82.185 233.067 82.4741C231.872 82.561 230.694 82.6055 229.57 82.6055Z" fill="url(#paint17_linear_55_2177)"/>
<path d="M229.538 79.7961C226.819 79.7961 224.441 79.5353 222.84 79.04C222.8 79.0278 222.768 79.0014 222.749 78.9667C222.73 78.9319 222.727 78.8915 222.74 78.8545C222.753 78.8176 222.781 78.7869 222.818 78.7694C222.855 78.7519 222.898 78.7489 222.938 78.7611C225.166 79.4504 228.943 79.6708 233.041 79.3675C236.838 79.0805 240.373 78.3567 242.512 77.4359C242.55 77.4196 242.593 77.4179 242.632 77.4314C242.671 77.4449 242.703 77.4723 242.72 77.5077C242.738 77.5431 242.739 77.5835 242.725 77.6201C242.711 77.6567 242.681 77.6864 242.644 77.7028C240.478 78.6387 236.897 79.3706 233.067 79.6607C231.851 79.7516 230.665 79.7961 229.538 79.7961Z" fill="url(#paint18_linear_55_2177)"/>
<path d="M229.559 76.9843C227.403 76.9843 225.441 76.8206 223.917 76.5032C223.876 76.4948 223.841 76.4715 223.819 76.4387C223.796 76.4058 223.789 76.3659 223.798 76.3278C223.807 76.2898 223.831 76.2566 223.867 76.2357C223.902 76.2147 223.944 76.2077 223.985 76.2161C226.278 76.6942 229.578 76.8226 233.041 76.5558C236.804 76.2717 240.325 75.5571 242.463 74.6454C242.482 74.6373 242.502 74.6327 242.523 74.6319C242.544 74.6312 242.564 74.6343 242.583 74.641C242.603 74.6477 242.621 74.658 242.636 74.6711C242.651 74.6843 242.663 74.7002 242.671 74.7178C242.68 74.7354 242.685 74.7544 242.685 74.7737C242.686 74.793 242.683 74.8123 242.675 74.8303C242.668 74.8484 242.657 74.8649 242.643 74.879C242.629 74.8931 242.612 74.9044 242.593 74.9122C240.425 75.8381 236.863 76.5618 233.067 76.8489C231.867 76.9399 230.687 76.9843 229.559 76.9843Z" fill="url(#paint19_linear_55_2177)"/>
<path d="M216.613 61.5365C215.818 58.9052 214.474 56.4477 212.66 54.3064C208.778 49.7175 202.44 40.3849 201.662 27.647C200.528 9.12042 218.051 -0.155518 234.048 1.10392C250.046 2.36335 265.824 13.5244 264.096 30.7633C263.033 41.3684 256.702 49.4122 251.987 54.0315C249.005 56.9701 246.845 60.5557 245.702 64.4678C244.288 69.2569 240.921 75.2245 232.918 75.5864C222.564 76.0615 218.266 67.0129 216.613 61.5365Z" fill="url(#paint20_linear_55_2177)"/>
<path d="M235.563 71.897L241.16 37.7741C241.275 37.0665 241.645 36.5955 241.986 36.7168C242.327 36.8381 242.51 37.5072 242.393 38.2117C242.393 38.2309 242.387 38.2542 242.384 38.2724L236.009 72.078C235.961 72.3327 235.823 72.4924 235.701 72.4368C235.579 72.3812 235.523 72.1427 235.563 71.897Z" fill="url(#paint21_linear_55_2177)"/>
<path d="M229.754 72.168L224.158 38.0451C224.043 37.3375 223.673 36.8665 223.331 36.9878C222.99 37.1091 222.809 37.7782 222.924 38.4827L222.935 38.5434L229.309 72.352C229.357 72.6067 229.494 72.7664 229.617 72.7108C229.74 72.6552 229.795 72.4137 229.754 72.168Z" fill="url(#paint22_linear_55_2177)"/>
<path opacity="0.79" d="M241.123 34.8437C241.043 34.7372 240.926 34.6608 240.791 34.6282C240.657 34.5956 240.514 34.6089 240.389 34.6658L237.273 36.0303L236.195 33.1405C236.162 33.0594 236.111 32.9856 236.046 32.9242C235.98 32.8627 235.902 32.8148 235.815 32.7837C235.457 32.6452 235.028 32.7685 234.858 33.0606L234.853 33.0697L232.282 37.4495L229.91 31.2129V31.2028C229.845 31.0387 229.716 30.9033 229.55 30.8228C229.151 30.6206 228.625 30.7156 228.374 31.0401L224.781 35.6604C224.746 35.7057 224.722 35.7573 224.709 35.8119C224.697 35.8666 224.696 35.9231 224.708 35.9779C224.72 36.0327 224.744 36.0847 224.778 36.1304C224.812 36.1761 224.857 36.2147 224.908 36.2436C225.024 36.316 225.165 36.3478 225.304 36.3336C225.443 36.3194 225.572 36.26 225.67 36.1658L228.824 32.8676L231.665 38.7988C231.715 38.9013 231.804 38.9829 231.915 39.0283C232.041 39.0857 232.185 39.0991 232.321 39.0661C232.457 39.0332 232.576 38.956 232.657 38.8484L235.398 34.7254L236.43 36.8106L236.439 36.8288C236.446 36.8442 236.455 36.859 236.465 36.8733C236.544 36.9798 236.662 37.0563 236.797 37.089C236.931 37.1218 237.074 37.1088 237.199 37.0522L240.897 35.435C240.956 35.4139 241.011 35.3809 241.055 35.3384C241.1 35.2958 241.134 35.2446 241.156 35.1884C241.177 35.1321 241.186 35.0722 241.18 35.0127C241.174 34.9531 241.155 34.8955 241.123 34.8437Z" fill="white"/>
<path opacity="0.79" d="M252.109 49.4777C252.007 49.4787 251.908 49.4529 251.821 49.4032C251.735 49.3535 251.665 49.282 251.62 49.1968C251.575 49.1116 251.557 49.0163 251.567 48.9217C251.577 48.8271 251.615 48.7371 251.678 48.662C252.619 47.4723 253.487 46.2331 254.277 44.9504C254.351 44.8368 254.47 44.755 254.608 44.7222C254.746 44.6895 254.892 44.7085 255.015 44.7751C255.138 44.8418 255.228 44.9509 255.267 45.0791C255.306 45.2074 255.289 45.3447 255.222 45.4619C254.41 46.7783 253.518 48.0502 252.552 49.2715C252.501 49.3363 252.434 49.3887 252.357 49.4245C252.28 49.4604 252.195 49.4786 252.109 49.4777Z" fill="white"/>
<path opacity="0.79" d="M256.713 42.0719C256.622 42.0717 256.533 42.0504 256.454 42.01C256.374 41.9696 256.306 41.9113 256.257 41.8404C256.207 41.7695 256.177 41.6881 256.17 41.6036C256.162 41.5191 256.176 41.4342 256.212 41.3563C262.142 28.5467 257.025 17.7475 256.972 17.6403C256.912 17.517 256.906 17.3763 256.957 17.2491C257.007 17.1219 257.109 17.0187 257.241 16.9621C257.372 16.9055 257.522 16.9003 257.658 16.9475C257.794 16.9947 257.904 17.0905 257.964 17.2138C258.019 17.326 263.348 28.5204 257.21 41.7637C257.168 41.8548 257.098 41.9325 257.01 41.9872C256.922 42.042 256.818 42.0714 256.713 42.0719Z" fill="white"/>
<path d="M252.592 167.124C248.175 157.257 232.175 127.338 203.868 136.575C203.778 136.604 203.701 136.661 203.648 136.736C203.596 136.81 203.572 136.9 203.579 136.989C203.587 137.078 203.626 137.163 203.69 137.229C203.754 137.295 203.84 137.34 203.934 137.355C210.176 138.44 233.302 143.916 251.849 167.515C251.913 167.59 252.003 167.642 252.104 167.661C252.205 167.68 252.309 167.664 252.399 167.617C252.488 167.57 252.557 167.494 252.592 167.404C252.628 167.313 252.628 167.214 252.592 167.124Z" fill="#91B3FA"/>
<path d="M252.349 167.74C245.988 162.117 227.038 140.364 201.875 150.305C201.816 150.329 201.766 150.37 201.734 150.422C201.703 150.474 201.69 150.535 201.699 150.595C201.708 150.654 201.738 150.71 201.783 150.752C201.829 150.794 201.889 150.821 201.952 150.828C208.171 151.444 239.048 155.111 252.228 168.213C252.578 168.565 252.72 168.073 252.349 167.74Z" fill="#91B3FA"/>
<path d="M251.752 165.271C251.147 157.833 247.602 129.748 228.309 123.955C228.278 123.946 228.245 123.946 228.214 123.955C228.183 123.964 228.156 123.982 228.136 124.007C228.117 124.031 228.106 124.061 228.106 124.091C228.105 124.122 228.115 124.152 228.133 124.177C230.457 127.25 247.371 149.959 251.45 165.316C251.458 165.351 251.481 165.383 251.513 165.403C251.545 165.424 251.585 165.432 251.623 165.426C251.662 165.421 251.696 165.401 251.72 165.373C251.744 165.344 251.755 165.307 251.752 165.271Z" fill="#91B3FA"/>
<path d="M253.672 173.795C253.707 173.813 253.748 173.818 253.787 173.81C253.826 173.802 253.861 173.781 253.885 173.751C253.909 173.721 253.92 173.684 253.918 173.647C253.915 173.609 253.898 173.574 253.87 173.547C250.462 170.364 236.351 158.668 218.436 164.428C198.14 170.953 233.677 163.626 253.672 173.795Z" fill="#91B3FA"/>
<path d="M253.199 167.972C253.158 168.529 252.315 168.595 252.183 168.051C250.043 159.229 245.507 134.897 258.708 128.713C274.337 121.384 255.326 139.12 253.199 167.972Z" fill="#91B3FA"/>
<path d="M252.292 167.905C254.51 162.488 263.059 145.668 280.85 154.756C280.918 154.788 280.973 154.84 281.005 154.904C281.038 154.968 281.047 155.04 281.031 155.11C281.015 155.179 280.975 155.242 280.917 155.287C280.859 155.333 280.787 155.359 280.711 155.362C276.709 155.599 263.399 157.218 252.866 168.231C252.813 168.288 252.741 168.327 252.661 168.339C252.582 168.351 252.5 168.336 252.431 168.297C252.362 168.258 252.31 168.197 252.285 168.125C252.259 168.053 252.262 167.975 252.292 167.905Z" fill="#91B3FA"/>
<path d="M252.767 169.265C253.586 165.92 257.842 159.211 279.498 165.356C279.527 165.361 279.552 165.376 279.569 165.399C279.586 165.421 279.592 165.449 279.587 165.475C279.582 165.502 279.565 165.526 279.541 165.541C279.518 165.557 279.488 165.563 279.46 165.558C275.204 165.144 260.823 164.228 253.775 169.839C253.676 169.916 253.552 169.963 253.423 169.972C253.294 169.98 253.164 169.951 253.054 169.888C252.943 169.825 252.856 169.731 252.804 169.619C252.753 169.508 252.74 169.384 252.767 169.265Z" fill="#91B3FA"/>
<path d="M259.005 260.825L259.012 260.14V259.404L259 257.93L258.98 254.981L258.888 249.082C258.832 245.151 258.749 241.22 258.661 237.29C258.47 229.431 258.229 221.574 257.847 213.726C257.464 205.878 256.954 198.038 256.149 190.227C255.736 186.324 255.237 182.429 254.567 178.562C253.896 174.695 253.057 170.848 251.682 167.154L252.055 167.011C252.887 168.831 253.582 170.704 254.134 172.616L254.557 174.046C254.691 174.525 254.804 175.007 254.929 175.487L255.295 176.931L255.618 178.38C256.455 182.253 257.102 186.163 257.609 190.076C258.117 193.988 258.514 197.919 258.857 201.848C259.18 205.779 259.416 209.714 259.626 213.65C259.807 217.586 259.946 221.524 260.042 225.462C260.108 229.404 260.172 233.338 260.15 237.276C260.144 241.214 260.086 245.152 259.976 249.088L259.753 254.992L259.615 257.943L259.52 259.418L259.467 260.157C259.444 260.406 259.438 260.635 259.386 260.945L259.005 260.825Z" fill="#91B3FA"/>
<path d="M266.326 191.293C269.285 184.683 280.004 164.639 298.966 170.83C299.026 170.849 299.078 170.887 299.113 170.938C299.148 170.988 299.164 171.047 299.159 171.107C299.154 171.167 299.128 171.223 299.085 171.268C299.042 171.312 298.985 171.342 298.922 171.352C294.741 172.078 279.248 175.747 266.824 191.556C266.783 191.61 266.721 191.648 266.652 191.663C266.583 191.678 266.51 191.668 266.448 191.635C266.387 191.602 266.34 191.549 266.317 191.486C266.295 191.423 266.298 191.354 266.326 191.293Z" fill="#91B3FA"/>
<path d="M266.488 191.706C270.751 187.94 283.445 173.368 300.301 180.027C300.341 180.042 300.374 180.07 300.395 180.105C300.417 180.14 300.425 180.181 300.419 180.221C300.413 180.261 300.393 180.298 300.363 180.326C300.332 180.355 300.292 180.373 300.249 180.378C296.083 180.79 275.399 183.246 266.57 192.027C266.335 192.259 266.245 191.928 266.488 191.706Z" fill="#91B3FA"/>
<path d="M266.892 190.053C267.296 185.069 269.671 166.256 282.595 162.375C282.615 162.371 282.636 162.373 282.656 162.379C282.675 162.386 282.692 162.398 282.705 162.414C282.717 162.429 282.724 162.448 282.726 162.467C282.727 162.487 282.723 162.506 282.713 162.523C281.156 164.582 269.825 179.795 267.093 190.083C267.083 190.102 267.066 190.117 267.046 190.126C267.026 190.136 267.003 190.139 266.981 190.136C266.959 190.132 266.938 190.122 266.922 190.108C266.906 190.093 266.895 190.073 266.892 190.053Z" fill="#91B3FA"/>
<path d="M265.603 195.763C265.58 195.779 265.55 195.787 265.521 195.783C265.492 195.779 265.466 195.764 265.448 195.742C265.43 195.72 265.423 195.693 265.427 195.665C265.431 195.638 265.446 195.614 265.47 195.597C267.753 193.465 277.205 185.63 289.206 189.488C302.803 193.858 278.997 188.95 265.603 195.763Z" fill="#91B3FA"/>
<path d="M265.921 191.859C265.927 191.936 265.961 192.009 266.019 192.065C266.077 192.12 266.155 192.154 266.237 192.16C266.32 192.167 266.402 192.145 266.469 192.099C266.536 192.054 266.583 191.987 266.602 191.911C268.036 186.001 271.074 169.704 262.231 165.559C251.76 160.653 264.495 172.534 265.921 191.859Z" fill="#91B3FA"/>
<path d="M266.527 191.818C265.041 188.188 259.314 176.921 247.396 183.009C247.352 183.031 247.317 183.066 247.297 183.108C247.276 183.15 247.27 183.198 247.281 183.243C247.291 183.289 247.317 183.33 247.355 183.361C247.392 183.391 247.439 183.41 247.489 183.413C250.17 183.571 259.086 184.655 266.141 192.033C266.176 192.072 266.224 192.098 266.277 192.106C266.331 192.115 266.385 192.105 266.432 192.079C266.478 192.053 266.513 192.013 266.531 191.965C266.548 191.917 266.547 191.865 266.527 191.818Z" fill="#91B3FA"/>
<path d="M266.206 192.728C265.657 190.487 262.806 185.992 248.298 190.109C248.281 190.114 248.265 190.125 248.256 190.14C248.246 190.155 248.242 190.172 248.246 190.189C248.249 190.206 248.259 190.222 248.273 190.233C248.288 190.243 248.306 190.249 248.324 190.248C251.176 189.97 260.808 189.356 265.53 193.114C265.597 193.167 265.68 193.198 265.767 193.204C265.854 193.21 265.94 193.19 266.015 193.148C266.089 193.105 266.148 193.042 266.182 192.967C266.216 192.891 266.225 192.808 266.206 192.728Z" fill="#91B3FA"/>
<path d="M263.411 260.945C263.368 260.696 263.367 260.529 263.35 260.338L263.312 259.785L263.245 258.682C263.201 257.947 263.173 257.211 263.143 256.475L262.987 252.06C262.88 249.116 262.88 246.171 262.856 243.227C262.832 240.282 262.843 237.336 262.904 234.39C262.966 231.445 263.046 228.5 263.18 225.555C263.315 222.611 263.488 219.666 263.709 216.725C263.951 213.784 264.229 210.844 264.618 207.913L264.921 205.716L265.277 203.524C265.53 202.066 265.795 200.608 266.133 199.161C266.288 198.436 266.463 197.714 266.659 196.995C266.757 196.636 266.846 196.276 266.951 195.918L267.281 194.85C267.712 193.42 268.252 192.022 268.898 190.666L269.272 190.809C268.784 192.195 268.376 193.606 268.05 195.034L267.807 196.104C267.732 196.463 267.671 196.825 267.602 197.185L267.393 198.262L267.211 199.347C267.09 200.069 266.969 200.791 266.873 201.518C266.777 202.245 266.65 202.965 266.568 203.695C266.381 205.148 266.218 206.605 266.055 208.063C265.456 213.898 265.022 219.754 264.714 225.621C264.405 231.487 264.2 237.361 264.04 243.238C263.956 246.176 263.932 249.115 263.867 252.055L263.81 256.465L263.795 258.67V259.772L263.801 260.821L263.411 260.945Z" fill="#91B3FA"/>
<path d="M245.285 203.521C241.504 197.736 228.573 180.464 213.812 189.205C213.597 189.333 213.697 189.688 213.951 189.691C217.617 189.737 231.373 190.829 244.917 203.842C245.137 204.056 245.453 203.778 245.285 203.521Z" fill="#91B3FA"/>
<path d="M245.229 203.936C240.905 201.034 227.375 189.225 214.482 198.088C214.34 198.189 214.421 198.421 214.589 198.41C218.178 198.162 236.072 197.316 245.219 204.25C245.465 204.434 245.481 204.105 245.229 203.936Z" fill="#91B3FA"/>
<path d="M244.573 202.44C243.261 197.8 237.592 180.413 225.953 178.728C225.933 178.727 225.914 178.732 225.897 178.742C225.88 178.752 225.867 178.766 225.86 178.784C225.852 178.801 225.85 178.82 225.854 178.838C225.859 178.856 225.869 178.873 225.883 178.885C227.595 180.589 240.102 193.21 244.409 202.499C244.413 202.51 244.418 202.521 244.426 202.53C244.434 202.539 244.444 202.546 244.455 202.552C244.466 202.557 244.478 202.56 244.49 202.56C244.503 202.561 244.515 202.559 244.527 202.555C244.538 202.551 244.549 202.544 244.558 202.536C244.566 202.528 244.573 202.518 244.577 202.507C244.582 202.496 244.584 202.484 244.583 202.473C244.582 202.461 244.579 202.45 244.573 202.44Z" fill="#91B3FA"/>
<path d="M246.765 207.627C246.873 207.664 246.939 207.517 246.845 207.451C244.508 205.788 235.02 199.841 225.668 205.317C215.073 211.52 234.159 203.248 246.765 207.627Z" fill="#91B3FA"/>
<path d="M245.74 203.992C245.79 204.348 245.323 204.476 245.177 204.146C242.818 198.788 237.081 183.877 243.72 178.613C251.575 172.383 243.172 185.541 245.74 203.992Z" fill="#91B3FA"/>
<path d="M245.22 204.046C245.759 200.395 248.388 188.884 259.611 192.809C259.8 192.875 259.8 193.156 259.611 193.203C257.384 193.763 250.088 196.15 245.586 204.19C245.476 204.383 245.185 204.269 245.22 204.046Z" fill="#91B3FA"/>
<path d="M245.667 204.856C245.69 202.658 247.215 197.983 260.234 199.647C260.311 199.657 260.316 199.775 260.234 199.781C257.78 199.955 249.549 200.85 246.306 205.118C246.102 205.392 245.662 205.213 245.667 204.856Z" fill="#91B3FA"/>
<path d="M261.058 262.089L260.69 260.27L260.298 258.41L259.495 254.697L257.835 247.276C257.27 244.805 256.687 242.337 256.085 239.873C255.501 237.407 254.895 234.945 254.269 232.488C253.01 227.576 251.637 222.695 250.152 217.845L249.586 216.031L248.996 214.223C248.602 213.02 248.202 211.817 247.757 210.63C246.867 208.258 245.942 205.891 244.699 203.667L245.046 203.472C245.781 204.546 246.44 205.665 247.019 206.821C247.315 207.395 247.609 207.97 247.865 208.559C248.12 209.148 248.392 209.732 248.634 210.327C249.628 212.693 250.518 215.092 251.304 217.524C252.894 222.375 254.19 227.3 255.421 232.232C256.03 234.701 256.618 237.173 257.185 239.649C257.728 242.129 258.254 244.613 258.763 247.099C259.27 249.586 259.768 252.074 260.212 254.572L260.874 258.318L261.186 260.195L261.331 261.135L261.4 261.607C261.421 261.768 261.449 261.91 261.461 262.125L261.058 262.089Z" fill="#91B3FA"/>
<path d="M251.683 237.489H268.922C270.052 237.489 270.888 239.086 270.634 240.758C269.531 248.015 268.209 255.378 265.504 262.852C265.005 264.233 264.054 265.098 263.017 265.098H257.391C256.37 265.098 255.432 264.246 254.948 262.88C252.782 256.765 250.696 249.475 249.665 241.202C249.425 239.276 250.396 237.489 251.683 237.489Z" fill="url(#paint23_linear_55_2177)"/>
<defs>
<linearGradient id="paint0_linear_55_2177" x1="337.303" y1="364.161" x2="94.7484" y2="42.84" gradientUnits="userSpaceOnUse">
<stop stop-color="#DAE3FE"/>
<stop offset="1" stop-color="#E9EFFD"/>
</linearGradient>
<linearGradient id="paint1_linear_55_2177" x1="235.026" y1="294.192" x2="183.937" y2="376.835" gradientUnits="userSpaceOnUse">
<stop stop-color="#CB236D"/>
<stop offset="1" stop-color="#4C246D"/>
</linearGradient>
<linearGradient id="paint2_linear_55_2177" x1="258.242" y1="337.825" x2="98.4127" y2="385.735" gradientUnits="userSpaceOnUse">
<stop stop-color="#CB236D"/>
<stop offset="1" stop-color="#4C246D"/>
</linearGradient>
<linearGradient id="paint3_linear_55_2177" x1="42.3742" y1="285.516" x2="156.16" y2="178.037" gradientUnits="userSpaceOnUse">
<stop stop-color="#4F52FF"/>
<stop offset="1" stop-color="#4042E2"/>
</linearGradient>
<linearGradient id="paint4_linear_55_2177" x1="150.741" y1="209.925" x2="194.652" y2="209.925" gradientUnits="userSpaceOnUse">
<stop stop-color="#FEBBBA"/>
<stop offset="1" stop-color="#FF928E"/>
</linearGradient>
<linearGradient id="paint5_linear_55_2177" x1="103.414" y1="167.634" x2="152.742" y2="137.153" gradientUnits="userSpaceOnUse">
<stop stop-color="#FEBBBA"/>
<stop offset="1" stop-color="#FF928E"/>
</linearGradient>
<linearGradient id="paint6_linear_55_2177" x1="148.278" y1="109.978" x2="147.992" y2="191.014" gradientUnits="userSpaceOnUse">
<stop stop-color="#FEBBBA"/>
<stop offset="1" stop-color="#FF928E"/>
</linearGradient>
<linearGradient id="paint7_linear_55_2177" x1="126.281" y1="144.682" x2="173.737" y2="106.717" gradientUnits="userSpaceOnUse">
<stop stop-color="#09005D"/>
<stop offset="1" stop-color="#1A0F91"/>
</linearGradient>
<linearGradient id="paint8_linear_55_2177" x1="119.97" y1="193.876" x2="126.76" y2="138.077" gradientUnits="userSpaceOnUse">
<stop stop-color="#FEBBBA"/>
<stop offset="1" stop-color="#FF928E"/>
</linearGradient>
<linearGradient id="paint9_linear_55_2177" x1="11.96" y1="253.317" x2="125.746" y2="145.839" gradientUnits="userSpaceOnUse">
<stop stop-color="#4F52FF"/>
<stop offset="1" stop-color="#4042E2"/>
</linearGradient>
<linearGradient id="paint10_linear_55_2177" x1="74.1369" y1="-47.7997" x2="66.4682" y2="151.247" gradientUnits="userSpaceOnUse">
<stop stop-color="#09005D"/>
<stop offset="1" stop-color="#1A0F91"/>
</linearGradient>
<linearGradient id="paint11_linear_55_2177" x1="106.702" y1="271.857" x2="108.421" y2="245.661" gradientUnits="userSpaceOnUse">
<stop stop-color="#FEBBBA"/>
<stop offset="1" stop-color="#FF928E"/>
</linearGradient>
<linearGradient id="paint12_linear_55_2177" x1="139.061" y1="365.576" x2="226.98" y2="365.576" gradientUnits="userSpaceOnUse">
<stop stop-color="#9CFFFB"/>
<stop offset="1" stop-color="#9BFFFA"/>
</linearGradient>
<linearGradient id="paint13_linear_55_2177" x1="149.214" y1="365.576" x2="237.133" y2="365.576" gradientUnits="userSpaceOnUse">
<stop stop-color="#9CFFFB"/>
<stop offset="1" stop-color="#9BFFFA"/>
</linearGradient>
<linearGradient id="paint14_linear_55_2177" x1="47.0532" y1="427.944" x2="279.113" y2="135.236" gradientUnits="userSpaceOnUse">
<stop stop-color="#09005D"/>
<stop offset="1" stop-color="#1A0F91"/>
</linearGradient>
<linearGradient id="paint15_linear_55_2177" x1="245.717" y1="68.2119" x2="287.509" y2="27.0267" gradientUnits="userSpaceOnUse">
<stop stop-color="#09005D"/>
<stop offset="1" stop-color="#1A0F91"/>
</linearGradient>
<linearGradient id="paint16_linear_55_2177" x1="220.31" y1="110.243" x2="277" y2="-28.0692" gradientUnits="userSpaceOnUse">
<stop stop-color="#4F52FF"/>
<stop offset="1" stop-color="#4042E2"/>
</linearGradient>
<linearGradient id="paint17_linear_55_2177" x1="219.486" y1="109.905" x2="276.173" y2="-28.4061" gradientUnits="userSpaceOnUse">
<stop stop-color="#4F52FF"/>
<stop offset="1" stop-color="#4042E2"/>
</linearGradient>
<linearGradient id="paint18_linear_55_2177" x1="218.209" y1="109.381" x2="274.897" y2="-28.9305" gradientUnits="userSpaceOnUse">
<stop stop-color="#4F52FF"/>
<stop offset="1" stop-color="#4042E2"/>
</linearGradient>
<linearGradient id="paint19_linear_55_2177" x1="217.59" y1="109.128" x2="274.279" y2="-29.1828" gradientUnits="userSpaceOnUse">
<stop stop-color="#4F52FF"/>
<stop offset="1" stop-color="#4042E2"/>
</linearGradient>
<linearGradient id="paint20_linear_55_2177" x1="233.312" y1="19.5163" x2="229.957" y2="92.6271" gradientUnits="userSpaceOnUse">
<stop stop-color="#FF928E"/>
<stop offset="1" stop-color="#FE7062"/>
</linearGradient>
<linearGradient id="paint21_linear_55_2177" x1="306.081" y1="-0.687186" x2="219.142" y2="80.5236" gradientUnits="userSpaceOnUse">
<stop stop-color="#E1473D"/>
<stop offset="1" stop-color="#E9605A"/>
</linearGradient>
<linearGradient id="paint22_linear_55_2177" x1="300.882" y1="-6.25245" x2="213.943" y2="74.9583" gradientUnits="userSpaceOnUse">
<stop stop-color="#E1473D"/>
<stop offset="1" stop-color="#E9605A"/>
</linearGradient>
<linearGradient id="paint23_linear_55_2177" x1="269.27" y1="286.105" x2="263.621" y2="254.337" gradientUnits="userSpaceOnUse">
<stop stop-color="#4F52FF"/>
<stop offset="1" stop-color="#4042E2"/>
</linearGradient>
</defs>
</svg>
