<svg width="126" height="126" viewBox="0 0 126 126" fill="none" xmlns="http://www.w3.org/2000/svg">
<circle cx="63" cy="63" r="63" fill="url(#paint0_linear_30_455)"/>
<path d="M38.4151 52.384C36.6445 52.384 35.1298 52.0427 33.8711 51.36C32.6125 50.656 31.6631 49.76 31.0231 48.672L33.6791 45.12C35.1085 46.7627 36.5805 47.584 38.0951 47.584C39.0125 47.584 39.7058 47.3813 40.1751 46.976C40.6658 46.5493 40.9111 46.0267 40.9111 45.408C40.9111 43.7653 39.6418 42.944 37.1031 42.944H35.6951V38.144H36.9751C37.8711 38.144 38.6071 37.952 39.1831 37.568C39.7591 37.184 40.0471 36.6293 40.0471 35.904C40.0471 35.3707 39.8765 34.9227 39.5351 34.56C39.2151 34.1973 38.7031 34.016 37.9991 34.016C36.5058 34.016 35.2151 34.688 34.1271 36.032L31.5031 32.576C32.8898 30.336 35.2045 29.216 38.4471 29.216C40.4311 29.216 42.0418 29.7387 43.2791 30.784C44.5378 31.808 45.1671 33.1947 45.1671 34.944C45.1671 36.2453 44.8898 37.3227 44.3351 38.176C43.8018 39.008 42.9698 39.68 41.8391 40.192V40.288C43.1831 40.544 44.2178 41.152 44.9431 42.112C45.6685 43.072 46.0311 44.2347 46.0311 45.6C46.0311 47.6693 45.3058 49.3227 43.8551 50.56C42.4258 51.776 40.6125 52.384 38.4151 52.384ZM48.6006 40.8C48.6006 37.216 49.2513 34.4107 50.5526 32.384C51.8753 30.3573 53.806 29.344 56.3446 29.344C58.8833 29.344 60.8033 30.3573 62.1046 32.384C63.4273 34.4107 64.0886 37.216 64.0886 40.8C64.0886 44.384 63.438 47.1893 62.1366 49.216C60.8566 51.2427 58.9473 52.256 56.4086 52.256C53.8486 52.256 51.9073 51.2427 50.5846 49.216C49.262 47.168 48.6006 44.3627 48.6006 40.8ZM53.7206 40.8C53.7206 45.4507 54.6166 47.776 56.4086 47.776C57.326 47.776 57.9766 47.264 58.3606 46.24C58.766 45.1947 58.9686 43.3813 58.9686 40.8C58.9686 38.2187 58.766 36.416 58.3606 35.392C57.9553 34.3467 57.2833 33.824 56.3446 33.824C55.4273 33.824 54.7553 34.3573 54.3286 35.424C53.9233 36.4907 53.7206 38.2827 53.7206 40.8ZM70.8069 50.496L86.7109 29.216L89.3989 31.232L73.5589 52.384L70.8069 50.496ZM67.8949 39.552C66.6362 38.4427 66.0069 36.9813 66.0069 35.168C66.0069 33.3547 66.6362 31.9147 67.8949 30.848C69.1535 29.76 70.7749 29.216 72.7589 29.216C74.7429 29.216 76.3642 29.76 77.6229 30.848C78.8815 31.9147 79.5109 33.3547 79.5109 35.168C79.5109 36.9813 78.8815 38.4427 77.6229 39.552C76.3642 40.64 74.7429 41.184 72.7589 41.184C70.7749 41.184 69.1535 40.64 67.8949 39.552ZM70.4869 35.168C70.4869 35.8507 70.7002 36.384 71.1269 36.768C71.5535 37.152 72.0975 37.344 72.7589 37.344C73.4629 37.344 74.0175 37.152 74.4229 36.768C74.8282 36.384 75.0309 35.8507 75.0309 35.168C75.0309 34.528 74.8175 34.016 74.3909 33.632C73.9855 33.248 73.4415 33.056 72.7589 33.056C72.0762 33.056 71.5215 33.248 71.0949 33.632C70.6895 34.016 70.4869 34.528 70.4869 35.168ZM82.7109 50.752C81.4522 49.6427 80.8229 48.1813 80.8229 46.368C80.8229 44.5547 81.4522 43.1147 82.7109 42.048C83.9695 40.96 85.5909 40.416 87.5749 40.416C89.5589 40.416 91.1802 40.96 92.4389 42.048C93.6975 43.1147 94.3269 44.5547 94.3269 46.368C94.3269 48.1813 93.6975 49.6427 92.4389 50.752C91.1802 51.84 89.5589 52.384 87.5749 52.384C85.5909 52.384 83.9695 51.84 82.7109 50.752ZM85.3029 46.368C85.3029 47.0507 85.5162 47.584 85.9429 47.968C86.3695 48.352 86.9135 48.544 87.5749 48.544C88.2789 48.544 88.8335 48.352 89.2389 47.968C89.6442 47.584 89.8469 47.0507 89.8469 46.368C89.8469 45.728 89.6335 45.216 89.2069 44.832C88.8015 44.448 88.2575 44.256 87.5749 44.256C86.8922 44.256 86.3375 44.448 85.9109 44.832C85.5055 45.216 85.3029 45.728 85.3029 46.368Z" fill="#589BFF"/>
<path d="M24.1117 61.448C23.2157 60.712 22.2077 60.344 21.0237 60.344C18.4637 60.344 16.3997 62.296 16.3997 64.952C16.3997 67.736 18.5757 69.208 20.8317 69.208C22.7837 69.208 24.2237 68.072 24.2237 68.072L23.8717 67.032C23.8717 67.032 22.3837 68.072 21.0557 68.072C19.4717 68.072 17.8557 66.856 17.8557 64.824C17.8557 63.08 19.1197 61.416 20.9597 61.416C21.9037 61.416 22.7037 61.768 23.3757 62.392L24.1117 61.448ZM27.9251 64.088V60.504H26.3731L26.5651 61.704V69H28.0691L27.9251 68.024V65.208H28.9811L31.6531 69H33.3171L30.0851 64.6L31.5091 62.392C31.9571 61.704 32.3411 61.464 32.6771 61.464C32.8531 61.464 33.0451 61.48 33.1571 61.496L33.0291 60.424C32.9171 60.392 32.6931 60.344 32.4531 60.344C31.7811 60.344 31.0451 60.68 30.3251 61.864L28.9811 64.088H27.9251ZM41.7147 62.296V69H43.2187L43.0747 68.024V60.504H41.8107L37.0747 66.536L36.6907 67.208V60.504H35.1387L35.3307 61.704V69H36.5947L41.3307 62.968L41.7147 62.296ZM44.9967 71.08H46.3087V69H52.5967V71.08H53.9087V67.896H52.8207V60.504H46.8367L47.0287 61.704L47.0127 62.52C46.9647 64.728 46.8527 66.344 45.9087 67.896H44.9967V71.08ZM48.3727 62.52V61.624H51.4607V67.896H47.4127C48.2127 66.344 48.3727 64.728 48.3727 62.52ZM57.7219 64.088V60.504H56.1699L56.3619 61.704V69H57.8659L57.7219 68.024V65.208H58.7779L61.4499 69H63.1139L59.8819 64.6L61.3059 62.392C61.7539 61.704 62.1379 61.464 62.4739 61.464C62.6499 61.464 62.8419 61.48 62.9539 61.496L62.8259 60.424C62.7139 60.392 62.4899 60.344 62.2499 60.344C61.5779 60.344 60.8419 60.68 60.1219 61.864L58.7779 64.088H57.7219ZM63.3196 69H64.5996L65.5436 66.792H69.0316L69.9436 69H71.5436L70.7756 67.496L67.8476 60.328L67.0316 60.504L63.3196 69ZM67.1756 62.936L67.3516 62.456L67.4956 62.936L68.6156 65.704H65.9756L67.1756 62.936ZM89.1216 60.504H81.1856L81.3936 61.752V69H82.9136L82.7536 67.96V61.656H87.7616V69H89.2816L89.1216 67.96V60.504ZM92.4824 60.504L92.6904 61.752V69H94.2104L94.0504 67.96V65.896H94.7224C96.8024 65.896 98.3544 64.584 98.3544 63.096C98.3544 61.32 96.8024 60.504 95.2024 60.504H92.4824ZM94.0504 64.824V61.576H94.9464C96.0024 61.576 96.9144 62.088 96.9144 63.096C96.9144 64.168 96.0024 64.824 94.9464 64.824H94.0504ZM107.23 62.296V69H108.734L108.59 68.024V60.504H107.326L102.59 66.536L102.206 67.208V60.504H100.654L100.846 61.704V69H102.11L106.846 62.968L107.23 62.296ZM31.0255 77.344C28.5455 77.344 26.6735 79.344 26.6735 81.856C26.6735 84.256 28.1935 86.208 30.8495 86.208C33.3295 86.208 35.2175 84.208 35.2175 81.696C35.2175 79.2 33.8255 77.344 31.0255 77.344ZM28.1615 81.776C28.1615 79.904 29.2815 78.384 30.9615 78.384C32.6415 78.384 33.7455 79.904 33.7455 81.776C33.7455 83.648 32.6415 85.168 30.9615 85.168C29.2815 85.168 28.1615 83.648 28.1615 81.776ZM45.4575 77.504H37.5215L37.7295 78.752V86H39.2495L39.0895 84.96V78.656H44.0975V86H45.6175L45.4575 84.96V77.504ZM50.9144 78.624H54.0344V86H55.5384L55.3944 85.024V77.504H49.3624L49.5544 78.704L49.4744 80.032C49.2824 83.52 49.1544 85.072 48.0504 85.072C47.8424 85.072 47.6504 85.056 47.4744 85.008L47.6024 86.08C47.8104 86.128 48.0824 86.176 48.3064 86.176C50.5144 86.176 50.6744 83.536 50.8344 80.032L50.9144 78.624ZM57.093 86H58.373L59.317 83.792H62.805L63.717 86H65.317L64.549 84.496L61.621 77.328L60.805 77.504L57.093 86ZM60.949 79.936L61.125 79.456L61.269 79.936L62.389 82.704H59.749L60.949 79.936ZM64.8144 78.592H67.8384V86H69.3584L69.1984 84.96V78.592H72.3184V77.504H64.8144V78.592ZM74.1826 86H78.8386L79.1746 84.928H75.5426V82.176H78.2466L78.5826 81.104H75.5426V78.576H78.9826V77.504H73.9746L74.1826 78.752V86ZM86.538 80.976V82.016H87.594C88.858 82.016 89.578 82.416 89.578 83.584C89.578 84.192 89.146 85.12 87.786 85.12C86.314 85.12 85.21 84.144 85.21 84.144L84.89 85.152C84.89 85.152 86.106 86.176 87.786 86.176C90.058 86.176 91.018 84.896 91.018 83.584C91.018 82.72 90.586 81.872 89.578 81.392C90.25 80.912 90.762 80.272 90.762 79.6C90.762 77.984 89.466 77.312 87.754 77.312C86.746 77.312 85.834 77.6 84.97 78.304L85.642 79.28C86.33 78.64 87.002 78.368 87.738 78.368C88.778 78.368 89.402 78.8 89.402 79.632C89.402 80.304 89.178 80.72 88.778 81.088C88.442 81.024 88.074 80.976 87.642 80.976H86.538ZM91.7805 86H93.0605L94.0045 83.792H97.4925L98.4045 86H100.005L99.2365 84.496L96.3085 77.328L95.4925 77.504L91.7805 86ZM95.6365 79.936L95.8125 79.456L95.9565 79.936L97.0765 82.704H94.4365L95.6365 79.936ZM47.651 95.704V103H49.155L49.011 102.024V95.544H52.483V94.504H47.459L47.651 95.704ZM57.4318 94.344C54.9518 94.344 53.0798 96.344 53.0798 98.856C53.0798 101.256 54.5998 103.208 57.2558 103.208C59.7358 103.208 61.6238 101.208 61.6238 98.696C61.6238 96.2 60.2318 94.344 57.4318 94.344ZM54.5678 98.776C54.5678 96.904 55.6878 95.384 57.3678 95.384C59.0478 95.384 60.1518 96.904 60.1518 98.776C60.1518 100.648 59.0478 102.168 57.3678 102.168C55.6878 102.168 54.5678 100.648 54.5678 98.776ZM62.5358 105.08H63.8478V103H70.1358V105.08H71.4478V101.896H70.3598V94.504H64.3758L64.5678 95.704L64.5518 96.52C64.5038 98.728 64.3918 100.344 63.4478 101.896H62.5358V105.08ZM65.9118 96.52V95.624H68.9998V101.896H64.9518C65.7518 100.344 65.9118 98.728 65.9118 96.52Z" fill="#7C6774"/>
<defs>
<linearGradient id="paint0_linear_30_455" x1="63" y1="0" x2="63" y2="126" gradientUnits="userSpaceOnUse">
<stop stop-color="#FFF6EC"/>
<stop offset="1" stop-color="#E6FFFC"/>
</linearGradient>
</defs>
</svg>
