<svg width="61" height="60" viewBox="0 0 61 60" fill="none" xmlns="http://www.w3.org/2000/svg">
<path fill-rule="evenodd" clip-rule="evenodd" d="M15 3H6C4.34315 3 3 4.34315 3 6V17H47V6C47 4.34315 45.6569 3 44 3H36V6.5C36 7.32843 35.3284 8 34.5 8C33.6716 8 33 7.32843 33 6.5V3H27V6.5C27 7.32843 26.3284 8 25.5 8C24.6716 8 24 7.32843 24 6.5V3H18V6.5C18 7.32843 17.3284 8 16.5 8C15.6716 8 15 7.32843 15 6.5V3ZM34.5 0H25.5H16.5H6C2.68629 0 0 2.68629 0 6V17V20V54C0 57.3137 2.68629 60 6 60H44C47.3137 60 50 57.3137 50 54V35.4972C49.999 35.4229 49.9609 34.0002 48.5 34.0002C47.3333 34.0002 47.0556 34.8892 47 35.4818V31.915L59.4791 21.6589C60.1191 21.1329 60.2115 20.1876 59.6855 19.5476C59.1595 18.9076 58.2143 18.8152 57.5743 19.3412L47 28.0318V23.2502C47.125 23.8751 47.5001 24.5 48.5 24.5C49.4999 24.5 49.875 23.8751 50 23.2501V20V17V6C50 2.68629 47.3137 0 44 0H34.5ZM47 23.2502V22L47 22.0001V20H3V54C3 55.6569 4.34315 57 6 57H44C45.6569 57 47 55.6569 47 54V36L47 36.0002V35.4818L47 35.482V31.915L23.2805 51.4093C23.0167 51.6261 22.7011 51.7378 22.3843 51.7495C21.7243 52.0909 20.8976 51.8972 20.4634 51.27L12.2668 39.4305C11.7953 38.7494 11.9652 37.8149 12.6463 37.3434C13.3274 36.8718 14.2619 37.0417 14.7334 37.7229L22.1586 48.4481L47 28.0318V23.2501L47 23.2502Z" fill="#589BFF"/>
</svg>
