<svg width="48" height="60" viewBox="0 0 48 60" fill="none" xmlns="http://www.w3.org/2000/svg">
<path fill-rule="evenodd" clip-rule="evenodd" d="M41.6212 3H6.25922C4.37589 3 2.95833 4.71506 3.31285 6.56472L4.16993 11.0364C4.27615 11.0126 4.38662 11 4.50004 11L43.5 11C43.5481 11 43.5956 11.0023 43.6425 11.0067L44.5581 6.61186C44.9462 4.74892 43.5241 3 41.6212 3ZM6.87257 25.1372L4.73795 14L43.0189 14L40.7238 25.0166C40.6508 25.0057 40.5761 25 40.5 25L7.50004 25C7.27602 25 7.06347 25.0491 6.87257 25.1372ZM7.42089 27.998L9.54319 39.0708C9.68723 39.0248 9.84074 39 10 39L37.8106 39L40.1023 28L7.50004 28C7.47349 28 7.4471 27.9993 7.42089 27.998ZM12.5128 54.5647L10.1046 42L37.1856 42L34.5581 54.6119C34.2683 56.003 33.0422 57 31.6212 57H15.4592C14.0201 57 12.7837 55.9781 12.5128 54.5647ZM6.25922 0C2.49257 0 -0.342554 3.43013 0.366481 7.12944L9.56648 55.1294C10.1083 57.9562 12.581 60 15.4592 60H31.6212C34.4632 60 36.9154 58.006 37.4951 55.2237L47.4951 7.22373C48.2713 3.49784 45.4271 0 41.6212 0H6.25922ZM19.105 48.895V50.695H20.455V51.595H19.105V53.395H20.455V55H22.855V53.395H25.165V51.595H22.855V50.695H24.025C25.235 50.695 26.185 50.425 26.875 49.885C27.565 49.335 27.91 48.59 27.91 47.65C27.91 45.53 26.495 44.47 23.665 44.47C23.375 44.47 22.81 44.475 21.97 44.485C21.14 44.495 20.635 44.5 20.455 44.5V48.895H19.105ZM22.855 46.75C23.515 46.73 23.865 46.72 23.905 46.72C24.375 46.72 24.735 46.805 24.985 46.975C25.235 47.135 25.36 47.43 25.36 47.86C25.36 48.55 24.89 48.895 23.95 48.895H22.855V46.75Z" fill="#589BFF"/>
</svg>
