<svg width="849" height="630" viewBox="0 0 849 630" fill="none" xmlns="http://www.w3.org/2000/svg">
<path d="M475 12C413.673 36.3841 421.788 136.981 366.57 142.331C318.465 146.99 252.277 92.892 175 92.7576C104.874 92.6355 99.9998 135.501 -0.000244141 133.001C175 207 621.555 514.056 770 523.5C770 461.5 825.916 379.299 811 291.243C795.87 201.921 767.161 145.076 701 87.0003C639.462 32.9834 557.902 -20.9642 475 12Z" fill="white"/>
<path d="M461.76 397.047L452 340.135C452 340.135 479.362 324.407 502.35 334.823C549.27 356.075 564.619 313.498 573.7 296.625C587.41 271.182 608.401 257.405 627.742 281.861C649.614 309.536 689.33 275.028 705.551 230.752C721.424 187.417 807.615 190.628 781.88 287.575C766.507 345.471 708.149 346.821 678.84 354.51C649.531 362.199 654.653 406.867 615.712 397.94C582.458 390.327 555.598 369.631 537.471 392.047C519.344 414.464 495.744 420.512 461.76 397.047Z" fill="url(#paint0_linear_60_2340)"/>
<g style="mix-blend-mode:soft-light" opacity="0.5">
<g style="mix-blend-mode:soft-light">
<path d="M452.252 373.317L452.268 372.098C453.022 372.098 528.617 372.703 603.737 350.697C672.941 330.425 755.89 286.264 758.057 191L759.276 191.027C758.312 233.432 741.537 269.414 709.419 297.968C683.753 320.775 648.313 338.913 604.056 351.876C528.764 373.926 453.011 373.326 452.252 373.317Z" fill="#BEB8F2"/>
</g>
<g style="mix-blend-mode:soft-light">
<path d="M695.483 309.32L695.427 308.101C735.96 306.237 789.74 281.453 790.28 281.205L790.794 282.321C790.258 282.555 736.247 307.445 695.483 309.32Z" fill="#BEB8F2"/>
</g>
<g style="mix-blend-mode:soft-light">
<path d="M716.361 289.709C734.627 244.94 716.056 209.222 715.866 208.867L716.942 208.291C717.134 208.653 735.979 244.851 717.489 290.168L716.361 289.709Z" fill="#BEB8F2"/>
</g>
<g style="mix-blend-mode:soft-light">
<path d="M553.843 362.41C608.189 339.261 608.874 259.83 608.816 259.055L610.021 258.886C610.15 259.64 609.151 340.178 554.321 363.53L553.843 362.41Z" fill="#BEB8F2"/>
</g>
<g style="mix-blend-mode:soft-light">
<path d="M577.912 358.661L577.954 357.442C615.625 358.781 647.418 393.935 647.735 394.29L646.824 395.102C646.512 394.754 615.058 359.976 577.912 358.661Z" fill="#BEB8F2"/>
</g>
<g style="mix-blend-mode:soft-light">
<path d="M464.166 371.931C485.917 366.418 497.98 331.943 498.09 331.597L499.243 331.992C498.748 333.436 486.85 367.436 464.456 373.111L464.166 371.931Z" fill="#BEB8F2"/>
</g>
<g style="mix-blend-mode:soft-light">
<path d="M482.065 372.313V371.095C499.808 371.081 523.479 393.846 531.257 401.327C532.357 402.383 533.306 403.296 533.507 403.425L532.862 404.461C532.576 404.282 531.944 403.677 530.407 402.204C522.72 394.817 499.315 372.302 482.065 372.313Z" fill="#BEB8F2"/>
</g>
</g>
<path d="M336.999 326.889C345.841 341.048 340.358 356.278 334.666 366.679C333.068 366.808 332.18 367.288 330.611 367.774C316.361 372.157 309.348 370.99 294.621 373.094C291.451 373.547 281.739 372.045 277.814 371.186L270.517 369.451C270.517 369.451 254.316 334.621 273.003 323.268C291.689 311.915 280.498 276.882 276.858 257.589C274.622 245.742 277.394 239.609 277.27 235.124C275.97 187.65 260.523 174.889 269.584 159.192C279.587 141.862 301.275 152.452 313.153 134.176C326.562 113.54 307.904 86.1794 324.966 69.4848C327.891 66.622 330.973 63.7593 336.059 61.7816C348.613 56.8934 359.725 63.4968 368.001 52.1055C384.633 29.2034 414.408 19.2243 434.894 39.9793C455.112 60.4647 437.716 105.541 386.978 144.513C354.057 176.339 354.388 185.109 359.393 206.15C362.898 220.889 382.164 258.524 361.991 275.632C341.818 292.739 326.903 310.703 336.999 326.889Z" fill="url(#paint1_linear_60_2340)"/>
<g style="mix-blend-mode:soft-light" opacity="0.5">
<g style="mix-blend-mode:soft-light">
<path d="M302.389 373.085L301.294 373.04C301.485 366.99 301.757 360.892 302.105 354.909C304.677 310.655 311.616 268.289 322.729 228.981C332.145 195.675 344.676 164.092 359.992 135.123C372.304 111.823 386.473 90.0707 402.091 70.4727C413.065 56.6957 424.659 44.1187 436.523 33.0899C438.591 31.1671 440.817 29.3111 442.981 27.5147C445.858 25.1291 448.831 22.648 451.438 20L452.252 20.6918C449.608 23.3757 446.617 25.8663 443.721 28.2757C441.573 30.0626 439.352 31.9114 437.306 33.8128C425.478 44.8082 413.926 57.347 402.976 71.0859C387.391 90.6265 373.261 112.336 360.977 135.577C345.709 164.493 333.187 196.007 323.79 229.248C312.695 268.487 305.767 310.789 303.197 354.971C302.852 360.94 302.57 367.03 302.389 373.085Z" fill="#FCFDFE"/>
</g>
<g style="mix-blend-mode:soft-light">
<path d="M343.936 171.559L342.903 171.203C358.761 130.354 333.838 58.9283 333.599 58.2126L334.64 57.9072C334.883 58.6277 359.92 130.383 343.936 171.559Z" fill="#FCFDFE"/>
</g>
<g style="mix-blend-mode:soft-light">
<path d="M310.442 289.589L309.376 289.35C316.631 260.372 371.297 234.345 371.848 234.085L372.357 234.994C371.803 235.24 317.58 261.059 310.442 289.589Z" fill="#FCFDFE"/>
</g>
<g style="mix-blend-mode:soft-light">
<path d="M307.859 306.375L306.766 306.311C307.818 286.866 298.013 259.681 279.191 229.763C278.236 228.26 278.236 228.26 278.253 228.067L279.348 228.12L278.799 228.093L279.315 227.929C279.365 228.036 279.723 228.604 280.135 229.262C299.065 259.35 308.911 286.737 307.859 306.375Z" fill="#FCFDFE"/>
</g>
<g style="mix-blend-mode:soft-light">
<path d="M302.904 362.04L301.871 361.687C309.583 341.56 341.949 331.43 342.286 331.33L342.643 332.284C342.321 332.394 310.442 342.373 302.904 362.04Z" fill="#FCFDFE"/>
</g>
<g style="mix-blend-mode:soft-light">
<path d="M300.747 373.275C294.912 356.759 283.797 341.188 266.766 325.672L267.527 324.956C284.689 340.594 295.895 356.301 301.787 372.976L300.747 373.275Z" fill="#FCFDFE"/>
</g>
<g style="mix-blend-mode:soft-light">
<path d="M393.98 82.767L392.97 82.3591C403.159 60.1226 408.27 34.4938 409.949 26.0725C410.355 24.0328 410.5 23.3171 410.598 23.0762L411.626 23.4459C411.552 23.6296 411.321 24.7962 411.027 26.2705C409.343 34.7204 404.216 60.428 393.98 82.767Z" fill="#FCFDFE"/>
</g>
<g style="mix-blend-mode:soft-light">
<path d="M371.61 116.571L370.772 115.908C386.568 98.6786 435.521 95.5415 437.596 95.415L437.685 96.4289C437.181 96.4599 387.112 99.6662 371.61 116.571Z" fill="#FCFDFE"/>
</g>
</g>
<path d="M601.585 376.867C597.808 376.072 579.576 409.044 570.532 382.905C568.272 376.373 566.888 354.31 538.708 350.994L522.286 349.05C518.572 336.325 517.428 323.644 534.467 320.278C560.946 315.054 564.485 271.858 558.4 255.974C550.869 236.314 534.311 190.218 575.079 181.529C609.019 174.305 632.626 176.249 637.684 135.885C642.742 95.521 667.851 72.1425 706.53 77.7331C747.245 83.6276 784.238 34.8556 816.562 54.836C872.887 89.6484 813.984 174.684 741.269 194.754C668.553 214.824 707.625 242.376 707.3 275.723C707.001 280.27 706.165 284.765 704.808 289.114C694.167 323.083 657.575 326.092 629.437 352.312C591.064 388.082 607.95 378.208 601.585 376.867Z" fill="url(#paint2_linear_60_2340)"/>
<g style="mix-blend-mode:soft-light" opacity="0.5">
<g style="mix-blend-mode:soft-light">
<path d="M573.275 356.114L571.438 355.6C608.004 229.253 709.493 121.737 836.308 75L837.024 76.6722C710.751 123.221 609.685 230.292 573.275 356.114Z" fill="#FCFDFE"/>
</g>
<g style="mix-blend-mode:soft-light">
<path d="M599.473 288.982L597.576 288.819C601.253 237.221 557.444 193.042 557 192.6L558.362 191.372C558.811 191.816 603.207 236.58 599.473 288.982Z" fill="#FCFDFE"/>
</g>
<g style="mix-blend-mode:soft-light">
<path d="M580.673 333.059L579.063 332.062C608.589 288.271 709.492 290.32 710.5 290.347V292.148C709.492 292.124 609.64 290.101 580.673 333.059Z" fill="#FCFDFE"/>
</g>
<g style="mix-blend-mode:soft-light">
<path d="M674.828 182.98L673.139 182.117C693.301 145.542 671.228 84.7325 670.989 84.1233L672.781 83.5596C673.015 84.1783 695.365 145.729 674.828 182.98Z" fill="#FCFDFE"/>
</g>
<g style="mix-blend-mode:soft-light">
<path d="M739.673 127.56L738.789 125.945C783.118 104.819 848.072 124.116 848.725 124.314L848.182 126.031C847.54 125.835 783.307 106.763 739.673 127.56Z" fill="#FCFDFE"/>
</g>
</g>
<path d="M493.024 320.324L526.116 266.901C526.116 266.901 504.938 239.869 477.487 240.981C421.482 243.253 423.403 194.042 421.124 173.311C417.686 142.045 402.14 119.577 372.644 136.345C339.27 155.317 313.314 104.297 315.04 53.0065C316.729 2.8131 228.478 -29.1498 214.843 79.1478C206.703 143.825 265.015 169.022 291.439 188.75C317.863 208.477 294.445 251.44 337.366 258.353C374.026 264.26 409.563 254.353 418.693 284.368C427.823 314.383 449.162 330.115 493.024 320.324Z" fill="url(#paint3_linear_60_2340)"/>
<g style="mix-blend-mode:soft-light" opacity="0.5">
<g style="mix-blend-mode:soft-light">
<path d="M512.305 300.271L512.793 299.037C512.027 298.737 435.534 268.462 368.753 215.584C307.224 166.871 241.594 88.4442 278.323 -8.52949L277.082 -9C260.729 34.1698 262.964 77.3129 283.686 119.23C300.249 152.716 328.597 185.491 367.944 216.642C434.883 269.634 511.537 299.971 512.305 300.271Z" fill="#BEB8F2"/>
</g>
<g style="mix-blend-mode:soft-light">
<path d="M293.108 136.373L293.662 135.169C253.539 116.733 209.416 69.7679 208.975 69.2949L208 70.2018C208.448 70.6748 252.749 117.823 293.108 136.373Z" fill="#BEB8F2"/>
</g>
<g style="mix-blend-mode:soft-light">
<path d="M280.059 108.072C279.92 55.4549 313.24 27.0123 313.577 26.7319L312.728 25.7129C312.385 25.9981 278.598 54.8113 278.732 108.074L280.059 108.072Z" fill="#BEB8F2"/>
</g>
<g style="mix-blend-mode:soft-light">
<path d="M414.291 247.777C368.927 202.23 400.68 121.831 401.055 121.076L399.91 120.41C399.471 121.12 367.586 202.762 413.352 248.713L414.291 247.777Z" fill="#BEB8F2"/>
</g>
<g style="mix-blend-mode:soft-light">
<path d="M391.543 234.169L391.999 232.92C353.458 218.876 307.027 241.36 306.563 241.59L307.149 242.779C307.609 242.553 353.541 220.317 391.543 234.169Z" fill="#BEB8F2"/>
</g>
<g style="mix-blend-mode:soft-light">
<path d="M500.857 294.007C481.166 279.56 483.082 239.862 483.102 239.462L481.778 239.392C481.688 241.049 479.801 280.204 500.062 295.075L500.857 294.007Z" fill="#BEB8F2"/>
</g>
<g style="mix-blend-mode:soft-light">
<path d="M482.646 287.082L483.134 285.863C465.242 278.605 432.07 291.899 421.168 296.268C419.627 296.885 418.298 297.416 418.042 297.465L418.269 298.771C418.632 298.708 419.517 298.357 421.663 297.499C432.45 293.167 465.249 280.024 482.646 287.082Z" fill="#BEB8F2"/>
</g>
</g>
<path d="M450.851 301.131C461.812 289.797 477.022 291.344 487.854 294.189C488.338 295.626 488.984 296.329 489.785 297.663C497.054 309.725 497.586 316.418 502.874 329.437C504.005 332.239 504.853 341.48 504.952 345.269L505.027 352.353C505.027 352.353 476.798 375.151 462.131 360.615C447.463 346.078 417.907 364.328 401.064 372.07C390.714 376.82 384.46 375.689 380.378 376.82C337.162 388.846 328.991 405.915 312.525 401.195C294.366 395.984 299.115 373.692 279.664 366.977C257.689 359.396 236.87 382.735 217.677 370.912C214.386 368.877 211.061 366.712 208.085 362.503C200.741 352.113 204.255 340.42 191.929 335.435C167.145 325.417 151.197 300.405 165.543 276.892C179.704 253.688 224.989 259.345 272.298 296.953C308.981 319.865 316.942 317.558 335.086 308.169C347.793 301.594 377.892 275.347 398.175 289.933C418.459 304.519 438.324 314.088 450.851 301.131Z" fill="url(#paint4_linear_60_2340)"/>
<g style="mix-blend-mode:soft-light" opacity="0.5">
<g style="mix-blend-mode:soft-light">
<path d="M501.089 322.313L501.297 323.329C495.709 324.534 490.059 325.676 484.502 326.721C443.354 334.461 402.941 337.77 364.378 336.555C331.705 335.526 299.9 331.243 269.851 323.822C245.684 317.855 222.517 309.837 200.989 299.99C185.858 293.069 171.686 285.32 158.869 276.963C156.637 275.506 154.425 273.885 152.285 272.317C149.437 270.227 146.49 268.065 143.464 266.281L143.916 265.376C146.979 267.185 149.946 269.361 152.814 271.465C154.942 273.025 157.143 274.631 159.355 276.081C172.129 284.413 186.27 292.139 201.349 299.04C222.822 308.863 245.935 316.86 270.045 322.813C300.034 330.218 331.775 334.495 364.385 335.522C402.882 336.734 443.231 333.432 484.314 325.704C489.855 324.659 495.498 323.519 501.089 322.313Z" fill="#FCFDFE"/>
</g>
<g style="mix-blend-mode:soft-light">
<path d="M306.904 330.221L306.812 331.248C265.754 326.046 205.978 365.174 205.379 365.572L204.863 364.688C205.465 364.29 265.517 324.965 306.904 330.221Z" fill="#FCFDFE"/>
</g>
<g style="mix-blend-mode:soft-light">
<path d="M422.722 333.988L422.742 335.024C394.527 334.987 358.196 290.822 357.83 290.377L358.547 289.698C358.909 290.146 394.948 333.954 422.722 333.988Z" fill="#FCFDFE"/>
</g>
<g style="mix-blend-mode:soft-light">
<path d="M438.701 332.52L438.891 333.537C420.833 337.02 398.153 352.199 375.026 376.284C373.864 377.497 373.864 377.497 373.685 377.533L373.484 376.517L373.586 377.026L373.316 376.592C373.402 376.522 373.841 376.065 374.35 375.533C397.608 351.312 420.46 336.048 438.701 332.52Z" fill="#FCFDFE"/>
</g>
<g style="mix-blend-mode:soft-light">
<path d="M490.85 324.36L490.762 325.387C470.555 322.91 453.882 295.55 453.717 295.274L454.52 294.725C454.683 294.996 471.105 321.94 490.85 324.36Z" fill="#FCFDFE"/>
</g>
<g style="mix-blend-mode:soft-light">
<path d="M501.639 323.771C487.842 332.888 476.099 346.631 465.765 365.781L464.93 365.247C475.334 345.947 487.184 332.092 501.118 322.887L501.639 323.771Z" fill="#FCFDFE"/>
</g>
<g style="mix-blend-mode:soft-light">
<path d="M214.103 304.61L213.958 305.628C191.25 301.365 166.595 302.529 158.493 302.914C156.532 303.007 155.843 303.036 155.598 303.002L155.705 301.975C155.89 302 157.012 301.946 158.43 301.88C166.559 301.503 191.291 300.333 214.103 304.61Z" fill="#FCFDFE"/>
</g>
<g style="mix-blend-mode:soft-light">
<path d="M250.189 317.405L249.773 318.325C230.376 307.777 216.335 263.629 215.74 261.755L216.645 261.442C216.788 261.897 231.157 307.057 250.189 317.405Z" fill="#FCFDFE"/>
</g>
</g>
<path d="M498.446 283.701C498.572 287.206 531.637 296.048 510.585 309.761C505.324 313.184 486.18 319.241 489.451 344.835L491.352 359.74C480.955 365.81 470.028 369.603 463.32 355.308C452.905 333.115 414.054 339.464 401.392 348.317C385.718 359.272 348.727 383.994 332.116 349.943C318.288 321.603 314.815 300.347 278.13 304.737C241.444 309.127 215.324 292.132 211.763 256.792C208.02 219.607 156.911 197.691 167.421 164.791C185.736 107.478 273.616 140.763 307.272 200.483C340.929 260.204 356.631 219.701 386.09 212.671C390.163 211.937 394.309 211.688 398.44 211.929C430.714 213.859 441.404 245.468 470.695 264.526C510.634 290.517 498.224 277.795 498.446 283.701Z" fill="url(#paint5_linear_60_2340)"/>
<g style="mix-blend-mode:soft-light" opacity="0.5">
<g style="mix-blend-mode:soft-light">
<path d="M481.099 315.012L481.05 316.771C359.578 312.193 240.504 245.186 170.258 141.894L171.605 140.87C241.544 243.725 360.132 310.453 481.099 315.012Z" fill="#FCFDFE"/>
</g>
<g style="mix-blend-mode:soft-light">
<path d="M415.045 306.498L415.324 308.235C368.241 316.457 338.391 365.614 338.094 366.108L336.689 365.162C336.989 364.668 367.219 314.859 415.045 306.498Z" fill="#FCFDFE"/>
</g>
<g style="mix-blend-mode:soft-light">
<path d="M458.779 313.523L458.245 315.188C412.374 298.488 391.688 207.55 391.486 206.633L393.104 206.236C393.299 207.145 413.779 297.141 458.779 313.523Z" fill="#FCFDFE"/>
</g>
<g style="mix-blend-mode:soft-light">
<path d="M303.157 262.596L302.761 264.305C265.459 254.39 215.856 287.772 215.36 288.104L214.456 286.622C214.959 286.285 265.167 252.498 303.157 262.596Z" fill="#FCFDFE"/>
</g>
<g style="mix-blend-mode:soft-light">
<path d="M238.978 216.819L237.728 217.973C208.884 182.936 211.696 120.376 211.719 119.747L213.378 119.851C213.345 120.472 210.588 182.329 238.978 216.819Z" fill="#FCFDFE"/>
</g>
</g>
<path d="M703.098 149.68C703.098 138.917 695.947 129.733 686.497 127.384C686.159 127.301 685.786 127.226 685.441 127.159C684.394 126.958 683.332 126.842 682.265 126.81L482.358 121.037L282.455 115.271C282.033 115.258 281.61 115.256 281.192 115.271C276.039 115.362 271.055 117.117 266.981 120.273L266.766 120.441C266.203 120.891 265.662 121.364 265.145 121.86L265.108 121.895C264.803 122.191 264.505 122.495 264.214 122.807C260.139 127.176 257.884 132.934 257.906 138.909V156.379V430.56C257.904 432.604 258.165 434.64 258.683 436.618C259.825 440.976 262.207 444.909 265.54 447.939C268.873 450.97 273.014 452.969 277.46 453.693C279.109 453.971 280.782 454.079 282.453 454.017L587.305 442.879L682.326 439.409C693.786 438.99 703.106 428.681 703.106 416.381V165.648L703.098 149.68Z" fill="#D8DEE8"/>
<path d="M688.464 126.811L288.67 115.271C275.142 114.88 264.123 125.467 264.123 138.918V430.56C264.123 444.011 275.142 454.513 288.67 454.018L688.466 439.41C699.928 438.99 709.179 428.681 709.179 416.382V149.681C709.177 137.381 699.936 127.143 688.464 126.811Z" fill="white"/>
<path d="M288.67 446.271C279.484 446.593 271.986 439.43 271.986 430.302V139.099C271.986 129.978 279.486 122.75 288.67 123.004L688.466 133.949C696.262 134.162 702.586 141.147 702.586 149.516V416.592C702.586 424.961 696.262 431.997 688.466 432.266L288.67 446.271Z" fill="url(#paint6_linear_60_2340)"/>
<path d="M688.464 126.811L288.67 115.271C275.142 114.88 264.123 125.467 264.123 138.918V156.388L709.179 165.665V149.681C709.177 137.381 699.936 127.143 688.464 126.811Z" fill="#D8DEE8"/>
<path d="M307.745 137.624C307.748 138.658 307.543 139.682 307.142 140.635C306.741 141.588 306.152 142.451 305.41 143.171C304.668 143.892 303.789 144.455 302.825 144.829C301.861 145.202 300.831 145.378 299.798 145.345C297.677 145.292 295.659 144.417 294.171 142.904C292.683 141.391 291.842 139.359 291.824 137.237C291.821 136.201 292.027 135.175 292.43 134.22C292.832 133.265 293.424 132.401 294.168 131.68C294.913 130.96 295.795 130.396 296.762 130.025C297.73 129.653 298.762 129.48 299.798 129.517C301.914 129.577 303.925 130.455 305.407 131.967C306.889 133.479 307.727 135.507 307.745 137.624V137.624Z" fill="white"/>
<path d="M335.469 138.308C335.475 139.334 335.273 140.35 334.878 141.296C334.482 142.242 333.9 143.099 333.166 143.815C332.433 144.532 331.563 145.094 330.608 145.467C329.652 145.84 328.632 146.018 327.607 145.989C325.501 145.932 323.501 145.058 322.028 143.552C320.556 142.046 319.727 140.026 319.718 137.919C319.713 136.892 319.915 135.873 320.312 134.926C320.71 133.978 321.294 133.12 322.03 132.403C322.767 131.686 323.64 131.125 324.598 130.753C325.556 130.381 326.58 130.207 327.607 130.239C329.708 130.303 331.702 131.18 333.169 132.685C334.636 134.19 335.46 136.207 335.469 138.308Z" fill="white"/>
<path d="M362.898 138.987C362.906 140.004 362.709 141.013 362.319 141.952C361.929 142.892 361.354 143.744 360.629 144.456C359.903 145.169 359.041 145.729 358.094 146.101C357.148 146.474 356.136 146.653 355.119 146.626C353.031 146.563 351.05 145.691 349.594 144.194C348.137 142.697 347.32 140.692 347.315 138.604C347.307 137.584 347.504 136.574 347.896 135.632C348.287 134.691 348.864 133.838 349.593 133.125C350.321 132.412 351.186 131.853 352.136 131.482C353.085 131.11 354.1 130.934 355.119 130.964C357.202 131.034 359.177 131.909 360.628 133.405C362.078 134.902 362.892 136.903 362.898 138.987Z" fill="white"/>
<path d="M685 417.26L292.729 429.764V200.691L685 205.554V417.26Z" fill="url(#paint7_linear_60_2340)"/>
<path d="M504.725 173.198L292.729 169.598V181.972L504.725 185.065V173.198Z" fill="#D8DEE8"/>
<path d="M662.837 175.883V187.372L685 187.694V176.258L662.837 175.883Z" fill="#D8DEE8"/>
<g style="mix-blend-mode:soft-light" opacity="0.5">
<g style="mix-blend-mode:soft-light">
<path d="M533.883 275.921C487.231 208.829 406.259 230.768 354.888 156.361C345.61 142.925 339.315 129.235 334.995 116.601L288.67 115.271C275.142 114.88 264.123 125.467 264.123 138.918V430.56C264.123 444.011 275.142 454.513 288.67 454.018L593.522 442.88C583.934 429.296 575.731 414.784 569.036 399.564C541.865 337.779 561.985 316.344 533.883 275.921Z" fill="white"/>
</g>
</g>
<path d="M293.403 439.704C291.767 439.763 290.435 438.589 290.435 437.087V195.623C290.435 194.123 291.767 192.919 293.403 192.942L683.731 198.194C684.401 198.203 685.039 198.475 685.511 198.95C685.982 199.425 686.249 200.066 686.253 200.735V423.152C686.244 423.825 685.978 424.47 685.509 424.953C685.04 425.436 684.404 425.721 683.731 425.75L293.403 439.704Z" fill="url(#paint8_linear_60_2340)"/>
<path d="M669.772 224.903L309.716 222.148V205.505L669.772 209.459V224.903Z" fill="url(#paint9_linear_60_2340)"/>
<path d="M321.96 214.084C321.959 214.348 321.905 214.608 321.802 214.85C321.699 215.092 321.548 215.311 321.36 215.494C321.171 215.678 320.948 215.822 320.703 215.918C320.458 216.014 320.196 216.061 319.933 216.055C319.399 216.055 318.886 215.844 318.507 215.467C318.127 215.091 317.911 214.58 317.906 214.046C317.908 213.783 317.961 213.522 318.064 213.28C318.167 213.038 318.318 212.818 318.506 212.635C318.695 212.451 318.918 212.307 319.163 212.211C319.408 212.114 319.67 212.068 319.933 212.074C320.468 212.074 320.981 212.285 321.361 212.662C321.741 213.038 321.956 213.55 321.96 214.084V214.084Z" fill="#9879F1"/>
<path d="M330.259 214.161C330.257 214.423 330.204 214.682 330.102 214.923C330 215.164 329.851 215.383 329.664 215.566C329.476 215.749 329.255 215.893 329.011 215.99C328.768 216.087 328.508 216.134 328.246 216.129C327.714 216.126 327.205 215.913 326.829 215.538C326.452 215.163 326.238 214.654 326.233 214.123C326.234 213.861 326.288 213.602 326.39 213.361C326.492 213.12 326.641 212.901 326.828 212.718C327.016 212.535 327.237 212.391 327.481 212.294C327.724 212.198 327.984 212.15 328.246 212.155C328.778 212.158 329.286 212.371 329.663 212.746C330.039 213.121 330.253 213.63 330.259 214.161V214.161Z" fill="#9879F1"/>
<path d="M338.532 214.239C338.531 214.5 338.478 214.759 338.377 214.999C338.275 215.24 338.127 215.457 337.94 215.64C337.754 215.823 337.533 215.967 337.291 216.063C337.048 216.16 336.789 216.208 336.528 216.203C335.998 216.198 335.491 215.986 335.116 215.611C334.741 215.237 334.527 214.731 334.521 214.201C334.522 213.939 334.575 213.681 334.677 213.44C334.778 213.2 334.927 212.982 335.114 212.799C335.3 212.616 335.521 212.473 335.764 212.376C336.007 212.279 336.266 212.232 336.528 212.237C337.057 212.242 337.563 212.455 337.938 212.829C338.313 213.204 338.526 213.71 338.532 214.239V214.239Z" fill="#9879F1"/>
<path opacity="0.68" d="M669.772 411.157L405.817 419.736V229.318L669.772 230.993V411.157Z" fill="white"/>
<path d="M398.214 371.956L309.716 374.832V228.71L398.214 229.271V371.956Z" fill="url(#paint10_linear_60_2340)"/>
<path d="M329.089 246.473L319.056 246.447C318.716 246.459 318.385 246.336 318.136 246.105C317.886 245.874 317.738 245.554 317.724 245.214V235.941C317.732 235.774 317.772 235.61 317.843 235.458C317.914 235.306 318.014 235.17 318.138 235.057C318.262 234.944 318.406 234.857 318.564 234.8C318.721 234.743 318.889 234.717 319.056 234.725L329.089 234.776C329.428 234.765 329.757 234.888 330.006 235.119C330.254 235.35 330.401 235.669 330.415 236.008V245.257C330.408 245.424 330.368 245.588 330.297 245.739C330.227 245.891 330.127 246.027 330.004 246.14C329.881 246.253 329.737 246.34 329.58 246.398C329.423 246.455 329.256 246.48 329.089 246.473V246.473Z" fill="url(#paint11_linear_60_2340)"/>
<g opacity="0.3">
<path d="M385.619 239.307L334.44 239.088V234.801L385.619 235.064V239.307Z" fill="white"/>
<path d="M393.1 239.34L388.57 239.319V235.081L393.1 235.103V239.34Z" fill="white"/>
<path d="M366.428 246.578L334.44 246.489V242.202L366.428 242.32V246.578Z" fill="white"/>
</g>
<path d="M329.089 274.731L319.056 274.76C318.718 274.775 318.388 274.655 318.139 274.427C317.889 274.199 317.74 273.881 317.724 273.544V264.27C317.738 263.931 317.887 263.611 318.136 263.381C318.386 263.151 318.716 263.029 319.056 263.042H329.089C329.426 263.029 329.754 263.149 330.003 263.377C330.251 263.605 330.399 263.922 330.415 264.258V273.507C330.4 273.845 330.252 274.163 330.004 274.392C329.756 274.622 329.427 274.743 329.089 274.731V274.731Z" fill="url(#paint12_linear_60_2340)"/>
<g opacity="0.3">
<path d="M385.618 267.241L334.44 267.312V263.027L385.618 262.999V267.241Z" fill="white"/>
<path d="M393.1 267.231L388.57 267.237V262.999L393.1 262.995V267.231Z" fill="white"/>
<path d="M366.427 274.623L334.44 274.716V270.429L366.427 270.364V274.623Z" fill="white"/>
</g>
<path d="M329.089 302.994L319.056 303.079C318.888 303.088 318.721 303.063 318.563 303.006C318.405 302.949 318.26 302.862 318.136 302.749C318.012 302.636 317.912 302.499 317.842 302.347C317.771 302.195 317.731 302.031 317.724 301.863V292.59C317.739 292.25 317.888 291.93 318.137 291.699C318.386 291.467 318.716 291.343 319.056 291.353L329.089 291.292C329.256 291.285 329.423 291.31 329.58 291.367C329.738 291.424 329.882 291.511 330.005 291.624C330.129 291.737 330.228 291.874 330.299 292.026C330.369 292.177 330.408 292.341 330.415 292.509V301.751C330.402 302.091 330.256 302.413 330.008 302.645C329.759 302.878 329.429 303.003 329.089 302.994V302.994Z" fill="url(#paint13_linear_60_2340)"/>
<g opacity="0.3">
<path d="M385.618 295.185L334.44 295.546V291.259L385.618 290.942V295.185Z" fill="white"/>
<path d="M393.1 295.132L388.57 295.162V290.924L393.1 290.896V295.132Z" fill="white"/>
<path d="M366.427 302.674L334.44 302.947V298.662L366.427 298.417V302.674Z" fill="white"/>
</g>
<path d="M329.089 331.251L319.056 331.393C318.888 331.403 318.72 331.379 318.562 331.323C318.403 331.266 318.258 331.179 318.134 331.066C318.01 330.952 317.91 330.815 317.839 330.663C317.769 330.51 317.73 330.345 317.724 330.177V320.904C317.739 320.564 317.887 320.243 318.136 320.01C318.385 319.778 318.715 319.652 319.056 319.659L329.089 319.54C329.256 319.531 329.424 319.556 329.581 319.612C329.739 319.669 329.884 319.757 330.007 319.87C330.13 319.983 330.23 320.12 330.3 320.272C330.37 320.424 330.409 320.589 330.415 320.756V330.005C330.401 330.345 330.254 330.665 330.006 330.898C329.758 331.131 329.429 331.258 329.089 331.251V331.251Z" fill="url(#paint14_linear_60_2340)"/>
<g opacity="0.3">
<path d="M385.619 323.119L334.44 323.772V319.485L385.619 318.877V323.119Z" fill="white"/>
<path d="M393.1 323.024L388.57 323.081V318.843L393.1 318.788V323.024Z" fill="white"/>
<path d="M366.428 330.721L334.44 331.175V326.89L366.428 326.462V330.721Z" fill="white"/>
</g>
<path d="M329.089 359.519L319.056 359.722C318.889 359.733 318.722 359.71 318.564 359.655C318.406 359.6 318.261 359.514 318.137 359.402C318.012 359.29 317.912 359.154 317.841 359.002C317.77 358.851 317.731 358.687 317.724 358.52V349.247C317.739 348.906 317.887 348.584 318.136 348.351C318.385 348.117 318.715 347.99 319.056 347.996L329.089 347.82C329.256 347.81 329.422 347.833 329.58 347.888C329.737 347.943 329.882 348.03 330.005 348.142C330.129 348.254 330.228 348.389 330.299 348.54C330.369 348.691 330.409 348.855 330.415 349.022V358.271C330.4 358.61 330.253 358.931 330.005 359.164C329.758 359.397 329.429 359.524 329.089 359.519V359.519Z" fill="url(#paint15_linear_60_2340)"/>
<g opacity="0.3">
<path d="M385.618 351.061L334.44 352.001V347.716L385.618 346.818V351.061Z" fill="white"/>
<path d="M393.1 350.923L388.57 351.006V346.766L393.1 346.687V350.923Z" fill="white"/>
<path d="M366.427 358.769L334.44 359.406V355.119L366.427 354.511V358.769Z" fill="white"/>
</g>
<path style="mix-blend-mode:multiply" opacity="0.3" d="M511.605 381.901L414.784 384.354V360.937L511.605 358.948V381.901Z" fill="url(#paint16_linear_60_2340)"/>
<path style="mix-blend-mode:multiply" opacity="0.3" d="M609.071 379.433L516.18 381.786V358.854L609.071 356.946V379.433Z" fill="url(#paint17_linear_60_2340)"/>
<path style="mix-blend-mode:multiply" opacity="0.3" d="M511.605 410.039L414.784 413.059V389.642L511.605 387.086V410.039Z" fill="url(#paint18_linear_60_2340)"/>
<path style="mix-blend-mode:multiply" opacity="0.3" d="M609.071 407L516.18 409.898V386.965L609.071 384.513V407Z" fill="url(#paint19_linear_60_2340)"/>
<path d="M664.781 405.262L638.989 406.066V397.977L664.781 397.217V405.262Z" fill="url(#paint20_linear_60_2340)"/>
<path d="M664.781 383.041L613.427 384.397V238.261L664.781 238.502V383.041Z" fill="url(#paint21_linear_60_2340)"/>
<path opacity="0.68" d="M664.781 394.151L613.427 395.631V386.907L664.781 385.522V394.151Z" fill="white"/>
<path opacity="0.5" d="M623.87 250.786H619.11C618.801 250.788 618.504 250.667 618.284 250.45C618.063 250.233 617.938 249.938 617.935 249.629V244.967C617.936 244.814 617.968 244.663 618.028 244.522C618.087 244.382 618.174 244.254 618.284 244.147C618.393 244.04 618.522 243.956 618.664 243.899C618.806 243.842 618.958 243.814 619.11 243.816L623.87 243.834C624.178 243.832 624.475 243.953 624.695 244.169C624.915 244.386 625.04 244.681 625.043 244.989V249.651C625.036 249.957 624.909 250.247 624.69 250.46C624.47 250.672 624.175 250.789 623.87 250.786V250.786Z" fill="url(#paint22_linear_60_2340)"/>
<g opacity="0.73">
<path opacity="0.52" d="M656.127 246.467L627.299 246.38V243.826L656.127 243.928V246.467Z" fill="white"/>
<path opacity="0.52" d="M660.363 246.479L657.799 246.471V243.934L660.363 243.944V246.479Z" fill="white"/>
<path opacity="0.52" d="M645.288 250.83L627.299 250.793V248.239L645.288 248.286V250.83Z" fill="white"/>
</g>
<path opacity="0.5" d="M623.869 262.876H619.11C618.801 262.879 618.504 262.759 618.284 262.543C618.063 262.327 617.938 262.032 617.935 261.723V257.049C617.938 256.74 618.063 256.445 618.284 256.229C618.504 256.013 618.801 255.893 619.11 255.896H623.869C624.022 255.894 624.174 255.923 624.315 255.98C624.457 256.037 624.586 256.122 624.695 256.229C624.804 256.336 624.891 256.464 624.951 256.604C625.01 256.745 625.042 256.896 625.043 257.049V261.711C625.043 261.865 625.013 262.017 624.954 262.159C624.895 262.301 624.808 262.43 624.699 262.538C624.59 262.646 624.46 262.732 624.318 262.79C624.176 262.848 624.023 262.877 623.869 262.876V262.876Z" fill="url(#paint23_linear_60_2340)"/>
<g opacity="0.73">
<path opacity="0.52" d="M656.127 258.474L627.299 258.462V255.906L656.127 255.935V258.474Z" fill="white"/>
<path opacity="0.52" d="M660.363 255.938H657.799V258.475H660.363V255.938Z" fill="white"/>
<path opacity="0.52" d="M645.288 262.865L627.299 262.875V260.319L645.288 260.321V262.865Z" fill="white"/>
</g>
<path opacity="0.5" d="M623.869 274.969L619.11 274.983C618.957 274.985 618.806 274.957 618.664 274.9C618.522 274.843 618.393 274.759 618.283 274.652C618.174 274.545 618.087 274.417 618.027 274.277C617.967 274.136 617.936 273.985 617.935 273.832V269.17C617.936 269.017 617.967 268.866 618.027 268.725C618.087 268.584 618.174 268.456 618.283 268.349C618.392 268.242 618.521 268.157 618.663 268.1C618.805 268.042 618.957 268.013 619.11 268.015H623.869C624.022 268.013 624.174 268.041 624.315 268.098C624.457 268.155 624.586 268.239 624.695 268.346C624.804 268.452 624.891 268.58 624.951 268.72C625.01 268.861 625.042 269.011 625.043 269.164V273.826C625.037 274.132 624.91 274.424 624.69 274.638C624.471 274.852 624.176 274.971 623.869 274.969Z" fill="url(#paint24_linear_60_2340)"/>
<g opacity="0.73">
<path opacity="0.52" d="M656.127 270.483L627.299 270.544V267.99L656.127 267.943V270.483Z" fill="white"/>
<path opacity="0.52" d="M660.363 270.472L657.799 270.478V267.941L660.363 267.937V270.472Z" fill="white"/>
<path opacity="0.52" d="M645.288 274.902L627.299 274.957V272.403L645.288 272.356V274.902Z" fill="white"/>
</g>
<path d="M609.071 349.89L414.784 353.589V237.321L609.071 238.24V349.89Z" fill="url(#paint25_linear_60_2340)"/>
<path opacity="0.3" d="M491.966 269.457V319.525L543.649 295.238L491.966 269.457Z" fill="white"/>
<path d="M530.761 582.468C530.605 582.467 530.454 582.409 530.339 582.304C530.224 582.198 530.151 582.054 530.137 581.898L518.786 459.193C518.777 459.031 518.83 458.872 518.936 458.748C519.042 458.625 519.192 458.548 519.353 458.533C519.515 458.518 519.676 458.567 519.803 458.668C519.93 458.77 520.012 458.916 520.033 459.078L530.137 568.271V456.42C530.137 456.254 530.203 456.095 530.32 455.977C530.438 455.86 530.597 455.794 530.763 455.794C530.929 455.794 531.089 455.86 531.206 455.977C531.324 456.095 531.389 456.254 531.389 456.42V581.839C531.39 582.003 531.327 582.159 531.213 582.277C531.099 582.394 530.945 582.461 530.781 582.466L530.761 582.468Z" fill="#B7C0CE"/>
<path d="M657.37 469.843L532.809 456.195L293.508 467.072L418.838 482.079L657.37 469.843Z" fill="#D8DEE8"/>
<path d="M418.838 482.079L657.37 469.842V475.753L418.838 487.991L293.508 472.982V467.071L418.838 482.079Z" fill="#B7C0CE"/>
<path d="M419.685 625.263H419.661C419.498 625.258 419.343 625.19 419.229 625.073C419.116 624.956 419.052 624.8 419.052 624.637V486.553C419.052 486.387 419.118 486.228 419.236 486.11C419.353 485.993 419.513 485.927 419.679 485.927C419.845 485.927 420.004 485.993 420.122 486.11C420.239 486.228 420.305 486.387 420.305 486.553V608.591L429.852 486.504C429.868 486.341 429.948 486.191 430.073 486.086C430.199 485.981 430.361 485.929 430.524 485.942C430.687 485.954 430.839 486.031 430.947 486.154C431.055 486.277 431.11 486.438 431.101 486.602L420.303 624.685C420.291 624.841 420.221 624.987 420.106 625.094C419.992 625.201 419.842 625.261 419.685 625.263V625.263Z" fill="#B7C0CE"/>
<path d="M294.876 600.724H294.851C294.689 600.72 294.534 600.652 294.42 600.535C294.307 600.418 294.243 600.261 294.243 600.098V472.656C294.243 472.49 294.309 472.331 294.427 472.213C294.544 472.096 294.704 472.03 294.87 472.03C295.036 472.03 295.195 472.096 295.313 472.213C295.43 472.331 295.496 472.49 295.496 472.656V584.126L304.252 472.607C304.258 472.525 304.28 472.444 304.317 472.37C304.354 472.295 304.405 472.229 304.468 472.175C304.531 472.121 304.604 472.079 304.682 472.054C304.761 472.028 304.844 472.018 304.927 472.024C305.01 472.031 305.09 472.054 305.164 472.092C305.238 472.13 305.303 472.182 305.357 472.246C305.41 472.309 305.45 472.382 305.475 472.462C305.5 472.541 305.509 472.624 305.501 472.707L295.5 600.155C295.486 600.311 295.415 600.456 295.299 600.561C295.183 600.667 295.032 600.725 294.876 600.724V600.724Z" fill="#B7C0CE"/>
<path d="M656.189 600.724C656.032 600.724 655.88 600.665 655.765 600.559C655.649 600.453 655.578 600.307 655.564 600.151L644.939 472.701C644.932 472.619 644.942 472.536 644.967 472.458C644.992 472.379 645.032 472.307 645.085 472.244C645.139 472.181 645.204 472.13 645.277 472.092C645.35 472.054 645.43 472.031 645.512 472.025C645.594 472.018 645.676 472.027 645.755 472.052C645.833 472.077 645.906 472.118 645.968 472.171C646.031 472.224 646.083 472.289 646.12 472.362C646.158 472.435 646.181 472.515 646.188 472.597L655.562 585.046V475.753C655.562 475.587 655.628 475.428 655.746 475.31C655.863 475.193 656.023 475.127 656.189 475.127C656.355 475.127 656.514 475.193 656.632 475.31C656.749 475.428 656.815 475.587 656.815 475.753V600.116C656.815 600.279 656.752 600.436 656.638 600.553C656.525 600.67 656.37 600.738 656.207 600.743L656.189 600.724Z" fill="#B7C0CE"/>
<path d="M382.957 586.578C382.754 585.441 379.077 584.411 377.259 585.935C376.355 586.691 375.733 588.226 376.245 588.919C376.436 589.17 375.656 589.614 376.404 589.622C378.889 589.651 383.163 587.709 382.957 586.578Z" fill="url(#paint26_linear_60_2340)"/>
<path d="M378.939 586.583L375.128 586.773C376.45 584.374 374.861 577.843 374.861 577.843L378.977 577.964C378.977 577.964 378.876 579.86 378.625 582.675C378.54 583.64 378.698 585.091 378.939 586.583Z" fill="url(#paint27_linear_60_2340)"/>
<path d="M379.442 586.535C379.442 586.535 374.893 585.487 374.401 586.389C373.908 587.291 373.527 589.707 376.414 589.632C379.3 589.557 379.697 587.293 379.442 586.535Z" fill="url(#paint28_linear_60_2340)"/>
<path d="M406.163 591.214C405.798 590.115 402.016 589.611 400.429 591.374C399.64 592.25 399.239 593.855 399.853 594.467C400.076 594.69 399.369 595.237 400.109 595.142C402.563 594.824 406.524 592.302 406.163 591.214Z" fill="url(#paint29_linear_60_2340)"/>
<path d="M401.694 592.27L397.948 593.006C398.911 590.44 396.403 584.205 396.403 584.205L400.494 583.734C400.494 583.734 400.666 585.626 400.82 588.447C400.875 589.414 401.24 590.829 401.694 592.27Z" fill="url(#paint30_linear_60_2340)"/>
<path d="M402.675 591.652C402.675 591.652 398.013 591.246 397.662 592.213C397.311 593.18 397.257 595.62 400.109 595.14C402.961 594.66 403.035 592.373 402.675 591.652Z" fill="url(#paint31_linear_60_2340)"/>
<path d="M382.778 477.687L398.848 440.042C399.037 439.6 399.127 439.122 399.112 438.642C399.098 438.162 398.979 437.69 398.763 437.26C398.548 436.83 398.242 436.453 397.866 436.153C397.49 435.854 397.053 435.64 396.586 435.526L367.149 428.377C366.378 428.19 365.565 428.285 364.859 428.645C364.152 429.005 363.598 429.607 363.297 430.341L348.517 466.522C348.343 466.948 348.26 467.406 348.273 467.865C348.285 468.325 348.394 468.777 348.591 469.193C348.788 469.609 349.07 469.978 349.418 470.279C349.766 470.58 350.173 470.805 350.613 470.939L378.761 479.552C379.543 479.792 380.386 479.734 381.128 479.39C381.869 479.046 382.457 478.439 382.778 477.687Z" fill="#26264F"/>
<path d="M382.051 475.872L397.062 440.711C397.239 440.298 397.323 439.851 397.309 439.403C397.296 438.954 397.184 438.513 396.983 438.112C396.782 437.71 396.496 437.357 396.144 437.078C395.793 436.798 395.385 436.599 394.948 436.493L367.453 429.816C366.734 429.641 365.976 429.73 365.316 430.067C364.657 430.403 364.141 430.965 363.861 431.65L350.053 465.446C349.891 465.843 349.813 466.271 349.825 466.7C349.837 467.13 349.938 467.552 350.123 467.94C350.307 468.328 350.57 468.674 350.895 468.954C351.22 469.235 351.601 469.445 352.011 469.57L378.303 477.615C379.033 477.839 379.819 477.784 380.511 477.462C381.203 477.141 381.751 476.574 382.051 475.872V475.872Z" fill="#EFF2F6"/>
<path d="M391.318 465.538L391.8 461.101L394.356 456.236C394.703 455.572 394.884 454.834 394.885 454.085V449.247L391.8 456.382C391.8 456.382 389.773 454.558 389.003 454.164C388.233 453.771 388.328 455.322 388.908 455.9C389.488 456.477 388.618 461.204 389.196 461.686L388.993 464.579L391.318 465.538Z" fill="url(#paint32_linear_60_2340)"/>
<path d="M366.824 437.284C364.424 431.416 359.274 428.041 356.602 426.292C350.282 422.151 346.237 422.907 331.724 420.7C312.381 417.757 310.066 414.967 303.565 417.227C295.026 420.195 290.567 427.948 288.521 431.499C278.218 449.407 290.265 458.508 287.171 494.178C285.909 508.748 282.67 521.406 290.451 528.894C292.089 530.471 293.921 531.296 297.586 532.948C312.121 539.489 325.152 538.362 333.074 537.577C341.789 536.714 346.192 536.221 348.503 533.142C352.194 528.223 348.393 521.972 347.73 511.156C347.254 503.389 349.022 497.235 352.553 484.925C360.764 456.307 371.421 448.528 366.824 437.284Z" fill="url(#paint33_linear_60_2340)"/>
<path d="M334.448 410.142C335.33 407.004 333.789 404.099 333.451 403.473C332.032 400.852 331.667 400.494 330.988 400.039L330.045 399.46L329.934 399.417C329.326 399.202 327.269 399.14 326.851 399.229C325.517 399.512 324.096 404.947 324.502 412.629C324.447 412.921 324.394 413.217 324.342 413.515C324.134 414.731 323.965 415.919 323.837 417.078C323.713 418.191 322.136 418.164 321.019 418.091C316.487 417.802 314.27 418.189 314.077 418.864C313.714 420.129 319.092 424.263 325.728 425.194C334.647 425.261 341.885 424.312 341.106 422.907C340.76 422.285 333.858 420.475 331.916 418.693C330.139 417.058 330.283 415.367 330.137 414.157C330.676 413.879 333.801 412.452 334.448 410.142Z" fill="url(#paint34_linear_60_2340)"/>
<path d="M332.81 397.277C332.81 399.656 331.681 402.198 331.109 402.607C330.774 402.873 330.483 403.19 330.248 403.548C330.191 403.636 330.146 403.731 330.112 403.83C329.591 405.33 331.975 407.093 331.515 407.766C331.18 408.252 329.561 407.602 329.368 408.021C329.176 408.441 330.534 409.238 330.327 409.712C330.171 410.071 329.342 409.742 328.819 410.29C328.56 410.563 328.635 410.78 328.359 411.615C328.218 412.057 328.036 412.484 327.816 412.892C326.993 414.289 324.664 414.8 324.216 414.24C324.09 414.084 324.198 413.952 324.07 413.429C323.967 413.062 323.814 412.711 323.616 412.385C323.133 411.585 321.97 411.011 320.796 410.166C318.623 408.601 318.032 407.267 317.855 406.817C317.792 406.655 317.752 406.536 317.726 406.449C317.16 404.693 317.156 402.117 317.946 400.532C319.266 397.879 322.248 399.137 324.686 396.508C327.499 393.468 325.823 389.327 327.351 388.869C329.034 388.364 332.824 392.876 332.81 397.277Z" fill="#26264F"/>
<path d="M330.659 407.206C330.076 406.396 329.052 407.158 329.038 408.196C329.024 409.233 330.035 410.31 331.01 410.105C331.985 409.9 331.438 408.285 330.659 407.206Z" fill="url(#paint35_linear_60_2340)"/>
<path d="M330.187 405.472L331.539 407.231C331.539 407.231 332.999 409.388 333.85 408.208C334.545 407.241 334.726 407.264 334.768 407.304C334.768 407.304 334.768 407.322 334.78 407.322C334.792 407.322 334.679 406.842 334.578 406.422C335.106 407.177 335.497 408.018 335.735 408.907C336.027 410.004 336.343 411.178 335.723 412.304C335.686 412.369 335.005 413.569 333.732 413.859C333.732 413.859 333.232 413.975 331.12 413.602C331.12 413.602 333.428 411.925 333.465 411.528C333.56 410.444 332.058 409.86 330.943 407.638C330.598 406.952 330.344 406.224 330.187 405.472V405.472Z" fill="#26264F"/>
<path style="mix-blend-mode:multiply" opacity="0.3" d="M325.56 527.348C328.124 522.244 321.842 515.458 325.945 507.677C329.431 501.067 335.763 502.548 338.674 496.49C342.191 489.175 334.543 483.706 334.823 472.572C335.151 459.265 346.599 445.946 353.337 447.114C357.697 447.87 358.258 454.374 361.325 461.493C358.611 467.446 355.447 474.901 352.567 484.914C349.036 497.224 347.268 503.377 347.744 511.145C348.407 521.96 352.204 528.212 348.517 533.131C346.206 536.21 341.801 536.702 333.088 537.566C325.168 538.35 312.135 539.477 297.6 532.936C295.761 532.109 294.383 531.489 293.26 530.877C315.954 534.294 323.518 531.402 325.56 527.348Z" fill="url(#paint36_linear_60_2340)"/>
<path d="M392.185 464.671L387.943 462.846C385.551 465.291 382.503 467.669 379.939 466.9C376.116 465.749 377.072 458.718 372.417 446.359C367.147 432.359 361.159 428.761 358.145 427.46C356.462 426.732 355.307 426.244 353.902 426.593C347.473 428.163 345.349 444.916 347.153 457.449C348.166 464.513 350.161 478.359 361.52 484.932C363.141 485.866 372.015 491.013 380.806 486.959C388.316 483.487 392.956 474.613 392.185 464.671Z" fill="url(#paint37_linear_60_2340)"/>
<path d="M381.43 578.367L374.379 579.151C371.204 575.63 366.474 569.495 363.93 560.866C359.077 544.338 366.676 533.49 361.581 529.26C355.702 524.395 344.1 537.558 318.482 541.275C310.236 542.473 291.929 545.127 284.526 535.268C281.522 531.271 279.799 524.525 282.175 518.813C286.432 508.561 300.466 509.793 346.691 500.789C364.497 497.321 367.311 496.186 371.541 498.205C392.463 508.194 383.733 564.668 381.43 578.367Z" fill="url(#paint38_linear_60_2340)"/>
<path d="M402.413 585.015L395.362 585.799C392.187 582.28 387.456 576.143 384.913 567.514C380.06 550.986 387.659 540.138 382.563 535.91C376.685 531.033 365.083 544.206 339.465 547.926C331.219 549.122 312.912 551.777 305.509 541.918C302.505 537.919 300.782 531.175 303.158 525.461C307.415 515.209 321.449 516.441 367.674 507.44C385.48 503.972 388.294 502.834 392.524 504.855C413.446 514.842 404.722 571.317 402.413 585.015Z" fill="url(#paint39_linear_60_2340)"/>
<path d="M321.944 629.288C343.475 629.288 360.93 622.164 360.93 613.376C360.93 604.589 343.475 597.465 321.944 597.465C300.412 597.465 282.958 604.589 282.958 613.376C282.958 622.164 300.412 629.288 321.944 629.288Z" fill="url(#paint40_linear_60_2340)"/>
<path d="M282.958 611.509C282.958 619.804 300.412 626.529 321.944 626.529C343.476 626.529 360.93 619.804 360.93 611.509C360.93 603.215 343.476 589.641 321.944 589.641C300.412 589.641 282.958 603.215 282.958 611.509Z" fill="url(#paint41_linear_60_2340)"/>
<path style="mix-blend-mode:multiply" opacity="0.3" d="M282.958 611.509C282.958 603.215 300.412 589.641 321.944 589.641C331.018 589.657 339.936 592.008 347.84 596.467C348.308 597.383 348.518 598.409 348.448 599.435C348.002 604.097 340.389 606.971 336.021 607.918C325.017 610.301 319.643 603.722 310.571 603.971C304.962 604.127 297.193 606.945 287.97 618.877C284.786 616.702 282.958 614.189 282.958 611.509Z" fill="url(#paint42_linear_60_2340)"/>
<path d="M319.807 597.174C321.241 597.55 322.747 597.559 324.185 597.2C324.788 597.039 325.321 596.682 325.7 596.186C326.078 595.69 326.281 595.082 326.277 594.457V550.497H317.608V594.405C317.613 595.046 317.832 595.666 318.231 596.168C318.629 596.67 319.184 597.024 319.807 597.174Z" fill="white"/>
<path style="mix-blend-mode:multiply" opacity="0.65" d="M319.807 597.174C321.241 597.55 322.747 597.559 324.185 597.2C324.788 597.039 325.321 596.682 325.7 596.186C326.078 595.69 326.281 595.082 326.277 594.457V550.497H317.608V594.405C317.613 595.046 317.832 595.666 318.231 596.168C318.629 596.67 319.184 597.024 319.807 597.174Z" fill="url(#paint43_linear_60_2340)"/>
<path d="M367.751 531.996L354.506 523.625C353.955 520.497 347.712 487.778 322.369 477.505C312.062 473.328 300.971 473.823 294.884 474.094C282.732 474.637 274.065 475.024 269.898 480.822C264.545 488.262 273.522 495.01 271.663 516.293C270.905 524.974 268.978 528.832 271.379 534.582C274.256 541.474 280.926 545.291 286.113 547.441C292.312 551.041 303.107 556.171 317.367 557.42C341.382 559.526 359.312 549.223 365.478 545.28C366.825 544.856 368.034 544.08 368.981 543.032C369.927 541.985 370.578 540.704 370.864 539.321C371.15 537.928 371.006 536.482 370.449 535.173C369.893 533.864 368.952 532.756 367.751 531.996V531.996Z" fill="url(#paint44_linear_60_2340)"/>
<g style="mix-blend-mode:soft-light" opacity="0.26">
<path d="M361.66 537.956C361.171 535.013 352.966 537.453 345.205 531.687C333.603 523.07 339.625 508.472 329.533 494.466C320.271 481.615 301.626 475.072 295.839 479.969C288.136 486.488 306.987 510.864 295.839 526.589C290.421 534.229 282.167 533.862 282.124 538.345C282.058 545.427 302.597 553.592 322.09 553.235C343.042 552.852 362.438 542.628 361.66 537.956Z" fill="white"/>
</g>
<path d="M606.915 472.203L521.33 471.566V473.451C521.33 473.699 521.418 473.938 521.58 474.126C521.741 474.314 521.965 474.438 522.209 474.475L546.409 478.184C546.697 478.229 546.988 478.241 547.279 478.221L605.985 473.989C606.238 473.971 606.474 473.858 606.647 473.672C606.819 473.487 606.915 473.243 606.915 472.989V472.203Z" fill="url(#paint45_linear_60_2340)"/>
<path d="M575.857 469.09L522.216 472.536C521.255 472.599 520.474 471.942 520.474 471.072V436.209C520.474 435.337 521.255 434.632 522.216 434.632H575.857C576.044 434.631 576.229 434.666 576.403 434.737C576.576 434.808 576.734 434.912 576.866 435.044C576.999 435.176 577.105 435.333 577.177 435.505C577.248 435.678 577.286 435.864 577.286 436.051V467.574C577.279 467.959 577.129 468.328 576.865 468.609C576.6 468.889 576.241 469.061 575.857 469.09V469.09Z" fill="url(#paint46_linear_60_2340)"/>
<path d="M576.712 469.09L523.071 472.536C522.11 472.599 521.33 471.942 521.33 471.072V436.209C521.33 435.337 522.11 434.632 523.071 434.632H576.712C577.088 434.632 577.449 434.781 577.715 435.047C577.981 435.314 578.131 435.674 578.131 436.051V467.574C578.124 467.957 577.976 468.325 577.713 468.605C577.451 468.886 577.094 469.058 576.712 469.09V469.09Z" fill="#26264F"/>
<path d="M575.039 466.865L525.079 469.859C524.297 469.906 523.66 469.368 523.66 468.657V438.127C523.66 437.418 524.295 436.838 525.079 436.836L575.039 436.648C575.194 436.646 575.347 436.675 575.49 436.733C575.633 436.791 575.763 436.877 575.873 436.986C575.983 437.094 576.07 437.223 576.13 437.366C576.19 437.508 576.221 437.661 576.221 437.815V465.623C576.216 465.94 576.091 466.244 575.872 466.474C575.654 466.704 575.356 466.844 575.039 466.865V466.865Z" fill="#EFF2F6"/>
<path d="M551.784 435.577C551.789 435.698 551.757 435.818 551.693 435.921C551.629 436.024 551.536 436.105 551.425 436.154C551.314 436.204 551.191 436.219 551.072 436.198C550.953 436.177 550.842 436.121 550.755 436.037C550.668 435.953 550.607 435.845 550.582 435.726C550.557 435.608 550.567 435.484 550.613 435.372C550.658 435.26 550.736 435.163 550.836 435.095C550.937 435.028 551.055 434.991 551.176 434.991C551.334 434.991 551.485 435.052 551.599 435.161C551.712 435.271 551.779 435.42 551.784 435.577V435.577Z" fill="white"/>
<g style="mix-blend-mode:soft-light" opacity="0.48">
<path d="M564.005 459.54C559.848 457.513 556.58 460.082 553.426 457.55C551.515 456.015 552.453 454.872 550.1 452.578C547.493 450.038 545.797 450.891 543.178 448.607C539.866 445.715 541.522 443.467 538.67 441.391C535.21 438.874 531.479 441.205 528.183 438.789C526.764 437.749 525.983 436.235 525.576 434.623H522.353C522.095 434.611 521.842 434.702 521.65 434.875C521.459 435.049 521.343 435.291 521.33 435.549V471.722C521.33 472.233 521.788 472.618 522.353 472.582L577.306 469.051C577.436 469.041 577.563 469.003 577.677 468.94C577.792 468.876 577.891 468.789 577.968 468.684C573.947 468.552 571.482 467.33 569.895 466.069C566.802 463.6 567.337 461.164 564.005 459.54Z" fill="white"/>
</g>
<path d="M578.85 468.993L521.33 472.621L546.409 476.472C546.697 476.517 546.988 476.529 547.279 476.507L606.915 472.21L579.764 469.023C579.461 468.987 579.155 468.977 578.85 468.993Z" fill="#26264F"/>
<path opacity="0.47" d="M529.723 472.653L577.61 469.586L592.431 471.311L544.956 474.588L529.723 472.653Z" fill="#D8DEE8"/>
<path d="M589.743 582.362C589.743 582.362 577.164 583.238 576.974 584.059C576.783 584.88 585.513 588.056 588.562 588.173C591.61 588.291 594.117 587.391 593.832 586.1C593.546 584.809 592.49 581.562 592.49 581.562L589.743 582.362Z" fill="url(#paint47_linear_60_2340)"/>
<path d="M589.149 576.772L588.926 582.709C588.926 582.709 590.84 583.79 592.36 583.169L594.048 576.908L589.149 576.772Z" fill="url(#paint48_linear_60_2340)"/>
<path d="M554.559 579.968C554.559 579.968 541.978 580.843 541.789 581.664C541.601 582.485 550.329 585.661 553.377 585.779C556.426 585.896 558.933 584.997 558.658 583.705C558.382 582.414 557.314 579.167 557.314 579.167L554.559 579.968Z" fill="url(#paint49_linear_60_2340)"/>
<path d="M553.965 574.374L553.74 580.313C553.74 580.313 555.656 581.393 557.174 580.771L558.865 574.51L553.965 574.374Z" fill="url(#paint50_linear_60_2340)"/>
<path d="M587.813 577.616L594.865 578.398C598.041 574.88 602.77 568.744 605.314 560.115C610.197 543.48 603.125 531.493 607.663 528.509C614.091 524.287 628.018 548.598 650.371 547.968C659.543 547.711 671.516 543.219 676.113 533.437C676.808 531.959 680.22 524.228 676.896 516.98C673.466 509.497 656.446 506.237 622.549 500.033C607.998 497.367 600.658 496.04 597.699 497.448C576.781 507.439 585.505 563.914 587.813 577.616Z" fill="url(#paint51_linear_60_2340)"/>
<path d="M551.92 577.712L559.217 578.981C562.171 574.631 566.64 567.814 571.638 559.167C582.059 541.137 581.868 537.479 586.684 535.154C596.876 530.243 604.576 543.511 629.781 547.17C638.027 548.368 656.334 551.021 663.737 541.162C666.741 537.165 668.466 530.419 666.088 524.707C661.831 514.455 647.797 515.687 601.572 506.684C583.545 503.173 581.088 502.547 576.722 504.099C552.334 512.772 551.858 565.86 551.92 577.712Z" fill="url(#paint52_linear_60_2340)"/>
<path d="M602.419 436.529C604.819 430.651 609.97 427.286 612.641 425.537C613.847 424.733 615.128 424.048 616.466 423.492C626.141 419.544 635.797 419.815 637.52 419.943C641.698 420.257 652.017 421.029 659.66 427.645C663.362 430.85 666.319 435.327 670.632 460.557C676.646 495.74 671.765 492.134 676.51 506.396C679.02 513.942 682.932 522.601 678.795 528.131C677.459 529.917 675.552 530.43 671.66 532.185C657.125 538.726 644.093 537.599 636.172 536.814C627.456 535.951 623.054 535.456 620.743 532.377C617.052 527.46 620.852 521.209 621.515 510.391C621.992 502.626 620.226 496.47 616.693 484.163C608.482 455.552 597.822 447.773 602.419 436.529Z" fill="url(#paint53_linear_60_2340)"/>
<path d="M561.465 471.567L552.172 469.784C551.503 469.654 550.816 469.647 550.145 469.763L542.11 471.146C542.11 471.146 547.336 473.246 551.775 472.587C556.214 471.928 561.066 474.427 561.066 474.427L561.465 471.567Z" fill="url(#paint54_linear_60_2340)"/>
<path d="M622.965 413.435C621.404 411.075 623.741 406.543 624.665 404.739C624.698 404.676 624.738 404.595 624.825 404.435C626.244 401.814 626.611 401.455 627.288 401.001L628.231 400.422L628.342 400.379C628.95 400.164 631.008 400.101 631.425 400.191C632.759 400.474 634.18 405.909 633.774 413.591C633.829 413.883 633.882 414.179 633.934 414.476C634.143 415.693 634.311 416.88 634.439 418.04C634.563 419.153 636.14 419.126 637.257 419.053C641.789 418.766 644.006 419.151 644.199 419.826C644.562 421.09 639.186 425.225 632.548 426.156C623.64 426.223 616.391 425.272 617.172 423.869C617.516 423.247 624.42 421.437 626.36 419.655C628.137 418.02 627.994 416.329 628.139 415.119C627.221 415.176 624.157 415.239 622.965 413.435Z" fill="url(#paint55_linear_60_2340)"/>
<path d="M625.466 398.242C624.734 399.863 626.51 403.107 627.167 403.573C627.503 403.837 627.794 404.155 628.028 404.513C628.086 404.601 628.131 404.695 628.164 404.795C628.685 406.295 626.301 408.06 626.761 408.731C627.096 409.218 628.715 408.567 628.908 408.987C629.1 409.406 627.742 410.203 627.949 410.677C628.105 411.034 628.934 410.708 629.457 411.257C629.863 411.681 629.907 412.27 629.917 412.58C629.982 414.713 625.148 422.413 624.141 425.887C623.072 429.57 624.982 433.079 631.924 442.77C641.797 456.553 646.733 463.445 649.477 465.417C662.892 475.047 678.665 473.865 685.131 472.862C692.901 471.646 708.954 469.161 714.117 456.798C720.06 442.585 708.358 423.139 696.354 419.837C690.866 418.327 687.943 420.621 680.814 418.14C672.939 415.4 673.894 410.556 666.603 407.694C656.874 403.877 650.608 410.699 643.984 405.731C640.38 403.03 640.974 400.056 636.539 397.897C632.173 395.761 626.427 396.126 625.466 398.242Z" fill="#26264F"/>
<path d="M627.617 408.162C628.2 407.352 629.226 408.114 629.238 409.152C629.25 410.189 628.239 411.266 627.264 411.061C626.289 410.856 626.832 409.249 627.617 408.162Z" fill="url(#paint56_linear_60_2340)"/>
<path style="mix-blend-mode:multiply" opacity="0.3" d="M643.692 526.596C641.128 521.49 647.412 514.706 643.307 506.925C639.821 500.315 633.489 501.794 630.578 495.738C627.061 488.421 634.709 482.954 634.429 471.82C634.101 458.513 622.652 445.194 615.915 446.362C611.555 447.118 610.994 453.62 607.927 460.741C610.641 466.692 613.805 474.149 616.685 484.162C620.218 496.47 621.984 502.626 621.507 510.391C620.844 521.209 617.048 527.46 620.735 532.377C623.046 535.456 627.45 535.95 636.164 536.814C644.083 537.598 657.117 538.725 671.652 532.184C673.49 531.357 674.869 530.737 675.992 530.125C653.29 533.54 645.725 530.644 643.692 526.596Z" fill="url(#paint57_linear_60_2340)"/>
<path d="M559.1 474.277C559.37 473.092 559.633 471.907 559.889 470.722C577.726 473.92 585.535 470.33 589.306 466.135C592.766 462.284 591.29 460.293 596.828 445.594C602.098 431.594 608.085 427.996 611.099 426.694C612.782 425.967 613.937 425.478 615.342 425.825C621.771 427.398 623.895 444.148 622.091 456.683C621.078 463.745 619.083 477.593 607.724 484.166C607.522 484.288 607.185 484.479 606.747 484.712C605.318 485.478 599.633 488.21 588.438 486.191C575.237 483.81 562.359 476.245 559.1 474.277Z" fill="url(#paint58_linear_60_2340)"/>
<path d="M641.72 622.912C663.252 622.912 680.706 615.788 680.706 607C680.706 598.213 663.252 591.089 641.72 591.089C620.189 591.089 602.734 598.213 602.734 607C602.734 615.788 620.189 622.912 641.72 622.912Z" fill="url(#paint59_linear_60_2340)"/>
<path d="M680.706 605.135C680.706 613.43 663.252 620.155 641.72 620.155C620.188 620.155 602.734 613.43 602.734 605.135C602.734 596.841 620.188 583.267 641.72 583.267C663.252 583.267 680.706 596.839 680.706 605.135Z" fill="url(#paint60_linear_60_2340)"/>
<path style="mix-blend-mode:multiply" opacity="0.3" d="M680.707 605.135C680.707 596.839 663.253 583.267 641.721 583.267C632.644 583.283 623.724 585.635 615.818 590.095C615.35 591.011 615.14 592.037 615.21 593.063C615.656 597.725 623.269 600.599 627.637 601.546C638.642 603.929 644.015 597.348 653.088 597.599C658.696 597.755 666.465 600.573 675.686 612.505C678.878 610.328 680.707 607.817 680.707 605.135Z" fill="url(#paint61_linear_60_2340)"/>
<path d="M643.857 590.801C642.423 591.178 640.917 591.187 639.479 590.828C638.876 590.667 638.343 590.31 637.964 589.814C637.586 589.317 637.383 588.71 637.387 588.085V544.125H646.056V588.033C646.051 588.673 645.832 589.294 645.433 589.796C645.035 590.298 644.48 590.652 643.857 590.801V590.801Z" fill="white"/>
<path style="mix-blend-mode:multiply" opacity="0.65" d="M643.857 590.801C642.423 591.178 640.917 591.187 639.479 590.828C638.876 590.667 638.343 590.31 637.964 589.814C637.586 589.317 637.383 588.71 637.387 588.085V544.125H646.056V588.033C646.051 588.673 645.832 589.294 645.433 589.796C645.035 590.298 644.48 590.652 643.857 590.801V590.801Z" fill="url(#paint62_linear_60_2340)"/>
<path d="M595.914 525.622L609.158 517.251C609.709 514.123 615.952 481.404 641.295 471.132C651.602 466.952 662.693 467.449 668.78 467.72C680.932 468.264 689.599 468.651 693.766 474.448C699.119 481.889 690.142 488.636 692.001 509.919C692.759 518.601 694.686 522.458 692.285 528.209C689.408 535.1 682.738 538.917 677.551 541.067C671.352 544.667 660.557 549.797 646.297 551.046C622.282 553.152 604.352 542.849 598.186 538.907C596.839 538.482 595.63 537.706 594.683 536.659C593.737 535.611 593.086 534.33 592.8 532.947C592.514 531.555 592.658 530.108 593.215 528.799C593.771 527.491 594.712 526.383 595.914 525.622V525.622Z" fill="url(#paint63_linear_60_2340)"/>
<g style="mix-blend-mode:soft-light" opacity="0.26">
<path d="M602.003 531.582C602.493 528.639 610.698 531.079 618.459 525.313C630.062 516.696 624.04 502.096 634.132 488.092C643.393 475.241 662.039 468.698 667.826 473.595C675.528 480.114 656.677 504.49 667.826 520.215C673.244 527.857 681.497 527.49 681.54 531.971C681.607 539.053 661.068 547.218 641.575 546.861C620.622 546.478 601.224 536.264 602.003 531.582Z" fill="white"/>
</g>
<defs>
<linearGradient id="paint0_linear_60_2340" x1="663.543" y1="181.83" x2="573.876" y2="436.671" gradientUnits="userSpaceOnUse">
<stop stop-color="#FFC444"/>
<stop offset="1" stop-color="#F36F56"/>
</linearGradient>
<linearGradient id="paint1_linear_60_2340" x1="390.089" y1="18.2483" x2="243.495" y2="427.892" gradientUnits="userSpaceOnUse">
<stop stop-color="#E38DDD"/>
<stop offset="1" stop-color="#9571F6"/>
</linearGradient>
<linearGradient id="paint2_linear_60_2340" x1="759.657" y1="68.3936" x2="538.825" y2="373.846" gradientUnits="userSpaceOnUse">
<stop stop-color="#AA80F9"/>
<stop offset="1" stop-color="#6165D7"/>
</linearGradient>
<linearGradient id="paint3_linear_60_2340" x1="408.162" y1="60.459" x2="332.4" y2="275.782" gradientUnits="userSpaceOnUse">
<stop stop-color="#FFC444"/>
<stop offset="1" stop-color="#F36F56"/>
</linearGradient>
<linearGradient id="paint4_linear_60_2340" x1="155.836" y1="315.988" x2="562.458" y2="356.442" gradientUnits="userSpaceOnUse">
<stop stop-color="#E38DDD"/>
<stop offset="1" stop-color="#9571F6"/>
</linearGradient>
<linearGradient id="paint5_linear_60_2340" x1="186.022" y1="217.238" x2="503.182" y2="345.996" gradientUnits="userSpaceOnUse">
<stop stop-color="#AA80F9"/>
<stop offset="1" stop-color="#6165D7"/>
</linearGradient>
<linearGradient id="paint6_linear_60_2340" x1="271.984" y1="284.642" x2="702.584" y2="284.642" gradientUnits="userSpaceOnUse">
<stop stop-color="white"/>
<stop offset="1" stop-color="#EBEFF2"/>
</linearGradient>
<linearGradient id="paint7_linear_60_2340" x1="491.649" y1="-42.9938" x2="486.979" y2="547.161" gradientUnits="userSpaceOnUse">
<stop stop-color="#FF9085"/>
<stop offset="1" stop-color="#FB6FBB"/>
</linearGradient>
<linearGradient id="paint8_linear_60_2340" x1="588.112" y1="142.93" x2="252.526" y2="689.579" gradientUnits="userSpaceOnUse">
<stop stop-color="#AA80F9"/>
<stop offset="1" stop-color="#6165D7"/>
</linearGradient>
<linearGradient id="paint9_linear_60_2340" x1="511.153" y1="138.382" x2="469.99" y2="276.101" gradientUnits="userSpaceOnUse">
<stop stop-color="#444B8C"/>
<stop offset="1" stop-color="#26264F"/>
</linearGradient>
<linearGradient id="paint10_linear_60_2340" x1="369.326" y1="234.596" x2="322.77" y2="420.484" gradientUnits="userSpaceOnUse">
<stop stop-color="#444B8C"/>
<stop offset="1" stop-color="#26264F"/>
</linearGradient>
<linearGradient id="paint11_linear_60_2340" x1="275.509" y1="77.8476" x2="344.783" y2="316.987" gradientUnits="userSpaceOnUse">
<stop stop-color="#444B8C"/>
<stop offset="1" stop-color="#26264F"/>
</linearGradient>
<linearGradient id="paint12_linear_60_2340" x1="307.602" y1="213.541" x2="376.873" y2="452.679" gradientUnits="userSpaceOnUse">
<stop stop-color="#FF9085"/>
<stop offset="1" stop-color="#FB6FBB"/>
</linearGradient>
<linearGradient id="paint13_linear_60_2340" x1="299.822" y1="215.797" x2="369.094" y2="454.936" gradientUnits="userSpaceOnUse">
<stop stop-color="#FF9085"/>
<stop offset="1" stop-color="#FB6FBB"/>
</linearGradient>
<linearGradient id="paint14_linear_60_2340" x1="292.043" y1="218.048" x2="361.316" y2="457.187" gradientUnits="userSpaceOnUse">
<stop stop-color="#FF9085"/>
<stop offset="1" stop-color="#FB6FBB"/>
</linearGradient>
<linearGradient id="paint15_linear_60_2340" x1="259.904" y1="138.767" x2="329.177" y2="377.908" gradientUnits="userSpaceOnUse">
<stop stop-color="#444B8C"/>
<stop offset="1" stop-color="#26264F"/>
</linearGradient>
<linearGradient id="paint16_linear_60_2340" x1="457.731" y1="361.279" x2="535.245" y2="496.48" gradientUnits="userSpaceOnUse">
<stop stop-color="#444B8C"/>
<stop offset="1" stop-color="#26264F"/>
</linearGradient>
<linearGradient id="paint17_linear_60_2340" x1="533.567" y1="318.033" x2="608.407" y2="448.57" gradientUnits="userSpaceOnUse">
<stop stop-color="#444B8C"/>
<stop offset="1" stop-color="#26264F"/>
</linearGradient>
<linearGradient id="paint18_linear_60_2340" x1="445.989" y1="369.456" x2="522.924" y2="503.644" gradientUnits="userSpaceOnUse">
<stop stop-color="#444B8C"/>
<stop offset="1" stop-color="#26264F"/>
</linearGradient>
<linearGradient id="paint19_linear_60_2340" x1="522.405" y1="326.628" x2="596.689" y2="456.195" gradientUnits="userSpaceOnUse">
<stop stop-color="#444B8C"/>
<stop offset="1" stop-color="#26264F"/>
</linearGradient>
<linearGradient id="paint20_linear_60_2340" x1="662.9" y1="382.719" x2="644.287" y2="409.154" gradientUnits="userSpaceOnUse">
<stop stop-color="#AA80F9"/>
<stop offset="1" stop-color="#6165D7"/>
</linearGradient>
<linearGradient id="paint21_linear_60_2340" x1="610.956" y1="231.574" x2="680.432" y2="431.458" gradientUnits="userSpaceOnUse">
<stop stop-color="#444B8C"/>
<stop offset="1" stop-color="#26264F"/>
</linearGradient>
<linearGradient id="paint22_linear_60_2340" x1="617.771" y1="238.573" x2="630.753" y2="265.07" gradientUnits="userSpaceOnUse">
<stop stop-color="#AA80F9"/>
<stop offset="1" stop-color="#6165D7"/>
</linearGradient>
<linearGradient id="paint23_linear_60_2340" x1="617.774" y1="250.68" x2="630.737" y2="277.136" gradientUnits="userSpaceOnUse">
<stop stop-color="#AA80F9"/>
<stop offset="1" stop-color="#6165D7"/>
</linearGradient>
<linearGradient id="paint24_linear_60_2340" x1="617.781" y1="262.789" x2="630.721" y2="289.202" gradientUnits="userSpaceOnUse">
<stop stop-color="#AA80F9"/>
<stop offset="1" stop-color="#6165D7"/>
</linearGradient>
<linearGradient id="paint25_linear_60_2340" x1="618.474" y1="236.894" x2="400.819" y2="350.329" gradientUnits="userSpaceOnUse">
<stop stop-color="#FFC444"/>
<stop offset="1" stop-color="#F36F56"/>
</linearGradient>
<linearGradient id="paint26_linear_60_2340" x1="385.079" y1="583.169" x2="376.991" y2="588.542" gradientUnits="userSpaceOnUse">
<stop stop-color="#444B8C"/>
<stop offset="1" stop-color="#26264F"/>
</linearGradient>
<linearGradient id="paint27_linear_60_2340" x1="377.088" y1="589.578" x2="376.456" y2="576.933" gradientUnits="userSpaceOnUse">
<stop stop-color="#FFC444"/>
<stop offset="1" stop-color="#F36F56"/>
</linearGradient>
<linearGradient id="paint28_linear_60_2340" x1="384.471" y1="582.253" x2="376.384" y2="587.628" gradientUnits="userSpaceOnUse">
<stop stop-color="#444B8C"/>
<stop offset="1" stop-color="#26264F"/>
</linearGradient>
<linearGradient id="paint29_linear_60_2340" x1="407.722" y1="587.677" x2="400.465" y2="594.131" gradientUnits="userSpaceOnUse">
<stop stop-color="#444B8C"/>
<stop offset="1" stop-color="#26264F"/>
</linearGradient>
<linearGradient id="paint30_linear_60_2340" x1="399.179" y1="592.596" x2="396.777" y2="580.206" gradientUnits="userSpaceOnUse">
<stop stop-color="#FFC444"/>
<stop offset="1" stop-color="#F36F56"/>
</linearGradient>
<linearGradient id="paint31_linear_60_2340" x1="406.992" y1="586.854" x2="399.736" y2="593.31" gradientUnits="userSpaceOnUse">
<stop stop-color="#444B8C"/>
<stop offset="1" stop-color="#26264F"/>
</linearGradient>
<linearGradient id="paint32_linear_60_2340" x1="390.866" y1="451.983" x2="395.301" y2="472.235" gradientUnits="userSpaceOnUse">
<stop stop-color="#FFC444"/>
<stop offset="1" stop-color="#F36F56"/>
</linearGradient>
<linearGradient id="paint33_linear_60_2340" x1="350.783" y1="450.244" x2="299.483" y2="499.232" gradientUnits="userSpaceOnUse">
<stop stop-color="#E38DDD"/>
<stop offset="1" stop-color="#9571F6"/>
</linearGradient>
<linearGradient id="paint34_linear_60_2340" x1="336.672" y1="400.367" x2="316.097" y2="447.743" gradientUnits="userSpaceOnUse">
<stop stop-color="#FFC444"/>
<stop offset="1" stop-color="#F36F56"/>
</linearGradient>
<linearGradient id="paint35_linear_60_2340" x1="334.659" y1="398.801" x2="311.688" y2="451.696" gradientUnits="userSpaceOnUse">
<stop stop-color="#FFC444"/>
<stop offset="1" stop-color="#F36F56"/>
</linearGradient>
<linearGradient id="paint36_linear_60_2340" x1="369.723" y1="470.077" x2="318.421" y2="519.064" gradientUnits="userSpaceOnUse">
<stop stop-color="#E38DDD"/>
<stop offset="1" stop-color="#9571F6"/>
</linearGradient>
<linearGradient id="paint37_linear_60_2340" x1="362.053" y1="462.046" x2="310.753" y2="511.033" gradientUnits="userSpaceOnUse">
<stop stop-color="#E38DDD"/>
<stop offset="1" stop-color="#9571F6"/>
</linearGradient>
<linearGradient id="paint38_linear_60_2340" x1="315.486" y1="508.046" x2="357.539" y2="538.083" gradientUnits="userSpaceOnUse">
<stop stop-color="#444B8C"/>
<stop offset="1" stop-color="#26264F"/>
</linearGradient>
<linearGradient id="paint39_linear_60_2340" x1="406.185" y1="544.829" x2="302.043" y2="544.829" gradientUnits="userSpaceOnUse">
<stop stop-color="#444B8C"/>
<stop offset="1" stop-color="#26264F"/>
</linearGradient>
<linearGradient id="paint40_linear_60_2340" x1="282.958" y1="613.376" x2="360.93" y2="613.376" gradientUnits="userSpaceOnUse">
<stop stop-color="#444B8C"/>
<stop offset="1" stop-color="#26264F"/>
</linearGradient>
<linearGradient id="paint41_linear_60_2340" x1="282.958" y1="608.086" x2="360.93" y2="608.086" gradientUnits="userSpaceOnUse">
<stop stop-color="#AA80F9"/>
<stop offset="1" stop-color="#6165D7"/>
</linearGradient>
<linearGradient id="paint42_linear_60_2340" x1="348.474" y1="604.261" x2="282.958" y2="604.261" gradientUnits="userSpaceOnUse">
<stop stop-color="#AA80F9"/>
<stop offset="1" stop-color="#6165D7"/>
</linearGradient>
<linearGradient id="paint43_linear_60_2340" x1="326.279" y1="573.979" x2="317.61" y2="573.979" gradientUnits="userSpaceOnUse">
<stop stop-color="#AA80F9"/>
<stop offset="1" stop-color="#6165D7"/>
</linearGradient>
<linearGradient id="paint44_linear_60_2340" x1="278.908" y1="564.761" x2="294.803" y2="544.05" gradientUnits="userSpaceOnUse">
<stop stop-color="#311944"/>
<stop offset="1" stop-color="#893976"/>
</linearGradient>
<linearGradient id="paint45_linear_60_2340" x1="521.33" y1="474.899" x2="606.915" y2="474.899" gradientUnits="userSpaceOnUse">
<stop stop-color="#444B8C"/>
<stop offset="1" stop-color="#26264F"/>
</linearGradient>
<linearGradient id="paint46_linear_60_2340" x1="520.474" y1="453.582" x2="577.286" y2="453.582" gradientUnits="userSpaceOnUse">
<stop stop-color="#444B8C"/>
<stop offset="1" stop-color="#26264F"/>
</linearGradient>
<linearGradient id="paint47_linear_60_2340" x1="583.8" y1="564.543" x2="586.614" y2="600.345" gradientUnits="userSpaceOnUse">
<stop stop-color="#26264F"/>
<stop offset="1" stop-color="#444B8C"/>
</linearGradient>
<linearGradient id="paint48_linear_60_2340" x1="590.351" y1="584.326" x2="597.095" y2="542.035" gradientUnits="userSpaceOnUse">
<stop stop-color="#FFC444"/>
<stop offset="1" stop-color="#F36F56"/>
</linearGradient>
<linearGradient id="paint49_linear_60_2340" x1="548.616" y1="562.149" x2="551.428" y2="597.951" gradientUnits="userSpaceOnUse">
<stop stop-color="#26264F"/>
<stop offset="1" stop-color="#444B8C"/>
</linearGradient>
<linearGradient id="paint50_linear_60_2340" x1="555.168" y1="581.932" x2="561.91" y2="539.638" gradientUnits="userSpaceOnUse">
<stop stop-color="#FFC444"/>
<stop offset="1" stop-color="#F36F56"/>
</linearGradient>
<linearGradient id="paint51_linear_60_2340" x1="653.815" y1="488.516" x2="637.749" y2="512.417" gradientUnits="userSpaceOnUse">
<stop stop-color="#893976"/>
<stop offset="1" stop-color="#311944"/>
</linearGradient>
<linearGradient id="paint52_linear_60_2340" x1="551.916" y1="541.14" x2="667.201" y2="541.14" gradientUnits="userSpaceOnUse">
<stop stop-color="#893976"/>
<stop offset="1" stop-color="#311944"/>
</linearGradient>
<linearGradient id="paint53_linear_60_2340" x1="613.562" y1="454.626" x2="664.876" y2="503.625" gradientUnits="userSpaceOnUse">
<stop stop-color="#FF9085"/>
<stop offset="1" stop-color="#FB6FBB"/>
</linearGradient>
<linearGradient id="paint54_linear_60_2340" x1="552.202" y1="470.029" x2="551.033" y2="475.37" gradientUnits="userSpaceOnUse">
<stop stop-color="#FFC444"/>
<stop offset="1" stop-color="#F36F56"/>
</linearGradient>
<linearGradient id="paint55_linear_60_2340" x1="620.115" y1="398.021" x2="640.665" y2="445.17" gradientUnits="userSpaceOnUse">
<stop stop-color="#FFC444"/>
<stop offset="1" stop-color="#F36F56"/>
</linearGradient>
<linearGradient id="paint56_linear_60_2340" x1="622.118" y1="396.455" x2="645.06" y2="449.099" gradientUnits="userSpaceOnUse">
<stop stop-color="#FFC444"/>
<stop offset="1" stop-color="#F36F56"/>
</linearGradient>
<linearGradient id="paint57_linear_60_2340" x1="599.521" y1="469.323" x2="650.823" y2="518.308" gradientUnits="userSpaceOnUse">
<stop stop-color="#FF9085"/>
<stop offset="1" stop-color="#FB6FBB"/>
</linearGradient>
<linearGradient id="paint58_linear_60_2340" x1="601.828" y1="463.577" x2="660.026" y2="519.147" gradientUnits="userSpaceOnUse">
<stop stop-color="#FF9085"/>
<stop offset="1" stop-color="#FB6FBB"/>
</linearGradient>
<linearGradient id="paint59_linear_60_2340" x1="602.734" y1="607" x2="680.706" y2="607" gradientUnits="userSpaceOnUse">
<stop stop-color="#444B8C"/>
<stop offset="1" stop-color="#26264F"/>
</linearGradient>
<linearGradient id="paint60_linear_60_2340" x1="602.734" y1="601.712" x2="680.706" y2="601.712" gradientUnits="userSpaceOnUse">
<stop stop-color="#AA80F9"/>
<stop offset="1" stop-color="#6165D7"/>
</linearGradient>
<linearGradient id="paint61_linear_60_2340" x1="615.19" y1="597.887" x2="680.707" y2="597.887" gradientUnits="userSpaceOnUse">
<stop stop-color="#AA80F9"/>
<stop offset="1" stop-color="#6165D7"/>
</linearGradient>
<linearGradient id="paint62_linear_60_2340" x1="637.387" y1="567.607" x2="646.056" y2="567.607" gradientUnits="userSpaceOnUse">
<stop stop-color="#AA80F9"/>
<stop offset="1" stop-color="#6165D7"/>
</linearGradient>
<linearGradient id="paint63_linear_60_2340" x1="684.757" y1="558.388" x2="668.863" y2="537.676" gradientUnits="userSpaceOnUse">
<stop stop-color="#311944"/>
<stop offset="1" stop-color="#893976"/>
</linearGradient>
</defs>
</svg>
