<svg width="357" height="353" viewBox="0 0 357 353" fill="none" xmlns="http://www.w3.org/2000/svg">
<path d="M84.063 25.1898C72.325 42.0039 86.0897 69.2623 68.6625 81.9069C51.6985 94.2156 30.8586 74.0399 14.8711 84.6353C-8.84467 100.353 -4.51409 172.273 30.1605 216.96C40.5886 230.398 49.3022 235.628 53.1608 250.826C61.4473 283.461 32.3246 302.874 37.8664 319.015C50.3449 355.353 242.257 385.853 319.259 276.631C355.223 225.619 360.603 151.959 328.471 96.0125C270.409 -5.08059 110.416 -12.5355 84.063 25.1898Z" fill="#F4F7FA"/>
<path d="M253.29 266.657C250.918 266.7 245.713 264.697 244.572 263.617C236.978 256.422 221.887 243.876 220.922 232.859C220.757 230.979 228.839 228.019 229.754 226.136C234.448 222.999 236.271 222.202 239.269 217.027C248.118 201.751 219.562 179.717 247.059 166.446C267.2 156.726 286.104 161.374 279.006 128.929C271.909 96.4848 289.107 32.9284 327.082 50.6978C348.878 60.8949 332.818 91.7384 346.063 110.793C358.651 128.899 352.737 146.204 333.709 160.991C314.681 175.779 327.091 183.154 335.86 200.826C346.389 222.062 312.663 231.065 296.738 233.893C283.92 236.17 252.803 250.621 253.29 266.657Z" fill="url(#paint0_linear_61_3433)"/>
<g style="mix-blend-mode:soft-light">
<g style="mix-blend-mode:soft-light">
<g style="mix-blend-mode:soft-light">
<path d="M233.178 249.136L232.894 248.719C297.108 204.822 328.319 127.582 316.383 42.1039L316.883 42.0327C322.54 82.5439 318.298 122.732 304.615 158.25C290.23 195.593 265.528 227.02 233.178 249.136Z" fill="#FCFDFE"/>
</g>
<g style="mix-blend-mode:soft-light">
<path d="M341.256 209.149C320.29 205.527 286.811 210.272 266.628 219.729L266.415 219.272C286.678 209.782 320.29 205.019 341.338 208.658L341.256 209.149Z" fill="#FCFDFE"/>
</g>
<g style="mix-blend-mode:soft-light">
<path d="M245.684 240.374L245.295 240.052C252.672 231.12 255.249 218.801 252.957 203.439C251.276 192.175 247.064 179.566 240.437 165.963L240.892 165.742C247.54 179.392 251.768 192.049 253.456 203.365C255.771 218.875 253.158 231.327 245.684 240.374Z" fill="#FCFDFE"/>
</g>
<g style="mix-blend-mode:soft-light">
<path d="M306.361 153.134L305.955 152.832C318.995 135.28 340.769 127.892 356.74 124.786L356.836 125.285C340.953 128.372 319.303 135.712 306.361 153.134Z" fill="#FCFDFE"/>
</g>
<g style="mix-blend-mode:soft-light">
<path d="M317.821 104.41L317.321 104.448C315.504 79.8818 298.366 60.5215 288.311 51.1686L288.654 50.7939C298.759 60.2031 315.991 79.672 317.821 104.41Z" fill="#FCFDFE"/>
</g>
</g>
</g>
<path d="M270.05 208.576C268.06 209.312 263.085 209.158 261.808 208.584C253.287 204.759 236.867 198.634 232.806 189.634C232.112 188.097 238.051 183.219 238.267 181.363C241.299 177.334 242.6 176.118 243.6 170.873C246.555 155.389 215.99 145.237 235.251 125.944C249.362 111.811 266.666 110.155 251.11 84.9023C235.555 59.6493 231.317 1.00911 268.566 4.78651C289.945 6.96179 285.5 37.6979 302.288 49.848C318.238 61.3975 318.357 77.7258 306.676 95.8011C294.995 113.876 307.636 116.431 320.237 128.746C335.374 143.54 309.602 161.073 297.011 168.154C286.874 173.848 264.91 195.203 270.05 208.576Z" fill="url(#paint1_linear_61_3433)"/>
<g style="mix-blend-mode:soft-light">
<g style="mix-blend-mode:soft-light">
<g style="mix-blend-mode:soft-light">
<path d="M247.931 199.739L247.568 199.472C288.747 143.537 292.272 69.2299 257.012 0.706043L257.413 0.5C274.127 32.9769 282.401 68.0998 281.342 102.071C280.229 137.787 268.676 171.562 247.931 199.739Z" fill="#FCFDFE"/>
</g>
<g style="mix-blend-mode:soft-light">
<path d="M327.234 134.167C308.496 137.302 281.679 151.172 267.453 165.091L267.139 164.768C281.419 150.796 308.347 136.869 327.159 133.723L327.234 134.167Z" fill="#FCFDFE"/>
</g>
<g style="mix-blend-mode:soft-light">
<path d="M255.888 188.669L255.466 188.511C259.05 178.808 257.589 167.665 251.128 155.393C246.389 146.394 239.121 137.009 229.525 127.497L229.842 127.178C239.471 136.72 246.767 146.143 251.526 155.183C258.051 167.565 259.519 178.836 255.888 188.669Z" fill="#FCFDFE"/>
</g>
<g style="mix-blend-mode:soft-light">
<path d="M281.306 97.244L280.875 97.1104C286.69 78.4707 302.864 65.8236 315.409 58.4961L315.636 58.8857C303.16 66.1695 287.077 78.7429 281.306 97.244Z" fill="#FCFDFE"/>
</g>
<g style="mix-blend-mode:soft-light">
<path d="M276.597 52.7976L276.183 52.9774C267.409 32.808 247.254 21.5445 236.022 16.6257L236.203 16.2124C247.497 21.1574 267.761 32.487 276.597 52.7976Z" fill="#FCFDFE"/>
</g>
</g>
</g>
<path d="M147.953 299.416L146.973 91.7169L199.357 58.7593L258.921 74.4245L284.159 104.971L284.944 274.63L147.953 299.416Z" fill="url(#paint2_linear_61_3433)"/>
<path d="M52.7675 121.497L146.875 92.7393L147.85 299.417L52.0332 269.204L52.7675 121.497Z" fill="url(#paint3_linear_61_3433)"/>
<path d="M87.722 200.987L67.2479 198.902L66.6685 136.424L87.1001 132.089L87.722 200.987Z" fill="white"/>
<path d="M83.2528 201.879L70.7293 199.707L70.1499 140.02L84.0944 137.314L83.2528 201.879Z" fill="url(#paint4_linear_61_3433)"/>
<path d="M260.948 70.7358L211.026 42.8105L196.737 55.9247L258.093 72.3841L297.168 121.673L297.851 119.304L260.948 70.7358Z" fill="url(#paint5_linear_61_3433)"/>
<path d="M211.095 43.1338L112.631 79.9724L30.6787 128.527L126.219 99.942L197.407 55.6285L211.095 43.1338Z" fill="url(#paint6_linear_61_3433)"/>
<path d="M281.334 134.594L252.183 130.57L252.425 181.959L281.56 182.514L281.334 134.594Z" fill="white"/>
<path d="M211.788 126.305L158.094 120.014L158.378 180.397L212.049 181.452L211.788 126.305Z" fill="white"/>
<path d="M207.864 129.979L208.21 177.859L163.425 176.317L163.185 125.414L207.864 129.979Z" fill="url(#paint7_linear_61_3433)"/>
<g style="mix-blend-mode:multiply" opacity="0.3">
<path style="mix-blend-mode:multiply" d="M202.018 129.382L207.864 129.979L208.21 177.859L163.425 176.317L163.396 170.126C170.652 167.39 178.408 165.692 185.783 162.598C198.072 157.223 199.789 142.267 202.018 129.382Z" fill="url(#paint8_linear_61_3433)"/>
</g>
<path d="M212.235 206.943L158.54 206.827L158.378 268.97L212.049 262.467L212.235 206.943Z" fill="white"/>
<path d="M208.31 211.42L208.656 259.224L163.872 264.431L163.631 211.765L208.31 211.42Z" fill="url(#paint9_linear_61_3433)"/>
<g style="mix-blend-mode:multiply" opacity="0.3">
<path style="mix-blend-mode:multiply" d="M189.354 236.246C194.791 228.693 196.754 220.118 198.7 211.49L208.315 211.416L208.661 259.22L163.874 264.431L163.811 250.641C173.461 247.409 183.181 245.022 189.354 236.246Z" fill="url(#paint10_linear_61_3433)"/>
</g>
<path d="M278.716 138.231L279.024 178.954L256.204 178.227L256.001 135.322L278.716 138.231Z" fill="url(#paint11_linear_61_3433)"/>
<g style="mix-blend-mode:multiply" opacity="0.3">
<path style="mix-blend-mode:multiply" d="M265.237 164.83C271.793 157.291 273.531 147.348 272.757 137.468L278.716 138.229L279.024 178.954L256.204 178.227L256.176 172.507C259.504 170.375 262.59 167.919 265.237 164.83Z" fill="url(#paint12_linear_61_3433)"/>
</g>
<path d="M147.096 106.755L147.028 92.0366L142.415 96.2161L132.304 101.639L146.734 106.847L147.096 106.755Z" fill="url(#paint13_linear_61_3433)"/>
<path d="M132.304 101.639L131.365 102.186L34.3738 129.678L52.0869 130.039L146.734 106.846L132.304 101.639Z" fill="url(#paint14_linear_61_3433)"/>
<path d="M284.286 120.927L296.449 121.524L284.175 106.857L284.286 120.927Z" fill="url(#paint15_linear_61_3433)"/>
<path d="M229.169 94.8035L219.451 93.2138L219.361 74.0996L229.08 75.7916L229.169 94.8035Z" fill="#CA84E5"/>
<path d="M230.793 96.7063L217.843 94.5835L217.737 72.1738L230.688 74.4278L230.793 96.7063ZM221.053 91.8363L227.539 92.8977L227.464 77.1475L220.98 76.0237L221.053 91.8363Z" fill="white"/>
<path d="M34.45 129.68L30.4565 128.507L133.908 95.8661L196.686 55.9106L258.093 72.3838L260.272 75.1086L198.892 59.1161L141.463 96.5155L52.7738 124.597L34.45 129.68Z" fill="white"/>
<path d="M258.093 72.3843L297.168 121.673L295.952 121.656L256.533 73.4944L258.093 72.3843Z" fill="white"/>
<path d="M180.266 126.137H177.588V178.808H180.266V126.137Z" fill="white"/>
<path d="M180.266 210.501H177.588V263.172H180.266V210.501Z" fill="white"/>
<path d="M313.031 276.177L312.649 196.73L285.332 165.77L250.095 200.598L250.512 288.581L263.247 287.345L267.4 285L295.549 274.56L313.031 276.177Z" fill="url(#paint16_linear_61_3433)"/>
<path d="M250.491 288.472L250.014 201.049L230.383 191.905L219.692 200.958L220.517 286.212L250.491 288.472Z" fill="url(#paint17_linear_61_3433)"/>
<path d="M211.866 199.658L211.879 202.112L250.055 201.932L286.176 167.416L313.668 198.105L318.278 198.083L318.273 197.161L286.673 163.581L211.866 199.658Z" fill="white"/>
<path d="M286.975 162.582L318.263 197.163L315.656 197.175L285.289 162.821L286.975 162.582Z" fill="url(#paint18_linear_61_3433)"/>
<path d="M211.866 199.658L249.431 199.481L286.821 162.66L250.024 162.834L211.866 199.658Z" fill="url(#paint19_linear_61_3433)"/>
<path d="M283.905 283.559L321.062 276.507C321.062 276.507 321.062 278.733 321.062 279.036L284.036 286.195L283.905 283.559Z" fill="#97A6B7"/>
<path d="M291.404 287.68L328.379 280.633C328.379 280.633 328.33 283.482 328.422 283.594L291.441 290.587L291.404 287.68Z" fill="#97A6B7"/>
<path d="M283.998 286.214L321.1 279.032L328.379 280.633L291.398 287.645L283.998 286.214Z" fill="url(#paint20_linear_61_3433)"/>
<path d="M335.468 284.914L299.702 292.611L291.403 290.574L328.422 283.62L335.459 284.948L335.468 284.914Z" fill="url(#paint21_linear_61_3433)"/>
<path d="M299.723 295.503L263.084 287.364L262.848 278.748L283.994 283.563C283.994 283.563 283.994 286.345 283.994 286.214L291.394 287.643V290.572L299.698 292.616L299.723 295.503Z" fill="url(#paint22_linear_61_3433)"/>
<path d="M335.468 284.913L299.702 292.61L299.707 295.511L335.472 287.382L335.468 284.913Z" fill="#97A6B7"/>
<path d="M301.592 272.749L321.062 276.507L284.013 283.612L263.019 278.69L301.592 272.749Z" fill="url(#paint23_linear_61_3433)"/>
<path d="M294.085 273.428L273.599 276.479V216.566L294.085 215.564V273.428Z" fill="#97A6B7"/>
<path d="M293.185 273.332L273.595 276.266L273.607 219.027L293.185 218.06V273.332Z" fill="#97A6B7"/>
<path d="M294.085 273.427L293.099 273.111L273.597 275.831L273.598 276.478L294.085 273.427Z" fill="#97A6B7"/>
<path d="M138.499 202.678L70.1539 200.096L38.4812 198.868L88.7724 208.086L138.499 202.678Z" fill="#97A6B7"/>
<path d="M88.6711 208.054L90.0922 207.906L89.7301 162.427L88.6711 162.078V208.054Z" fill="white"/>
<path d="M88.6709 162.078L87.356 162.515L87.773 207.855L88.6709 208.054V162.078Z" fill="#97A6B7"/>
<path d="M137.195 202.693L138.16 202.593L137.914 165.819L137.195 165.582V202.693Z" fill="white"/>
<path d="M137.195 165.582L136.302 165.878L136.586 202.558L137.195 202.693V165.582Z" fill="#97A6B7"/>
<path d="M62.7088 167.702L61.8772 167.501L62.4828 203.001L63.307 202.745L62.7088 167.702Z" fill="white"/>
<path d="M61.8669 167.532L61.1714 167.819L61.787 202.942L62.4726 203.06L61.8669 167.532Z" fill="#97A6B7"/>
<path d="M48.4798 170.088L47.7593 169.914L48.2837 200.32L48.998 200.099L48.4798 170.088Z" fill="white"/>
<path d="M47.7504 169.941L47.1472 170.189L47.6804 200.269L48.2748 200.37L47.7504 169.941Z" fill="#97A6B7"/>
<path d="M38.9956 172.166L38.4175 172.025L38.8383 198.899L39.4102 198.917L38.9956 172.166Z" fill="white"/>
<path d="M38.5184 172.047L38.0352 172.246L38.4622 198.824L38.938 198.905L38.5184 172.047Z" fill="#97A6B7"/>
<path d="M88.7723 204.463L38.4199 198.856V200.612L88.8222 208.229L138.499 205.586V202.88L88.7723 204.463Z" fill="white"/>
<path opacity="0.5" d="M136.664 167.375L88.9431 163.959V208.256L137.195 202.692L136.664 167.375Z" fill="white"/>
<path opacity="0.5" d="M87.9156 163.968L38.5623 173.566L38.8307 198.899L87.9756 205.054L87.9156 163.968Z" fill="white"/>
<path d="M73.078 186.546C73.078 186.546 49.9254 146.462 18.6148 214.632C-5.76652 267.713 9.99115 326.778 66.3973 342.984C122.804 359.19 210.901 326.461 183.248 303.399C124.59 254.467 80.0709 211.097 73.078 186.546Z" fill="url(#paint24_linear_61_3433)"/>
<g style="mix-blend-mode:multiply" opacity="0.35">
<path style="mix-blend-mode:multiply" d="M46.1964 222.67C44.6543 227.56 42.0045 241.259 42.7 257.166C43.3244 271.358 42.0319 278.777 64.6101 289.099C72.3522 292.636 77.7005 303.864 89.5497 310.542C94.9192 313.57 115.159 324.528 141.293 320.098C158.585 317.169 171.461 308.688 180.128 300.784C123.023 252.928 79.9457 210.659 73.079 186.546C73.079 186.546 64.6189 171.91 51.014 175.374C54.3144 179.054 57.9444 184.637 59.0159 192.14C60.5318 202.757 51.2563 206.624 46.1964 222.67Z" fill="url(#paint25_linear_61_3433)"/>
</g>
<g style="mix-blend-mode:multiply" opacity="0.13">
<path style="mix-blend-mode:multiply" d="M156.676 326.858C130.001 341.593 85.4491 350.584 52.2568 325.925C21.5231 303.1 18.7909 264.871 17.7607 253.204C15.97 232.815 19.9535 215.061 25.6976 200.74C23.3925 204.777 21.0261 209.379 18.6148 214.63C-5.76652 267.713 9.99115 326.778 66.3973 342.984C121.918 358.935 208.144 327.475 184.464 304.487C177.735 312.078 168.654 320.244 156.676 326.858Z" fill="url(#paint26_linear_61_3433)"/>
</g>
<path d="M114.652 331.141C113.862 331.141 113.07 331.132 112.267 331.115C99.1737 330.822 87.0423 328.15 76.2271 323.174C62.6997 316.952 51.1889 307.09 42.0121 293.864C34.27 282.691 29.7159 269.954 28.4958 256.007C27.5243 244.861 28.6619 232.914 31.8836 220.511C37.3618 199.408 47.1118 184.062 47.2105 183.91C47.23 183.879 47.2553 183.853 47.285 183.832C47.3147 183.812 47.3481 183.797 47.3834 183.79C47.4187 183.782 47.4552 183.781 47.4908 183.788C47.5264 183.794 47.5603 183.807 47.5907 183.827C47.6212 183.846 47.6474 183.872 47.6681 183.901C47.6887 183.931 47.7033 183.964 47.711 184C47.7187 184.035 47.7194 184.071 47.713 184.107C47.7066 184.143 47.6933 184.177 47.6738 184.207C47.5776 184.359 37.8675 199.636 32.4131 220.67C29.2126 233.011 28.0813 244.895 29.0528 255.975C30.2653 269.821 34.7807 282.465 42.4716 293.562C51.5873 306.706 63.0231 316.504 76.4606 322.684C87.2109 327.629 99.2636 330.284 112.282 330.575C134.455 331.075 151.965 324.439 152.14 324.373C152.174 324.358 152.211 324.35 152.248 324.35C152.285 324.35 152.322 324.357 152.356 324.371C152.391 324.386 152.422 324.407 152.448 324.433C152.473 324.46 152.494 324.492 152.507 324.526C152.521 324.561 152.527 324.598 152.525 324.635C152.524 324.673 152.515 324.709 152.5 324.743C152.484 324.777 152.461 324.807 152.434 324.831C152.406 324.856 152.373 324.875 152.338 324.887C152.166 324.94 135.793 331.14 114.652 331.141Z" fill="#FFA6A4"/>
<path d="M229.725 343.866C228.951 342.557 228.156 337.476 231.671 337.23C235.206 336.981 237.319 336.159 242.693 333.484C248.068 330.809 248.562 334.215 240.8 338.771C233.038 343.328 230.828 345.727 229.725 343.866Z" fill="url(#paint27_linear_61_3433)"/>
<path d="M226.881 336.08L229.087 339.049C229.312 339.35 229.627 339.571 229.987 339.679C230.347 339.787 230.732 339.776 231.085 339.648C231.251 339.587 231.401 339.488 231.522 339.358C231.643 339.229 231.732 339.073 231.782 338.903C231.832 338.733 231.842 338.554 231.81 338.38C231.778 338.206 231.706 338.041 231.6 337.9L228.353 333.63L226.881 336.08Z" fill="url(#paint28_linear_61_3433)"/>
<path d="M97.5818 268.433C88.0765 273.696 99.7658 300.261 128.013 298.606C162.243 296.608 202.41 309.564 225.187 338.098C227.101 337.019 231.564 335.642 230.144 333.408C210.638 302.707 190.638 283.171 172.308 275.114C144.595 262.934 124.649 253.45 97.5818 268.433Z" fill="url(#paint29_linear_61_3433)"/>
<g style="mix-blend-mode:multiply" opacity="0.24">
<g style="mix-blend-mode:multiply">
<path d="M189.126 298.374C193.216 302.114 195.415 296.797 198.616 293.681C189.625 285.065 180.785 278.842 172.301 275.114C144.588 262.934 124.643 253.45 97.5752 268.433C88.0699 273.696 99.7592 300.261 128.007 298.606C138.222 298.008 148.967 298.773 159.619 300.854C169.322 297.345 178.975 286.552 189.126 298.374Z" fill="#552D63"/>
</g>
</g>
<path d="M193.344 281.53C193.219 279.739 192.556 277.645 196.679 277.118C199.676 276.735 204.566 277.467 209.002 278.193C215.218 279.213 215.832 283.198 206.341 283.587C200.124 283.843 193.512 284.072 193.344 281.53Z" fill="url(#paint30_linear_61_3433)"/>
<path d="M198.692 279.991C198.545 280.946 197.784 281.555 196.976 281.498C195.103 281.362 195.645 280.499 195.793 279.545C195.94 278.591 195.347 277.775 197.508 278.037C198.312 278.136 198.838 279.035 198.692 279.991Z" fill="url(#paint31_linear_61_3433)"/>
<path d="M175.428 267.371L177.893 267.513C177.893 267.513 182.442 268.955 194.473 275.263C197.114 276.311 199.113 285.117 191.017 283.689C182.922 282.26 171.856 286.115 171.856 286.115L175.428 267.371Z" fill="url(#paint32_linear_61_3433)"/>
<path d="M149.856 269.364C134.448 272.735 111.993 271.745 107.407 271.469C101.538 271.117 83.7221 281.194 84.013 286.476C84.335 288.143 84.942 289.743 85.8075 291.204C88.2887 295.353 93.16 298.598 104.525 300.411C119.788 302.844 134.688 300.774 144.654 298.651C159.38 293.65 181.461 283.167 182.705 276.805C185.287 263.605 168.11 265.373 149.856 269.364Z" fill="url(#paint33_linear_61_3433)"/>
<g style="mix-blend-mode:multiply" opacity="0.2">
<path style="mix-blend-mode:multiply" d="M118.402 280.326C129.815 281.613 134.062 274.144 148.461 274.845C157.791 275.298 160.395 278.648 165.652 276.57C169.803 274.929 172.571 271.1 174.459 266.698C168.188 265.882 159.171 267.322 149.859 269.363C134.895 272.634 113.282 271.796 107.85 271.494C107.681 271.487 104.435 269.463 104.435 269.463C104.435 269.463 101.49 270.39 99.3535 271.165C105.826 276.679 114.232 279.857 118.402 280.326Z" fill="url(#paint34_linear_61_3433)"/>
</g>
<path d="M87.6781 291.315L85.8725 291.324C85.8725 291.324 79.5689 283.031 78.2328 280.069C76.6032 276.455 102.197 270.396 112.885 261.838C124.115 252.847 111.932 275.199 111.932 275.199L87.6781 291.315Z" fill="url(#paint35_linear_61_3433)"/>
<path d="M111.03 202.061C111.03 202.061 124.028 209.539 131.717 229.624C137.497 244.723 152.695 237.346 152.695 237.346L155.707 243.82L141.934 248.447L111.941 257.648L118.114 218.589L111.03 202.061Z" fill="url(#paint36_linear_61_3433)"/>
<path d="M103.362 199.879C103.362 199.879 69.9398 183.845 62.0554 208.949C54.4969 233.009 56.9081 243.164 70.7403 270.53C72.1301 273.277 75.5529 274.526 75.7027 274.9C76.5094 276.932 77.309 279.037 78.1015 281.216C103.414 269.99 126.808 271.555 126.808 271.555C114.668 247.006 115.662 231.567 119.136 221.838C120.884 216.958 119.65 209.927 116.571 204.948C113.467 199.931 109.963 199.517 103.362 199.879Z" fill="url(#paint37_linear_61_3433)"/>
<g style="mix-blend-mode:multiply" opacity="0.25">
<path style="mix-blend-mode:multiply" d="M110.722 250.981C109.481 249.529 103.12 242.089 93.9615 239.304C90.7647 238.333 88.4758 238.305 84.4 236.291C80.3241 234.277 78.9393 232.471 78.3649 231.593C76.8664 229.307 77.6306 227.722 76.4306 225.089C75.1182 222.208 74.0193 224.974 71.8415 219.226C70.5104 215.712 69.3765 211.223 69.1705 205.615C67.9667 206.824 66.8366 208.104 65.7865 209.448C50.2411 229.303 56.908 243.153 70.7402 270.522C72.13 273.269 75.5527 274.518 75.7026 274.893C76.5093 276.924 77.3089 279.029 78.1014 281.209C103.414 269.983 126.808 271.547 126.808 271.547C126.808 271.547 125.865 263.996 124.804 253.475C123.094 255.737 120.547 258.383 117.753 258.124C115.039 257.878 114.222 255.079 110.722 250.981Z" fill="url(#paint38_linear_61_3433)"/>
</g>
<path d="M94.582 255.692C94.582 255.692 96.8884 256.65 98.7977 256.582C100.707 256.515 100.626 256.31 102.633 256.761C104.583 257.2 108.655 257.423 107.262 254.779C105.709 251.836 101.529 250.99 99.8829 251.974C98.297 252.923 96.083 253.09 96.083 253.09L94.582 255.692Z" fill="url(#paint39_linear_61_3433)"/>
<path d="M85.8111 202.439C85.8111 202.439 77.2486 177.763 50.0164 222.098C27.7492 258.348 87.7442 271.225 94.32 259.06C96.986 256.438 96.539 252.543 96.539 252.543C96.539 252.543 94.6509 247.783 91.855 246.609C81.0423 242.068 65.7803 245.61 70.8239 233.403C76.5444 219.563 93.2261 205.384 85.8111 202.439Z" fill="url(#paint40_linear_61_3433)"/>
<path d="M77.0788 274.332C77.057 274.332 77.0358 274.324 77.019 274.31C77.0022 274.296 76.9907 274.277 76.9864 274.255C76.9822 274.234 76.9854 274.212 76.9957 274.192C77.0059 274.173 77.0225 274.158 77.0426 274.15C77.3073 274.042 103.75 263.397 123.36 265.517C123.385 265.52 123.408 265.532 123.424 265.552C123.439 265.571 123.447 265.596 123.444 265.621C123.441 265.646 123.429 265.668 123.409 265.684C123.39 265.7 123.365 265.707 123.34 265.704C103.773 263.592 77.3785 274.217 77.1137 274.321C77.1028 274.326 77.091 274.33 77.0788 274.332Z" fill="#AE87F9"/>
<path d="M100.165 267.787C100.071 267.797 99.9809 267.834 99.9066 267.893C99.8323 267.953 99.7765 268.032 99.7459 268.123C99.7384 268.149 99.7908 269.094 99.7871 269.121C99.7754 269.228 99.8001 269.335 99.8573 269.426C99.9144 269.517 100.001 269.586 100.102 269.621L117.663 275.767L151.016 263.566L135.282 264.413L100.165 267.787Z" fill="#26264F"/>
<path d="M100.16 267.659C100.054 267.672 99.9559 267.72 99.8808 267.797C99.8058 267.873 99.7588 267.972 99.7473 268.078C99.7359 268.184 99.7608 268.291 99.8179 268.382C99.875 268.472 99.961 268.54 100.062 268.576L117.623 274.722L150.976 262.521L135.242 263.367L100.16 267.659Z" fill="#444B8C"/>
<path d="M116.846 274.446L120.26 240.017C120.287 239.749 120.403 239.498 120.59 239.305C120.777 239.111 121.024 238.987 121.291 238.951L161.023 233.648C161.199 233.624 161.378 233.64 161.547 233.694C161.715 233.749 161.87 233.84 161.999 233.961C162.129 234.082 162.229 234.231 162.294 234.396C162.359 234.561 162.387 234.738 162.374 234.915L160.162 267.026C160.144 267.295 160.035 267.55 159.854 267.749C159.672 267.949 159.429 268.081 159.163 268.124L117.86 274.809L116.846 274.446Z" fill="url(#paint41_linear_61_3433)"/>
<path d="M117.663 275.766L121.178 240.578C121.205 240.311 121.321 240.06 121.508 239.867C121.695 239.673 121.941 239.549 122.208 239.513L161.941 234.21C162.117 234.186 162.296 234.202 162.464 234.256C162.633 234.311 162.788 234.402 162.917 234.523C163.047 234.644 163.147 234.793 163.212 234.958C163.277 235.123 163.304 235.3 163.292 235.477L161.08 267.589C161.061 267.858 160.953 268.113 160.771 268.312C160.59 268.511 160.346 268.643 160.081 268.686L117.663 275.766Z" fill="#26264F"/>
<path d="M117.663 275.765L160.084 268.689C160.35 268.646 160.594 268.514 160.775 268.315C160.956 268.116 161.065 267.861 161.083 267.592L161.75 257.907C149.013 264.768 133.217 265.321 118.457 267.855L117.663 275.765Z" fill="#1F1F44"/>
<path d="M98.2798 183.215C98.3535 184.771 98.6545 193.105 95.0182 194.636C94.2277 194.968 92.8117 194.998 89.9783 195.059C88.1227 195.1 86.5793 195.059 85.4929 195.009C85.4242 196.383 85.5154 198.663 86.7416 200.922C90.1906 207.257 99.2014 207.252 100.49 207.23C105.034 207.155 108.462 205.297 109.648 204.637C111.115 203.82 112.475 202.827 113.7 201.68C110.528 199.444 107.07 197.645 103.42 196.329C103.435 194.731 103.449 193.133 103.463 191.535C101.737 188.762 100.009 185.989 98.2798 183.215Z" fill="url(#paint42_linear_61_3433)"/>
<path style="mix-blend-mode:multiply" opacity="0.55" d="M103.014 201.42C103.332 201.661 105.314 203.112 107.966 202.606C109.428 202.314 110.739 201.516 111.669 200.351C110.567 199.663 109.389 198.977 108.056 198.309C106.552 197.56 105.005 196.898 103.423 196.329C103.438 194.73 103.453 193.132 103.467 191.535L101.869 188.971C99.5111 190.913 98.4484 193.94 99.159 196.713C99.9469 199.783 102.569 201.19 103.014 201.42Z" fill="url(#paint43_linear_61_3433)"/>
<path d="M111.885 183.762C116.255 181.546 116.827 170.738 113.592 168.991C111.931 168.094 110.759 170.389 106.309 170.76C101.16 171.189 98.6921 168.451 96.7379 170.032C95.1657 171.304 95.1795 174.357 95.3842 175.754C95.5416 176.815 96.0835 178.79 96.3021 180.181C96.4394 181.055 96.5019 181.493 96.5443 181.792C96.6092 182.26 96.6192 182.373 96.6854 182.733C96.9489 184.175 97.5832 186.695 99.3327 190.109C99.9799 189.247 100.701 188.443 101.488 187.706C101.84 187.377 103.236 186.101 104.881 185.253C108.157 183.565 109.921 184.757 111.885 183.762Z" fill="url(#paint44_linear_61_3433)"/>
<path d="M96.7987 186.359C96.7987 186.359 97.5916 192.002 103.167 193.991C108.162 195.773 113.572 185.198 111.47 181.548C110.768 180.33 108.836 179.115 106.948 178.859C105.833 178.708 105.318 178.977 103.501 178.694C101.824 178.433 101.47 178.082 100.85 178.269C100.074 178.502 99.1488 179.496 98.7267 183.089C98.206 181.75 97.2507 180.91 96.303 180.942C95.9701 180.971 95.6519 181.092 95.3839 181.292C94.1627 182.242 94.6109 184.32 96.7987 186.359Z" fill="url(#paint45_linear_61_3433)"/>
<path d="M130.461 57.7208C130.461 78.9079 100.507 118.142 86.7703 135.034C83.3338 139.26 76.8916 139.424 73.4351 135.355C59.4719 118.925 28.1963 79.6559 28.1963 57.8032C28.1963 29.5633 51.6411 7.00753 80.1158 7.41711C108.111 7.81795 130.461 30.3375 130.461 57.7208Z" fill="url(#paint46_linear_61_3433)"/>
<path d="M132.27 57.7208C132.27 78.9079 102.316 118.142 88.5785 135.034C85.1432 139.26 78.6998 139.424 75.2433 135.355C61.2801 118.925 30.0107 79.6559 30.0107 57.8032C30.0107 29.5633 53.4556 7.00753 81.9303 7.41711C109.919 7.81795 132.27 30.3375 132.27 57.7208Z" fill="url(#paint47_linear_61_3433)"/>
<path d="M110.193 57.7384C110.193 73.114 97.5956 85.6937 81.9241 85.8348C66.104 85.9809 53.1672 73.4199 53.1672 57.7784C53.1672 42.1369 66.104 29.5572 81.9241 29.6821C97.5956 29.802 110.193 42.3629 110.193 57.7384Z" fill="white"/>
<g style="mix-blend-mode:multiply" opacity="0.3">
<path style="mix-blend-mode:multiply" d="M81.698 114.528C84.9447 93.4542 98.9579 86.5937 96.5578 66.8426C93.7907 44.0272 73.2166 37.841 72.7172 17.3956C72.6468 14.1879 73.0632 10.9881 73.9522 7.90527C49.1962 11.3568 30.0107 32.2667 30.0107 57.8031C30.0107 79.6558 61.2863 118.927 75.2496 135.358C77.285 137.754 80.3569 138.681 83.2414 138.175C80.7552 129.018 80.6803 121.15 81.698 114.528Z" fill="url(#paint48_linear_61_3433)"/>
</g>
<defs>
<linearGradient id="paint0_linear_61_3433" x1="346.875" y1="113.12" x2="270.425" y2="170.793" gradientUnits="userSpaceOnUse">
<stop stop-color="#E38DDD"/>
<stop offset="1" stop-color="#9571F6"/>
</linearGradient>
<linearGradient id="paint1_linear_61_3433" x1="331.34" y1="22.5234" x2="202.075" y2="182.515" gradientUnits="userSpaceOnUse">
<stop stop-color="#FFC444"/>
<stop offset="1" stop-color="#F36F56"/>
</linearGradient>
<linearGradient id="paint2_linear_61_3433" x1="349.401" y1="163.886" x2="156.564" y2="180.556" gradientUnits="userSpaceOnUse">
<stop offset="0.45" stop-color="#D8DEE8"/>
<stop offset="1" stop-color="white"/>
</linearGradient>
<linearGradient id="paint3_linear_61_3433" x1="49.8975" y1="200.632" x2="331.062" y2="187.467" gradientUnits="userSpaceOnUse">
<stop stop-color="#D8DEE8"/>
<stop offset="1" stop-color="white"/>
</linearGradient>
<linearGradient id="paint4_linear_61_3433" x1="52.9802" y1="169.499" x2="222.54" y2="169.997" gradientUnits="userSpaceOnUse">
<stop stop-color="#E38DDD"/>
<stop offset="1" stop-color="#9571F6"/>
</linearGradient>
<linearGradient id="paint5_linear_61_3433" x1="247.584" y1="88.1112" x2="166.661" y2="-50.8693" gradientUnits="userSpaceOnUse">
<stop stop-color="#FF9085"/>
<stop offset="1" stop-color="#FB6FBB"/>
</linearGradient>
<linearGradient id="paint6_linear_61_3433" x1="30.4775" y1="86.2483" x2="211.29" y2="85.3962" gradientUnits="userSpaceOnUse">
<stop stop-color="#FF9085"/>
<stop offset="1" stop-color="#FB6FBB"/>
</linearGradient>
<linearGradient id="paint7_linear_61_3433" x1="185.513" y1="113" x2="186.04" y2="224.84" gradientUnits="userSpaceOnUse">
<stop stop-color="#E38DDD"/>
<stop offset="1" stop-color="#9571F6"/>
</linearGradient>
<linearGradient id="paint8_linear_61_3433" x1="185.803" y1="118.058" x2="185.803" y2="221.024" gradientUnits="userSpaceOnUse">
<stop stop-color="#E38DDD"/>
<stop offset="1" stop-color="#9571F6"/>
</linearGradient>
<linearGradient id="paint9_linear_61_3433" x1="184.585" y1="195.112" x2="195.665" y2="305.911" gradientUnits="userSpaceOnUse">
<stop stop-color="#E38DDD"/>
<stop offset="1" stop-color="#9571F6"/>
</linearGradient>
<linearGradient id="paint10_linear_61_3433" x1="186.233" y1="199.036" x2="186.233" y2="311.63" gradientUnits="userSpaceOnUse">
<stop stop-color="#E38DDD"/>
<stop offset="1" stop-color="#9571F6"/>
</linearGradient>
<linearGradient id="paint11_linear_61_3433" x1="267.358" y1="125.042" x2="267.796" y2="217.942" gradientUnits="userSpaceOnUse">
<stop stop-color="#E38DDD"/>
<stop offset="1" stop-color="#9571F6"/>
</linearGradient>
<linearGradient id="paint12_linear_61_3433" x1="267.601" y1="127.775" x2="267.601" y2="215.894" gradientUnits="userSpaceOnUse">
<stop stop-color="#E38DDD"/>
<stop offset="1" stop-color="#9571F6"/>
</linearGradient>
<linearGradient id="paint13_linear_61_3433" x1="147.681" y1="112.006" x2="136.065" y2="90.0229" gradientUnits="userSpaceOnUse">
<stop stop-color="#FFC444"/>
<stop offset="0.86" stop-color="#F57A54"/>
<stop offset="1" stop-color="#F36F56"/>
</linearGradient>
<linearGradient id="paint14_linear_61_3433" x1="91.9228" y1="125.148" x2="90.0977" y2="115.977" gradientUnits="userSpaceOnUse">
<stop stop-color="#FFC444"/>
<stop offset="0.86" stop-color="#F57A54"/>
<stop offset="1" stop-color="#F36F56"/>
</linearGradient>
<linearGradient id="paint15_linear_61_3433" x1="306.599" y1="147.7" x2="294.32" y2="127.672" gradientUnits="userSpaceOnUse">
<stop stop-color="#FFC444"/>
<stop offset="1" stop-color="#F36F56"/>
</linearGradient>
<linearGradient id="paint16_linear_61_3433" x1="203.857" y1="239.746" x2="323.165" y2="217.387" gradientUnits="userSpaceOnUse">
<stop stop-color="#D8DEE8"/>
<stop offset="1" stop-color="white"/>
</linearGradient>
<linearGradient id="paint17_linear_61_3433" x1="220.456" y1="242.332" x2="176.195" y2="247.104" gradientUnits="userSpaceOnUse">
<stop stop-color="#D8DEE8"/>
<stop offset="0.47" stop-color="#EBEEF3"/>
<stop offset="1" stop-color="white"/>
</linearGradient>
<linearGradient id="paint18_linear_61_3433" x1="313.95" y1="179.809" x2="346.762" y2="179.655" gradientUnits="userSpaceOnUse">
<stop stop-color="#FFC444"/>
<stop offset="1" stop-color="#F36F56"/>
</linearGradient>
<linearGradient id="paint19_linear_61_3433" x1="157.029" y1="215.416" x2="268.456" y2="174.222" gradientUnits="userSpaceOnUse">
<stop stop-color="#FF9085"/>
<stop offset="1" stop-color="#FB6FBB"/>
</linearGradient>
<linearGradient id="paint20_linear_61_3433" x1="233.148" y1="282.497" x2="302.315" y2="282.929" gradientUnits="userSpaceOnUse">
<stop stop-color="#D8DEE8"/>
<stop offset="1" stop-color="white"/>
</linearGradient>
<linearGradient id="paint21_linear_61_3433" x1="233.121" y1="286.941" x2="302.288" y2="287.373" gradientUnits="userSpaceOnUse">
<stop stop-color="#D8DEE8"/>
<stop offset="1" stop-color="white"/>
</linearGradient>
<linearGradient id="paint22_linear_61_3433" x1="249.743" y1="289.879" x2="353.049" y2="272.558" gradientUnits="userSpaceOnUse">
<stop stop-color="#D8DEE8"/>
<stop offset="1" stop-color="white"/>
</linearGradient>
<linearGradient id="paint23_linear_61_3433" x1="232.93" y1="273.596" x2="302.805" y2="274.041" gradientUnits="userSpaceOnUse">
<stop stop-color="#D8DEE8"/>
<stop offset="1" stop-color="white"/>
</linearGradient>
<linearGradient id="paint24_linear_61_3433" x1="51.7598" y1="198.445" x2="189.177" y2="491.999" gradientUnits="userSpaceOnUse">
<stop stop-color="#FFC444"/>
<stop offset="1" stop-color="#F36F56"/>
</linearGradient>
<linearGradient id="paint25_linear_61_3433" x1="67.5359" y1="191.06" x2="204.953" y2="484.613" gradientUnits="userSpaceOnUse">
<stop stop-color="#FF9085"/>
<stop offset="1" stop-color="#FB6FBB"/>
</linearGradient>
<linearGradient id="paint26_linear_61_3433" x1="51.7598" y1="198.445" x2="189.178" y2="492" gradientUnits="userSpaceOnUse">
<stop stop-color="#FF9085"/>
<stop offset="1" stop-color="#FB6FBB"/>
</linearGradient>
<linearGradient id="paint27_linear_61_3433" x1="229.163" y1="343.107" x2="245.276" y2="331.096" gradientUnits="userSpaceOnUse">
<stop stop-color="#40447E"/>
<stop offset="1" stop-color="#3C3B6B"/>
</linearGradient>
<linearGradient id="paint28_linear_61_3433" x1="205.218" y1="287.865" x2="307.604" y2="497.236" gradientUnits="userSpaceOnUse">
<stop stop-color="#FFC444"/>
<stop offset="1" stop-color="#F36F56"/>
</linearGradient>
<linearGradient id="paint29_linear_61_3433" x1="94.1605" y1="248.745" x2="244.306" y2="360.213" gradientUnits="userSpaceOnUse">
<stop stop-color="#311944"/>
<stop offset="1" stop-color="#6B3976"/>
</linearGradient>
<linearGradient id="paint30_linear_61_3433" x1="193.698" y1="283.911" x2="213.573" y2="280.498" gradientUnits="userSpaceOnUse">
<stop stop-color="#40447E"/>
<stop offset="1" stop-color="#3C3B6B"/>
</linearGradient>
<linearGradient id="paint31_linear_61_3433" x1="192.716" y1="271.924" x2="361.426" y2="509.996" gradientUnits="userSpaceOnUse">
<stop stop-color="#FFC444"/>
<stop offset="1" stop-color="#F36F56"/>
</linearGradient>
<linearGradient id="paint32_linear_61_3433" x1="77.1898" y1="271.442" x2="200.712" y2="278.018" gradientUnits="userSpaceOnUse">
<stop stop-color="#311944"/>
<stop offset="1" stop-color="#6B3976"/>
</linearGradient>
<linearGradient id="paint33_linear_61_3433" x1="26.7927" y1="287.932" x2="179.002" y2="282.858" gradientUnits="userSpaceOnUse">
<stop stop-color="#311944"/>
<stop offset="1" stop-color="#893976"/>
</linearGradient>
<linearGradient id="paint34_linear_61_3433" x1="82.5146" y1="276.896" x2="174.992" y2="271.323" gradientUnits="userSpaceOnUse">
<stop stop-color="#311944"/>
<stop offset="1" stop-color="#6B3976"/>
</linearGradient>
<linearGradient id="paint35_linear_61_3433" x1="30.7957" y1="277.973" x2="175.877" y2="273.136" gradientUnits="userSpaceOnUse">
<stop stop-color="#311944"/>
<stop offset="1" stop-color="#893976"/>
</linearGradient>
<linearGradient id="paint36_linear_61_3433" x1="171.244" y1="303.332" x2="123.926" y2="235.73" gradientUnits="userSpaceOnUse">
<stop stop-color="#AA80F9"/>
<stop offset="1" stop-color="#6165D7"/>
</linearGradient>
<linearGradient id="paint37_linear_61_3433" x1="91.4707" y1="274.52" x2="93.6313" y2="214.403" gradientUnits="userSpaceOnUse">
<stop stop-color="#AA80F9"/>
<stop offset="1" stop-color="#6165D7"/>
</linearGradient>
<linearGradient id="paint38_linear_61_3433" x1="90.9983" y1="274.082" x2="93.2858" y2="210.441" gradientUnits="userSpaceOnUse">
<stop stop-color="#AA80F9"/>
<stop offset="1" stop-color="#6165D7"/>
</linearGradient>
<linearGradient id="paint39_linear_61_3433" x1="93.7305" y1="254.064" x2="138.752" y2="255.279" gradientUnits="userSpaceOnUse">
<stop stop-color="#FFC444"/>
<stop offset="1" stop-color="#F36F56"/>
</linearGradient>
<linearGradient id="paint40_linear_61_3433" x1="69.47" y1="282.741" x2="72.0912" y2="209.789" gradientUnits="userSpaceOnUse">
<stop stop-color="#AA80F9"/>
<stop offset="1" stop-color="#6165D7"/>
</linearGradient>
<linearGradient id="paint41_linear_61_3433" x1="116.08" y1="255.121" x2="163.07" y2="253.308" gradientUnits="userSpaceOnUse">
<stop stop-color="#40447E"/>
<stop offset="1" stop-color="#3C3B6B"/>
</linearGradient>
<linearGradient id="paint42_linear_61_3433" x1="91.2867" y1="216.302" x2="106.941" y2="177.625" gradientUnits="userSpaceOnUse">
<stop stop-color="#FFC444"/>
<stop offset="1" stop-color="#F36F56"/>
</linearGradient>
<linearGradient id="paint43_linear_61_3433" x1="106.06" y1="208.328" x2="104.274" y2="182.983" gradientUnits="userSpaceOnUse">
<stop stop-color="#FFC444"/>
<stop offset="1" stop-color="#F36F56"/>
</linearGradient>
<linearGradient id="paint44_linear_61_3433" x1="82.6339" y1="199.535" x2="111.745" y2="169.875" gradientUnits="userSpaceOnUse">
<stop stop-color="#311944"/>
<stop offset="1" stop-color="#6B3976"/>
</linearGradient>
<linearGradient id="paint45_linear_61_3433" x1="103.246" y1="181.361" x2="85.8402" y2="227.679" gradientUnits="userSpaceOnUse">
<stop stop-color="#FFC444"/>
<stop offset="1" stop-color="#F36F56"/>
</linearGradient>
<linearGradient id="paint46_linear_61_3433" x1="72.8245" y1="39.4644" x2="123.659" y2="170.401" gradientUnits="userSpaceOnUse">
<stop stop-color="#311944"/>
<stop offset="1" stop-color="#893976"/>
</linearGradient>
<linearGradient id="paint47_linear_61_3433" x1="30.0045" y1="72.8591" x2="132.27" y2="72.8591" gradientUnits="userSpaceOnUse">
<stop stop-color="#FFC444"/>
<stop offset="1" stop-color="#F36F56"/>
</linearGradient>
<linearGradient id="paint48_linear_61_3433" x1="56.5661" y1="46.4909" x2="107.412" y2="177.457" gradientUnits="userSpaceOnUse">
<stop stop-color="#FF9085"/>
<stop offset="1" stop-color="#FB6FBB"/>
</linearGradient>
</defs>
</svg>
