<svg width="50" height="60" viewBox="0 0 50 60" fill="none" xmlns="http://www.w3.org/2000/svg">
<path fill-rule="evenodd" clip-rule="evenodd" d="M38.0001 16C38.0001 23.1797 32.1798 29 25.0001 29C17.8204 29 12.0001 23.1797 12.0001 16C12.0001 8.8203 17.8204 3 25.0001 3C32.1798 3 38.0001 8.8203 38.0001 16ZM41.0001 16C41.0001 24.8366 33.8366 32 25.0001 32C16.1635 32 9.00006 24.8366 9.00006 16C9.00006 7.16344 16.1635 0 25.0001 0C33.8366 0 41.0001 7.16344 41.0001 16ZM25.0001 32H6.91812C3.26682 32 0.462049 35.2339 0.97842 38.8485L3.26414 54.8485C3.68641 57.8044 6.21793 60 9.20383 60H41.2034C44.2293 60 46.7817 57.7468 47.157 54.7442L49.157 38.7442C49.6047 35.1631 46.8124 32 43.2034 32H25.0001ZM6.91812 35H43.2034C45.0079 35 46.404 36.5815 46.1802 38.3721L44.1802 54.3721C43.9925 55.8734 42.7163 57 41.2034 57H41.0519C41.0694 56.9345 41.0827 56.867 41.0914 56.7978L42.4883 45.6871C42.5917 44.8652 42.0091 44.1151 41.1872 44.0117C40.3652 43.9084 39.6151 44.4909 39.5118 45.3129L38.1148 56.4236C38.0898 56.6226 38.105 56.8175 38.1541 57H12.6484L11.1629 45.1163C11.0602 44.2943 10.3105 43.7112 9.48848 43.8139C8.66645 43.9167 8.08336 44.6664 8.18611 45.4884L9.62506 57H9.20383C7.71088 57 6.44512 55.9022 6.23398 54.4243L3.94827 38.4243C3.69008 36.617 5.09247 35 6.91812 35ZM18.043 18.8741C18.8122 18.5664 19.6851 18.9406 19.9928 19.7097C20.7775 21.6715 22.7865 22.7668 25.0001 22.7668C27.2136 22.7668 29.2227 21.6715 30.0074 19.7097C30.315 18.9406 31.188 18.5664 31.9572 18.8741C32.7263 19.1818 33.1005 20.0547 32.7928 20.8239C31.4441 24.1955 28.1198 25.7668 25.0001 25.7668C21.8803 25.7668 18.556 24.1955 17.2074 20.8239C16.8997 20.0547 17.2738 19.1818 18.043 18.8741ZM20.2001 16C21.6728 16 22.8667 14.8061 22.8667 13.3333C22.8667 11.8606 21.6728 10.6667 20.2001 10.6667C18.7273 10.6667 17.5334 11.8606 17.5334 13.3333C17.5334 14.8061 18.7273 16 20.2001 16ZM32.4667 13.3335C32.4667 14.8063 31.2728 16.0002 29.8001 16.0002C28.3273 16.0002 27.1334 14.8063 27.1334 13.3335C27.1334 11.8607 28.3273 10.6668 29.8001 10.6668C31.2728 10.6668 32.4667 11.8607 32.4667 13.3335ZM25.5001 42C26.8808 42 28.0001 40.8807 28.0001 39.5C28.0001 38.1193 26.8808 37 25.5001 37C24.1193 37 23.0001 38.1193 23.0001 39.5C23.0001 40.8807 24.1193 42 25.5001 42ZM28.0001 46.5C28.0001 47.8807 26.8808 49 25.5001 49C24.1193 49 23.0001 47.8807 23.0001 46.5C23.0001 45.1193 24.1193 44 25.5001 44C26.8808 44 28.0001 45.1193 28.0001 46.5ZM25.5001 56C26.8808 56 28.0001 54.8807 28.0001 53.5C28.0001 52.1193 26.8808 51 25.5001 51C24.1193 51 23.0001 52.1193 23.0001 53.5C23.0001 54.8807 24.1193 56 25.5001 56Z" fill="#589BFF"/>
</svg>
