<svg width="50" height="60" viewBox="0 0 50 60" fill="none" xmlns="http://www.w3.org/2000/svg">
<path fill-rule="evenodd" clip-rule="evenodd" d="M6 3H44C45.6569 3 47 4.34315 47 6V17H3V6C3 4.34315 4.34315 3 6 3ZM0 20V17V6C0 2.68629 2.68629 0 6 0H44C47.3137 0 50 2.68629 50 6V17V20V37V40V54C50 57.3137 47.3137 60 44 60H6C2.68629 60 0 57.3137 0 54V40V37V20ZM47 20V37H3V20H47ZM3 54V40H47V54C47 55.6569 45.6569 57 44 57H6C4.34315 57 3 55.6569 3 54ZM11.5 13C12.8807 13 14 11.8807 14 10.5C14 9.11929 12.8807 8 11.5 8C10.1193 8 9 9.11929 9 10.5C9 11.8807 10.1193 13 11.5 13ZM14 30.5C14 31.8807 12.8807 33 11.5 33C10.1193 33 9 31.8807 9 30.5C9 29.1193 10.1193 28 11.5 28C12.8807 28 14 29.1193 14 30.5ZM11.5 53C12.8807 53 14 51.8807 14 50.5C14 49.1193 12.8807 48 11.5 48C10.1193 48 9 49.1193 9 50.5C9 51.8807 10.1193 53 11.5 53Z" fill="#589BFF"/>
</svg>
