<svg width="20" height="21" viewBox="0 0 20 21" fill="none" xmlns="http://www.w3.org/2000/svg">
<path fill-rule="evenodd" clip-rule="evenodd" d="M16.4052 2.2916L4.41977 6.63788L4.80528 7.68853L16.833 3.45755L16.4052 2.2916ZM17.3155 4.77248L5.28777 9.00347L5.32127 9.09478H16.2639L18.5917 8.25063L17.3155 4.77248ZM18.6665 9.71335L19.0742 9.5655C19.8047 9.30061 20.1808 8.49718 19.9144 7.771L17.7278 1.81197C17.4614 1.08579 16.6532 0.711837 15.9227 0.976729L3.93731 5.32301C3.20684 5.5879 2.83068 6.39133 3.09713 7.11751L3.82264 9.09478H1.40789C0.630333 9.09478 0 9.72142 0 10.4944V19.492C0 20.265 0.630333 20.8916 1.40789 20.8916H17.498C18.2756 20.8916 18.9059 20.265 18.9059 19.492V10.4944C18.9059 10.2052 18.8177 9.93644 18.6665 9.71335ZM1.40789 10.4944H17.498V12.4939H1.40789V10.4944ZM1.40789 13.8935H17.498V19.492H1.40789L1.40789 13.8935ZM5.43043 17.3925C5.43043 17.0061 5.74559 16.6927 6.13437 16.6927H10.5592C10.9479 16.6927 11.2631 17.0061 11.2631 17.3925C11.2631 17.779 10.9479 18.0924 10.5592 18.0924H6.13437C5.74559 18.0924 5.43043 17.779 5.43043 17.3925ZM3.72085 18.2923C4.2207 18.2923 4.62592 17.8895 4.62592 17.3925C4.62592 16.8956 4.2207 16.4928 3.72085 16.4928C3.22099 16.4928 2.81578 16.8956 2.81578 17.3925C2.81578 17.8895 3.22099 18.2923 3.72085 18.2923Z" fill="current"/>
</svg>
