<svg width="20" height="20" viewBox="0 0 20 20" fill="none" xmlns="http://www.w3.org/2000/svg">
<path fill-rule="evenodd" clip-rule="evenodd" d="M15.6246 2.61634L14.5611 7.87132C14.4189 8.57396 13.5372 8.83046 13.0324 8.31604L11.3 6.55052V9.29043C11.3 9.67247 10.9866 9.98218 10.6 9.98218C10.2134 9.98218 9.9 9.67247 9.9 9.29043V5.3312C9.9 4.53222 10.8833 4.13846 11.4461 4.71205L13.3749 6.67769L14.5816 0.715152C14.7572 -0.152285 15.9673 -0.262097 16.2998 0.559263L17.9789 4.70764L18.5446 3.21708C18.6803 2.85936 19.0838 2.67812 19.4458 2.81227C19.8078 2.94641 19.9912 3.34514 19.8554 3.70286L18.8367 6.38751C18.5481 7.14809 17.4636 7.15972 17.1584 6.40553L15.6246 2.61634ZM12.4512 2.27412H12.3H1.4C0.626801 2.27412 0 2.89353 0 3.65761V15.1209C0 15.885 0.626801 16.5044 1.4 16.5044H10.1657C10.9191 18.3579 12.7549 19.6667 14.9 19.6667C17.7167 19.6667 20 17.4102 20 14.6268C20 12.5831 18.7691 10.8236 17 10.0326V8.0338C16.9643 7.80456 16.8174 7.51164 16.3 7.51164C15.7826 7.51164 15.6357 7.80456 15.6 8.0338V8.30221V9.63397C15.3712 9.60293 15.1375 9.58689 14.9 9.58689C12.0833 9.58689 9.8 11.8433 9.8 14.6268C9.8 14.7935 9.80819 14.9583 9.8242 15.1209H1.4V3.65761H12.3H12.4512C12.657 3.63686 13 3.51926 13 2.96586C13 2.41246 12.657 2.29487 12.4512 2.27412ZM18.6 14.6268C18.6 16.6461 16.9435 18.2832 14.9 18.2832C12.8565 18.2832 11.2 16.6461 11.2 14.6268C11.2 12.6074 12.8565 10.9704 14.9 10.9704C16.9435 10.9704 18.6 12.6074 18.6 14.6268ZM2.2 5.33757C2.2 4.95553 2.5134 4.64582 2.9 4.64582H8.3C8.6866 4.64582 9 4.95553 9 5.33757C9 5.71961 8.6866 6.02932 8.3 6.02932H2.9C2.5134 6.02932 2.2 5.71961 2.2 5.33757ZM2.9 6.62225C2.5134 6.62225 2.2 6.93195 2.2 7.31399C2.2 7.69604 2.5134 8.00574 2.9 8.00574H8.3C8.6866 8.00574 9 7.69604 9 7.31399C9 6.93195 8.6866 6.62225 8.3 6.62225H2.9ZM2.2 11.4645C2.2 11.0824 2.5134 10.7727 2.9 10.7727H7.58421C7.97081 10.7727 8.28421 11.0824 8.28421 11.4645C8.28421 11.8465 7.97081 12.1562 7.58421 12.1562H2.9C2.5134 12.1562 2.2 11.8465 2.2 11.4645ZM2.9 12.9468C2.5134 12.9468 2.2 13.2565 2.2 13.6386C2.2 14.0206 2.5134 14.3303 2.9 14.3303H7.58421C7.97081 14.3303 8.28421 14.0206 8.28421 13.6386C8.28421 13.2565 7.97081 12.9468 7.58421 12.9468H2.9ZM2.2 9.29042C2.2 8.90838 2.5134 8.59867 2.9 8.59867H5.43684C5.82344 8.59867 6.13684 8.90838 6.13684 9.29042C6.13684 9.67246 5.82344 9.98217 5.43684 9.98217H2.9C2.5134 9.98217 2.2 9.67246 2.2 9.29042ZM7.19474 8.59867C6.80814 8.59867 6.49474 8.90838 6.49474 9.29042C6.49474 9.67246 6.80814 9.98217 7.19474 9.98217H8.3C8.6866 9.98217 9 9.67246 9 9.29042C9 8.90838 8.6866 8.59867 8.3 8.59867H7.19474ZM14.9 17.6902C16.6121 17.6902 18 16.3187 18 14.6268C18 12.9349 16.6121 11.5633 14.9 11.5633C13.1879 11.5633 11.8 12.9349 11.8 14.6268C11.8 16.3187 13.1879 17.6902 14.9 17.6902ZM14.4049 15.1384C14.4611 15.0696 14.4643 14.9722 14.4126 14.9L13.4199 13.5131C13.372 13.4461 13.286 13.4173 13.2208 13.4682C13.0794 13.5785 12.8628 13.861 12.8628 14.5568C12.8628 15.6041 13.285 15.956 13.4939 16.066C13.5609 16.1013 13.6385 16.0753 13.6862 16.0169L14.4049 15.1384ZM15.1952 14.5329C15.135 14.5298 15.0794 14.5 15.0439 14.4518L13.9899 13.0184C13.9192 12.9223 13.9502 12.7887 14.0607 12.7422C14.4163 12.5925 15.172 12.3492 15.8 12.6504C16.8997 13.1777 16.9662 14.0842 16.9426 14.4562C16.9364 14.5528 16.8503 14.619 16.7525 14.6139L15.1952 14.5329Z" fill="#3F3F3F"/>
</svg>
