<svg width="20" height="21" viewBox="0 0 20 21" fill="none" xmlns="http://www.w3.org/2000/svg">
<path fill-rule="evenodd" clip-rule="evenodd" d="M11.0101 1.54873H2.92929C2.76193 1.54873 2.62626 1.68532 2.62626 1.85381C2.62626 2.02231 2.76193 2.1589 2.92929 2.1589H11.0101C11.1775 2.1589 11.3131 2.02231 11.3131 1.85381C11.3131 1.68532 11.1775 1.54873 11.0101 1.54873ZM2.92929 0.125C1.98093 0.125 1.21212 0.899016 1.21212 1.85381C1.21212 2.80861 1.98093 3.58263 2.92929 3.58263H11.0101C11.9585 3.58263 12.7273 2.80861 12.7273 1.85381C12.7273 0.899016 11.9585 0.125 11.0101 0.125H2.92929ZM6.26263 5.20975H14.1414C14.3646 5.20975 14.5455 5.39187 14.5455 5.61653C14.5455 5.84118 14.3646 6.02331 14.1414 6.02331H6.26263C6.03948 6.02331 5.85859 5.84118 5.85859 5.61653C5.85859 5.39187 6.03948 5.20975 6.26263 5.20975ZM4.44444 5.61653C4.44444 4.60556 5.25847 3.78602 6.26263 3.78602H14.1414C15.1456 3.78602 15.9596 4.60556 15.9596 5.61653C15.9596 6.62749 15.1456 7.44703 14.1414 7.44703H6.26263C5.25847 7.44703 4.44444 6.62749 4.44444 5.61653ZM13.9394 19.0403C16.5056 19.0403 18.5859 16.9459 18.5859 14.3623C18.5859 11.7787 16.5056 9.68432 13.9394 9.68432C11.3732 9.68432 9.29293 11.7787 9.29293 14.3623C9.29293 16.9459 11.3732 19.0403 13.9394 19.0403ZM13.9394 20.464C17.2866 20.464 20 17.7322 20 14.3623C20 10.9924 17.2866 8.26059 13.9394 8.26059C13.413 8.26059 12.9022 8.32817 12.4152 8.45517C12.0883 7.96955 11.5357 7.65042 10.9091 7.65042H3.0303C2.02615 7.65042 1.21212 8.46997 1.21212 9.48093C1.21212 10.4919 2.02615 11.3114 3.0303 11.3114H8.68959C8.65109 11.3784 8.61382 11.4462 8.57782 11.5148H1.81818C0.814028 11.5148 0 12.3344 0 13.3453C0 14.3563 0.814028 15.1758 1.81818 15.1758H7.93219C7.94121 15.244 7.95135 15.3118 7.96258 15.3792H3.0303C2.02615 15.3792 1.21212 16.1988 1.21212 17.2097C1.21212 18.2207 2.02615 19.0403 3.0303 19.0403H10.048C11.1008 19.9289 12.458 20.464 13.9394 20.464ZM8.81177 17.6165C8.64945 17.3578 8.50591 17.086 8.38308 16.803H3.0303C2.80716 16.803 2.62626 16.9851 2.62626 17.2097C2.62626 17.4344 2.80716 17.6165 3.0303 17.6165H8.81177ZM7.90871 13.7521C7.93603 13.4751 7.98177 13.2035 8.04465 12.9386H1.81818C1.59504 12.9386 1.41414 13.1207 1.41414 13.3453C1.41414 13.57 1.59504 13.7521 1.81818 13.7521H7.90871ZM10.9138 9.07418C10.5185 9.30391 10.1514 9.57726 9.81893 9.88771H3.0303C2.80716 9.88771 2.62626 9.70559 2.62626 9.48093C2.62626 9.25627 2.80716 9.07415 3.0303 9.07415H10.9091C10.9106 9.07415 10.9122 9.07416 10.9138 9.07418ZM14.0136 13.6193C15.7843 13.7922 16.4473 14.4841 16.4473 15.5651C16.4473 16.5683 16.0635 17.2775 14.8335 17.4158C14.8335 17.4158 14.8554 18.0517 13.9351 18.0517C13.0148 18.0517 12.993 17.4158 12.993 17.4158C11.7107 17.2688 11.4927 16.2691 11.4927 15.697C11.4927 15.125 11.93 14.9857 12.2349 14.9857C12.5398 14.9857 12.993 15.15 12.993 15.5651C12.993 15.9802 13.3245 16.0581 13.9351 16.0581C14.5021 16.0581 14.8335 15.8592 14.8335 15.5219C14.8335 15.1759 14.4585 15.0635 13.7432 14.9857C12.0771 14.8041 11.4927 14.0603 11.4927 13.0398C11.4927 12.0626 11.8067 11.3534 12.993 11.2237V11.1107C12.993 11.1107 12.993 10.5751 13.9002 10.5751C14.8336 10.5751 14.8335 11.1107 14.8335 11.1107V11.241C15.5492 11.241 16.2121 11.9788 16.2121 12.4555C16.2121 12.9322 16.0227 13.2818 15.644 13.4089C15.2652 13.536 14.697 13.4722 14.697 13.0917C14.697 12.7112 14.4236 12.5728 13.9002 12.5728C13.3681 12.5728 13.0802 12.7717 13.0802 13.0917C13.0802 13.3944 13.307 13.5501 14.0136 13.6193Z" fill="#3F3F3F"/>
</svg>
