<svg width="20" height="23" viewBox="0 0 20 23" fill="none" xmlns="http://www.w3.org/2000/svg">
<path fill-rule="evenodd" clip-rule="evenodd" d="M0.220398 4.00577L3.5096 0.559986C3.80347 0.265161 4.27992 0.265161 4.57378 0.559986L7.37204 3.55488C8.60246 1.6824 10.7175 0.446717 13.1201 0.446717C16.9198 0.446717 20 3.53703 20 7.34912C20 10.8318 17.4292 13.712 14.0876 14.1838V19.1156L16.0226 17.9975C16.5601 17.7027 16.7929 17.7027 17.0868 17.9975C17.3806 18.2924 17.3806 18.7704 17.0868 19.0652L13.6522 21.9035C13.3584 22.1983 12.8819 22.1983 12.5881 21.9035L8.95634 19.0652C8.66248 18.7704 8.66248 18.2924 8.95634 17.9975C9.25021 17.7027 9.35773 17.7027 10.0205 17.9975L12.1526 19.1156V14.1838C8.8111 13.712 6.24028 10.8318 6.24028 7.34912C6.24028 6.52816 6.38313 5.74067 6.64527 5.01032L5.00917 3.77923V15.2222C5.00917 15.6391 4.45728 15.9771 4.04169 15.9771C3.62611 15.9771 3.07421 15.6391 3.07421 15.2222V3.77923L1.28457 5.07343C0.990708 5.36826 0.514261 5.36826 0.220398 5.07343C-0.0734659 4.7786 -0.0734659 4.3006 0.220398 4.00577ZM18.495 7.34912C18.495 10.3273 16.0886 12.7416 13.1201 12.7416C10.1517 12.7416 7.74525 10.3273 7.74525 7.34912C7.74525 4.37092 10.1517 1.95662 13.1201 1.95662C16.0886 1.95662 18.495 4.37092 18.495 7.34912ZM13.2044 6.50859C15.2145 6.70426 15.967 7.4869 15.967 8.70979C15.967 9.84463 15.5313 10.6468 14.1352 10.8034C14.1352 10.8034 14.1599 11.5227 13.1152 11.5227C12.0706 11.5227 12.0458 10.8034 12.0458 10.8034C10.5902 10.6371 10.3427 9.50612 10.3427 8.85902C10.3427 8.21192 10.8391 8.05432 11.1852 8.05432C11.5313 8.05432 12.0458 8.2402 12.0458 8.70979C12.0458 9.17938 12.4221 9.26743 13.1152 9.26743C13.7589 9.26743 14.1352 9.04242 14.1352 8.66088C14.1352 8.26955 13.7094 8.14237 12.8974 8.05432C11.0061 7.84888 10.3427 7.00753 10.3427 5.85312C10.3427 4.74763 10.6991 3.94542 12.0458 3.79867V3.67079C12.0458 3.67079 12.0458 3.06492 13.0756 3.06492C14.1352 3.06492 14.1352 3.67079 14.1352 3.67079V3.81824C14.9476 3.81824 15.7001 4.65287 15.7001 5.19212C15.7001 5.73137 15.4851 6.12682 15.0551 6.27062C14.6251 6.41442 13.9801 6.34228 13.9801 5.91182C13.9801 5.48137 13.6698 5.32484 13.0756 5.32484C12.4716 5.32484 12.1448 5.54985 12.1448 5.91182C12.1448 6.25423 12.4023 6.43033 13.2044 6.50859ZM4.09032 20.0754C5.04023 20.0754 5.81029 19.3029 5.81029 18.3498C5.81029 17.3968 5.04023 16.6242 4.09032 16.6242C3.14041 16.6242 2.37035 17.3968 2.37035 18.3498C2.37035 19.3029 3.14041 20.0754 4.09032 20.0754Z" fill="#3F3F3F"/>
</svg>
