<svg width="20" height="21" viewBox="0 0 20 21" fill="none" xmlns="http://www.w3.org/2000/svg">
<path fill-rule="evenodd" clip-rule="evenodd" d="M1.4 3.67268C1.4 2.90471 2.0268 2.28214 2.8 2.28214H17.2C17.9732 2.28214 18.6 2.90471 18.6 3.67268V13.0092C18.6 13.7771 17.9732 14.3997 17.2 14.3997H13.3053C13.0793 14.3997 12.8672 14.5081 12.7358 14.6906L11.9476 15.7859C11.9463 15.7877 11.9476 15.7902 11.9498 15.7902C11.9521 15.7902 11.9534 15.7929 11.952 15.7947L11.4962 16.3828C11.4951 16.3842 11.4961 16.3862 11.4979 16.3862C11.4996 16.3862 11.5006 16.3882 11.4996 16.3895L10.4804 17.7383C10.1401 18.1886 9.45994 18.1886 9.11966 17.7383L8.10047 16.3895C8.09942 16.3882 8.10042 16.3862 8.10217 16.3862C8.10393 16.3862 8.10492 16.3842 8.10385 16.3828L7.64801 15.7946C7.64661 15.7928 7.64791 15.7902 7.6502 15.7902C7.65244 15.7902 7.65374 15.7877 7.65244 15.7859L6.86421 14.6906C6.7328 14.5081 6.52072 14.3997 6.29474 14.3997H2.8C2.0268 14.3997 1.4 13.7771 1.4 13.0092V3.67268ZM6.01734 15.9493C5.95149 15.8622 5.85732 15.7902 5.74761 15.7902H1.4C0.626801 15.7902 0 15.1677 0 14.3997V2.28214C0 1.51417 0.626801 0.891602 1.4 0.891602H18.6C19.3732 0.891602 20 1.51417 20 2.28214V14.3997C20 15.1677 19.3732 15.7902 18.6 15.7902H13.8524C13.7427 15.7902 13.6485 15.8622 13.5827 15.9493L10.2799 20.3201C10.0399 20.6377 9.56015 20.6377 9.32014 20.3201L6.01734 15.9493ZM9 5.16254C9 5.65624 9.40294 6.05646 9.9 6.05646C10.3971 6.05646 10.8 5.65624 10.8 5.16254C10.8 4.66885 10.3971 4.26863 9.9 4.26863C9.40294 4.26863 9 4.66885 9 5.16254ZM10.6 7.54632C10.6 7.16234 10.2866 6.85105 9.9 6.85105C9.5134 6.85105 9.2 7.16234 9.2 7.54632V11.9166C9.2 12.3006 9.5134 12.6119 9.9 12.6119C10.2866 12.6119 10.6 12.3006 10.6 11.9166V7.54632Z" fill="current"/>
</svg>
