<svg width="20" height="24" viewBox="0 0 20 24" fill="none" xmlns="http://www.w3.org/2000/svg">
<path fill-rule="evenodd" clip-rule="evenodd" d="M6.59091 4.50676H5H1.59091L1.59091 22.276H18.4091V4.50676H14.7727H13.1818H6.59091ZM14.7727 2.89138H18.4091C19.2877 2.89138 20 3.61461 20 4.50676V22.276C20 23.1681 19.2877 23.8914 18.4091 23.8914H1.59091C0.712274 23.8914 0 23.1681 0 22.276V4.50676C0 3.61461 0.712274 2.89138 1.59091 2.89138H5V2.42984C5 1.53769 5.71227 0.814453 6.59091 0.814453H13.1818C14.0605 0.814453 14.7727 1.53769 14.7727 2.42984V2.89138ZM6.59091 2.89138V2.42984H13.1818V2.89138H6.59091ZM5.22727 7.39138C5.22727 6.9453 5.58341 6.58368 6.02273 6.58368H13.75C14.1893 6.58368 14.5455 6.9453 14.5455 7.39138C14.5455 7.83745 14.1893 8.19907 13.75 8.19907H6.02273C5.58341 8.19907 5.22727 7.83745 5.22727 7.39138ZM3.40909 15.0068C3.40909 14.5607 3.76523 14.1991 4.20455 14.1991H15.5682C16.0075 14.1991 16.3636 14.5607 16.3636 15.0068C16.3636 15.4528 16.0075 15.8145 15.5682 15.8145H4.20455C3.76523 15.8145 3.40909 15.4528 3.40909 15.0068ZM4.20455 16.5068C3.76523 16.5068 3.40909 16.8684 3.40909 17.3145C3.40909 17.7605 3.76523 18.1221 4.20455 18.1221H15.5682C16.0075 18.1221 16.3636 17.7605 16.3636 17.3145C16.3636 16.8684 16.0075 16.5068 15.5682 16.5068H4.20455ZM3.40909 19.6221C3.40909 19.1761 3.76523 18.8145 4.20455 18.8145H15.5682C16.0075 18.8145 16.3636 19.1761 16.3636 19.6221C16.3636 20.0682 16.0075 20.4298 15.5682 20.4298H4.20455C3.76523 20.4298 3.40909 20.0682 3.40909 19.6221ZM4.20455 9.58368C3.76523 9.58368 3.40909 9.9453 3.40909 10.3914C3.40909 10.8375 3.76523 11.1991 4.20455 11.1991H15.5682C16.0075 11.1991 16.3636 10.8375 16.3636 10.3914C16.3636 9.9453 16.0075 9.58368 15.5682 9.58368H4.20455ZM3.40909 12.6991C3.40909 12.253 3.76523 11.8914 4.20455 11.8914H10.1136C10.5529 11.8914 10.9091 12.253 10.9091 12.6991C10.9091 13.1451 10.5529 13.5068 10.1136 13.5068H4.20455C3.76523 13.5068 3.40909 13.1451 3.40909 12.6991ZM12.3864 11.8914C11.9471 11.8914 11.591 12.253 11.591 12.6991C11.591 13.1451 11.9471 13.5068 12.3864 13.5068H15.5682C16.0076 13.5068 16.3637 13.1451 16.3637 12.6991C16.3637 12.253 16.0076 11.8914 15.5682 11.8914H12.3864Z" fill="current"/>
</svg>
