<svg width="20" height="21" viewBox="0 0 20 21" fill="none" xmlns="http://www.w3.org/2000/svg">
<path fill-rule="evenodd" clip-rule="evenodd" d="M13.6833 18.9389V17.9068C13.717 17.7825 13.8729 17.3389 14.3794 17.3389C14.9667 17.3389 15.0826 17.9354 15.0833 17.9389L15.0833 17.9389L15.0833 18.9389C15.0833 19.7121 14.4565 20.3389 13.6833 20.3389H1.40001C0.626808 20.3389 0 19.7121 0 18.9389L7.56011e-07 1.73887C7.89996e-07 0.965668 0.626809 0.338867 1.40001 0.338867L13.6833 0.338868C14.4565 0.338868 15.0833 0.965669 15.0833 1.73887L15.0833 9.53887C15.0833 9.53887 14.9684 10.1389 14.3794 10.1389C13.8729 10.1389 13.717 9.69529 13.6833 9.57093V1.73887L1.40001 1.73887L1.40001 18.9389H13.6833ZM3.51556 2.93887C3.12896 2.93887 2.81555 3.25227 2.81555 3.63887C2.81555 4.02547 3.12896 4.33887 3.51556 4.33887H11.3666C11.7532 4.33887 12.0666 4.02547 12.0666 3.63887C12.0666 3.25227 11.7532 2.93887 11.3666 2.93887H3.51556ZM3.51556 4.93887C3.12896 4.93887 2.81555 5.25227 2.81555 5.63887C2.81555 6.02547 3.12896 6.33887 3.51556 6.33887H11.3666C11.7532 6.33887 12.0666 6.02547 12.0666 5.63887C12.0666 5.25227 11.7532 4.93887 11.3666 4.93887H3.51556ZM2.81555 7.63887C2.81555 7.25227 3.12896 6.93887 3.51556 6.93887H7.47144C7.85804 6.93887 8.17144 7.25227 8.17144 7.63887C8.17144 8.02547 7.85804 8.33887 7.47144 8.33887H3.51556C3.12896 8.33887 2.81555 8.02547 2.81555 7.63887ZM9.35837 6.93887C8.97176 6.93887 8.65836 7.25227 8.65836 7.63887C8.65836 8.02547 8.97176 8.33887 9.35837 8.33887H11.3666C11.7532 8.33887 12.0667 8.02547 12.0667 7.63887C12.0667 7.25227 11.7532 6.93887 11.3666 6.93887H9.35837ZM19.8148 9.2308C19.8947 9.13609 19.9483 9.02817 19.9765 8.91581C20.0474 8.63316 19.957 8.32236 19.7177 8.1227C19.4783 7.92305 19.1549 7.88864 18.8873 8.0072C18.7809 8.05433 18.6834 8.12564 18.6035 8.22036L18.2229 8.67162C17.6783 8.46552 17.0392 8.61305 16.6448 9.08343L12.3875 14.1613C12.1324 14.4656 12.0293 14.8459 12.0701 15.2106L11.4706 17.3581C11.426 17.5178 11.5853 17.6587 11.7396 17.5959L13.9418 16.7003C14.2858 16.6597 14.6157 16.4931 14.8552 16.2074L19.1125 11.1295C19.4411 10.7376 19.5174 10.2197 19.3591 9.77108L19.8148 9.2308ZM13.3306 15.4629L13.5205 15.6203C13.6905 15.7613 13.9434 15.7384 14.0854 15.5691L14.7911 14.7274L13.8653 13.9551L13.1573 14.7996C13.0324 14.9486 13.0351 15.1613 13.1534 15.3063L13.3306 15.4629ZM17.9795 9.67052L18.2917 9.9294C18.4618 10.0704 18.4846 10.322 18.3427 10.4912L15.6905 13.6545L14.7648 12.8823L17.4146 9.72172C17.5565 9.55244 17.8094 9.52951 17.9795 9.67052ZM10.2788 11.0003C10.5766 11.2472 10.618 11.6884 10.3714 11.9859L7.53237 15.41C7.07537 15.9612 6.22131 15.935 5.79779 15.3568L4.58822 13.7055C4.35967 13.3935 4.42719 12.9555 4.73905 12.7274C5.0509 12.4992 5.48899 12.5671 5.71755 12.8792L6.69958 14.2198L9.29311 11.0918C9.53973 10.7944 9.98105 10.7534 10.2788 11.0003ZM6.63665 16.9389C8.30815 16.9389 9.6512 15.5983 9.66101 13.957C9.6863 13.7927 9.79441 13.4308 10.2566 13.3389C10.8334 13.2241 11.0426 13.7857 11.0599 13.8354C11.0607 13.8698 11.0611 13.9043 11.0611 13.9389C11.0611 16.3689 9.08019 18.3389 6.63665 18.3389C4.1931 18.3389 2.21222 16.3689 2.21222 13.9389C2.21222 11.5088 4.1931 9.53887 6.63665 9.53887C7.17122 9.53887 7.68365 9.63315 8.15804 9.8059C8.36817 9.94351 8.77604 10.2836 8.54718 10.7389C8.34194 11.1471 7.99698 11.185 7.79749 11.1675C7.44051 11.0203 7.04855 10.9389 6.63665 10.9389C4.959 10.9389 3.61223 12.2893 3.61223 13.9389C3.61223 15.5884 4.959 16.9389 6.63665 16.9389Z" fill="current"/>
</svg>
