<svg width="20" height="21" viewBox="0 0 20 21" fill="none" xmlns="http://www.w3.org/2000/svg">
<path fill-rule="evenodd" clip-rule="evenodd" d="M7.15022 5.44776C6.74366 5.44776 6.41408 5.12235 6.41408 4.72094V4.20178H5.01583C4.18618 4.20178 3.48035 4.79888 3.35314 5.60834L1.49286 17.4451C1.33459 18.4521 2.12343 19.3611 3.15555 19.3611H16.8445C17.8728 19.3611 18.6606 18.4584 18.5086 17.4543L16.7172 5.61757C16.5941 4.80391 15.8864 4.20178 15.0531 4.20178H13.3548V4.72094C13.3548 5.12235 13.0252 5.44776 12.6186 5.44776C12.2121 5.44776 11.8825 5.12235 11.8825 4.72094V4.20178H7.88635V4.72094C7.88635 5.12235 7.55677 5.44776 7.15022 5.44776ZM11.8825 2.74815H7.88635V1.19068C7.88635 0.789274 7.55677 0.463867 7.15022 0.463867C6.74366 0.463867 6.41408 0.789274 6.41408 1.19068V2.74815H5.01583C3.46023 2.74815 2.13681 3.8677 1.89828 5.38544L0.0379974 17.2222C-0.258744 19.1103 1.22033 20.8147 3.15555 20.8147H16.8445C18.7726 20.8147 20.2497 19.1222 19.9647 17.2395L18.1733 5.40274C17.9424 3.87714 16.6154 2.74815 15.0531 2.74815H13.3548V1.19068C13.3548 0.789274 13.0252 0.463867 12.6186 0.463867C12.2121 0.463867 11.8825 0.789274 11.8825 1.19068V2.74815ZM13.5058 10.2728C13.7652 9.96397 13.7216 9.50579 13.4084 9.24945C13.0953 8.9931 12.6312 9.03567 12.3718 9.34451L9.64445 12.5923L8.61173 11.2003C8.37138 10.8763 7.91068 10.8057 7.58273 11.0427C7.25478 11.2796 7.18377 11.7343 7.42412 12.0583L8.69612 13.7728C9.14149 14.3732 10.0396 14.4004 10.5202 13.8281L13.5058 10.2728Z" fill="current"/>
</svg>
