<svg width="20" height="21" viewBox="0 0 20 21" fill="none" xmlns="http://www.w3.org/2000/svg">
<path fill-rule="evenodd" clip-rule="evenodd" d="M8.07194e-07 19.5517C8.26128e-07 19.9863 0.35115 20.3386 0.784315 20.3386C0.85202 20.3386 0.917723 20.33 0.980393 20.3138C1.04306 20.33 1.10877 20.3386 1.17647 20.3386H19.2157C19.6489 20.3386 20 19.9863 20 19.5517C20 19.1172 19.6489 18.7649 19.2157 18.7649H18.0392V8.63372C18.0392 8.25346 17.732 7.94519 17.3529 7.94519C16.9739 7.94519 16.6667 8.25346 16.6667 8.63372V18.7649H15.2941V2.53536C15.2941 2.15509 14.9869 1.84683 14.6078 1.84683C14.2288 1.84683 13.9216 2.15509 13.9216 2.53536V18.7649H12.549V7.25667C12.549 6.87641 12.2418 6.56814 11.8627 6.56814C11.4837 6.56814 11.1765 6.87641 11.1765 7.25667L11.1765 18.7649H9.80392V9.4206C9.80392 9.04034 9.49667 8.73208 9.11765 8.73208C8.73863 8.73208 8.43137 9.04034 8.43137 9.4206V18.7649H7.05882L7.05882 11.1911C7.05882 10.8108 6.75157 10.5026 6.37255 10.5026C5.99353 10.5026 5.68627 10.8108 5.68627 11.1911V18.7649H4.31373V7.25667C4.31373 6.87641 4.00647 6.56814 3.62745 6.56814C3.24843 6.56814 2.94118 6.87641 2.94118 7.25667L2.94118 18.7649H1.56863L1.56863 1.45339C1.56863 1.0188 1.21748 0.666504 0.784314 0.666504C0.351149 0.666504 0 1.0188 0 1.45339L8.07194e-07 19.5517Z" fill="current"/>
</svg>
