<svg width="20" height="21" viewBox="0 0 20 21" fill="none" xmlns="http://www.w3.org/2000/svg">
<path fill-rule="evenodd" clip-rule="evenodd" d="M14.8521 5.19553L3.729 5.17791L5.86605 6.37834H14.9453C14.9469 6.37681 14.9484 6.37529 14.95 6.37376C14.9694 6.35494 14.9875 6.33556 15.0044 6.31569L15.0059 5.33741C14.9619 5.28367 14.9103 5.23569 14.8521 5.19553ZM1.41561 4.97356C1.51373 4.29295 2.09803 3.77057 2.80332 3.77168L4.44524 3.77429C4.49382 3.73281 4.54593 3.69458 4.60137 3.66003C4.70595 3.59485 4.82235 3.54276 4.94909 3.50666L15.1059 0.613603C15.8497 0.401737 16.6683 0.820534 16.9343 1.54901L18.7297 6.46634L18.7748 6.58985C19.4655 6.67617 20 7.26734 20 7.98376V18.8205C20 19.5963 19.3732 20.2253 18.6 20.2253H1.4C0.626801 20.2253 0 19.5963 0 18.8205V6.37832C0 5.60249 0.626801 4.97356 1.4 4.97356H1.41561ZM16.3756 4.90273C16.256 4.33727 15.7973 3.89734 15.2229 3.80775C14.9813 3.71304 14.713 3.66003 14.4227 3.66003H9.5373L15.4882 1.96497C15.4936 1.96344 15.5215 1.95876 15.5634 1.98016C15.6052 2.00155 15.6178 2.027 15.6197 2.03225L17.1575 6.2438C17.0864 6.25036 17.015 6.25914 16.9433 6.2702L16.9433 6.2702L16.8929 6.27798H16.5411C16.6389 5.80998 16.5733 5.32564 16.3756 4.90273ZM2.6695 6.37832H1.4V18.8205H18.6V7.98376H15H6.5305C6.09581 7.98376 5.66709 7.88221 5.2783 7.68715L2.6695 6.37832ZM16.3512 10.402L11.4081 10.3941L11.3995 15.8554L11.4 15.8554V15.6096C11.4 14.723 12.1164 14.0042 13 14.0042H14.8C15.5375 14.0042 16.1584 14.5047 16.3437 15.1857L16.3512 10.402ZM11.4103 8.98938C10.6371 8.98816 10.0093 9.6161 10.0081 10.3919L9.99948 15.8532C9.99826 16.629 10.6241 17.2589 11.3973 17.2602L16.3404 17.268C17.1136 17.2692 17.7414 16.6413 17.7426 15.8654L17.7512 10.4042C17.7524 9.62836 17.1266 8.99844 16.3534 8.99721L11.4103 8.98938ZM13.9 13.8035C14.7285 13.8035 15.4 13.1296 15.4 12.2984C15.4 11.4671 14.7285 10.7933 13.9 10.7933C13.0716 10.7933 12.4 11.4671 12.4 12.2984C12.4 13.1296 13.0716 13.8035 13.9 13.8035ZM3.1 12.5994C2.7134 12.5994 2.4 12.9139 2.4 13.3018C2.4 13.6897 2.7134 14.0042 3.1 14.0042H6.5C6.8866 14.0042 7.2 13.6897 7.2 13.3018C7.2 12.9139 6.8866 12.5994 6.5 12.5994H3.1ZM2.4 14.9072C2.4 14.5193 2.7134 14.2049 3.1 14.2049H6.5C6.8866 14.2049 7.2 14.5193 7.2 14.9072C7.2 15.2951 6.8866 15.6096 6.5 15.6096H3.1C2.7134 15.6096 2.4 15.2951 2.4 14.9072ZM3.1 15.8103C2.7134 15.8103 2.4 16.1248 2.4 16.5127C2.4 16.9006 2.7134 17.2151 3.1 17.2151H7.9C8.2866 17.2151 8.6 16.9006 8.6 16.5127C8.6 16.1248 8.2866 15.8103 7.9 15.8103H3.1Z" fill="current"/>
</svg>
