<svg width="110" height="50" viewBox="0 0 110 50" fill="none" xmlns="http://www.w3.org/2000/svg">
<path d="M1.15176 0.843047C0.878124 0.805932 0.62621 0.99767 0.589095 1.27131C0.551979 1.54494 0.743718 1.79686 1.01735 1.83397L1.15176 0.843047ZM108.661 48.3298C108.931 48.2724 109.103 48.0069 109.046 47.7368L108.11 43.3352C108.052 43.0651 107.787 42.8927 107.516 42.9502C107.246 43.0076 107.074 43.2732 107.131 43.5433L107.964 47.4557L104.051 48.2879C103.781 48.3453 103.609 48.6108 103.666 48.8809C103.723 49.151 103.989 49.3234 104.259 49.266L108.661 48.3298ZM41.0422 11.3279L40.8711 11.7977L41.0422 11.3279ZM1.08456 1.33851C1.01735 1.83397 1.01738 1.83398 1.01747 1.83399C1.01761 1.83401 1.01778 1.83403 1.01805 1.83407C1.01859 1.83414 1.01942 1.83425 1.02056 1.83441C1.02285 1.83472 1.02634 1.8352 1.03103 1.83584C1.04041 1.83713 1.05458 1.83909 1.07348 1.84172C1.11127 1.84699 1.16795 1.85495 1.2429 1.86567C1.39279 1.88711 1.61578 1.91957 1.90699 1.96351C2.48941 2.05139 3.34468 2.18518 4.43386 2.36852C6.61231 2.73521 9.726 3.3 13.4635 4.09196C20.9403 5.67623 30.9054 8.16784 40.8711 11.7977L41.2133 10.8581C31.1891 7.20691 21.1754 4.70383 13.6708 3.11368C9.91765 2.31841 6.79003 1.75106 4.59985 1.38239C3.50472 1.19806 2.64384 1.06337 2.05619 0.974702C1.76236 0.930366 1.53683 0.897531 1.38447 0.875741C1.30829 0.864845 1.25041 0.856711 1.21142 0.851281C1.19192 0.848566 1.17715 0.846528 1.16719 0.845158C1.1622 0.844473 1.15842 0.843955 1.15584 0.843603C1.15456 0.843428 1.15357 0.843293 1.15289 0.843201C1.15255 0.843154 1.15227 0.843116 1.1521 0.843093C1.15189 0.843065 1.15176 0.843047 1.08456 1.33851ZM40.8711 11.7977C53.667 16.4584 70.512 25.5662 84.179 33.5244C91.0078 37.5008 97.035 41.1852 101.355 43.8756C103.515 45.2207 105.248 46.3172 106.44 47.0772C107.037 47.4572 107.498 47.7532 107.81 47.954C107.966 48.0544 108.085 48.131 108.164 48.1825C108.204 48.2082 108.234 48.2277 108.254 48.2407C108.264 48.2472 108.272 48.2521 108.277 48.2553C108.279 48.257 108.281 48.2582 108.283 48.259C108.283 48.2594 108.284 48.2597 108.284 48.2599C108.284 48.2601 108.284 48.2602 108.557 47.8408C108.829 47.4214 108.829 47.4213 108.828 47.4211C108.828 47.4209 108.828 47.4205 108.827 47.4201C108.826 47.4193 108.824 47.418 108.821 47.4163C108.816 47.413 108.808 47.408 108.798 47.4014C108.778 47.3883 108.747 47.3686 108.707 47.3427C108.627 47.2908 108.508 47.2138 108.351 47.113C108.038 46.9115 107.575 46.6148 106.978 46.2339C105.782 45.4722 104.047 44.3739 101.884 43.0267C97.5575 40.3326 91.5216 36.6428 84.6822 32.6603C71.0129 24.7007 54.1007 15.5521 41.2133 10.8581L40.8711 11.7977Z" fill="#FF8CA7"/>
</svg>
