<svg width="523" height="59" viewBox="0 0 523 59" fill="none" xmlns="http://www.w3.org/2000/svg">
<path d="M2.928 20.66H6.96C6.848 22.628 5.456 23.572 3.696 23.572C2.384 23.572 0.88 22.484 0.88 22.484L0.56 23.54C0.56 23.54 1.952 24.676 3.936 24.676C6.416 24.676 8.4 23.316 8.4 20.42C8.4 17.572 6.592 15.844 3.744 15.844C2.544 15.844 1.552 16.212 0.688 16.916L1.36 17.892C2.048 17.252 2.848 16.9 3.808 16.9C5.696 16.9 6.736 17.94 6.928 19.556H2.928V20.66ZM9.605 20.372C9.605 22.356 11.349 23.652 13.589 23.668V24.644H15.077L14.933 23.668C17.173 23.652 18.917 22.356 18.917 20.372C18.917 18.372 17.173 17.092 14.933 17.076V15.876H13.413L13.589 17.076C11.349 17.092 9.605 18.372 9.605 20.372ZM11.045 20.372C11.045 18.932 12.021 17.956 13.589 17.956V22.788C12.021 22.788 11.045 21.796 11.045 20.372ZM17.477 20.372C17.477 21.796 16.517 22.788 14.933 22.788V17.956C16.517 17.956 17.477 18.932 17.477 20.372ZM20.0269 20.372C20.0269 22.356 21.7709 23.652 24.0109 23.668V24.644H25.4989L25.3549 23.668C27.5949 23.652 29.3389 22.356 29.3389 20.372C29.3389 18.372 27.5949 17.092 25.3549 17.076V15.876H23.8349L24.0109 17.076C21.7709 17.092 20.0269 18.372 20.0269 20.372ZM21.4669 20.372C21.4669 18.932 22.4429 17.956 24.0109 17.956V22.788C22.4429 22.788 21.4669 21.796 21.4669 20.372ZM27.8989 20.372C27.8989 21.796 26.9389 22.788 25.3549 22.788V17.956C26.9389 17.956 27.8989 18.932 27.8989 20.372ZM31.6045 24.5H36.2605L36.5965 23.428H32.9645V20.676H35.6685L36.0045 19.604H32.9645V17.076H36.4045V16.004H31.3965L31.6045 17.252V24.5ZM40.4954 19.588V16.004H38.9434L39.1354 17.204V24.5H40.6394L40.4954 23.524V20.708H41.5514L44.2234 24.5H45.8874L42.6554 20.1L44.0794 17.892C44.5274 17.204 44.9114 16.964 45.2474 16.964C45.4234 16.964 45.6154 16.98 45.7274 16.996L45.5994 15.924C45.4874 15.892 45.2634 15.844 45.0234 15.844C44.3514 15.844 43.6154 16.18 42.8954 17.364L41.5514 19.588H40.4954ZM46.205 17.092H49.229V24.5H50.749L50.589 23.46V17.092H53.709V16.004H46.205V17.092ZM61.9413 17.796V24.5H63.4453L63.3013 23.524V16.004H62.0373L57.3013 22.036L56.9173 22.708V16.004H55.3653L55.5573 17.204V24.5H56.8213L61.5573 18.468L61.9413 17.796ZM68.1833 17.028C68.3913 17.012 68.5833 16.996 68.7593 16.996C70.1513 16.996 70.7433 17.38 70.7433 18.228C70.7433 18.756 70.4713 19.188 70.2313 19.46C70.2313 19.46 69.6233 19.38 69.1913 19.38H68.1833V17.028ZM66.6153 16.004L66.8233 17.252V24.5H69.0312C71.6553 24.5 72.5993 23.204 72.5993 21.812C72.5993 20.596 71.9593 20.084 71.0473 19.7C71.4473 19.332 72.0553 18.66 72.0553 17.972C72.0553 16.66 70.8553 15.94 69.1432 15.94C69.1432 15.94 68.9993 15.94 66.6153 16.004ZM68.1833 20.452H68.9673C70.4233 20.452 71.1753 20.804 71.1753 21.924C71.1753 22.676 70.7113 23.444 69.1913 23.444H68.1833V20.452ZM82.9263 16.004H81.3583L81.5663 17.252V19.54H76.5583V16.004H74.9903L75.1983 17.252V24.5H76.7183L76.5583 23.46V20.692H81.5663V24.5H83.0863L82.9263 23.46V16.004ZM86.4951 24.5H91.1511L91.4871 23.428H87.8551V20.676H90.5591L90.8951 19.604H87.8551V17.076H91.2951V16.004H86.2871L86.4951 17.252V24.5ZM94.042 24.5H98.698L99.034 23.428H95.402V20.676H98.106L98.442 19.604H95.402V17.076H98.842V16.004H93.834L94.042 17.252V24.5ZM107.261 17.028C107.469 17.012 107.661 16.996 107.837 16.996C109.229 16.996 109.821 17.38 109.821 18.228C109.821 18.756 109.549 19.188 109.309 19.46C109.309 19.46 108.701 19.38 108.269 19.38H107.261V17.028ZM105.693 16.004L105.901 17.252V24.5H108.109C110.733 24.5 111.677 23.204 111.677 21.812C111.677 20.596 111.037 20.084 110.125 19.7C110.525 19.332 111.133 18.66 111.133 17.972C111.133 16.66 109.933 15.94 108.221 15.94C108.221 15.94 108.077 15.94 105.693 16.004ZM107.261 20.452H108.045C109.501 20.452 110.253 20.804 110.253 21.924C110.253 22.676 109.789 23.444 108.269 23.444H107.261V20.452ZM122.948 16.004H121.396L121.588 17.204V24.5H123.092L122.948 23.524V16.004ZM115.62 20.228H116.452C117.94 20.228 118.708 20.596 118.708 21.844C118.708 22.692 118.244 23.46 116.676 23.46H115.62V20.228ZM115.62 16.004H114.068L114.26 17.204V24.5H116.5C119.22 24.5 120.148 23.252 120.148 21.844C120.148 20.436 119.22 19.188 116.5 19.188H115.62V16.004ZM133.104 16.948C132.208 16.212 131.2 15.844 130.016 15.844C127.456 15.844 125.392 17.796 125.392 20.452C125.392 23.236 127.568 24.708 129.824 24.708C131.776 24.708 133.216 23.572 133.216 23.572L132.864 22.532C132.864 22.532 131.376 23.572 130.048 23.572C128.464 23.572 126.848 22.356 126.848 20.324C126.848 18.58 128.112 16.916 129.952 16.916C130.896 16.916 131.696 17.268 132.368 17.892L133.104 16.948ZM133.861 17.092H136.885V24.5H138.405L138.245 23.46V17.092H141.365V16.004H133.861V17.092ZM143.022 16.004L143.23 17.252V24.5H144.75L144.59 23.46V21.396H145.262C147.342 21.396 148.894 20.084 148.894 18.596C148.894 16.82 147.342 16.004 145.742 16.004H143.022ZM144.59 20.324V17.076H145.486C146.542 17.076 147.454 17.588 147.454 18.596C147.454 19.668 146.542 20.324 145.486 20.324H144.59ZM149.577 24.5H150.857L151.801 22.292H155.289L156.201 24.5H157.801L157.033 22.996L154.105 15.828L153.289 16.004L149.577 24.5ZM153.433 18.436L153.609 17.956L153.753 18.436L154.873 21.204H152.233L153.433 18.436ZM166.019 17.796V24.5H167.523L167.379 23.524V16.004H166.115L161.379 22.036L160.995 22.708V16.004H159.443L159.635 17.204V24.5H160.899L165.635 18.468L166.019 17.796ZM172.261 17.028C172.469 17.012 172.661 16.996 172.837 16.996C174.229 16.996 174.821 17.38 174.821 18.228C174.821 18.756 174.549 19.188 174.309 19.46C174.309 19.46 173.701 19.38 173.269 19.38H172.261V17.028ZM170.693 16.004L170.901 17.252V24.5H173.109C175.733 24.5 176.677 23.204 176.677 21.812C176.677 20.596 176.037 20.084 175.125 19.7C175.525 19.332 176.133 18.66 176.133 17.972C176.133 16.66 174.933 15.94 173.221 15.94C173.221 15.94 173.077 15.94 170.693 16.004ZM172.261 20.452H173.045C174.501 20.452 175.253 20.804 175.253 21.924C175.253 22.676 174.789 23.444 173.269 23.444H172.261V20.452ZM177.452 24.5H178.732L179.676 22.292H183.164L184.076 24.5H185.676L184.908 22.996L181.98 15.828L181.164 16.004L177.452 24.5ZM181.308 18.436L181.484 17.956L181.628 18.436L182.748 21.204H180.108L181.308 18.436ZM185.174 17.092H188.198V24.5H189.718L189.558 23.46V17.092H192.678V16.004H185.174V17.092ZM195.886 20.228H196.718C198.206 20.228 198.974 20.596 198.974 21.844C198.974 22.692 198.51 23.46 196.942 23.46H195.886V20.228ZM195.886 16.004H194.334L194.526 17.204V24.5H196.766C199.486 24.5 200.414 23.252 200.414 21.844C200.414 20.436 199.486 19.188 196.766 19.188H195.886V16.004ZM0.192 45.58H1.504V43.5H7.792V45.58H9.104V42.396H8.016V35.004H2.032L2.224 36.204L2.208 37.02C2.16 39.228 2.048 40.844 1.104 42.396H0.192V45.58ZM3.568 37.02V36.124H6.656V42.396H2.608C3.408 40.844 3.568 39.228 3.568 37.02ZM17.9413 36.796V43.5H19.4453L19.3013 42.524V35.004H18.0373L13.3013 41.036L12.9173 41.708V35.004H11.3653L11.5573 36.204V43.5H12.8213L17.5573 37.468L17.9413 36.796ZM20.9992 43.5H22.2793L23.2233 41.292H26.7113L27.6233 43.5H29.2233L28.4553 41.996L25.5273 34.828L24.7113 35.004L20.9992 43.5ZM24.8553 37.436L25.0312 36.956L25.1753 37.436L26.2953 40.204H23.6553L24.8553 37.436ZM32.9613 36.124H36.0813V43.5H37.5853L37.4413 42.524V35.004H31.4093L31.6013 36.204L31.5213 37.532C31.3293 41.02 31.2013 42.572 30.0973 42.572C29.8893 42.572 29.6973 42.556 29.5213 42.508L29.6493 43.58C29.8573 43.628 30.1293 43.676 30.3533 43.676C32.5613 43.676 32.7213 41.036 32.8813 37.532L32.9613 36.124ZM44.2599 34.844C41.7799 34.844 39.9079 36.844 39.9079 39.356C39.9079 41.756 41.4279 43.708 44.0839 43.708C46.5639 43.708 48.4519 41.708 48.4519 39.196C48.4519 36.7 47.0599 34.844 44.2599 34.844ZM41.3959 39.276C41.3959 37.404 42.5159 35.884 44.1959 35.884C45.8759 35.884 46.9799 37.404 46.9799 39.276C46.9799 41.148 45.8759 42.668 44.1959 42.668C42.5159 42.668 41.3959 41.148 41.3959 39.276ZM50.9479 36.204V43.5H52.4519L52.3079 42.524V36.044H55.7799V35.004H50.7559L50.9479 36.204ZM68.6664 35.948C67.7704 35.212 66.7624 34.844 65.5784 34.844C63.0184 34.844 60.9544 36.796 60.9544 39.452C60.9544 42.236 63.1304 43.708 65.3864 43.708C67.3384 43.708 68.7784 42.572 68.7784 42.572L68.4264 41.532C68.4264 41.532 66.9384 42.572 65.6104 42.572C64.0264 42.572 62.4104 41.356 62.4104 39.324C62.4104 37.58 63.6744 35.916 65.5144 35.916C66.4584 35.916 67.2584 36.268 67.9304 36.892L68.6664 35.948ZM83.1763 35.004H75.2403L75.4483 36.252V43.5H76.9683L76.8083 42.46V36.156H81.8163V43.5H83.3363L83.1763 42.46V35.004ZM90.0411 34.844C87.5611 34.844 85.6891 36.844 85.6891 39.356C85.6891 41.756 87.2091 43.708 89.8651 43.708C92.3451 43.708 94.2331 41.708 94.2331 39.196C94.2331 36.7 92.8411 34.844 90.0411 34.844ZM87.1771 39.276C87.1771 37.404 88.2971 35.884 89.9771 35.884C91.6571 35.884 92.7611 37.404 92.7611 39.276C92.7611 41.148 91.6571 42.668 89.9771 42.668C88.2971 42.668 87.1771 41.148 87.1771 39.276ZM98.0891 38.588V35.004H96.5371L96.7291 36.204V43.5H98.2331L98.0891 42.524V39.708H99.1451L101.817 43.5H103.481L100.249 39.1L101.673 36.892C102.121 36.204 102.505 35.964 102.841 35.964C103.017 35.964 103.209 35.98 103.321 35.996L103.193 34.924C103.081 34.892 102.857 34.844 102.617 34.844C101.945 34.844 101.209 35.18 100.489 36.364L99.1451 38.588H98.0891ZM112.583 35.004H111.175L108.951 39.628L108.615 40.508L108.263 39.628L105.703 35.004H103.879L104.935 36.428L107.895 41.724C107.543 42.332 106.999 42.604 106.231 42.604C105.991 42.604 105.735 42.54 105.495 42.46L105.703 43.564C105.959 43.66 106.215 43.708 106.455 43.708C107.831 43.708 108.727 42.988 109.367 41.66L112.583 35.004ZM122.27 35.004H114.334L114.542 36.252V43.5H116.062L115.902 42.46V36.156H120.91V43.5H122.43L122.27 42.46V35.004ZM124.015 43.5H125.295L126.239 41.292H129.727L130.639 43.5H132.239L131.471 41.996L128.543 34.828L127.727 35.004L124.015 43.5ZM127.871 37.436L128.047 36.956L128.191 37.436L129.311 40.204H126.671L127.871 37.436ZM131.736 36.092H134.76V43.5H136.28L136.12 42.46V36.092H139.24V35.004H131.736V36.092ZM141.105 43.5H145.761L146.097 42.428H142.465V39.676H145.169L145.505 38.604H142.465V36.076H145.905V35.004H140.897L141.105 36.252V43.5ZM150.539 36.124H153.659V43.5H155.163L155.019 42.524V35.004H148.987L149.179 36.204L149.099 37.532C148.907 41.02 148.779 42.572 147.675 42.572C147.467 42.572 147.275 42.556 147.099 42.508L147.227 43.58C147.435 43.628 147.707 43.676 147.931 43.676C150.139 43.676 150.299 41.036 150.459 37.532L150.539 36.124ZM158.542 43.5H163.198L163.534 42.428H159.902V39.676H162.606L162.942 38.604H159.902V36.076H163.342V35.004H158.334L158.542 36.252V43.5ZM170.985 42.62L173.961 38.492L174.409 37.724V43.5H175.929L175.769 42.46V35.004H174.905L171.049 40.508L166.713 35.004H165.785L165.977 36.236V43.5H167.353L167.193 42.46V37.74L167.641 38.556L170.985 42.62Z" fill="#7C6774"/>
<line x1="219.5" y1="29.5" x2="231.5" y2="29.5" stroke="#CBA9F7" stroke-width="3" stroke-linecap="round"/>
<line x1="225.5" y1="23.5" x2="225.5" y2="35.5" stroke="#CBA9F7" stroke-width="3" stroke-linecap="round"/>
<path d="M251.52 16.004H249.952L250.16 17.252V19.54H245.152V16.004H243.584L243.792 17.252V24.5H245.312L245.152 23.46V20.692H250.16V24.5H251.68L251.52 23.46V16.004ZM255.089 24.5H259.745L260.081 23.428H256.449V20.676H259.153L259.489 19.604H256.449V17.076H259.889V16.004H254.881L255.089 17.252V24.5ZM265.348 26.58H266.66V24.5H272.948V26.58H274.26V23.396H273.172V16.004H267.188L267.38 17.204L267.364 18.02C267.316 20.228 267.204 21.844 266.26 23.396H265.348V26.58ZM268.724 18.02V17.124H271.812V23.396H267.764C268.564 21.844 268.724 20.228 268.724 18.02ZM280.026 15.844C277.546 15.844 275.674 17.844 275.674 20.356C275.674 22.756 277.194 24.708 279.85 24.708C282.33 24.708 284.218 22.708 284.218 20.196C284.218 17.7 282.826 15.844 280.026 15.844ZM277.162 20.276C277.162 18.404 278.282 16.884 279.962 16.884C281.642 16.884 282.746 18.404 282.746 20.276C282.746 22.148 281.642 23.668 279.962 23.668C278.282 23.668 277.162 22.148 277.162 20.276ZM294.458 16.004H286.522L286.73 17.252V24.5H288.25L288.09 23.46V17.156H293.098V24.5H294.618L294.458 23.46V16.004ZM305.098 16.004H303.69L301.466 20.628L301.13 21.508L300.778 20.628L298.218 16.004H296.394L297.45 17.428L300.41 22.724C300.058 23.332 299.514 23.604 298.746 23.604C298.506 23.604 298.25 23.54 298.01 23.46L298.218 24.564C298.474 24.66 298.73 24.708 298.97 24.708C300.346 24.708 301.242 23.988 301.882 22.66L305.098 16.004ZM313.385 16.948C312.489 16.212 311.481 15.844 310.297 15.844C307.737 15.844 305.673 17.796 305.673 20.452C305.673 23.236 307.849 24.708 310.105 24.708C312.057 24.708 313.497 23.572 313.497 23.572L313.145 22.532C313.145 22.532 311.657 23.572 310.329 23.572C308.745 23.572 307.129 22.356 307.129 20.324C307.129 18.58 308.393 16.916 310.233 16.916C311.177 16.916 311.977 17.268 312.649 17.892L313.385 16.948ZM317.199 19.588V16.004H315.647L315.839 17.204V24.5H317.343L317.199 23.524V20.708H318.255L320.927 24.5H322.591L319.359 20.1L320.783 17.892C321.231 17.204 321.615 16.964 321.951 16.964C322.127 16.964 322.319 16.98 322.431 16.996L322.303 15.924C322.191 15.892 321.967 15.844 321.727 15.844C321.055 15.844 320.319 16.18 319.599 17.364L318.255 19.588H317.199ZM322.796 24.5H324.076L325.02 22.292H328.508L329.42 24.5H331.02L330.252 22.996L327.324 15.828L326.508 16.004L322.796 24.5ZM326.652 18.436L326.828 17.956L326.972 18.436L328.092 21.204H325.452L326.652 18.436ZM330.518 17.092H333.542V24.5H335.062L334.902 23.46V17.092H338.022V16.004H330.518V17.092ZM341.23 20.228H342.062C343.55 20.228 344.318 20.596 344.318 21.844C344.318 22.692 343.854 23.46 342.286 23.46H341.23V20.228ZM341.23 16.004H339.678L339.87 17.204V24.5H342.11C344.83 24.5 345.758 23.252 345.758 21.844C345.758 20.436 344.83 19.188 342.11 19.188H341.23V16.004ZM247.088 34.844C244.608 34.844 242.736 36.844 242.736 39.356C242.736 41.756 244.256 43.708 246.912 43.708C249.392 43.708 251.28 41.708 251.28 39.196C251.28 36.7 249.888 34.844 247.088 34.844ZM244.224 39.276C244.224 37.404 245.344 35.884 247.024 35.884C248.704 35.884 249.808 37.404 249.808 39.276C249.808 41.148 248.704 42.668 247.024 42.668C245.344 42.668 244.224 41.148 244.224 39.276ZM258.736 42.412H255.088V35.004H253.584L253.728 35.98V43.5H265.12V35.004H263.616L263.76 35.98V42.412H260.096V35.004H258.592L258.736 35.98V42.412ZM274.863 36.796V43.5H276.367L276.223 42.524V35.004H274.959L270.223 41.036L269.839 41.708V35.004H268.287L268.479 36.204V43.5H269.743L274.479 37.468L274.863 36.796ZM281.089 39.212H281.921C283.377 39.212 284.145 39.532 284.145 40.828C284.145 41.724 283.681 42.444 282.145 42.444H281.089V39.212ZM281.089 36.076H284.817V35.004H279.537L279.729 36.204V43.5H281.969C284.657 43.5 285.585 42.236 285.585 40.828C285.585 39.42 284.657 38.156 281.969 38.156H281.089V36.076ZM291.307 34.844C288.827 34.844 286.955 36.844 286.955 39.356C286.955 41.756 288.475 43.708 291.131 43.708C293.611 43.708 295.499 41.708 295.499 39.196C295.499 36.7 294.107 34.844 291.307 34.844ZM288.443 39.276C288.443 37.404 289.563 35.884 291.243 35.884C292.923 35.884 294.027 37.404 294.027 39.276C294.027 41.148 292.923 42.668 291.243 42.668C289.563 42.668 288.443 41.148 288.443 39.276ZM299.355 38.588V35.004H297.803L297.995 36.204V43.5H299.499L299.355 42.524V39.708H300.411L303.083 43.5H304.747L301.515 39.1L302.939 36.892C303.387 36.204 303.771 35.964 304.107 35.964C304.283 35.964 304.475 35.98 304.587 35.996L304.459 34.924C304.347 34.892 304.123 34.844 303.883 34.844C303.211 34.844 302.475 35.18 301.755 36.364L300.411 38.588H299.355ZM312.449 36.028C312.657 36.012 312.849 35.996 313.025 35.996C314.417 35.996 315.009 36.38 315.009 37.228C315.009 37.756 314.737 38.188 314.497 38.46C314.497 38.46 313.889 38.38 313.457 38.38H312.449V36.028ZM310.881 35.004L311.089 36.252V43.5H313.297C315.921 43.5 316.865 42.204 316.865 40.812C316.865 39.596 316.225 39.084 315.313 38.7C315.713 38.332 316.321 37.66 316.321 36.972C316.321 35.66 315.121 34.94 313.409 34.94C313.409 34.94 313.265 34.94 310.881 35.004ZM312.449 39.452H313.233C314.689 39.452 315.441 39.804 315.441 40.924C315.441 41.676 314.977 42.444 313.457 42.444H312.449V39.452ZM323.568 35.004L323.776 36.252V43.5H325.296L325.136 42.46V40.396H325.808C327.888 40.396 329.44 39.084 329.44 37.596C329.44 35.82 327.888 35.004 326.288 35.004H323.568ZM325.136 39.324V36.076H326.032C327.088 36.076 328 36.588 328 37.596C328 38.668 327.088 39.324 326.032 39.324H325.136ZM330.124 43.5H331.404L332.348 41.292H335.836L336.748 43.5H338.348L337.58 41.996L334.652 34.828L333.836 35.004L330.124 43.5ZM333.98 37.436L334.156 36.956L334.3 37.436L335.42 40.204H332.78L333.98 37.436ZM341.542 39.212H342.374C343.83 39.212 344.598 39.532 344.598 40.828C344.598 41.724 344.134 42.444 342.598 42.444H341.542V39.212ZM341.542 36.076H345.27V35.004H339.99L340.182 36.204V43.5H342.422C345.11 43.5 346.038 42.236 346.038 40.828C346.038 39.42 345.11 38.156 342.422 38.156H341.542V36.076ZM351.76 34.844C349.28 34.844 347.408 36.844 347.408 39.356C347.408 41.756 348.928 43.708 351.584 43.708C354.064 43.708 355.952 41.708 355.952 39.196C355.952 36.7 354.56 34.844 351.76 34.844ZM348.896 39.276C348.896 37.404 350.016 35.884 351.696 35.884C353.376 35.884 354.48 37.404 354.48 39.276C354.48 41.148 353.376 42.668 351.696 42.668C350.016 42.668 348.896 41.148 348.896 39.276ZM356.439 36.092H359.463V43.5H360.983L360.823 42.46V36.092H363.943V35.004H356.439V36.092ZM365.808 43.5H370.464L370.8 42.428H367.168V39.676H369.872L370.208 38.604H367.168V36.076H370.608V35.004H365.6L365.808 36.252V43.5Z" fill="#7C6774"/>
<line x1="383.5" y1="27.5" x2="395.5" y2="27.5" stroke="#CBA9F7" stroke-width="3" stroke-linecap="round"/>
<line x1="383.5" y1="32.5" x2="395.5" y2="32.5" stroke="#CBA9F7" stroke-width="3" stroke-linecap="round"/>
<path d="M415.52 16.004H407.584L407.792 17.252V24.5H409.312L409.152 23.46V17.156H414.16V24.5H415.68L415.52 23.46V16.004ZM418.881 16.004L419.089 17.252V24.5H420.609L420.449 23.46V21.396H421.121C423.201 21.396 424.753 20.084 424.753 18.596C424.753 16.82 423.201 16.004 421.601 16.004H418.881ZM420.449 20.324V17.076H421.345C422.401 17.076 423.313 17.588 423.313 18.596C423.313 19.668 422.401 20.324 421.345 20.324H420.449ZM430.557 15.844C428.077 15.844 426.205 17.844 426.205 20.356C426.205 22.756 427.725 24.708 430.381 24.708C432.861 24.708 434.749 22.708 434.749 20.196C434.749 17.7 433.357 15.844 430.557 15.844ZM427.693 20.276C427.693 18.404 428.813 16.884 430.493 16.884C432.173 16.884 433.277 18.404 433.277 20.276C433.277 22.148 432.173 23.668 430.493 23.668C428.813 23.668 427.693 22.148 427.693 20.276ZM435.661 26.58H436.973V24.5H443.261V26.58H444.573V23.396H443.485V16.004H437.501L437.693 17.204L437.677 18.02C437.629 20.228 437.517 21.844 436.573 23.396H435.661V26.58ZM439.037 18.02V17.124H442.125V23.396H438.077C438.877 21.844 439.037 20.228 439.037 18.02ZM445.218 24.5H446.498L447.442 22.292H450.93L451.842 24.5H453.442L452.674 22.996L449.746 15.828L448.93 16.004L445.218 24.5ZM449.074 18.436L449.25 17.956L449.394 18.436L450.514 21.204H447.874L449.074 18.436ZM456.652 17.028C456.86 17.012 457.052 16.996 457.228 16.996C458.62 16.996 459.212 17.38 459.212 18.228C459.212 18.756 458.94 19.188 458.7 19.46C458.7 19.46 458.092 19.38 457.66 19.38H456.652V17.028ZM455.084 16.004L455.292 17.252V24.5H457.5C460.124 24.5 461.068 23.204 461.068 21.812C461.068 20.596 460.428 20.084 459.516 19.7C459.916 19.332 460.524 18.66 460.524 17.972C460.524 16.66 459.324 15.94 457.612 15.94C457.612 15.94 457.468 15.94 455.084 16.004ZM456.652 20.452H457.436C458.892 20.452 459.644 20.804 459.644 21.924C459.644 22.676 459.18 23.444 457.66 23.444H456.652V20.452ZM461.843 24.5H463.123L464.067 22.292H467.555L468.467 24.5H470.067L469.299 22.996L466.371 15.828L465.555 16.004L461.843 24.5ZM465.699 18.436L465.875 17.956L466.019 18.436L467.139 21.204H464.499L465.699 18.436ZM469.564 17.092H472.588V24.5H474.108L473.948 23.46V17.092H477.068V16.004H469.564V17.092ZM480.277 20.228H481.109C482.597 20.228 483.365 20.596 483.365 21.844C483.365 22.692 482.901 23.46 481.333 23.46H480.277V20.228ZM480.277 16.004H478.725L478.917 17.204V24.5H481.157C483.877 24.5 484.805 23.252 484.805 21.844C484.805 20.436 483.877 19.188 481.157 19.188H480.277V16.004ZM491.542 24.5H496.198L496.534 23.428H492.902V20.676H495.606L495.942 19.604H492.902V17.076H496.342V16.004H491.334L491.542 17.252V24.5ZM503.985 23.62L506.961 19.492L507.409 18.724V24.5H508.929L508.769 23.46V16.004H507.905L504.049 21.508L499.713 16.004H498.785L498.977 17.236V24.5H500.353L500.193 23.46V18.74L500.641 19.556L503.985 23.62ZM519.411 16.004H518.003L515.779 20.628L515.443 21.508L515.091 20.628L512.531 16.004H510.707L511.763 17.428L514.723 22.724C514.371 23.332 513.827 23.604 513.059 23.604C512.819 23.604 512.563 23.54 512.323 23.46L512.531 24.564C512.787 24.66 513.043 24.708 513.283 24.708C514.659 24.708 515.555 23.988 516.195 22.66L519.411 16.004ZM409.136 39.212H409.968C411.424 39.212 412.192 39.532 412.192 40.828C412.192 41.724 411.728 42.444 410.192 42.444H409.136V39.212ZM409.136 36.076H412.864V35.004H407.584L407.776 36.204V43.5H410.016C412.704 43.5 413.632 42.236 413.632 40.828C413.632 39.42 412.704 38.156 410.016 38.156H409.136V36.076ZM419.354 34.844C416.874 34.844 415.002 36.844 415.002 39.356C415.002 41.756 416.522 43.708 419.178 43.708C421.658 43.708 423.546 41.708 423.546 39.196C423.546 36.7 422.154 34.844 419.354 34.844ZM416.49 39.276C416.49 37.404 417.61 35.884 419.29 35.884C420.97 35.884 422.074 37.404 422.074 39.276C422.074 41.148 420.97 42.668 419.29 42.668C417.61 42.668 416.49 41.148 416.49 39.276ZM427.946 36.124H431.066V43.5H432.57L432.426 42.524V35.004H426.394L426.586 36.204L426.506 37.532C426.314 41.02 426.186 42.572 425.082 42.572C424.874 42.572 424.682 42.556 424.506 42.508L424.634 43.58C424.842 43.628 425.114 43.676 425.338 43.676C427.546 43.676 427.706 41.036 427.866 37.532L427.946 36.124ZM437.292 39.228H438.124C439.612 39.228 440.38 39.596 440.38 40.844C440.38 41.692 439.916 42.46 438.348 42.46H437.292V39.228ZM437.292 35.004H435.74L435.932 36.204V43.5H438.172C440.892 43.5 441.82 42.252 441.82 40.844C441.82 39.436 440.892 38.188 438.172 38.188H437.292V35.004ZM449.189 42.412H445.541V35.004H444.037L444.181 35.98V43.5H455.573V35.004H454.069L454.213 35.98V42.412H450.549V35.004H449.045L449.189 35.98V42.412ZM458.948 43.5H463.604L463.94 42.428H460.308V39.676H463.012L463.348 38.604H460.308V36.076H463.748V35.004H458.74L458.948 36.252V43.5Z" fill="#7C6774"/>
</svg>
