<svg width="726" height="528" viewBox="0 0 726 528" fill="none" xmlns="http://www.w3.org/2000/svg">
<path d="M329.759 473.279C328.703 476.992 360.327 497.473 333.622 504.677C326.949 506.477 312.468 490.119 307.201 518L286.006 507.95C273.054 510.771 273.179 521.909 271.006 504.677C267.637 477.899 222.424 502.985 206.155 507.95C186.019 514.095 138.883 527.407 133.05 486.133C128.204 451.773 131.787 428.358 91.872 420.504C51.9574 412.651 30.3822 385.977 38.6499 347.78C47.3622 307.574 1.2817 267.278 23.4621 236.422C62.1083 182.655 142.84 247.33 157.804 321.266C172.767 395.201 202.97 358.14 236.214 360.784C240.728 361.399 245.154 362.546 249.399 364.202C282.545 377.18 283.002 413.893 307.201 443.787C340.215 484.555 331.54 467.023 329.759 473.279Z" fill="url(#paint0_linear_61_3227)"/>
<g style="mix-blend-mode:soft-light" opacity="0.5">
<g style="mix-blend-mode:soft-light">
<path d="M307.086 500.077L306.446 501.873C182.949 456.607 82.7533 347.885 44.9507 218.126L46.6687 217.528C84.3207 346.733 184.103 455.002 307.086 500.077Z" fill="#FCFDFE"/>
</g>
<g style="mix-blend-mode:soft-light">
<path d="M241.939 469.272L241.645 471.153C190.428 463.896 143.308 504.525 142.837 504.938L141.707 503.494C142.181 503.077 189.925 461.902 241.939 469.272Z" fill="#FCFDFE"/>
</g>
<g style="mix-blend-mode:soft-light">
<path d="M284.602 491.093L283.496 492.63C241.864 460.129 250.928 359.613 251.024 358.609L252.821 358.734C252.727 359.738 243.763 459.208 284.602 491.093Z" fill="#FCFDFE"/>
</g>
<g style="mix-blend-mode:soft-light">
<path d="M141.436 386.726L140.458 388.351C105.374 365.694 43.1763 383.483 42.552 383.679L42.1143 381.852C42.7477 381.662 105.704 363.648 141.436 386.726Z" fill="#FCFDFE"/>
</g>
<g style="mix-blend-mode:soft-light">
<path d="M90.6617 318.183L88.9893 318.953C70.9974 273.261 94.7658 209.807 95.009 209.17L96.6847 209.83C96.4446 210.458 72.9503 273.208 90.6617 318.183Z" fill="#FCFDFE"/>
</g>
</g>
<path d="M610.005 359.889C618.846 374.048 613.364 389.278 607.672 399.679C606.074 399.808 605.186 400.288 603.617 400.774C589.367 405.157 582.353 403.99 567.627 406.094C564.456 406.547 554.745 405.045 550.82 404.186L543.523 402.451C543.523 402.451 527.322 367.621 546.008 356.268C564.695 344.915 553.504 309.882 549.864 290.589C547.628 278.742 550.4 272.609 550.276 268.124C548.976 220.65 533.529 207.889 542.59 192.192C552.593 174.862 574.28 185.452 586.159 167.176C599.568 146.54 580.91 119.179 597.972 102.485C600.897 99.622 603.979 96.7593 609.065 94.7816C621.618 89.8934 632.731 96.4968 641.006 85.1055C657.639 62.2034 687.414 52.2243 707.9 72.9793C728.118 93.4647 710.722 138.541 659.984 177.513C627.062 209.339 627.394 218.109 632.399 239.15C635.904 253.889 655.17 291.524 634.997 308.632C614.824 325.739 599.909 343.703 610.005 359.889Z" fill="url(#paint1_linear_61_3227)"/>
<g style="mix-blend-mode:soft-light" opacity="0.5">
<g style="mix-blend-mode:soft-light">
<path d="M575.395 406.085L574.3 406.04C574.49 399.99 574.762 393.892 575.111 387.909C577.682 343.655 584.622 301.289 595.734 261.981C605.151 228.675 617.682 197.092 632.998 168.123C645.31 144.823 659.478 123.071 675.097 103.473C686.071 89.6957 697.665 77.1187 709.529 66.0899C711.597 64.1671 713.823 62.3111 715.987 60.5147C718.864 58.1291 721.836 55.648 724.444 53L725.257 53.6918C722.614 56.3757 719.623 58.8663 716.726 61.2757C714.579 63.0626 712.358 64.9114 710.311 66.8128C698.483 77.8082 686.932 90.347 675.982 104.086C660.397 123.627 646.267 145.336 633.983 168.577C618.715 197.493 606.193 229.007 596.796 262.248C585.7 301.487 578.773 343.789 576.203 387.971C575.857 393.94 575.576 400.03 575.395 406.085Z" fill="#FCFDFE"/>
</g>
<g style="mix-blend-mode:soft-light">
<path d="M616.942 204.559L615.909 204.203C631.766 163.354 606.844 91.9283 606.605 91.2126L607.645 90.9072C607.889 91.6277 632.926 163.383 616.942 204.559Z" fill="#FCFDFE"/>
</g>
<g style="mix-blend-mode:soft-light">
<path d="M583.448 322.589L582.382 322.35C589.637 293.372 644.303 267.345 644.854 267.085L645.362 267.994C644.809 268.24 590.586 294.059 583.448 322.589Z" fill="#FCFDFE"/>
</g>
<g style="mix-blend-mode:soft-light">
<path d="M580.865 339.375L579.772 339.311C580.824 319.866 571.019 292.681 552.197 262.763C551.242 261.26 551.242 261.26 551.259 261.067L552.354 261.12L551.805 261.093L552.321 260.929C552.371 261.036 552.729 261.604 553.141 262.262C572.071 292.35 581.917 319.737 580.865 339.375Z" fill="#FCFDFE"/>
</g>
<g style="mix-blend-mode:soft-light">
<path d="M575.909 395.04L574.876 394.687C582.589 374.56 614.955 364.43 615.291 364.33L615.649 365.284C615.327 365.394 583.448 375.373 575.909 395.04Z" fill="#FCFDFE"/>
</g>
<g style="mix-blend-mode:soft-light">
<path d="M573.753 406.275C567.918 389.759 556.803 374.188 539.772 358.672L540.533 357.956C557.695 373.594 568.9 389.301 574.793 405.976L573.753 406.275Z" fill="#FCFDFE"/>
</g>
<g style="mix-blend-mode:soft-light">
<path d="M666.985 115.767L665.976 115.359C676.165 93.1226 681.275 67.4938 682.955 59.0725C683.36 57.0328 683.506 56.3171 683.604 56.0762L684.632 56.4459C684.558 56.6296 684.327 57.7962 684.033 59.2705C682.349 67.7204 677.222 93.428 666.985 115.767Z" fill="#FCFDFE"/>
</g>
<g style="mix-blend-mode:soft-light">
<path d="M644.616 149.571L643.778 148.908C659.574 131.679 708.527 128.541 710.602 128.415L710.69 129.429C710.187 129.46 660.117 132.666 644.616 149.571Z" fill="#FCFDFE"/>
</g>
</g>
<path d="M567.708 282.443L521.712 283.862C521.712 283.862 512.32 260.529 523.079 243.536C545.033 208.85 513.123 192.036 500.809 183.005C482.241 169.375 473.685 151.287 495.123 138.722C519.381 124.515 496.53 89.3586 463.376 71.6675C430.925 54.3549 442.977 -13.318 516.651 17.698C560.649 36.2237 555.272 82.4325 558.104 106.414C560.936 130.395 596.757 131.284 585.411 161.033C575.731 186.439 556.431 205.353 572.122 222.135C587.813 238.917 589.981 258.211 567.708 282.443Z" fill="url(#paint2_linear_61_3227)"/>
<g style="mix-blend-mode:soft-light" opacity="0.5">
<g style="mix-blend-mode:soft-light">
<path d="M547.929 287.326L546.969 287.179C547.052 286.584 555.876 226.987 546.802 165.268C538.443 108.41 512.747 38.0655 437.798 25.8368L437.954 24.8779C471.316 30.321 497.863 47.5332 516.853 76.0358C532.02 98.8113 542.423 128.785 547.767 165.147C556.858 227.006 548.02 286.728 547.929 287.326Z" fill="#BEB8F2"/>
</g>
<g style="mix-blend-mode:soft-light">
<path d="M524.274 88.2887L523.306 88.1982C526.311 56.0017 512.687 10.8182 512.551 10.3646L513.489 10.0827C513.615 10.5313 527.295 55.9078 524.274 88.2887Z" fill="#BEB8F2"/>
</g>
<g style="mix-blend-mode:soft-light">
<path d="M511.101 69.6444C477.784 50.2852 447.543 60.9989 447.242 61.1095L446.906 60.1968C447.212 60.0853 477.863 49.2079 511.589 68.8055L511.101 69.6444Z" fill="#BEB8F2"/>
</g>
<g style="mix-blend-mode:soft-light">
<path d="M550.538 205.941C538.268 160.493 475.651 151.182 475.034 151.142L475.033 150.172C475.643 150.153 539.098 159.835 551.475 205.688L550.538 205.941Z" fill="#BEB8F2"/>
</g>
<g style="mix-blend-mode:soft-light">
<path d="M550.236 186.53L549.279 186.362C554.496 156.777 585.751 135.566 586.066 135.355L586.607 136.164C586.298 136.372 555.375 157.357 550.236 186.53Z" fill="#BEB8F2"/>
</g>
<g style="mix-blend-mode:soft-light">
<path d="M548.15 277.771C546.201 259.994 520.323 246.667 520.062 246.543L520.501 245.675C521.586 246.226 547.107 259.371 549.114 277.672L548.15 277.771Z" fill="#BEB8F2"/>
</g>
<g style="mix-blend-mode:soft-light">
<path d="M550.429 263.686L549.467 263.552C551.416 249.546 571.997 233.377 578.76 228.064C579.715 227.313 580.54 226.665 580.664 226.521L581.41 227.144C581.238 227.35 580.691 227.781 579.358 228.832C572.679 234.083 552.325 250.07 550.429 263.686Z" fill="#BEB8F2"/>
</g>
</g>
<defs>
<linearGradient id="paint0_linear_61_3227" x1="33.0285" y1="294.132" x2="322.379" y2="535.677" gradientUnits="userSpaceOnUse">
<stop stop-color="#AA80F9"/>
<stop offset="1" stop-color="#6165D7"/>
</linearGradient>
<linearGradient id="paint1_linear_61_3227" x1="663.094" y1="51.2483" x2="516.501" y2="460.892" gradientUnits="userSpaceOnUse">
<stop stop-color="#E38DDD"/>
<stop offset="1" stop-color="#9571F6"/>
</linearGradient>
<linearGradient id="paint2_linear_61_3227" x1="420.126" y1="99.4209" x2="611.361" y2="198.329" gradientUnits="userSpaceOnUse">
<stop stop-color="#FFC444"/>
<stop offset="1" stop-color="#F36F56"/>
</linearGradient>
</defs>
</svg>
