<svg width="1917" height="826" viewBox="0 0 1917 826" fill="none" xmlns="http://www.w3.org/2000/svg">
<path d="M-235.881 645.025L-259.811 731.413C-259.811 731.413 -219.292 759.146 -181.654 746.073C-104.866 719.395 -87.2715 786.937 -75.5729 814.09C-57.9303 855.04 -27.1054 878.957 6.92538 843.792C45.4316 804.003 102.458 862.253 121.179 932.533C139.499 1001.31 275.132 1007.47 249.469 854.868C234.138 763.733 142.84 754.131 98.0468 738.513C53.2539 722.895 68.0658 654.769 5.65368 663.477C-47.6557 670.913 -92.8946 699.321 -117.922 662.466C-142.95 625.61 -179.04 613.268 -235.881 645.025Z" fill="url(#paint0_linear_61_3151)"/>
<g style="mix-blend-mode:soft-light" opacity="0.5">
<g style="mix-blend-mode:soft-light">
<path d="M-254.385 680.343L-254.554 682.221C-253.368 682.305 -134.747 691.132 -20.2995 734.7C85.1461 774.834 208.515 853.533 197.467 1000.51L199.383 1000.63C204.305 935.195 183.44 877.632 137.425 829.521C100.653 791.09 47.819 758.589 -19.6118 732.925C-134.326 689.268 -253.196 680.426 -254.385 680.343Z" fill="#BEB8F2"/>
</g>
<g style="mix-blend-mode:soft-light">
<path d="M117.292 810.243L117.02 812.109C180.291 820.203 260.861 865.301 261.668 865.757L262.648 864.116C261.831 863.664 180.939 818.393 117.292 810.243Z" fill="#BEB8F2"/>
</g>
<g style="mix-blend-mode:soft-light">
<path d="M-96.75 710.232C-15.0426 752.883 -26.0094 875.287 -26.2193 876.47L-24.3551 876.89C-24.0382 875.743 -13.4006 751.597 -95.8328 708.567L-96.75 710.232Z" fill="#BEB8F2"/>
</g>
<g style="mix-blend-mode:soft-light">
<path d="M-59.5767 719.1L-59.6955 720.985C-0.427363 723.792 54.7534 673.738 55.3018 673.232L54.0001 671.865C53.454 672.367 -1.13556 721.873 -59.5767 719.1Z" fill="#BEB8F2"/>
</g>
</g>
<path d="M1854.86 -57.9733L1806.63 -134.794C1806.63 -134.794 1758.14 -124.51 1742.15 -88.2227C1709.53 -14.1862 1646.96 -47.9282 1618.64 -58.1396C1575.93 -73.5398 1536.94 -67.6569 1539.94 -18.7761C1543.33 36.5318 1460.72 37.7751 1395.33 2.96518C1331.34 -31.1006 1233.87 62.9913 1365.59 149.441C1444.25 201.066 1513.94 141.485 1556.29 119.762C1598.64 98.0395 1639.46 155.678 1675.68 104.435C1706.62 60.6664 1716.34 8.31179 1761.05 15.5393C1805.75 22.7667 1839.69 5.09819 1854.86 -57.9733Z" fill="url(#paint1_linear_61_3151)"/>
<g style="mix-blend-mode:soft-light" opacity="0.5">
<g style="mix-blend-mode:soft-light">
<path d="M1841.11 -95.7001L1839.82 -97.1155C1838.95 -96.3137 1751.13 -16.3909 1640.18 36.5893C1537.96 85.4072 1394.62 120.671 1292.25 11.4784L1290.85 12.788C1336.43 61.4006 1393.77 85.9014 1461.26 85.6616C1515.18 85.4589 1575.67 69.529 1641.03 38.3103C1752.23 -14.8025 1840.24 -94.8952 1841.11 -95.7001Z" fill="#BEB8F2"/>
</g>
<g style="mix-blend-mode:soft-light">
<path d="M1489.46 84.3363L1488.25 82.8541C1438.88 123.153 1349.98 150.519 1349.09 150.791L1349.64 152.631C1350.54 152.35 1439.79 124.869 1489.46 84.3363Z" fill="#BEB8F2"/>
</g>
<g style="mix-blend-mode:soft-light">
<path d="M1444.49 83.2758C1376.2 50.041 1360.5 -11.2121 1360.35 -11.8262L1358.49 -11.3737C1358.64 -10.747 1374.53 51.345 1443.65 84.9963L1444.49 83.2758Z" fill="#BEB8F2"/>
</g>
<g style="mix-blend-mode:soft-light">
<path d="M1710.82 -1.99222C1622.98 27.8832 1538.93 -64.3334 1538.19 -65.3L1536.6 -64.2375C1537.24 -63.2182 1622.81 29.9586 1711.44 -0.181136L1710.82 -1.99222Z" fill="#BEB8F2"/>
</g>
<g style="mix-blend-mode:soft-light">
<path d="M1678.74 18.8517L1677.41 17.4681C1634.73 58.5047 1634.39 132.968 1634.39 133.714L1636.3 133.711C1636.3 132.97 1636.65 59.3122 1678.74 18.8517Z" fill="#BEB8F2"/>
</g>
<g style="mix-blend-mode:soft-light">
<path d="M1805.18 -65.6318L1803.91 -67.0379C1783.14 -48.456 1779.31 2.98391 1778.04 19.8896C1777.87 22.2784 1777.71 24.3381 1777.61 24.7008L1779.45 25.2368C1779.6 24.7257 1779.7 23.3557 1779.95 20.03C1781.19 3.29602 1784.98 -47.5644 1805.18 -65.6318Z" fill="#BEB8F2"/>
</g>
</g>
<path d="M1803.2 -15.499C1795.47 -36.9034 1807.13 -55.6363 1817.7 -67.8691C1819.87 -67.5844 1821.19 -67.9762 1823.43 -68.1665C1843.68 -69.9288 1852.69 -66.3676 1872.93 -64.9542C1877.28 -64.6404 1889.79 -59.8708 1894.77 -57.5939L1904 -53.192C1904 -53.192 1915.62 -2.12354 1887.46 7.65687C1859.31 17.4373 1864.19 67.3382 1863.53 94.0869C1863.12 110.518 1857.68 117.906 1856.55 123.916C1844.69 187.569 1861.63 209.001 1845.06 227.346C1826.77 247.575 1800.89 227.261 1779.83 248.209C1756.05 271.879 1773.08 313.686 1745.57 331.056C1740.84 334.029 1735.92 336.964 1728.58 338.149C1710.44 341.07 1697.52 329.088 1683.23 341.9C1654.51 367.663 1611.96 372.45 1590.59 338.922C1569.51 305.831 1605.6 250.726 1684.39 213.288C1737.38 180.29 1739.45 168.505 1738.8 139.025C1738.35 118.38 1723.44 62.6962 1755.23 45.6681C1787.02 28.6399 1812.04 8.96836 1803.2 -15.499Z" fill="url(#paint2_linear_61_3151)"/>
<g style="mix-blend-mode:soft-light" opacity="0.5">
<g style="mix-blend-mode:soft-light">
<path d="M1862.56 -67.1642L1864.01 -66.789C1862.02 -58.7793 1859.91 -50.7307 1857.74 -42.864C1841.64 15.3869 1820.26 69.8713 1794.2 119.085C1772.12 160.782 1746.37 199.287 1717.66 233.524C1694.58 261.06 1669.48 285.997 1643.04 307.647C1624.46 322.864 1605.42 336.313 1586.45 347.619C1583.14 349.588 1579.63 351.425 1576.24 353.203C1571.73 355.567 1567.05 358.014 1562.82 360.803L1561.93 359.642C1566.22 356.822 1570.93 354.357 1575.47 351.976C1578.85 350.208 1582.33 348.375 1585.61 346.429C1604.52 335.162 1623.52 321.74 1642.04 306.577C1668.41 284.982 1693.45 260.102 1716.48 232.631C1745.12 198.463 1770.82 160.036 1792.86 118.42C1818.88 69.2897 1840.23 14.8917 1856.3 -43.267C1858.47 -51.1131 1860.57 -59.1515 1862.56 -67.1642Z" fill="#FCFDFE"/>
</g>
<g style="mix-blend-mode:soft-light">
<path d="M1749.49 189.56L1750.76 190.332C1717.95 240.247 1730.7 342.577 1730.84 343.606L1729.36 343.713C1729.23 342.681 1716.39 239.868 1749.49 189.56Z" fill="#FCFDFE"/>
</g>
<g style="mix-blend-mode:soft-light">
<path d="M1827.92 41.8288L1829.28 42.4602C1811.31 79.0097 1731 98.0534 1730.18 98.2454L1729.76 96.8851C1730.57 96.7004 1810.24 77.808 1827.92 41.8288Z" fill="#FCFDFE"/>
</g>
<g style="mix-blend-mode:soft-light">
<path d="M1836.17 20.1841L1837.61 20.5842C1830.66 46.2026 1835.93 85.2406 1852.46 130.513C1853.29 132.789 1853.29 132.789 1853.23 133.044L1851.78 132.66L1852.51 132.851L1851.77 132.924C1851.74 132.768 1851.42 131.909 1851.06 130.912C1834.43 85.3841 1829.16 46.0687 1836.17 20.1841Z" fill="#FCFDFE"/>
</g>
<g style="mix-blend-mode:soft-light">
<path d="M1864.8 -66.949C1867.85 -43.2759 1878.21 -19.3274 1896.47 6.22893L1895.25 6.97172C1876.84 -18.7703 1866.4 -42.9284 1863.32 -66.8363L1864.8 -66.949Z" fill="#FCFDFE"/>
</g>
<g style="mix-blend-mode:soft-light">
<path d="M1657.36 293.583L1658.59 294.417C1638.64 321.144 1624.49 353.841 1619.84 364.587C1618.72 367.187 1618.32 368.1 1618.12 368.395L1616.86 367.605C1617.01 367.381 1617.65 365.892 1618.46 364.012C1623.14 353.236 1637.33 320.436 1657.36 293.583Z" fill="#FCFDFE"/>
</g>
<g style="mix-blend-mode:soft-light">
<path d="M1696.86 254.933L1697.79 256.057C1671.8 274.5 1605.66 264.664 1602.85 264.244L1603.02 262.873C1603.7 262.977 1671.36 273.032 1696.86 254.933Z" fill="#FCFDFE"/>
</g>
</g>
<path d="M1810.83 -88.2587C1815.46 -86.1961 1847.91 -123.439 1852.32 -87.4437C1853.42 -78.4505 1849.11 -49.7901 1884.36 -37.7754L1904.89 -30.7745C1906.15 -13.4428 1904.13 3.13007 1881.34 2.74623C1845.96 2.15224 1829.52 56.5422 1832.95 78.577C1837.2 105.851 1845.75 169.499 1791.06 169.405C1745.55 169.331 1715.79 160.333 1698.18 210.673C1680.58 261.013 1641.96 284.076 1593.89 266.249C1543.32 247.486 1482.45 299.816 1446.48 265.298C1383.82 205.161 1482.78 112.39 1581.56 106.691C1680.34 100.992 1637.81 54.9163 1647.41 12.2673C1649.05 6.52202 1651.36 0.990511 1654.29 -4.21171C1677.29 -44.8189 1725.05 -38.6015 1768.35 -64.4655C1827.41 -99.7278 1803.04 -91.7219 1810.83 -88.2587Z" fill="url(#paint3_linear_61_3151)"/>
<g style="mix-blend-mode:soft-light" opacity="0.5">
<g style="mix-blend-mode:soft-light">
<path d="M1840.4 -45.8873L1842.65 -44.7067C1759.57 109.837 1597.1 221.626 1418.6 247.083L1418.13 244.686C1595.87 219.351 1757.67 108.014 1840.4 -45.8873Z" fill="#FCFDFE"/>
</g>
<g style="mix-blend-mode:soft-light">
<path d="M1787.42 34.3242L1789.85 35.0656C1770.6 101.316 1815.36 171.224 1815.81 171.923L1813.7 173.143C1813.25 172.441 1767.88 101.625 1787.42 34.3242Z" fill="#FCFDFE"/>
</g>
<g style="mix-blend-mode:soft-light">
<path d="M1824.3 -17.9022L1826.12 -16.1531C1775.34 32.6993 1644.33 1.76161 1643.01 1.44037L1643.52 -0.908355C1644.83 -0.584132 1774.48 30.0226 1824.3 -17.9022Z" fill="#FCFDFE"/>
</g>
<g style="mix-blend-mode:soft-light">
<path d="M1659.46 151.471L1661.42 153.071C1624.88 195.125 1636.65 280.619 1636.76 281.473L1634.27 281.704C1634.15 280.838 1622.24 194.302 1659.46 151.471Z" fill="#FCFDFE"/>
</g>
<g style="mix-blend-mode:soft-light">
<path d="M1559.36 205.589L1560.06 207.943C1496.33 223.078 1417.03 179.704 1416.23 179.276L1417.42 177.19C1418.2 177.628 1496.63 220.484 1559.36 205.589Z" fill="#FCFDFE"/>
</g>
</g>
<path d="M1815.14 954.654C1812.36 953.467 1793.35 975.988 1790.39 954.559C1789.65 949.205 1791.95 932.069 1770.8 925.236L1758.5 921.253C1757.58 910.927 1758.63 901.023 1772.22 901.037C1793.33 901.058 1802.63 868.46 1800.37 855.35C1797.58 839.121 1791.88 801.238 1824.5 800.778C1851.65 800.393 1869.48 805.479 1879.51 775.286C1889.54 745.094 1912.35 730.973 1941.19 741.153C1971.54 751.867 2007.35 720.08 2029.13 740.329C2067.07 775.608 2008.92 831.877 1950.06 836.209C1891.19 840.54 1916.99 867.622 1911.67 893.151C1910.75 896.593 1909.42 899.915 1907.72 903.045C1894.38 927.483 1865.84 924.225 1840.25 940.061C1805.36 961.651 1819.82 956.646 1815.14 954.654Z" fill="url(#paint4_linear_61_3151)"/>
<g style="mix-blend-mode:soft-light" opacity="0.5">
<g style="mix-blend-mode:soft-light">
<path d="M1797.1 929.66L1795.75 928.977C1843.85 836.013 1939.7 767.801 2045.93 750.932L2046.23 752.357C1940.46 769.146 1845 837.082 1797.1 929.66Z" fill="#FCFDFE"/>
</g>
<g style="mix-blend-mode:soft-light">
<path d="M1827.95 881.317L1826.49 880.898C1837.35 841.2 1809.99 799.923 1809.71 799.511L1810.97 798.763C1811.24 799.177 1838.97 840.989 1827.95 881.317Z" fill="#FCFDFE"/>
</g>
<g style="mix-blend-mode:soft-light">
<path d="M1903.17 810.234L1901.98 809.298C1923.38 783.87 1915.56 732.986 1915.48 732.477L1916.97 732.316C1917.04 732.831 1924.96 784.335 1903.17 810.234Z" fill="#FCFDFE"/>
</g>
</g>
<defs>
<linearGradient id="paint0_linear_61_3151" x1="-11.123" y1="961.663" x2="0.675827" y2="637.58" gradientUnits="userSpaceOnUse">
<stop stop-color="#FFC444"/>
<stop offset="1" stop-color="#F36F56"/>
</linearGradient>
<linearGradient id="paint1_linear_61_3151" x1="1464.13" y1="-113.006" x2="1695.12" y2="121.939" gradientUnits="userSpaceOnUse">
<stop stop-color="#FFC444"/>
<stop offset="1" stop-color="#F36F56"/>
</linearGradient>
<linearGradient id="paint2_linear_61_3151" x1="1635.1" y1="376.333" x2="1945.77" y2="-125.037" gradientUnits="userSpaceOnUse">
<stop stop-color="#E38DDD"/>
<stop offset="1" stop-color="#9571F6"/>
</linearGradient>
<linearGradient id="paint3_linear_61_3151" x1="1526.27" y1="274.495" x2="1894.59" y2="-54.8364" gradientUnits="userSpaceOnUse">
<stop stop-color="#AA80F9"/>
<stop offset="1" stop-color="#6165D7"/>
</linearGradient>
<linearGradient id="paint4_linear_61_3151" x1="1981.45" y1="735.597" x2="1764.87" y2="935.508" gradientUnits="userSpaceOnUse">
<stop stop-color="#AA80F9"/>
<stop offset="1" stop-color="#6165D7"/>
</linearGradient>
</defs>
</svg>
