<svg width="249" height="103" viewBox="0 0 249 103" fill="none" xmlns="http://www.w3.org/2000/svg">
<path d="M-55.0255 87.3053C-64.0958 101.318 -80.2129 102.815 -92.0467 102.074C-92.8415 100.681 -93.6522 100.081 -94.7589 98.866C-104.773 87.822 -106.692 80.9758 -114.845 68.5331C-116.601 65.8544 -119.36 56.4223 -120.248 52.5042L-121.773 45.1601C-121.773 45.1601 -97.1065 15.7125 -78.8977 27.8172C-60.6889 39.922 -33.7131 14.9249 -17.7874 3.44318C-8.00782 -3.60726 -1.27764 -3.6992 2.73106 -5.71435C45.169 -27.0332 50.1708 -46.4349 68.2295 -44.89C88.1657 -43.1841 87.7775 -19.0521 109.367 -16.05C133.742 -12.662 150.603 -41.1657 172.959 -32.7983C176.792 -31.3644 180.692 -29.7879 184.641 -26.0212C194.393 -16.7277 193.128 -3.86351 206.955 -1.20244C234.75 4.14254 256.419 26.8713 246.316 54.2271C236.343 81.2267 188.144 84.5982 131.328 55.1876C88.54 38.8786 80.7395 42.8995 63.8093 56.3588C51.9499 65.7852 26.0433 99.199 1.99339 88.1897C-22.0566 77.1804 -44.6513 71.2957 -55.0255 87.3053Z" fill="url(#paint0_linear_61_3215)"/>
<defs>
<linearGradient id="paint0_linear_61_3215" x1="246.985" y1="4.43476" x2="-186.158" y2="45.485" gradientUnits="userSpaceOnUse">
<stop stop-color="#E38DDD"/>
<stop offset="1" stop-color="#9571F6"/>
</linearGradient>
</defs>
</svg>
