<svg width="569" height="181" viewBox="0 0 569 181" fill="none" xmlns="http://www.w3.org/2000/svg">
<mask id="path-1-inside-1_61_3115" fill="white">
<path fill-rule="evenodd" clip-rule="evenodd" d="M70.7273 0C56.9202 0 45.7273 11.1929 45.7273 25V30.6004L0.00564481 22.4441L45.7273 53.8808V156C45.7273 169.807 56.9201 181 70.7272 181H543.006C556.813 181 568.006 169.807 568.006 156V25C568.006 11.1929 556.813 0 543.006 0H70.7273Z"/>
</mask>
<path fill-rule="evenodd" clip-rule="evenodd" d="M70.7273 0C56.9202 0 45.7273 11.1929 45.7273 25V30.6004L0.00564481 22.4441L45.7273 53.8808V156C45.7273 169.807 56.9201 181 70.7272 181H543.006C556.813 181 568.006 169.807 568.006 156V25C568.006 11.1929 556.813 0 543.006 0H70.7273Z" fill="white"/>
<path d="M45.7273 30.6004L45.2004 33.5538L48.7273 34.183V30.6004H45.7273ZM0.00564481 22.4441L0.532502 19.4907L-1.69405 24.9161L0.00564481 22.4441ZM45.7273 53.8808H48.7273V52.3027L47.427 51.4087L45.7273 53.8808ZM48.7273 25C48.7273 12.8497 58.577 3 70.7273 3V-3C55.2633 -3 42.7273 9.53603 42.7273 25H48.7273ZM48.7273 30.6004V25H42.7273V30.6004H48.7273ZM-0.521212 25.3975L45.2004 33.5538L46.2541 27.6471L0.532502 19.4907L-0.521212 25.3975ZM47.427 51.4087L1.70534 19.972L-1.69405 24.9161L44.0276 56.3528L47.427 51.4087ZM48.7273 156V53.8808H42.7273V156H48.7273ZM70.7272 178C58.577 178 48.7273 168.15 48.7273 156H42.7273C42.7273 171.464 55.2633 184 70.7272 184V178ZM543.006 178H70.7272V184H543.006V178ZM565.006 156C565.006 168.15 555.156 178 543.006 178V184C558.47 184 571.006 171.464 571.006 156H565.006ZM565.006 25V156H571.006V25H565.006ZM543.006 3C555.156 3 565.006 12.8497 565.006 25H571.006C571.006 9.53603 558.47 -3 543.006 -3V3ZM70.7273 3H543.006V-3H70.7273V3Z" fill="#589BFF" mask="url(#path-1-inside-1_61_3115)"/>
</svg>
