<svg width="16" height="15" viewBox="0 0 16 15" fill="none" xmlns="http://www.w3.org/2000/svg">
<path fill-rule="evenodd" clip-rule="evenodd" d="M13.625 14.0625C13.8736 14.0625 14.1121 13.9637 14.2879 13.7879C14.4637 13.6121 14.5625 13.3736 14.5625 13.125L14.5625 1.875C14.5625 1.62636 14.4637 1.3879 14.2879 1.21209C14.1121 1.03627 13.8736 0.9375 13.625 0.9375L2.375 0.937499C2.12636 0.937499 1.8879 1.03627 1.71209 1.21209C1.53627 1.3879 1.4375 1.62636 1.4375 1.875L1.4375 13.125C1.4375 13.3736 1.53627 13.6121 1.71209 13.7879C1.8879 13.9637 2.12636 14.0625 2.375 14.0625L13.625 14.0625ZM13.625 -8.19589e-08C14.1223 -6.0222e-08 14.5992 0.197544 14.9508 0.549175C15.3025 0.900806 15.5 1.37772 15.5 1.875L15.5 13.125C15.5 13.6223 15.3025 14.0992 14.9508 14.4508C14.5992 14.8025 14.1223 15 13.625 15L2.375 15C1.87772 15 1.4008 14.8025 1.04917 14.4508C0.697543 14.0992 0.499999 13.6223 0.499999 13.125L0.5 1.875C0.5 1.37772 0.697544 0.900805 1.04918 0.549174C1.40081 0.197543 1.87772 -5.95449e-07 2.375 -5.73712e-07L13.625 -8.19589e-08ZM5.37219 5.48812C5.28417 5.40023 5.23467 5.28097 5.23458 5.15658C5.23449 5.03219 5.28382 4.91286 5.37172 4.82484C5.45961 4.73682 5.57887 4.68733 5.70326 4.68724C5.82765 4.68715 5.94698 4.73648 6.035 4.82437L9.875 8.66531L9.875 6.07031C9.875 5.94599 9.92439 5.82676 10.0123 5.73886C10.1002 5.65095 10.2194 5.60156 10.3437 5.60156C10.4681 5.60156 10.5873 5.65095 10.6752 5.73886C10.7631 5.82676 10.8125 5.94599 10.8125 6.07031L10.8125 9.79687C10.8125 9.92119 10.7631 10.0404 10.6752 10.1283C10.5873 10.2162 10.4681 10.2656 10.3437 10.2656L6.61719 10.2656C6.49287 10.2656 6.37364 10.2162 6.28573 10.1283C6.19782 10.0404 6.14844 9.92119 6.14844 9.79687C6.14844 9.67255 6.19782 9.55333 6.28573 9.46542C6.37364 9.37751 6.49287 9.32812 6.61719 9.32812L9.21219 9.32812L5.37219 5.48812Z" fill="#F9223C"/>
</svg>
