<svg width="16" height="15" viewBox="0 0 16 15" fill="none" xmlns="http://www.w3.org/2000/svg">
<path fill-rule="evenodd" clip-rule="evenodd" d="M14.5625 1.875C14.5625 1.62636 14.4637 1.3879 14.2879 1.21209C14.1121 1.03627 13.8736 0.9375 13.625 0.9375H2.375C2.12636 0.9375 1.8879 1.03627 1.71209 1.21209C1.53627 1.3879 1.4375 1.62636 1.4375 1.875V13.125C1.4375 13.3736 1.53627 13.6121 1.71209 13.7879C1.8879 13.9637 2.12636 14.0625 2.375 14.0625H13.625C13.8736 14.0625 14.1121 13.9637 14.2879 13.7879C14.4637 13.6121 14.5625 13.3736 14.5625 13.125V1.875ZM0.5 1.875C0.5 1.37772 0.697544 0.900806 1.04917 0.549175C1.40081 0.197544 1.87772 0 2.375 0L13.625 0C14.1223 0 14.5992 0.197544 14.9508 0.549175C15.3025 0.900806 15.5 1.37772 15.5 1.875V13.125C15.5 13.6223 15.3025 14.0992 14.9508 14.4508C14.5992 14.8025 14.1223 15 13.625 15H2.375C1.87772 15 1.40081 14.8025 1.04917 14.4508C0.697544 14.0992 0.5 13.6223 0.5 13.125V1.875ZM5.98812 10.1278C5.90023 10.2158 5.78097 10.2653 5.65658 10.2654C5.53219 10.2655 5.41286 10.2162 5.32484 10.1283C5.23682 10.0404 5.18733 9.92113 5.18724 9.79674C5.18715 9.67235 5.23648 9.55302 5.32438 9.465L9.16531 5.625H6.57031C6.44599 5.625 6.32676 5.57561 6.23886 5.48771C6.15095 5.3998 6.10156 5.28057 6.10156 5.15625C6.10156 5.03193 6.15095 4.9127 6.23886 4.82479C6.32676 4.73689 6.44599 4.6875 6.57031 4.6875H10.2969C10.4212 4.6875 10.5404 4.73689 10.6283 4.82479C10.7162 4.9127 10.7656 5.03193 10.7656 5.15625V8.88281C10.7656 9.00713 10.7162 9.12636 10.6283 9.21427C10.5404 9.30218 10.4212 9.35156 10.2969 9.35156C10.1726 9.35156 10.0533 9.30218 9.96542 9.21427C9.87751 9.12636 9.82812 9.00713 9.82812 8.88281V6.28781L5.98812 10.1278Z" fill="#257D2E"/>
</svg>
